<?xml version="1.0" encoding="UTF-8" standalone="no"?>
<!-- Created with Inkscape (http://www.inkscape.org/) -->

<svg
   xmlns:dc="http://purl.org/dc/elements/1.1/"
   xmlns:cc="http://creativecommons.org/ns#"
   xmlns:rdf="http://www.w3.org/1999/02/22-rdf-syntax-ns#"
   xmlns:svg="http://www.w3.org/2000/svg"
   xmlns="http://www.w3.org/2000/svg"
   version="1.1"
   width="621.77399"
   height="394.38504"
   viewBox="0 0 621.77399 394.38504"
   id="Layer_1"
   xml:space="preserve"><metadata
     id="metadata3664"><rdf:RDF><cc:Work
         rdf:about=""><dc:format>image/svg+xml</dc:format><dc:type
           rdf:resource="http://purl.org/dc/dcmitype/StillImage" /><dc:title></dc:title></cc:Work></rdf:RDF></metadata><defs
     id="defs3662" /><g
     id="layer1"><g
       transform="translate(-304.328,-240.42196)"
       id="g3406"><path
         d="m 362.504,628.492 c 0.019,-0.135 0.015,-0.266 -0.011,-0.398 1.08,-3.031 2.77,-5.666 5.146,-7.851 0.085,-0.243 -0.308,-0.696 -0.558,-0.577 -3.363,1.143 -3.363,1.143 -5.576,0.792 1.236,-2.753 3.472,-4.259 5.939,-5.56 2.566,-1.354 4.808,-1.567 7.835,-1.467 -0.758,-1.896 0.237,-3.126 1.206,-4.545 -1.01,-0.558 -1.709,0.043 -2.656,-0.49 0.105,-2.656 1.814,-4.197 4.158,-5.57 -2.049,-0.511 -3.798,0.239 -5.566,0.22 -1.85,-0.019 -3.703,0.103 -5.703,-0.732 1.98,-3.576 5.402,-4.172 8.953,-4.511 -0.244,-1.186 -1.558,-1.414 -1.775,-2.529 1.325,-1.021 2.803,-1.035 4.351,-0.611 1.55,-0.678 2.513,0.803 3.909,1.062 0.564,-1.961 0.548,-4.062 1.307,-5.981 0.817,-0.058 0.846,-0.792 1.101,-1.313 0.436,-0.897 0.817,-1.821 1.269,-2.71 0.211,-0.419 0.57,-0.78 1.084,-0.737 0.645,0.053 0.9,0.585 0.988,1.123 0.241,1.512 0.426,3.035 0.655,4.703 1.337,-0.699 1.96,-2.176 3.354,-2.859 0.623,1.138 -0.154,2.074 -0.272,3.057 -0.146,0.275 0.21,0.195 0.328,0.275 0.255,0.176 -0.097,0.222 0.173,0.184 1.364,-1.92 2.9,-3.628 5.348,-4.129 1.027,-0.209 1.503,-1.043 2.068,-1.74 3.35,-4.141 6.908,-8.093 10.701,-11.822 4.898,-4.812 10.041,-9.357 15.672,-13.299 1.899,-1.328 2.639,-3.006 5.039,-4.393 -1.963,0.006 -2.752,0.398 -4.203,-0.062 -0.652,-0.207 -1.436,-0.23 -1.629,-1.07 -0.206,-0.912 0.445,-1.416 1.038,-1.912 0.905,-0.756 2.113,-0.885 3.241,-1.434 -0.224,-0.594 -1.059,-0.445 -1.096,-1.051 -0.037,-0.643 0.43,-0.948 0.877,-1.245 1.621,-1.079 3.498,-1.057 5.334,-1.187 0.269,-0.02 0.561,0.195 0.853,-0.164 -1.533,-0.75 -3.061,-1.451 -4.54,-2.242 -0.793,-0.422 -1.889,-0.873 -1.584,-1.992 0.357,-1.316 1.619,-0.91 2.562,-0.838 0.675,0.048 1.286,-0.023 1.951,0.166 0.486,0.078 0.231,0.549 0,0 -0.564,-0.746 -0.428,-1.783 -0.662,-2.691 -0.135,-0.52 -0.34,-1.1 0.109,-1.529 0.468,-0.447 1.043,-0.199 1.504,0.062 1.275,0.719 2.505,1.517 3.78,2.238 0.793,0.447 1.466,1.093 2.469,1.158 1.843,0.539 2.624,2.312 3.481,3.758 0.936,1.578 1.895,1.67 3.354,0.836 0.907,-0.52 1.764,-1.235 2.898,-1.261 0.546,0.083 1.056,-0.005 1.565,-0.233 7.935,-3.525 16.214,-6.012 24.623,-8.101 1.86,0.563 3.767,0.653 5.702,0.651 24.975,-0.018 49.949,-0.012 74.926,-0.013 0.925,0 1.849,-0.019 2.772,0.059 13.462,-0.109 26.923,-0.05 40.387,-0.032 0.462,0 0.921,0.045 1.368,0.143 0.643,0.166 1.125,0.484 1.105,1.252 -0.113,4.307 3.048,6.303 5.992,8.435 1.05,0.758 20.283,7.282 28.424,8.229 7.793,0.908 15.625,1.399 23.404,2.391 2.291,0.29 4.59,0.531 6.842,1.052 0.58,0.151 1.143,0.366 1.691,0.604 0.137,0.062 19.602,4.593 26.617,10.468 5.027,4.213 6.104,10.002 3.322,16.141 -2.344,5.17 -6.189,8.988 -10.98,11.896 -7.764,4.71 -16.182,8.002 -24.666,11.103 -17.074,6.246 -34.803,9.433 -52.841,11.239 -24.406,2.443 -48.853,4.551 -73.128,8.16 -1.229,0.182 -2.463,0.174 -3.697,0.174 -54.027,0 -108.053,0 -162.08,-0.003 -1.08,0 -2.162,0.067 -3.223,-0.166 -1.056,-0.194 -0.912,-0.989 -0.784,-1.769 -1.259,0.562 -2.344,1.307 -3.606,1.684 -0.713,0.096 -1.42,0.164 -1.939,-0.496 z"
         id="path3408"
         style="fill:#b6ce59;fill-rule:evenodd" /><path
         d="m 560.367,538.693 c -0.77,0.025 -1.539,0.08 -2.308,0.08 -26.036,0.002 -51.946,-0.363 -77.984,-0.365 -1.21,0 -2.792,0.161 -3.268,-1.475 -1.595,-6.302 -1.327,-12.188 -0.513,-18.565 2.184,-17.062 7.234,-33.376 12.938,-49.52 0.974,-2.757 1.975,-5.505 2.957,-8.257 0.021,-0.063 -0.025,-0.15 -0.063,-0.332 -0.798,-0.438 -1.759,-0.051 -2.624,-0.289 0.502,-1.457 1.721,-0.951 2.716,-0.956 5.99,-0.04 11.978,-0.106 17.962,-0.404 0.533,-0.028 1.064,-0.175 1.604,-0.182 10.917,-0.14 21.824,-0.637 32.735,-0.964 2.988,0.096 5.975,0.208 8.947,-0.311 1.057,-0.184 2.143,-0.242 3.137,0.339 1.205,2.212 1.046,4.654 1.176,7.048 0.016,0.566 0.084,1.137 0.013,1.705 0.509,5.981 0.312,11.994 0.786,17.975 0.416,3.214 0.444,6.474 0.5,9.681 0.101,5.772 0.446,11.534 0.683,17.292 0.335,8.143 0.634,16.294 1.122,24.434 0.064,1.068 0.349,2.158 -0.516,3.066 z"
         id="path3410"
         style="fill:#ecc96c;fill-rule:evenodd" /><path
         d="m 560.367,538.693 c 0.533,-0.572 0.611,-1.377 0.512,-2.109 -0.104,-0.747 -0.165,-1.51 -0.23,-2.263 l -0.396,-4.528 c -0.254,-3.021 -0.515,-6.046 -0.72,-9.066 l -1.27,-18.146 -0.5,-9.091 c -0.052,-1.516 -0.12,-3.017 -0.205,-4.502 l -0.168,-2.184 -0.274,-2.255 -0.358,-4.627 -0.218,-4.56 -0.201,-4.514 -0.334,-4.451 0.008,-0.376 c -0.004,-0.118 0.018,-0.19 0.008,-0.343 -0.003,-0.129 -0.008,-0.279 -0.023,-0.479 l -0.064,-1.109 c -0.043,-0.766 -0.066,-1.499 -0.122,-2.186 -0.101,-1.378 -0.352,-2.549 -0.894,-3.494 l 0.719,0.74 c -0.265,-0.123 -0.531,-0.195 -1.004,-0.169 -0.383,0.016 -1.145,0.171 -1.906,0.286 -1.512,0.213 -3.01,0.297 -4.477,0.314 -0.731,0.008 -1.457,0 -2.174,-0.014 l -1.065,-0.021 -0.53,-0.013 h -0.017 c -0.031,0 0.228,10e-4 0.111,10e-4 l -0.034,0.001 -0.066,0.003 -0.132,0.005 -0.265,0.013 -4.232,0.178 c -5.645,0.232 -11.292,0.506 -16.934,0.673 l -8.461,0.271 -2.117,0.058 -0.532,0.018 c -0.087,0.015 -0.116,10e-4 -0.278,0.029 l -0.568,0.082 c -0.301,0.041 -0.279,0.035 -0.664,0.069 l -4.271,0.154 -4.27,0.155 -4.238,0.072 -4.233,0.061 -1.092,0.016 c -0.611,-0.01 -0.985,-0.073 -1.16,-0.074 -0.208,-0.016 -0.037,0.057 0.328,-0.148 0.168,-0.111 0.295,-0.23 0.353,-0.328 0.026,-0.036 0.042,-0.059 0.052,-0.088 0.006,0 0.007,-0.002 0.004,-0.007 l -1.625,-3.081 c -0.054,-0.018 -0.037,-0.004 0.069,-0.004 l 0.554,-0.017 c 0.264,-0.007 0.608,-0.016 1.045,0.04 0.434,0.053 0.976,0.193 1.475,0.469 l 0.279,0.155 0.918,1.473 c 0.006,0.01 -0.018,-0.069 0.006,0.015 l 0.014,0.044 c -0.015,-0.048 0.033,0.112 0.064,0.326 0.027,0.187 0.034,0.378 0.022,0.562 l -0.012,0.132 c 0.108,-0.439 -0.148,0.647 -0.129,0.549 l -0.013,0.037 -0.025,0.074 -0.056,0.151 -0.213,0.602 -0.427,1.202 -0.853,2.404 -1.72,4.795 -1.679,4.797 -1.613,4.81 c -0.551,1.599 -1.032,3.216 -1.547,4.825 -0.512,1.609 -1.015,3.221 -1.468,4.845 -0.976,3.229 -1.816,6.488 -2.66,9.747 -0.767,3.271 -1.59,6.549 -2.188,9.816 l -0.486,2.453 c -0.16,0.822 -0.273,1.676 -0.412,2.511 l -0.396,2.521 -0.199,1.26 -0.051,0.316 -0.037,0.268 -0.077,0.621 c -0.427,3.307 -0.692,6.588 -0.565,9.828 0.004,0.81 0.119,1.607 0.163,2.414 0.071,0.799 0.204,1.555 0.298,2.336 l 0.465,2.351 c 0.041,0.132 0.018,0.042 -0.053,0.015 -0.05,-0.031 0.021,0.041 0.285,0.067 l 20.217,0.407 20.415,0.498 20.409,0.619 10.205,0.359 5.102,0.211 2.553,0.105 c 0.844,0.024 1.698,0.013 2.548,0.018 z m 0,0 c -0.85,0.055 -1.698,0.13 -2.551,0.172 l -2.553,0.082 -5.104,0.162 -10.209,0.268 -20.412,0.43 -20.412,0.309 -10.203,0.105 -5.105,0.05 -2.551,0.024 -1.265,0.014 c -0.398,0.006 -0.88,0.031 -1.481,-0.023 -0.578,-0.05 -1.358,-0.203 -2.115,-0.715 -0.765,-0.524 -1.263,-1.372 -1.457,-2.057 l -0.33,-1.383 c -0.096,-0.42 -0.201,-0.818 -0.285,-1.254 -0.146,-0.902 -0.328,-1.822 -0.435,-2.715 -0.083,-0.887 -0.214,-1.779 -0.237,-2.667 -0.203,-3.564 0.027,-7.095 0.409,-10.538 l 0.07,-0.646 0.044,-0.365 0.045,-0.314 0.178,-1.265 0.354,-2.526 c 0.126,-0.846 0.222,-1.682 0.37,-2.533 l 0.462,-2.561 c 0.572,-3.435 1.336,-6.778 2.084,-10.141 0.844,-3.334 1.684,-6.667 2.656,-9.957 0.453,-1.657 0.953,-3.297 1.464,-4.932 0.511,-1.637 0.995,-3.283 1.54,-4.904 l 1.604,-4.875 1.667,-4.848 1.699,-4.82 0.867,-2.398 0.435,-1.201 0.216,-0.6 0.056,-0.15 0.026,-0.075 0.014,-0.037 c 0.031,-0.124 -0.219,0.938 -0.111,0.472 -0.004,0.027 0.014,-0.121 -0.008,0.052 -0.019,0.157 -0.018,0.323 0.005,0.485 0.026,0.187 0.069,0.32 0.049,0.25 l -0.009,-0.035 -0.07,-0.294 1.197,1.626 c 0.109,0.061 0.215,0.078 0.208,0.076 0,0 -0.105,-0.01 -0.288,-0.004 -0.181,0.002 -0.441,0.018 -0.779,0.012 -0.336,-0.008 -0.766,-0.039 -1.248,-0.171 l -2.525,-0.695 0.9,-2.387 c 0.062,-0.168 0.131,-0.333 0.203,-0.497 0.094,-0.184 0.192,-0.362 0.314,-0.547 0.266,-0.377 0.628,-0.773 1.107,-1.055 0.973,-0.582 1.889,-0.557 2.373,-0.537 l 0.952,0.072 1.024,-0.008 4.232,-0.037 4.227,-0.047 4.192,-0.128 4.191,-0.128 c -0.035,-0.004 0.341,-0.027 0.388,-0.044 l 0.48,-0.067 c 0.184,-0.032 0.51,-0.051 0.774,-0.065 l 0.524,-0.013 2.115,-0.047 8.466,-0.156 c 5.646,-0.07 11.279,-0.245 16.915,-0.378 l 4.23,-0.106 0.654,-0.012 0.529,0.022 1.048,0.039 c 0.694,0.025 1.38,0.044 2.058,0.047 1.357,0.015 2.684,-0.019 3.972,-0.165 0.638,-0.066 1.26,-0.213 2.29,-0.256 0.935,-0.039 2.104,0.174 3.068,0.75 l 0.477,0.287 0.244,0.455 c 0.894,1.681 1.154,3.518 1.226,5.098 0.04,0.799 0.042,1.553 0.06,2.272 l 0.037,1.118 c 0.008,0.173 0.01,0.394 0.008,0.637 0.006,0.219 -0.031,0.518 -0.051,0.771 l 0.006,-0.377 0.214,4.616 0.071,4.571 0.049,4.521 0.166,4.442 0.184,2.266 0.09,2.353 c 0.027,1.542 0.035,3.066 0.027,4.58 l 0.094,9.069 c 0.12,6.045 0.26,12.1 0.301,18.162 0.016,3.031 0.107,6.054 0.148,9.084 l 0.062,4.544 c 0.01,0.761 0.014,1.509 0.063,2.272 0.05,0.752 -0.104,1.594 -0.678,2.119 z"
         id="path3412"
         style="fill:#e2a647;fill-rule:evenodd" /><path
         d="m 792.906,538.645 c -27.512,0.003 -53.014,-1.355 -80.525,-1.356 -2.734,0 -3.283,-0.692 -3.283,-0.692 -1.279,-1.043 -1.07,-2.486 -1.012,-4.729 0.307,-2.265 0.607,-14.145 0.775,-16.07 0.047,-5.911 0.492,-11.807 0.701,-17.709 0.201,-5.679 1.041,-11.073 1.184,-16.751 -0.004,-1.528 0.305,-13.098 0.422,-18.066 -0.057,-0.883 0.025,-1.752 0.248,-2.607 0.656,-3.637 1.023,-4.137 4.346,-3.711 5.91,0.758 11.854,0.42 17.773,0.681 7.223,0.317 14.477,0.472 21.705,0.738 6.688,0.247 13.41,-0.082 20.07,0.791 0.832,0.11 1.719,0.063 2.352,0.774 4.275,11.166 8.227,22.437 11.412,33.966 2.242,8.102 4.092,16.288 5.123,24.634 0.785,6.297 1.043,12.61 -0.82,18.807 -0.131,0.439 -0.313,0.866 -0.471,1.3 z"
         id="path3414"
         style="fill:#ecc96c;fill-rule:evenodd" /><path
         d="m 792.906,538.645 c 0.584,-1.596 0.893,-3.267 1.135,-4.935 0.229,-1.674 0.33,-3.356 0.334,-5.036 0.012,-1.682 -0.074,-3.362 -0.229,-5.036 -0.152,-1.682 -0.371,-3.333 -0.633,-5.017 -0.283,-1.653 -0.543,-3.326 -0.869,-4.978 -0.295,-1.659 -0.656,-3.308 -1.018,-4.955 -0.369,-1.644 -0.766,-3.281 -1.18,-4.917 -0.422,-1.632 -0.854,-3.264 -1.312,-4.883 -0.439,-1.611 -0.924,-3.258 -1.4,-4.863 l -1.527,-4.829 c -0.518,-1.606 -0.984,-3.226 -1.562,-4.815 l -1.664,-4.783 -0.826,-2.391 -0.875,-2.379 -1.754,-4.752 c -0.57,-1.588 -1.217,-3.153 -1.822,-4.729 l -1.846,-4.721 0.359,0.589 c -0.01,0.018 0.059,0.048 -0.029,0.02 -0.092,-0.026 -0.291,-0.052 -0.719,-0.086 l -2.123,-0.202 c -1.393,-0.123 -2.791,-0.201 -4.199,-0.246 -2.822,-0.111 -5.67,-0.1 -8.557,-0.103 -1.449,-0.006 -2.93,-0.007 -4.355,-0.042 l -4.334,-0.096 -8.631,-0.209 -8.631,-0.258 c -1.451,-0.043 -2.852,-0.102 -4.268,-0.116 l -4.303,-0.038 c -1.443,-0.01 -2.904,-0.026 -4.377,-0.078 -1.439,-0.045 -3.018,-0.136 -4.473,-0.27 l -2.146,-0.229 c -0.6,-0.085 -1.271,-0.047 -1.15,-0.041 0.072,-10e-4 0.336,-0.193 0.357,-0.256 0.033,-0.076 -0.053,0.104 -0.113,0.307 -0.139,0.459 -0.27,1.141 -0.393,1.814 l -0.01,0.048 -0.029,0.128 c -0.068,0.303 -0.123,0.611 -0.158,0.92 -0.02,0.311 -0.023,0.623 -0.01,0.939 l 0.006,0.119 v 0.054 l -0.33,13.144 -0.086,3.285 -0.045,1.676 -0.088,1.684 c -0.072,1.119 -0.1,2.261 -0.209,3.357 l -0.289,3.308 -0.287,3.218 c -0.109,1.061 -0.16,2.166 -0.234,3.258 l -0.1,1.641 -0.08,1.602 -0.154,3.305 -0.371,6.546 c -0.133,2.182 -0.174,4.333 -0.25,6.497 l -0.004,0.107 -0.002,0.062 c -0.041,0.615 -0.086,1.237 -0.117,1.917 l -0.096,1.998 -0.191,4.018 -0.203,4.038 -0.127,2.038 c -0.027,0.348 -0.037,0.66 -0.082,1.044 l -0.109,1.107 0.018,-0.225 c -0.027,0.868 -0.094,1.726 -0.068,2.313 0.016,0.29 0.059,0.479 0.09,0.572 0.039,0.098 0.062,0.15 0.186,0.271 l 0.299,0.303 c -0.049,-0.066 -0.111,-0.131 -0.172,-0.186 l -0.039,-0.037 c -0.025,-0.025 -0.053,-0.046 -0.084,-0.064 -0.012,-0.013 -0.018,-0.016 -0.033,-0.021 -0.023,-0.01 0.043,0.011 0.055,0.021 0.096,0.025 0.184,0.074 0.344,0.099 0.314,0.069 0.562,0.097 0.951,0.13 l 2.559,0.076 5.258,0.131 10.506,0.266 c 3.506,0.062 6.996,0.279 10.496,0.414 l 10.488,0.457 20.957,1.028 10.49,0.448 10.487,0.505 z m 0,0 c -7,0.205 -13.998,0.379 -20.992,0.498 l -21.008,0.045 -10.486,-0.03 c -3.5,-0.002 -6.998,-0.042 -10.492,-0.008 l -10.475,0.044 -5.24,0.025 -1.307,0.004 h -0.723 l -0.654,-0.017 c -0.484,-0.028 -1.107,-0.077 -1.65,-0.198 -0.275,-0.045 -0.6,-0.148 -0.916,-0.26 -0.188,-0.08 -0.332,-0.126 -0.545,-0.246 -0.238,-0.162 -0.312,-0.102 -0.859,-0.688 l 0.301,0.305 c -0.262,-0.217 -0.521,-0.461 -0.758,-0.752 -0.227,-0.295 -0.438,-0.623 -0.582,-0.956 -0.305,-0.677 -0.416,-1.327 -0.465,-1.87 -0.088,-1.092 -0.023,-1.915 -0.02,-2.726 l 0.018,-0.226 0.072,-0.896 c 0.025,-0.283 0.035,-0.642 0.053,-0.962 l 0.09,-1.979 0.135,-4.004 0.117,-4.021 0.062,-2.021 c 0.021,-0.66 0.057,-1.378 0.098,-2.101 l -0.008,0.169 c 0.033,-2.217 0.041,-4.449 0.135,-6.646 l 0.258,-6.585 0.129,-3.262 0.072,-1.684 0.098,-1.643 c 0.059,-1.094 0.104,-2.178 0.211,-3.298 l 0.281,-3.332 0.264,-3.242 c 0.1,-1.087 0.115,-2.136 0.178,-3.207 l 0.074,-1.597 0.037,-1.609 0.064,-3.285 0.289,-13.145 0.004,0.172 c -0.025,-0.561 -0.016,-1.123 0.033,-1.686 0.062,-0.564 0.16,-1.121 0.295,-1.668 l -0.035,0.175 c 0.141,-0.739 0.266,-1.479 0.545,-2.396 0.17,-0.476 0.32,-0.987 0.785,-1.646 0.434,-0.651 1.301,-1.292 2.057,-1.506 0.777,-0.245 1.316,-0.233 1.826,-0.243 0.486,0.009 0.912,0.045 1.311,0.092 l 2.143,0.236 c 1.412,0.139 2.707,0.218 4.143,0.273 1.404,0.058 2.818,0.081 4.254,0.102 l 4.334,0.062 c 1.457,0.023 2.932,0.094 4.359,0.145 l 8.623,0.359 8.625,0.355 4.295,0.172 c 1.449,0.06 2.848,0.084 4.275,0.115 2.865,0.054 5.773,0.092 8.703,0.258 0.732,0.028 1.467,0.083 2.203,0.153 0.738,0.067 1.469,0.118 2.207,0.221 l 2.166,0.269 c 0.287,0.037 0.812,0.076 1.408,0.262 0.604,0.178 1.303,0.59 1.783,1.139 l 0.248,0.288 0.109,0.301 1.717,4.808 c 0.564,1.606 1.166,3.193 1.699,4.814 l 1.625,4.842 c 0.555,1.611 1.09,3.227 1.568,4.863 l 1.484,4.891 c 0.516,1.622 0.926,3.279 1.383,4.92 l 1.342,4.931 c 0.42,1.665 0.83,3.288 1.221,4.966 0.396,1.664 0.734,3.332 1.082,5.004 0.332,1.672 0.648,3.35 0.936,5.031 0.281,1.682 0.561,3.365 0.777,5.059 0.246,1.689 0.422,3.383 0.594,5.086 0.311,3.388 0.479,6.826 0.242,10.24 -0.129,1.707 -0.359,3.406 -0.719,5.074 -0.369,1.666 -0.807,3.325 -1.506,4.873 z"
         id="path3416"
         style="fill:#e2a647;fill-rule:evenodd" /><path
         d="m 884.225,628.536 c -0.229,0.024 -1.412,-0.012 -1.639,-0.013 -15.688,-0.007 -52.057,0.012 -52.906,0.012 -35.27,0.004 -70.541,0.002 -105.811,0.002 -0.746,0 -5.033,0.707 -5.779,0.707 -0.119,0.707 1.844,-1.566 1.809,-1.676 1.088,-0.479 3.805,-0.346 4.902,-0.8 6.471,-2.671 12.428,-6.21 17.541,-10.997 6.016,-5.633 9.932,-12.586 11.529,-20.663 1.461,-7.379 -0.646,-13.81 -5.906,-19.257 -4.033,-4.183 -8.855,-7.111 -14.064,-9.543 -9.857,-4.599 -20.322,-7.117 -30.938,-9.062 -6.953,-1.27 -13.977,-2.138 -20.943,-3.321 -4.873,-0.827 -9.605,-2.153 -14.029,-4.47 -2.834,-1.484 -4.408,-3.731 -4.836,-6.866 -0.174,-1.295 -0.551,-2.564 -0.383,-3.893 0.707,-0.771 1.664,-0.752 2.578,-0.752 14.412,-0.002 28.826,-0.1 43.24,0.037 4.934,-0.143 9.873,-0.056 14.811,-0.059 21.838,-0.014 43.672,-0.014 65.51,0.01 1.359,0.002 2.805,-0.311 3.996,0.711 4.779,1.438 9.379,3.514 14.4,4.08 1.113,0.124 2.469,0.803 3.072,-0.972 0.109,-0.325 0.703,-0.186 1.062,-0.046 0.641,0.244 1.273,0.516 2.018,0.818 0.453,-0.373 0.041,-1.391 0.932,-1.535 0.67,-0.108 1.221,0.166 1.738,0.494 1.555,0.986 2.867,2.285 4.152,3.486 0.406,-0.187 0.355,-0.426 0.406,-0.629 0.402,-1.467 0.691,-1.594 2.062,-1.066 1.203,0.462 1.885,1.523 2.986,2.541 0.049,-0.999 0.066,-1.801 0.127,-2.596 0.098,-1.217 0.48,-1.454 1.635,-1.069 1.275,0.423 1.986,1.398 2.514,2.557 1.117,0.526 1.131,1.677 1.139,2.581 0.016,1.674 0.906,1.434 1.938,1.176 1.209,-0.107 2.291,-0.869 3.686,-0.77 -0.375,1.695 -1.285,2.248 -2.301,3.717 1.289,-0.259 1.691,-0.352 2.752,-0.547 1.17,-0.217 2.32,-0.16 3.352,0.494 1.17,0.742 1.268,1.68 0.281,2.656 -0.326,0.321 -0.723,0.576 -1.104,0.826 -0.373,0.241 -0.285,0.169 -1.033,0.584 1.529,0.221 2.143,0.619 3.238,0.815 1.035,0.188 2.084,0.394 2.828,1.372 -0.914,1.102 -1.172,0.9 -2.186,1.667 1.389,0.55 1.639,1.088 2.373,2.516 0.393,0.77 0.346,1.235 -0.613,1.538 -1.092,0.342 -1.373,0.504 -2.803,0.771 1.125,1.013 1.146,1.535 2.037,2.349 12.432,11.363 22.312,24.656 30.018,39.605 0.285,0.549 0.588,1.084 0.883,1.625 1.221,0.795 1.592,2.135 2.168,3.347 -0.299,0.54 -0.072,1.021 0.154,1.515 2.397,5.201 5.44,10.615 7.407,15.993 z"
         id="path3418"
         style="fill:#b6ce59;fill-rule:evenodd" /><path
         d="m 434.355,518.259 c -4.83,1.653 -9.82,2.587 -14.865,3.286 -4.224,0.587 -8.445,0.762 -12.662,-0.02 -2.596,-0.48 -5.082,-1.28 -7.291,-2.785 -3.484,-2.377 -5.297,-5.794 -4.889,-9.885 0.949,-9.492 5.511,-16.85 13.865,-21.701 1.277,-0.742 2.93,-0.819 4.003,-1.709 1.115,-0.928 0.724,-2.725 1.292,-4.066 1.035,-2.449 2.692,-4.287 4.963,-5.613 3.072,-1.792 6.465,-2.512 9.938,-2.785 2.688,-0.213 5.396,-0.14 8.096,-0.162 3.01,-0.028 5.553,0.966 7.531,3.348 0.986,1.185 2.242,2.22 2.787,3.657 0.43,1.13 1.1,1.324 2.088,1.324 2.558,0 5.072,0.356 7.541,1.009 1.953,0.518 3.779,1.321 5.449,2.47 3.765,2.592 4.854,5.937 3.304,10.263 -1.063,2.961 -2.937,5.408 -5.049,7.68 -5.558,5.979 -12.288,10.244 -19.75,13.428 -0.637,0.271 -1.257,0.579 -1.884,0.867 -1.07,-0.088 -1.207,-1.061 -1.605,-1.75 -1.153,-2.001 -1.829,-4.227 -2.916,-6.26 -0.25,-0.475 -0.463,-0.971 -0.771,-1.413 -0.537,-0.772 -1.303,-0.788 -2.058,-0.503 -1.008,0.38 -0.534,1.141 -0.278,1.732 1.031,2.397 2.154,4.756 3.034,7.215 0.276,0.772 0.801,1.544 0.127,2.373 z"
         id="path3420"
         style="fill:#9cbd42;fill-rule:evenodd" /><path
         d="m 434.355,518.259 c -0.518,-2.503 -1.72,-4.747 -2.682,-7.081 -0.58,-1.408 -1.203,-2.799 -1.785,-4.146 0.695,-0.719 1.495,-0.656 2.23,-0.844 1.006,-0.258 1.541,-0.005 1.968,0.951 1.125,2.527 2.329,5.018 3.526,7.513 0.363,0.757 0.804,1.478 1.209,2.212 2.479,5.629 5.005,11.235 7.42,16.892 1.66,3.888 3.289,7.794 4.467,11.866 -1.232,1.355 -3.016,1.742 -4.541,2.586 -0.569,0.316 -1.029,0.139 -1.299,-0.473 -0.91,-2.07 -2.57,-3.58 -3.974,-5.278 -0.681,-6.552 -2.466,-12.843 -4.533,-19.065 -0.578,-1.742 -0.996,-3.556 -2.006,-5.133 z"
         id="path3422"
         style="fill:#946c4d;fill-rule:evenodd" /><path
         d="m 372.593,575.689 c -0.905,-0.529 -1.439,0.289 -2.05,0.632 -4.464,2.493 -9.086,4.59 -14.115,5.638 -6.009,1.252 -11.948,1.086 -17.747,-1.109 -8.111,-3.07 -13.215,-10.393 -13.271,-19.061 -0.051,-7.89 2.734,-14.603 8.451,-20.055 0.739,-0.705 1.148,-1.234 0.702,-2.33 -1.711,-4.203 -0.398,-7.662 2.812,-10.596 1.497,-1.367 3.197,-2.429 5.029,-3.256 6.104,-2.758 12.387,-4.718 19.212,-4.086 5.251,0.485 9.956,2.077 13.196,6.599 0.27,0.375 0.617,0.692 0.889,1.066 1.493,2.069 3.42,3.39 5.914,4.158 5.578,1.716 8.617,5.607 9.279,11.44 0.541,4.782 -0.59,9.18 -2.754,13.365 -2.724,5.273 -6.38,9.809 -10.998,13.557 -0.475,0.388 -1.004,0.73 -1.295,1.303 -0.843,1.199 -2.04,1.978 -3.254,2.735 z"
         id="path3424"
         style="fill:#9cbd42;fill-rule:evenodd" /><path
         d="m 372.593,575.689 c 0.607,-1.48 1.949,-2.084 3.254,-2.733 2.623,5.556 5.27,11.101 7.614,16.786 0.185,0.573 0.325,1.103 0.155,1.756 -0.438,1.677 -0.846,3.371 -0.736,5.297 -1.712,-0.646 -3.004,-1.777 -4.634,-2.133 -0.429,-3.535 -1.599,-6.879 -2.659,-10.246 -0.921,-2.933 -1.99,-5.819 -2.994,-8.727 z"
         id="path3426"
         style="fill:#946c4d;fill-rule:evenodd" /><path
         d="m 835.461,532.294 c -10.916,-3.306 -18.883,-9.864 -22.852,-20.796 -0.906,-2.511 -1.105,-5.115 -0.709,-7.752 0.488,-3.248 2.184,-5.549 5.367,-6.625 0.438,-0.147 0.875,-0.326 1.328,-0.397 4.646,-0.708 8.496,-3.017 12.164,-5.815 4.168,-3.178 8.961,-4.311 14.162,-3.791 4.59,0.457 7.834,2.982 10.33,6.66 1.453,2.129 1.447,2.141 3.893,1.625 3.143,-0.663 6,0.184 8.609,1.827 3.791,2.388 6.328,5.804 7.736,10.071 0.498,1.509 0.529,3.033 0.396,4.576 -0.184,2.195 -1.639,3.389 -3.463,4.201 -0.014,0.594 0.428,0.844 0.686,1.199 3.027,4.177 2.475,8.754 -1.465,12.146 -2.336,2.002 -5.041,3.305 -7.979,4.067 -8.34,2.165 -16.656,1.59 -24.943,-0.376 -0.859,-1.129 -0.203,-2.223 0.148,-3.271 1.488,-4.523 2.58,-9.156 3.922,-13.844 -1.377,0.727 -1.883,1.883 -2.223,3.189 -0.961,3.717 -2.059,7.393 -3.363,11.005 -0.314,0.875 -0.422,2.023 -1.744,2.101 z"
         id="path3428"
         style="fill:#9cbd42;fill-rule:evenodd" /><path
         d="m 836.527,530.297 c 1.283,-3.626 2.543,-7.267 3.34,-11.025 0.438,-2.076 1.553,-3.381 3.416,-4.455 0.344,1.551 -0.314,2.812 -0.658,4.092 -1.115,4.156 -2.197,8.322 -3.596,12.396 -0.195,0.571 -1.383,4.503 -1.885,5.863 -1.383,3.755 -2.707,7.528 -4.057,11.298 -0.582,0.494 -1.166,0.986 -1.932,1.633 -0.557,-1.866 -0.439,-3.729 -1.145,-5.39 2.361,-3.901 6.263,-13.688 6.517,-14.412 z"
         id="path3430"
         style="fill:#946c4d;fill-rule:evenodd" /><path
         d="m 886.963,598.396 c -1.203,-1.693 -2.428,-3.366 -3.602,-5.078 -1.137,-1.656 -2.123,-3.398 -2.873,-5.271 -0.471,-1.172 -0.633,-2.379 -0.514,-3.627 0.17,-1.812 1.451,-3.539 3.158,-3.868 2.105,-0.406 4.271,-0.716 6.291,0.665 1.879,-2.202 4.15,-3.647 7.012,-4.178 7.402,-1.372 13.207,3.106 13.686,10.616 0.217,3.341 -0.379,6.329 -3.508,8.173 -0.043,0.747 0.596,0.9 0.943,1.268 2.037,2.145 2.039,4.212 -0.172,6.216 -2.855,2.587 -6.238,3.229 -9.91,2.24 -2.262,-0.611 -4.227,-1.838 -6.061,-3.285 -0.846,-0.665 -1.707,-1.306 -2.562,-1.959 -0.98,-0.288 -1.622,-0.916 -1.888,-1.912 z"
         id="path3432"
         style="fill:#9cbd42;fill-rule:evenodd" /><path
         d="m 886.963,598.396 c 0.791,0.479 1.422,1.111 1.889,1.911 -3.922,3.737 -7.996,7.29 -12.188,10.723 -1.434,-0.653 -1.467,-2.22 -2.17,-3.347 4.471,-2.674 8.447,-6.011 12.469,-9.287 z"
         id="path3434"
         style="fill:#946d4e;fill-rule:evenodd" /><path
         d="m 497.246,594.27 c 0.51,-0.46 0.443,-1.123 0.622,-1.703 0.462,-1.492 1.121,-2.864 2.339,-3.912 0.55,-0.471 1.105,-0.928 1.854,-0.566 0.729,0.352 1.211,0.949 1.236,1.813 0.02,0.664 0.026,1.329 0.041,1.999 0.795,-0.166 1.464,-0.864 2.458,-0.636 0.648,2.735 -1.113,4.657 -2.312,6.856 1.091,-0.529 2.043,-1.013 3.014,-1.453 0.58,-0.26 1.227,-0.406 1.719,0.135 0.532,0.581 0.447,1.287 0.143,1.949 -0.122,0.271 -0.35,0.503 -0.555,0.73 -0.602,0.67 -1.376,1.146 -0.57,2.327 0.496,0.733 -0.264,1.577 -0.953,2.097 -1.803,1.357 -3.854,1.869 -6.094,1.689 -1.166,-0.091 -1.809,-0.812 -2.145,-1.82 -0.557,-1.679 -1.438,-2.884 -3.416,-2.854 -0.676,0.013 -1.09,-0.519 -1.531,-0.944 -1.627,-1.578 -2.291,-3.654 -2.758,-5.758 -0.346,-1.562 0.553,-2.275 2.136,-1.953 0.332,0.066 0.528,0.398 1.013,0.135 1.635,-0.884 1.973,-0.795 2.852,0.567 0.291,0.454 0.514,0.946 0.937,1.302 h -0.03 z"
         id="path3436"
         style="fill:#88a43e;fill-rule:evenodd" /><path
         d="m 462.565,576.617 c 0.192,1.665 0.114,3.275 -0.987,4.67 -0.533,0.02 -0.943,0.333 -1.391,0.571 -1.761,0.858 -3.162,0.034 -4.527,-0.962 -0.176,-0.185 -0.354,-0.372 -0.531,-0.559 -1.482,-2.11 -1.358,-3.4 0.489,-5.042 0.525,-0.291 1.13,-0.471 1.474,-1.024 1.793,-0.023 3.604,-0.115 4.973,1.379 0.166,0.323 0.334,0.645 0.5,0.967 z"
         id="path3438"
         style="fill:#eed357;fill-rule:evenodd" /><path
         d="m 457.092,574.271 c -0.2,-1.667 -0.642,-3.293 -0.581,-5.013 0.06,-1.675 0.705,-2.959 1.92,-4.016 1.328,-1.156 1.861,-1.169 3.449,-0.326 0.738,0.395 1.541,0.676 2.332,0.965 1.936,0.707 2.455,1.822 1.641,3.74 -0.939,2.208 -2.34,4.139 -3.789,6.029 -1.678,-0.382 -3.435,-0.49 -4.972,-1.379 z"
         id="path3440"
         style="fill:#dc6b8a;fill-rule:evenodd" /><path
         d="m 460.187,581.859 c 0.829,1.996 0.674,4.09 0.488,6.154 -0.129,1.435 -0.9,2.609 -2.069,3.478 -1.319,0.978 -2.249,1.04 -3.526,0.012 -0.75,-0.604 -1.602,-0.882 -2.434,-1.27 -1.574,-0.733 -1.896,-1.495 -1.339,-3.147 0.603,-1.787 1.813,-3.2 2.964,-4.642 0.43,-0.542 0.923,-1.032 1.389,-1.546 1.552,0.113 2.978,0.827 4.527,0.961 z"
         id="path3442"
         style="fill:#dc6b8a;fill-rule:evenodd" /><path
         d="m 462.565,576.617 c 1.935,-0.939 3.995,-1.018 6.089,-0.906 1.505,0.08 2.615,0.852 3.461,2.018 0.672,0.924 0.98,1.908 0.145,2.957 -0.586,0.736 -0.771,1.629 -0.943,2.559 -0.246,1.338 -0.888,1.756 -2.26,1.818 -0.869,0.036 -1.667,-0.182 -2.44,-0.566 -1.793,-0.893 -3.514,-1.896 -5.038,-3.209 0.077,-1.61 0.154,-3.221 0.986,-4.671 z"
         id="path3444"
         style="fill:#dc6b8a;fill-rule:evenodd" /><path
         d="m 447.289,580.84 c -1.2,-0.187 -1.828,-1.061 -2.359,-2.016 -0.181,-0.323 -0.416,-0.784 -0.314,-1.07 0.604,-1.729 1.116,-3.531 2.023,-5.096 0.666,-1.146 2.139,-0.832 3.182,-0.432 1.708,0.656 3.43,1.368 4.854,2.59 -2.672,1.751 -5.199,3.678 -7.386,6.024 z"
         id="path3446"
         style="fill:#dc6b8a;fill-rule:evenodd" /><path
         d="m 446.151,580.368 c -0.188,-0.536 0.524,-0.47 1.423,-0.99 1.367,-0.784 2.655,-1.787 3.775,-2.901 0.969,-0.961 1.957,-1.619 3.325,-1.66 0.315,0.16 0.628,0.317 0.943,0.479 -1.024,1.599 -1.131,3.285 -0.489,5.045 -2.062,0.767 -4.177,1.203 -6.395,0.988 -0.523,-0.054 -2.196,-0.509 -2.582,-0.961 z"
         id="path3448"
         style="fill:#dc6b8a;fill-rule:evenodd" /><path
         d="m 788.943,586.989 c 1.117,-0.448 2.268,-1.206 3.369,-0.045 1.045,1.1 1.264,2.431 0.889,3.87 -0.723,2.764 -2.658,4.426 -5.119,5.598 -0.541,0.256 -1.191,0.287 -1.834,0.993 2.203,0.208 4.24,-0.063 6.211,0.525 1.848,0.552 3.426,1.426 4.475,3.052 0.676,1.047 1.268,2.312 0.479,3.46 -0.785,1.14 -2.141,1.419 -3.498,1.185 -0.684,-0.115 -1.34,-0.342 -2.023,-0.092 -0.451,0.484 -0.037,0.882 0.139,1.255 0.457,0.976 0.688,1.909 -0.244,2.739 -0.938,0.838 -1.875,0.404 -2.785,-0.062 -2.742,-1.415 -4.885,-3.462 -6.379,-6.173 -0.293,-0.534 -0.58,-1.074 -1.074,-1.984 -0.273,1.121 -0.297,1.927 -0.098,2.666 0.545,1.979 0.285,3.985 0.324,5.982 0.029,1.264 -0.346,2.486 -1.059,3.49 -1.244,1.75 -2.777,2.469 -4.332,0.068 -0.889,-1.363 -1.334,-2.924 -1.648,-4.52 -2.363,0.85 -3.205,0.674 -4.268,-0.843 -1.025,-1.462 -0.906,-3.396 0.32,-4.937 0.834,-1.044 1.969,-1.714 3.07,-2.42 0.582,-0.374 1.205,-0.683 1.791,-1.059 3.582,-2.318 4.35,-4.176 3.562,-8.369 -0.381,-2.001 -0.365,-3.986 0.51,-5.89 1.295,-2.808 4.48,-3.851 7.154,-2.34 1.363,0.773 1.691,1.383 2.068,3.851 z"
         id="path3450"
         style="fill:#88a43e;fill-rule:evenodd" /><path
         d="m 825.346,585.4 c 1.646,0.423 3.209,0.993 4.393,2.313 0.74,0.827 1.209,1.738 1.189,2.885 -0.014,0.829 -0.211,1.498 -1.051,1.849 -0.707,0.298 -1.312,0.752 -1.924,1.227 -1.203,0.934 -2.172,0.809 -3.121,-0.455 -1.205,-1.604 -2.062,-3.388 -2.293,-5.419 0.877,-0.868 1.432,-2.115 2.807,-2.4 z"
         id="path3452"
         style="fill:#dc6b8a;fill-rule:evenodd" /><path
         d="m 818.848,584.147 c -1.799,-0.008 -3.262,-0.861 -4.588,-1.95 -0.918,-0.751 -1.486,-1.727 -1.453,-3.006 0.023,-0.837 0.158,-1.531 1.02,-1.875 0.734,-0.29 1.262,-0.854 1.854,-1.351 1.178,-0.985 1.922,-0.941 2.973,0.242 1.299,1.464 2.111,3.203 2.609,5.091 -0.382,1.308 -1.4,2.077 -2.415,2.849 z"
         id="path3454"
         style="fill:#dc6b8a;fill-rule:evenodd" /><path
         d="m 821.219,587.787 c -0.42,1.687 -1.355,3.043 -2.588,4.246 -0.705,0.68 -1.555,0.987 -2.447,1.166 -1.121,0.223 -2.041,-0.352 -2.547,-1.394 -0.332,-0.687 -0.664,-1.374 -1.027,-2.043 -0.766,-1.391 -0.604,-2.194 0.812,-2.979 1.682,-0.93 3.492,-1.522 5.408,-1.757 0.996,0.749 1.705,1.743 2.389,2.761 z"
         id="path3456"
         style="fill:#dc6b8a;fill-rule:evenodd" /><path
         d="m 822.955,581.305 c 0.465,-1.577 1.229,-2.968 2.455,-4.09 1.977,-1.796 3.811,-1.486 5.113,0.887 0.07,0.135 0.146,0.27 0.227,0.399 1.602,2.552 1.445,3.118 -1.297,4.479 -1.307,0.648 -2.623,1.271 -4.084,1.5 -0.877,-1.003 -1.965,-1.847 -2.414,-3.175 z"
         id="path3458"
         style="fill:#dc6b8a;fill-rule:evenodd" /><path
         d="m 822.955,581.305 c 1.191,0.767 2.186,1.681 2.414,3.176 -0.008,0.308 -0.016,0.615 -0.023,0.921 -0.756,1.007 -1.338,2.221 -2.807,2.398 -0.441,-0.005 -0.877,-0.007 -1.32,-0.013 -1.26,-0.518 -2.07,-1.428 -2.389,-2.76 0.008,-0.294 0.016,-0.588 0.018,-0.881 0.346,-1.339 1.318,-2.146 2.414,-2.848 0.566,0.004 1.134,0.005 1.693,0.007 z"
         id="path3460"
         style="fill:#eed357;fill-rule:evenodd" /><path
         d="m 655.385,508.684 c 3.066,7.948 4.699,16.245 6.051,24.617 0.266,1.656 0.182,3.201 1.008,4.768 0.172,0.142 0.383,0.312 0.574,0.629 14.252,-0.016 28.254,-0.029 42.504,-0.05 1,-10e-4 1.996,-0.062 3,-0.095 0.033,-2.268 0.068,-4.539 0.105,-6.808 0.398,-3.104 0.295,-3.955 0.398,-5.618 0.021,-1.525 0.357,-3.07 0.379,-4.594 -0.193,-2.596 0.055,-3.096 0.08,-5.574 -0.018,-5.229 0.48,-10.497 0.541,-15.659 -0.006,-0.23 0.812,-15.826 0.693,-22.126 0.027,-1.558 0.027,-1.558 -2.584,-1.558 -9.977,0.167 -18.373,0.828 -28.352,0.742 l -2.223,0.3 c -0.107,-0.078 -2.678,-0.041 -2.785,-0.121 -2.398,-0.16 -5.17,0.438 -7.24,0.424 -13.172,-0.09 -22.896,0.675 -36.07,0.662 -8.845,-0.009 -14.573,1.473 -23.408,0.845 -1.195,-0.085 -3.922,0.392 -6.335,-0.005 -1.031,-0.42 -2.119,-0.297 -3.191,-0.367 -4.165,-0.273 -8.292,0.44 -12.447,0.496 -8.458,0.116 -16.195,0.322 -24.635,0.936 -3.047,0.221 -3.159,0.367 -2.746,3.541 0.072,7.236 0.464,14.059 0.902,20.711 0.239,3.6 0.241,7.213 0.404,10.82 0.345,7.669 -0.1,15.425 0.357,23.094 2.85,0.023 5.67,-0.052 8.52,-0.043 11.332,0.024 34.609,0.135 34.961,-0.14 0.088,-0.267 -1.003,-1.918 -1.099,-2.784 -0.817,-7.373 -0.78,-14.744 0.202,-22.1 0.788,-5.918 4.502,-12.995 6.996,-18.414 l 17.413,-10.617 19.304,9.29 c 0.002,0 8.477,14.153 8.723,14.798 z"
         id="path3462"
         style="fill:#ecc96c;fill-rule:evenodd" /><path
         d="m 926.102,628.514 c -13.197,-10e-4 -26.395,-10e-4 -39.594,-0.002 -1.076,0 -129.982,-0.236 -166.729,0.041 3.076,-0.539 8.328,-2.479 11.1,-3.949 11.229,-5.963 19.582,-14.392 23.061,-27.005 2.361,-8.562 0.469,-15.937 -5.713,-22.351 -5.17,-5.373 -11.564,-8.686 -18.34,-11.382 -11.34,-4.511 -23.236,-6.821 -35.23,-8.691 -7.164,-1.117 -14.377,-1.878 -21.348,-4.118 -5.832,-1.872 -9.898,-4.965 -10.027,-11.617 -0.006,-0.148 -0.076,-0.297 -0.129,-0.443 -0.137,-0.384 -0.369,-0.697 -0.709,-0.928 -0.355,-0.196 -0.736,-0.246 -1.135,-0.203 -0.502,0.115 -1.006,0.121 -1.516,0.127 -3.107,0.09 -7.727,-0.178 -10.838,0.213 -1.152,0.369 0.629,1.021 1.148,1.71 0.686,0.909 1.627,1.599 2.277,2.544 0.121,0.178 0.246,0.348 0.381,0.51 0.127,0.16 0.256,0.318 0.4,0.465 0.07,0.072 0.135,0.148 0.203,0.221 0.135,0.152 0.268,0.303 0.404,0.443 0.135,0.152 0.271,0.303 0.418,0.44 2.439,2.6 5.156,4.935 7.465,7.663 0.115,0.17 0.238,0.336 0.371,0.495 0.127,0.159 0.254,0.313 0.396,0.458 0.07,0.071 0.139,0.148 0.205,0.221 0.133,0.15 0.266,0.3 0.406,0.441 0.135,0.153 0.273,0.303 0.418,0.445 2.16,2.077 2.35,4.004 4.766,5.813 0.574,0.204 4.037,0.888 4.648,1.035 4.5,1.1 8.881,2.553 13.188,4.243 3.182,1.246 6.178,2.811 8.852,4.943 4.453,3.551 6.693,8.385 4.521,14.551 -1.016,2.883 -2.572,5.425 -4.615,7.677 -2.836,3.128 -6.285,5.452 -10.004,7.378 -10.926,5.649 -22.398,9.924 -34.215,13.273 -6.438,1.826 -12.967,3.275 -19.59,4.342 -4.4,0.707 -8.799,1.408 -13.24,1.861 -4.203,0.432 -8.4,0.949 -12.609,1.359 -3.369,0.33 -6.732,0.694 -10.105,0.994 -4.056,0.361 -8.102,0.848 -12.154,1.256 -3.676,0.369 -7.356,0.655 -11.024,1.064 -4.658,0.52 -9.303,1.189 -13.964,1.678 -4.361,0.453 -8.688,1.164 -13.035,1.674 -3.889,0.457 -7.738,1.171 -11.698,1.168 -52.959,-0.05 -105.919,-0.027 -158.878,-0.029 -2.082,0 -13.792,0.004 -14.794,0.004 -18.388,0.002 -36.78,0.002 -55.169,0.002 0.343,2.325 0.358,3.911 0.435,6.259 8.497,-0.064 621.319,0 621.319,0 -0.193,-2.1 -0.17,-4.191 0.02,-6.293 z"
         id="path3464"
         style="fill:#946c4d;fill-rule:evenodd" /><path
         d="m 668.328,560.09 c -4.639,-0.613 -9.27,-1.251 -13.914,-1.824 -2.131,-0.262 -4.277,-0.4 -6.422,-0.575 -8.338,-0.681 -16.645,-1.561 -24.783,-3.664 -3.429,-0.884 -6.722,-2.163 -10.056,-3.321 -0.145,-0.168 -1.84,-1.485 -1.78,-1.698 0.59,-1.084 3.341,-0.612 3.985,-1.653 0.104,-0.166 0.222,-0.326 0.344,-0.481 0.116,-0.155 0.251,-0.299 0.385,-0.442 0.064,-0.074 0.136,-0.141 0.198,-0.216 0.128,-0.149 0.267,-0.288 0.405,-0.43 0.067,-0.073 0.14,-0.141 0.205,-0.214 0.588,-0.562 1.121,-1.182 1.741,-1.713 0.341,-0.269 0.722,-0.461 1.138,-0.59 1.606,-0.562 3.338,-0.455 4.959,-0.938 0.515,-0.152 1.109,-0.298 1.22,-0.906 0.12,-0.664 -2.53,-0.158 -2.997,-0.424 -0.666,-0.377 -0.289,-1.148 0.392,-2.426 2.646,-1.146 5.943,-0.389 8.651,-0.568 0.563,-0.062 1.125,-0.059 1.686,-0.004 4.645,-0.025 9.283,-0.128 13.918,0.047 0.256,0.014 0.508,0.061 0.752,0.128 1.789,1.312 3.209,3.001 4.643,4.672 l -0.012,-0.018 c 0.158,0.166 0.32,0.329 0.486,0.486 l -0.025,-0.024 c 0.156,0.166 0.32,0.328 0.486,0.486 l -0.016,-0.017 c 2.002,2.526 4.477,4.596 6.688,6.924 0.578,0.608 1.195,1.179 1.662,1.89 l -0.018,-0.016 c 0.16,0.166 0.32,0.327 0.486,0.485 l -0.021,-0.022 c 0.156,0.166 0.316,0.326 0.486,0.485 l -0.018,-0.017 c 1.41,1.924 3.305,3.384 4.871,5.152 0.332,0.367 1.304,0.764 0.275,1.446 z"
         id="path3466"
         style="fill:#946c4d;fill-rule:evenodd" /><path
         d="m 602.822,538.645 c 0.354,-0.041 0.675,-0.092 1.025,-0.134 0.553,-0.506 1.331,-0.515 2.025,-0.521 5.226,-0.045 10.451,-0.072 15.676,0.016 0.461,0.009 0.915,0.102 1.341,0.296 0.258,0.133 0.445,0.335 0.563,0.602 -0.161,0.916 -0.775,1.386 -1.612,1.634 -2.6,0.248 -5.201,0.279 -7.797,-0.139 -1.372,-0.219 -2.753,-0.266 -4.124,-0.008 -0.603,0.111 -1.34,0.294 -1.318,1.037 0.014,0.591 0.697,0.775 1.215,0.891 1.873,0.414 3.77,0.703 5.689,0.811 0.838,0.047 2.311,0.035 3.108,0.406 0.931,1.446 -1.626,1.569 -1.759,2.557 l 0.015,-0.02 c -0.166,0.158 -0.327,0.32 -0.487,0.488 l 0.023,-0.023 c -0.166,0.157 -0.327,0.32 -0.486,0.486 l 0.017,-0.019 c -0.88,1.279 -0.304,2.928 -1.395,4.011 -0.2,0.107 -1.227,-0.152 -1.388,-0.311 -2.59,-1.633 -6.349,-3.356 -8.408,-5.758 -0.814,-0.945 -1.494,-1.913 -1.914,-3.109 -0.377,-1.084 -0.478,-2.159 -0.009,-3.193 z"
         id="path3468"
         style="fill:#946c4d;fill-rule:evenodd" /><path
         d="m 731.836,607.326 c -4.234,-0.533 -8.189,-1.017 -11.961,-2.421 -0.072,-0.026 -0.16,-0.026 -0.225,-0.063 -1.162,-0.728 -2.682,-1.311 -2.607,-2.934 0.066,-1.369 1.377,-1.979 2.512,-2.453 3.275,-1.375 6.664,-2.34 10.25,-2.4 2.232,-0.039 4.471,-0.01 6.707,-0.008 3.17,0.005 6.053,0.894 8.639,2.752 1.984,1.431 1.967,3.271 -0.215,4.509 -1.529,0.87 -3.234,1.383 -4.953,1.829 -2.766,0.717 -5.643,0.519 -8.147,1.189 z"
         id="path3470"
         style="fill:#ad7e5e;fill-rule:evenodd" /><path
         d="m 721.992,582.244 c 1.262,-0.104 2.482,0.004 3.654,0.434 1.826,0.672 3.805,0.324 5.656,0.902 0.975,0.303 1.9,0.672 2.719,1.23 1.242,0.854 1.32,2.215 0.338,3.383 -1.201,1.43 -2.938,1.74 -4.578,1.845 -4.359,0.277 -8.549,-0.618 -12.473,-2.552 -2.186,-1.079 -2.242,-2.865 -0.164,-4.17 1.469,-0.921 3.131,-1.25 4.848,-1.072 z"
         id="path3472"
         style="fill:#ad7e5e;fill-rule:evenodd" /><path
         d="m 713.672,572.959 c -2.307,-0.092 -5.008,0.274 -7.652,-0.462 -0.664,-0.184 -1.346,-0.3 -1.996,-0.52 -0.643,-0.218 -1.377,-0.407 -1.42,-1.296 -0.039,-0.9 0.502,-1.484 1.242,-1.768 1.434,-0.547 2.879,-1.143 4.375,-1.424 3.869,-0.734 7.799,-0.598 11.717,-0.547 0.939,0.014 1.785,0.418 2.645,0.75 1.133,0.436 1.734,1.349 1.707,2.498 -0.025,1.209 -0.916,1.894 -1.996,2.256 -1.549,0.521 -3.16,0.561 -4.779,0.518 -1.156,-0.031 -2.314,-0.005 -3.843,-0.005 z"
         id="path3474"
         style="fill:#ad7e5e;fill-rule:evenodd" /><path
         d="m 730.992,574.809 c 2.141,-0.146 4.705,0.141 7.264,0.811 1.312,0.346 2.768,-0.003 4.072,0.608 0.822,0.385 1.828,0.552 1.912,1.733 0.061,0.916 -0.723,1.884 -2.023,2.223 -2.391,0.627 -4.852,0.984 -7.289,0.497 -1.232,-0.246 -2.436,-0.288 -3.658,-0.306 -2.461,-0.031 -4.869,-0.459 -7.275,-0.918 -0.369,-0.072 -0.752,-0.162 -1.104,-0.303 -0.658,-0.264 -1.256,-0.604 -1.301,-1.443 -0.049,-0.816 0.41,-1.252 1.078,-1.6 1.449,-0.751 2.918,-1.371 4.602,-1.311 1.076,0.04 2.156,0.009 3.722,0.009 z"
         id="path3476"
         style="fill:#ad7e5e;fill-rule:evenodd" /><path
         d="m 710.018,612.342 c -3.295,0.301 -6.404,-1.217 -9.652,-2.068 -0.43,-0.109 -0.844,-0.392 -1.191,-0.686 -1.191,-1.015 -1.039,-2.251 0.398,-2.9 1.049,-0.471 2.18,-0.77 3.33,-0.818 2.924,-0.125 5.854,-0.112 8.695,0.635 1.123,0.293 2.287,0.152 3.391,0.611 0.9,0.376 1.799,0.7 1.885,1.766 0.094,1.148 -0.438,2.057 -1.518,2.623 -0.967,0.51 -1.926,0.938 -3.066,0.847 -0.688,-0.057 -1.384,-0.01 -2.272,-0.01 z"
         id="path3478"
         style="fill:#ad7e5e;fill-rule:evenodd" /><path
         d="m 711.252,581.756 c -0.932,0 -1.625,-0.014 -2.316,0.004 -0.879,0.019 -1.682,-0.307 -2.428,-0.66 -0.676,-0.319 -1.436,-0.842 -1.428,-1.666 0.012,-0.814 0.752,-1.383 1.441,-1.654 1.408,-0.555 2.76,-1.363 4.404,-1.145 0.826,0.111 1.676,0.062 2.502,-0.261 0.41,-0.161 0.912,-0.175 1.359,-0.13 1.223,0.118 2.416,1.093 2.562,2.009 0.168,1.022 -0.697,2.487 -1.797,2.978 -1.451,0.651 -3,0.56 -4.299,0.525 z"
         id="path3480"
         style="fill:#ad7e5e;fill-rule:evenodd" /><path
         d="m 735.918,570.417 c 0.059,0.825 -0.396,1.195 -1.25,1.138 -1.426,-0.1 -2.434,-0.891 -3.162,-2.029 -0.416,-0.646 0.031,-1.584 0.754,-1.551 1.227,0.059 2.398,0.44 3.34,1.3 0.296,0.273 0.318,0.68 0.318,1.142 z"
         id="path3482"
         style="fill:#a77b5b;fill-rule:evenodd" /><path
         d="m 628.055,548.406 c -1.524,-0.092 -3.019,-0.358 -4.469,-0.836 -0.599,-0.197 -1.123,-0.56 -1.097,-1.302 0.021,-0.618 0.49,-0.896 0.975,-1.167 1.926,-1.074 5.748,-0.846 7.422,0.461 1.113,0.867 0.972,1.845 -0.373,2.37 -0.777,0.306 -1.583,0.585 -2.458,0.474 z"
         id="path3484"
         style="fill:#a77959;fill-rule:evenodd" /><path
         d="m 635.891,543.735 c -1.979,0.076 -3.367,0.095 -4.668,-0.488 -0.574,-0.257 -1.154,-0.599 -1.205,-1.269 -0.062,-0.775 0.652,-1.076 1.213,-1.173 2.657,-0.459 5.327,-0.627 7.903,0.458 0.424,0.178 0.854,0.408 0.811,0.984 -0.043,0.52 -0.412,0.789 -0.812,1.038 -1.209,0.75 -2.553,0.377 -3.242,0.45 z"
         id="path3486"
         style="fill:#ac7d5c;fill-rule:evenodd" /><path
         d="m 621.958,540.064 c -2.832,-0.111 -5.658,0.132 -8.5,-0.379 -1.596,-0.287 -3.383,-0.464 -4.973,0.4 -0.539,0.295 -1.134,0.635 -1.174,1.314 -0.047,0.785 0.685,0.965 1.227,1.188 0.705,0.289 1.444,0.591 2.192,0.67 2.511,0.27 5.014,0.717 7.558,0.518 -0.003,0 0.213,0.002 0.213,0.002 l 1.126,-0.019 c 1.374,-0.099 2.692,-0.556 4.095,-0.546 0.666,0.008 1.358,-0.248 2,-0.483 0.68,-0.247 1.229,-0.725 1.26,-1.501 0.027,-0.732 -0.608,-0.969 -1.132,-1.313 -0.647,-0.425 -3.892,0.149 -3.892,0.149 z"
         id="path3488"
         style="fill:#ad7e5e;fill-rule:evenodd" /><path
         d="m 715.674,460.656 c 28.053,-0.297 64.18,-0.762 64.76,-0.76 2.049,0.011 2.07,0.022 2.58,-1.994 1.914,-7.537 3.811,-15.078 5.711,-22.619 1.186,-4.702 2.346,-9.412 3.57,-14.104 0.303,-1.168 0.15,-1.893 -1.102,-2.309 -1.236,-0.411 -41.236,-12.762 -42.432,-13.301 l -53.646,2.411 5.057,-26.422 c 0.227,-0.275 -25.051,-9.735 -25.424,-10.427 -12.736,-23.556 -38.244,-66.752 -42.314,-64.473 -6.259,4.05 -41.156,62.155 -47.7,74.79 l -23.754,0.433 c 0,0 -18.236,10.394 -81.582,36.896 -1.652,0.743 -1.652,0.759 -1.215,2.564 1.49,6.136 9.714,38.389 9.869,38.5 0.473,0.003 49.925,-1.544 56.533,-1.796 l 12.018,-0.554 c -0.311,2.856 0.753,25.894 1.378,26.534 0.017,-0.541 152.802,-3.868 152.964,-3.699 0.285,-0.291 0.42,-0.646 0.406,-1.045 -0.219,-5.389 -0.039,-13.243 0.064,-18.621 l 4.259,-0.004 z"
         id="path3490"
         style="fill:#e2a647;fill-rule:evenodd" /><path
         d="m 676.617,374.669 c 6.299,1.116 5.85,3.075 5.783,7.284 -0.004,0.162 -0.064,0.67 -0.324,0.497 -1.252,-0.766 -5.465,-4.389 -6.15,-6.983 -0.145,-0.584 0,-0.789 0.691,-0.798 z"
         id="path3492"
         style="fill:#8fbedf;fill-rule:evenodd" /><path
         d="m 584.809,384.013 -7.318,9.733 c 0.93,0.195 -0.274,1.3 0.026,2.324 l 0.229,5.936 c 0,2.599 0,2.599 -0.198,7.121 0,0 0.054,2.832 0,5.253 -0.034,1.909 0,2.832 -0.302,5.125 -0.265,0.594 -0.972,0.671 -1.35,0.671 -1.24,0.223 -5.387,0.281 -7.229,0.297 -0.526,0.004 -0.933,-0.604 -0.94,-0.908 -0.074,-3.115 0.363,-4.536 0.745,-7.605 l 0.129,-0.895 c -0.016,-0.48 0.056,-1.346 -0.881,-1.574 -0.745,-0.182 -1.96,-0.369 -2.792,-0.443 -1.914,-0.167 -3.826,-0.322 -5.771,-0.434 -1.976,-0.269 -2.498,0.003 -2.619,0.111 0,0 -0.343,0.223 -0.343,1.205 l -0.059,5.479 0.01,-0.004 -0.006,-0.385 c 0.055,2.283 -0.206,2.259 -0.849,2.259 -2.587,-0.018 -4.813,-0.063 -7.403,-0.036 -1.05,0.01 -1.482,-0.343 -1.485,-1.452 l 0.521,-4.409 c -0.075,0.156 -0.045,-1.906 -0.118,-3.15 -0.024,-0.393 -0.07,-0.873 -0.503,-0.873 0,-1.543 0.612,-6.973 0.612,-8.517 l 0.005,-4.252 c -0.004,-1.856 -0.004,-3.71 -0.004,-5.567 -0.005,-2.006 -0.01,-4.012 -0.016,-6.018 -0.013,-1.458 -0.016,-2.915 -0.041,-4.371 -0.151,-8.422 -0.307,-16.845 -0.462,-25.266 9.259,-0.005 30.208,0.008 39.468,0.001 0.852,0.771 1.505,17.799 1.338,18.675 -1.641,8.636 1.855,1.939 -0.946,8.009 -0.458,0.99 -0.339,0.664 -0.938,1.481 l -0.51,2.479 z"
         id="path3494"
         style="fill:#ecc96c;fill-rule:evenodd" /><path
         d="m 671.941,365.663 c -0.016,0.784 -0.029,1.567 -0.043,2.351 -1.83,-2.925 -17.545,-27.001 -19.371,-29.924 0.381,-3.729 0.312,-2.198 0.297,-4.792 -0.043,-7.07 -0.012,-14.139 -0.016,-21.208 0,-1.077 0.018,-2.151 -0.332,-3.192 -0.117,-2.547 -0.76,-5.13 0.471,-7.596 0.658,-0.478 1.428,-0.551 2.201,-0.56 4.23,-0.044 8.459,-0.048 12.689,0.002 0.84,0.01 1.141,-0.086 1.779,0.613 0.01,3.21 0.258,6.558 0.912,9.746 0.047,0.222 0.037,0.46 0.029,0.69 -0.184,7.203 1.574,46.664 1.384,53.87 z"
         id="path3496"
         style="fill:#ecc96c;fill-rule:evenodd" /><path
         d="m 576.487,382.15 c 1.983,0.116 3.961,0.414 5.965,0.39 0.747,-0.009 1.402,-0.08 1.534,-1 0.238,-0.115 0.486,-0.144 0.748,-0.091 1.073,0.34 2.195,0.43 3.293,0.641 0.829,0.157 1.571,0.499 1.91,1.375 0.069,3.895 0.85,7.809 -0.324,11.671 -0.565,0.473 -1.252,0.601 -1.945,0.59 -1.416,-0.024 -2.161,1.847 -3.983,1.755 -1.258,-0.064 -6.074,0.814 -6.122,-0.235 -0.071,-1.531 -1.343,-2.082 -1.48,-2.084 -2.803,-0.18 -4.309,-1.46 -3.982,-4.477 0.084,-0.761 -0.762,-1.315 -1.665,-1.797 -1.71,-1.56 -1.751,-3.146 -1.572,-4.516 0.179,-1.365 -1.143,-1.432 -2.461,-1.667 -0.435,-0.078 6.258,-0.779 10.084,-0.555 z"
         id="path3498"
         style="fill:#e2a647;fill-rule:evenodd" /><path
         d="m 682.164,406.76 c -0.268,-4.729 -2.047,-7.7 -4.127,-8.606 -1.693,-0.735 -1.875,-1.271 -1.863,-2.712 0.008,-0.909 0.006,-7.999 0.006,-9.513 0,-2.71 -0.027,-3.688 -0.014,-5.208 0.014,-1.092 -0.135,-1.404 -1.512,-1.406 -1.234,0 -1.457,-0.044 -2.938,0 -1.375,0.042 -1.586,-0.169 -1.584,-1.466 0.004,-3.363 0.004,-1.41 0,-5.214 -0.002,-1.996 -0.002,-1.658 -1.066,-1.665 -2.527,-0.014 -2.012,-0.071 -3.779,-0.071 -1.127,0 -1.574,-0.199 -1.609,-1.089 -0.18,-3.973 -0.008,-5.342 -0.041,-6.915 -0.021,-1.066 0.029,-1.172 -1.332,-1.189 -0.635,-0.009 -2.535,0 -3.287,-0.014 -1.254,-0.019 -1.357,-0.102 -1.357,-1.233 -0.004,-1.241 -0.037,-5.552 -0.145,-6.984 -0.061,-0.769 -0.697,-0.601 -1.078,-0.602 -0.844,-0.004 -3.26,-0.004 -4.383,-0.004 -0.338,0 -0.441,-0.369 -0.441,-0.388 0.004,-1.054 0,-7.178 -0.027,-7.995 0.031,-1.234 -0.238,-1.355 -1.262,-1.294 -1.342,-0.001 -2.574,-0.048 -3.902,-0.041 -1.115,-0.05 -1.324,-0.472 -1.307,-1.267 0.061,-2.271 0,-4.343 0,-6.574 0,-0.343 -0.223,-0.485 -0.584,-0.493 -1.686,-0.042 -3.812,0.075 -5.508,0.03 -0.684,-0.018 -0.814,-0.263 -0.816,-0.926 -0.01,-1.527 -0.008,-2.732 -0.035,-5.757 0.035,-2.166 -0.6,-1.603 -1.715,-1.68 -2.143,-0.028 -5.72,0.004 -8.014,0.016 -0.595,0.439 -0.447,1.085 -0.451,1.677 -0.014,1.75 -0.011,3.5 -0.012,5.25 -0.009,1.178 0.254,1.408 -0.883,1.39 -1.879,-0.006 -2.883,0 -4.804,0 -0.802,0 -0.802,0.49 -0.802,0.49 0.023,0.916 -0.012,0.998 0,1.82 0.023,1.569 -0.043,3.256 0,4.796 0.023,0.814 0.168,1.238 -0.767,1.239 -1.361,0.004 -2.42,0.041 -3.781,0.004 -1.043,-0.029 -1.534,0.375 -1.495,1.456 0.047,1.208 0.018,2.42 0.021,3.63 -0.056,1.875 -0.056,1.875 -0.023,3.745 0.016,0.864 0.016,0.864 -0.679,0.864 -1.315,0 -2.972,0.018 -4.399,0.008 -1.428,-0.008 -1.408,0.123 -1.395,1.342 0.014,1.159 0.029,3.789 0.021,5.983 -0.004,1.364 -0.275,1.485 -1.492,1.496 -1.215,0.011 -2.762,0 -3.629,0.042 -0.545,0.027 -0.881,0.097 -0.893,1.108 -0.031,3.302 -0.031,2.549 -0.031,6.88 0,1.098 -0.233,1.238 -1.245,1.227 -2.131,-0.027 -2.131,-0.006 -4.087,0.011 -0.675,0.007 -0.675,0.007 -0.666,1.418 0.016,1.97 0,3.057 0,5.92 0,0.733 -0.646,1.487 -1.383,1.487 -1.506,-0.001 -3.184,-0.032 -3.982,-0.032 -1.129,0 -1.129,0 -1.127,1.532 0.003,2.093 -0.02,10.377 -0.019,13.761 0,0.704 -0.083,2.129 -1.317,2.982 -3.751,2.592 -4.174,7.577 -4.248,8.729 l -0.271,2.678 c -0.201,1.113 -0.282,49.928 -0.195,50.775 -0.032,1.459 -0.032,1.459 1.426,1.572 1.861,0.107 0,0 1.356,0.236 1.438,0.494 1.862,1.683 1.862,2.992 -0.065,1.242 0.289,3.891 0.399,5.102 0.127,1.382 0.917,1.529 1.883,1.326 1.442,-0.307 2.878,-0.415 4.346,-0.422 1.632,-0.006 2.054,-0.391 2.144,-2.006 0.088,-1.537 0.032,-3.827 0.072,-5.368 -0.038,-1.91 -0.031,-2.765 2.115,-2.765 2.453,0.309 5.137,-0.215 7.222,-0.521 2.712,-0.255 1.974,0.521 2.226,4.17 0.004,1.34 0.32,2.484 0.451,3.721 0.482,1.477 0.919,2.08 3.225,1.891 0.679,-0.068 1.371,-0.025 2.057,-0.027 3.473,-0.116 3.473,-0.116 3.518,-2.789 0,-1.23 -0.014,-4.271 0.012,-5.191 0.035,-1.13 0.353,-2.189 1.885,-2.381 2.575,-0.3 3.057,-0.285 4.984,-0.321 1.043,-0.021 1.961,0.03 2.531,0.052 1.613,0.059 2.189,0.078 2.157,2.068 0.032,1.186 0.155,4.404 0.474,5.771 0.654,2.241 0.654,2.219 3.028,1.916 0.752,-0.099 1.809,-0.007 2.574,-0.012 3.186,-0.034 3.186,-0.034 3.186,-2.457 0,-0.135 0.055,-4.607 0.027,-5.654 -0.027,-0.971 0.119,-2.018 1.453,-2.125 1.641,-0.038 2.613,-0.012 4.115,-0.012 1.236,0.002 2.723,-0.062 3.861,-0.021 1.77,0.061 1.543,0.815 1.748,1.28 0.414,1.933 0.4,4.089 0.414,4.751 0,1.285 0.295,2.215 0.469,3.32 0.219,1.392 0.727,2 1.896,1.715 1.672,-0.406 3.338,-0.395 5.018,-0.373 1.15,0.016 1.928,-0.937 1.924,-1.945 -0.006,-0.738 -0.076,-0.936 -0.072,-1.795 0.004,-1.916 0.008,-2.791 -0.004,-3.889 0,-2.431 0.209,-3.029 0.902,-3.029 2.082,-0.052 3.207,0.013 4.646,0 1.51,-0.014 3.492,0 4.254,0 1.293,0 1.354,0.388 1.535,1.624 0.07,0.631 0.424,4.253 0.479,6.983 0.127,1.191 0.652,1.704 1.631,1.436 1.834,-0.504 4.287,-0.293 6.121,-0.338 1.117,-0.027 1.424,-0.514 1.475,-1.557 0.051,-1.193 -0.043,-2.352 -0.189,-3.541 0,-0.871 0,-2.617 0.027,-3.438 0.025,-0.691 0.223,-0.863 0.533,-1.101 0.119,-0.092 0.133,-0.063 0.283,-0.155 0.848,-0.521 0.594,-0.478 0.564,-1.4 -0.021,-0.629 0.01,-1.643 -0.008,-2.347 -0.062,-2.602 0.006,-3.728 0.021,-6.33 -0.008,-4.581 -0.082,-10.122 -0.004,-14.706 0.049,-3.499 0.049,-6.836 0,-10.352 0.049,-4.046 0.039,-8.246 -0.004,-12.25 l -0.494,-4.756 z"
         id="path3500"
         style="fill:#ecc96c;fill-rule:evenodd" /><path
         d="m 633.316,538.574 c -0.904,-2.961 -0.758,-6.043 -1.021,-9.076 -0.088,-1.003 -0.881,-6.6 -0.985,-8.156 -0.405,-6.045 -1.088,-12.066 -1.523,-18.108 -0.402,-5.649 -1.272,-11.265 -1.366,-16.94 1.077,-1.721 2.749,-1.057 4.132,-0.816 4.59,0.797 8.545,2.955 11.83,6.249 4.188,4.199 7.037,9.259 9.158,14.757 0.02,0.229 1.383,2.844 1.314,3.067 -2.363,3.141 -7.322,1.913 -10.156,-1.253 -0.459,0.26 -0.047,-0.395 0,0 1.482,2.734 -0.285,3.246 -2.256,3.918 -0.92,0.312 -0.879,0.923 -0.006,1.454 0.939,0.569 4.248,0.296 4.307,1.784 -0.039,0.448 -0.689,1.754 -0.965,2.093 -0.586,1.161 -0.67,0.655 -0.615,1.576 1.875,-2.858 6.387,-4.836 11.242,-3.429 0.555,0.491 1.195,2.227 1.371,2.892 1.58,6.022 2.709,12.127 3.326,18.321 0.029,0.309 0.307,1.068 0.223,1.365 0.01,-0.021 -6.568,0.395 -11.768,0.445 -0.187,0.138 -11.308,-0.022 -16.242,-0.143 z"
         id="path3502"
         style="fill:#c66735;fill-rule:evenodd" /><path
         d="m 656.977,516.086 c -2.277,0.285 -6.756,0.193 -8.984,0.992 -1.584,0.57 -2.742,1.338 -2.717,3.38 -1.922,-1.35 -2.109,-3.072 -1.762,-4.985 -1.344,-0.723 -3.057,-0.711 -4.033,-2.201 0.826,-0.923 1.93,-1.333 2.877,-1.949 0.564,-0.361 0.936,-0.67 0.594,-1.467 -0.697,-1.619 0.182,-2.898 1.012,-4.394 0.824,2.507 1.992,3.303 4.697,3.231 1.689,-0.043 4.133,-0.279 5.82,-0.424 0.753,-0.066 2.972,5.526 2.496,7.817 z"
         id="path3504"
         style="fill:#ebaf24;fill-rule:evenodd" /><path
         d="m 620.99,538.631 c -5.684,-0.038 -11.369,-0.031 -17.053,-0.042 -0.021,-0.133 -0.047,-0.265 -0.076,-0.397 -1.078,-1.645 -0.939,-3.574 -1.043,-5.368 -0.277,-4.771 -0.125,-9.556 -0.079,-14.332 0.008,-0.62 0.105,-1.231 0.419,-1.777 3.307,-0.002 6.643,-0.308 9.879,0.722 0.916,0.291 1.492,1.004 2.051,1.74 0.525,-0.395 0.635,-0.988 0.558,-1.471 -0.3,-1.828 0.478,-2.908 2.127,-3.57 0.712,-0.284 1.368,-1.043 0.271,-1.42 -2.198,-0.758 -2.616,-2.29 -2.479,-4.287 0.021,-0.286 -0.117,-0.602 -0.424,-0.828 -3.057,2.801 -6.629,2.995 -10.432,1.97 -0.388,-0.552 -0.352,-1.166 -0.189,-1.76 1,-3.583 1.862,-7.227 4.071,-10.332 0.186,-0.138 0.638,-1.032 0.694,-1.26 3.619,-6.492 9.456,-9.628 16.516,-10.88 0.824,-0.145 1.701,-0.125 2.388,0.537 1.299,3.066 0.751,6.363 1.092,9.541 0.726,6.704 0.952,13.459 1.569,20.18 0.033,0.383 0.055,0.77 0.012,1.15 -0.055,0.532 0.65,2.707 0.387,5.526 -0.012,0.229 -0.052,0.458 -0.107,0.683 -0.338,1.293 -0.451,2.588 0.034,3.877 0.2,0.4 0.39,0.807 0.491,1.246 0.348,1.648 -0.135,3.595 0.176,5.047 0.385,1.801 0.661,3.601 0.278,5.438 -2.059,0.021 -4.12,0.038 -6.18,0.073 -0.75,0.015 -4.152,-0.002 -4.951,-0.006 z"
         id="path3506"
         style="fill:#c66735;fill-rule:evenodd" /><path
         d="m 603.158,516.714 c 0.045,-2.339 1.062,-4.973 1.704,-7.22 2.292,-0.115 4.594,0.202 6.876,-0.431 1.627,-0.448 2.836,-1.128 2.963,-3.165 1.822,1.488 1.877,3.225 1.385,5.105 1.289,0.822 2.994,0.939 3.855,2.496 -0.893,0.859 -2.02,1.186 -3.014,1.729 -0.588,0.318 -0.982,0.6 -0.7,1.417 0.573,1.669 -0.398,2.878 -1.341,4.308 -0.635,-2.563 -1.738,-3.443 -4.439,-3.576 -1.69,-0.082 -3.387,-0.043 -5.08,-0.021 -0.756,0.006 -2.037,0.24 -2.209,-0.642 z"
         id="path3508"
         style="fill:#ebaf24;fill-rule:evenodd" /><path
         d="m 660.859,538.102 c -0.713,-7.012 -1.977,-13.823 -3.768,-20.639 -0.055,-0.209 -2.645,-8.516 -3.875,-11.232 0.068,-1.149 -0.449,-1.532 1.223,-1.447 1.492,4.424 3.939,10.321 5.021,14.865 1.416,5.946 3.105,11.93 3.115,18.043 0,0.602 0,0.602 -0.32,0.582 -0.312,0 -0.623,-0.002 -0.93,-0.002 -0.544,0.05 -0.425,0.021 -0.466,-0.17 z"
         id="path3510"
         style="fill:#25201f;fill-rule:evenodd" /><path
         d="m 627.995,485.895 c -7.165,0.114 -12.809,3.195 -17.149,8.811 -0.469,0.604 -0.918,1.22 -1.375,1.831 -0.788,0.149 -1.09,-0.198 -0.979,-0.962 1.166,-3.01 3.596,-4.985 5.989,-6.861 4.959,-3.887 10.798,-5.152 16.956,-4.648 4.883,0.398 9.17,2.475 12.811,5.783 4.58,4.167 7.844,9.238 10.191,14.936 0.084,0.2 -0.053,1.942 -0.992,1.952 -2.055,-4.488 -4.209,-8.923 -7.492,-12.681 -4.504,-5.157 -9.898,-8.496 -17.038,-8.188 -0.299,0.277 -0.607,0.261 -0.922,0.027 z"
         id="path3512"
         style="fill:#25201f;fill-rule:evenodd" /><path
         d="m 609.76,496.146 c -1.954,3.816 -4.278,9.065 -4.898,13.348 -0.265,1.053 -1.257,7.145 -1.267,7.283 -0.303,5.762 -0.438,11.524 0.088,17.283 0.125,1.378 0.381,3.143 0.254,4.528 -1.382,0.128 -1.791,0.333 -1.912,-0.737 -0.621,-5.515 -0.696,-12.599 -0.383,-18.117 0.355,-6.281 1.434,-12.481 3.643,-18.433 0.668,-1.805 3.084,-6.005 3.992,-7.325 0.945,-0.002 0.474,1.235 0.483,2.17 z"
         id="path3514"
         style="fill:#25201f;fill-rule:evenodd" /><path
         d="m 627.995,485.895 c 0.306,-0.01 0.616,-0.02 0.923,-0.027 0.144,0.436 0.427,0.881 0.398,1.305 -0.189,2.699 0.362,5.349 0.596,8.004 0.2,2.268 0.241,4.565 0.711,6.825 0.414,2.015 0.293,4.111 0.469,6.163 0.209,2.505 0.59,5.007 0.66,7.539 0.055,1.971 0.729,4.182 0.795,6.176 0.053,1.534 0.24,0.842 0.486,3.139 0.418,1.203 -0.062,4.084 0.047,5.271 0.223,2.333 0.438,4.666 0.725,6.99 0.061,0.501 -0.055,0.885 -0.244,1.295 -0.482,-0.002 -0.961,-0.007 -1.441,-0.011 -0.807,-1.878 -0.254,-3.96 -0.889,-5.861 -0.066,-0.199 -0.12,-2.768 -0.008,-4.688 -0.591,-1.658 -0.389,-3.393 -0.469,-5.098 -0.012,-2.169 -0.332,-6.857 -0.567,-7.717 -0.394,-1.45 -0.238,-2.902 -0.37,-4.348 -0.314,-3.428 -0.266,-6.885 -0.836,-10.289 -0.041,-0.229 -0.071,-0.463 -0.057,-0.689 0.231,-3.544 -0.743,-7.029 -0.488,-10.571 0.084,-1.172 -0.636,-2.229 -0.441,-3.408 z"
         id="path3516"
         style="fill:#ebaf24;fill-rule:evenodd" /><path
         d="m 670.186,301.48 c -5.758,0.005 -11.514,0.012 -17.271,0.019 -2.207,0 -2.324,-1.305 -2.689,-2.601 -0.133,-0.72 -0.594,-2.892 -0.631,-3.269 -0.43,-2.672 -0.814,-5.345 -0.305,-8.051 5.594,0.354 11.191,0.509 16.795,0.417 2.457,-0.039 4.875,-0.698 7.344,-0.366 0.125,2.469 -0.369,4.896 -0.488,7.349 -0.332,1.624 -0.656,3.25 -1.002,4.874 -0.201,0.942 -0.529,1.773 -1.753,1.628 z"
         id="path3518"
         style="fill:#e2a647;fill-rule:evenodd" /><path
         d="m 660.531,410.099 c 3.316,0 6.629,-0.022 9.939,0.011 1.533,0.015 1.631,0.159 1.658,1.537 0.023,1.495 -0.127,1.697 -1.725,1.703 -6.551,0.021 -13.104,0.02 -19.654,0 -0.666,-0.072 -1.783,-0.86 -1.242,-2.395 0.283,-0.807 0.496,-0.844 1.082,-0.848 3.315,-0.017 6.628,-0.007 9.942,-0.008 z"
         id="path3520"
         style="fill:#ad7031;fill-rule:evenodd" /><path
         d="m 663.078,346.341 c -0.881,0.016 -1.76,0.031 -2.639,0.046 -0.049,-1.368 -0.223,-2.858 0.215,-4.19 0.182,-0.555 0.332,-1.188 1.082,-1.21 0.791,-0.021 0.852,0.705 1.016,1.292 0.373,1.334 0.43,2.391 0.326,4.062 z"
         id="path3522"
         style="fill:#1b1819;fill-rule:evenodd" /><path
         d="m 660.611,325.764 c 0.119,-0.49 0.328,-1.082 1.01,-1.07 0.553,0.012 0.783,0.499 0.891,0.922 0.264,1.029 0.473,2.076 0.639,3.126 0.178,1.136 -0.465,1.459 -1.492,1.438 -1.004,-0.022 -1.447,-0.203 -1.34,-1.467 0.072,-0.85 0.109,-2.215 0.292,-2.949 z"
         id="path3524"
         style="fill:#1b1819;fill-rule:evenodd" /><path
         d="m 662.746,311.538 c 0.006,1.787 -0.104,1.907 -1.305,1.992 -1.076,0.079 -1.525,-0.345 -1.496,-1.443 0.033,-1.249 0.301,-2.421 0.879,-3.513 0.367,-0.69 0.926,-0.577 1.219,0.006 0.486,0.954 0.609,1.784 0.703,2.958 z"
         id="path3526"
         style="fill:#1b1819;fill-rule:evenodd" /><path
         d="m 659.908,295.642 c 0,0.457 0.016,0.917 0,1.373 -0.057,1.692 -0.152,1.778 -1.857,1.778 -1.695,0 -1.76,-0.051 -1.83,-1.819 -0.037,-0.915 -0.045,-1.833 0.004,-2.747 0.061,-1.161 0.746,-1.78 1.867,-1.955 1.367,-0.214 1.748,0.103 1.812,1.54 0.028,0.608 0.004,1.219 0.004,1.83 z"
         id="path3528"
         style="fill:#1b1819;fill-rule:evenodd" /><path
         d="m 662.244,294.224 c 0.084,-0.698 -0.35,-1.621 0.725,-1.932 0.967,-0.282 2.328,0.31 2.678,1.29 0.531,1.481 0.52,3.029 -0.057,4.495 -0.471,1.185 -1.58,0.636 -2.436,0.663 -0.84,0.029 -0.912,-0.643 -0.914,-1.292 -0.002,-0.691 0.11,-2.486 0.004,-3.224 z"
         id="path3530"
         style="fill:#1b1819;fill-rule:evenodd" /><path
         d="m 627.025,357.982 c 0.186,-1.278 1.523,-2.801 3.27,-3.194 1.367,-0.309 1.764,-0.013 1.793,1.439 0.053,2.437 0.059,4.875 0.086,7.313 -0.027,2.003 -0.088,4.005 -0.068,6.007 0.012,0.987 -0.387,1.317 -1.356,1.391 -3.23,0.246 -3.568,0.023 -3.649,-3.251 -0.08,-3.233 -0.057,-6.47 -0.076,-9.705 z"
         id="path3532"
         style="fill:#1b1819;fill-rule:evenodd" /><path
         d="m 639.541,358.449 c 0.012,2.625 0.021,5.25 0.029,7.874 0.033,0.926 0.012,1.661 0,2.58 0.025,0.772 0.34,1.764 -0.65,2 -1.182,0.28 -2.891,0.236 -4.068,-0.19 -0.479,-0.173 -0.396,-0.79 -0.396,-1.245 -0.002,-4.321 0.043,-8.643 0.01,-12.964 -0.012,-1.787 -0.012,-1.787 1.855,-1.787 2.261,0.481 3.101,2.409 3.22,3.732 z"
         id="path3534"
         style="fill:#1b1819;fill-rule:evenodd" /><path
         d="m 520.494,465.431 c 1.337,0.41 1.494,1.639 1.826,2.706 0.65,2.086 0.539,4.25 0.531,6.397 -0.005,1.614 -0.062,3.226 -0.094,4.837 0.107,0.76 0.1,1.607 -0.407,2.314 l -0.005,0.005 c -3.598,0.562 -3.91,0.319 -3.949,-3.153 -0.039,-3.378 -0.135,-6.76 0.654,-10.081 0.264,-1.106 0.361,-2.306 1.444,-3.025 z"
         id="path3536"
         style="fill:#1b1819;fill-rule:evenodd" /><path
         d="m 520.494,465.431 c -1.488,4.725 -1.509,9.592 -1.385,14.468 0.041,1.703 0.062,1.705 1.861,1.771 0.458,0.017 0.916,0.015 1.375,0.022 -1.673,0.86 -3.434,0.358 -5.149,0.267 -0.728,-0.039 -0.843,-0.782 -0.841,-1.432 0.004,-1.611 -0.112,-3.234 0.03,-4.833 0.226,-2.507 0.317,-5.042 0.968,-7.493 0.273,-1.032 0.599,-2.076 1.535,-2.757 0.536,-0.388 1.135,-0.26 1.606,-0.013 z"
         id="path3538"
         style="fill:#ad7031;fill-rule:evenodd" /><path
         d="m 511.224,465.47 c 1.49,1.044 1.59,2.695 1.867,4.267 0.7,3.977 0.392,7.943 -0.127,11.905 -0.777,0.522 -1.649,0.169 -2.475,0.266 -1.064,0.126 -1.661,-0.445 -1.69,-1.43 -0.134,-4.388 -0.604,-8.802 0.729,-13.101 0.263,-0.851 0.481,-1.852 1.696,-1.907 z"
         id="path3540"
         style="fill:#1b1819;fill-rule:evenodd" /><path
         d="m 511.224,465.47 c -1.518,1.731 -1.602,3.958 -1.787,6.03 -0.249,2.816 -0.096,5.672 -0.062,8.511 0.019,1.593 0.07,1.606 1.751,1.655 0.703,0.021 1.102,-0.013 1.839,-0.024 -0.786,0.883 -2.472,0.419 -3.708,0.337 -0.662,-0.045 -0.969,-0.201 -1.871,-0.149 -0.315,-0.024 -0.391,-0.294 -0.391,-0.535 0.02,-4.564 -0.301,-9.229 0.997,-13.632 0.22,-0.744 0.481,-1.461 1.039,-2.012 0.666,-0.657 1.394,-0.955 2.193,-0.181 z"
         id="path3542"
         style="fill:#ad7031;fill-rule:evenodd" /><path
         d="m 747.074,481.677 c -0.809,-4.56 -0.838,-9.122 0.123,-13.656 0.215,-1.019 0.52,-2.118 1.701,-2.56 1.881,1.741 1.809,4.144 2.035,6.387 0.225,2.209 0.078,4.444 0.062,6.67 -0.034,3.494 -0.368,3.753 -3.921,3.159 z"
         id="path3544"
         style="fill:#1b1819;fill-rule:evenodd" /><path
         d="m 747.074,481.677 c 3.564,-0.048 3.252,0.382 3.205,-3.232 -0.041,-3.146 0.293,-6.301 -0.408,-9.437 -0.268,-1.205 -0.812,-2.322 -0.973,-3.547 1.018,-0.895 1.717,-0.162 2.295,0.549 0.531,0.653 0.775,1.481 0.994,2.316 1.059,4.01 0.918,8.096 0.904,12.181 -0.002,1.065 -0.49,1.623 -1.529,1.554 -1.496,-0.102 -3.056,0.482 -4.488,-0.384 z"
         id="path3546"
         style="fill:#ad7031;fill-rule:evenodd" /><path
         d="m 756.801,481.677 c -0.809,-4.558 -0.834,-9.116 0.123,-13.651 0.215,-1.023 0.545,-2.104 1.678,-2.592 1.217,0.092 1.344,1.141 1.6,1.963 1.309,4.249 1.066,8.62 0.885,12.979 -0.047,1.085 -0.65,1.673 -1.811,1.536 -0.825,-0.098 -1.68,0.211 -2.475,-0.235 z"
         id="path3548"
         style="fill:#1b1819;fill-rule:evenodd" /><path
         d="m 756.801,481.677 c 4.195,-0.08 3.654,0.563 3.68,-3.685 0.021,-2.837 0.162,-5.684 -0.455,-8.489 -0.309,-1.419 -0.576,-2.843 -1.424,-4.069 1.008,-0.82 1.725,-0.174 2.305,0.551 0.521,0.653 0.781,1.463 1.002,2.292 1.078,4.046 0.939,8.173 0.904,12.296 -0.004,0.662 -0.16,1.369 -0.885,1.392 -1.711,0.05 -3.467,0.621 -5.127,-0.288 z"
         id="path3550"
         style="fill:#ad7031;fill-rule:evenodd" /><path
         d="m 600.675,429.104 c 0.002,-2.231 -0.031,-4.462 0.013,-6.692 0.024,-1.277 0.505,-1.607 1.743,-1.361 1.824,0.364 3.105,1.799 3.318,3.634 0.435,3.73 -0.104,7.456 -0.029,11.185 0.021,0.986 -0.447,1.356 -1.406,1.353 -4.4,-0.013 -3.574,0.193 -3.635,-3.272 -0.028,-1.617 -0.006,-3.232 -0.004,-4.847 z"
         id="path3552"
         style="fill:#1b1819;fill-rule:evenodd" /><path
         d="m 631.672,429.105 c -0.002,2.238 -0.023,4.478 0.007,6.717 0.013,0.982 -0.406,1.328 -1.375,1.399 -2.969,0.221 -3.558,-0.169 -3.665,-3.12 -0.11,-3.007 -0.087,-6.021 -0.02,-9.031 0.038,-1.871 1.364,-3.456 3.044,-3.943 1.446,-0.418 1.975,-0.051 2,1.493 0.034,2.161 0.009,4.323 0.009,6.485 z"
         id="path3554"
         style="fill:#1b1819;fill-rule:evenodd" /><path
         d="m 634,429.021 c 0.004,-2.231 -0.025,-4.46 0.014,-6.689 0.025,-1.225 0.396,-1.524 1.549,-1.281 1.424,0.301 2.553,1.042 3.076,2.484 0.156,0.432 0.359,0.879 0.369,1.326 0.125,3.607 0.25,7.211 -0.207,10.814 -0.168,1.32 -0.748,1.602 -1.951,1.563 -3.211,-0.099 -2.832,0.082 -2.846,-2.913 -0.012,-1.766 -0.004,-3.536 -0.004,-5.304 z"
         id="path3556"
         style="fill:#1b1819;fill-rule:evenodd" /><path
         d="m 598.371,428.98 c -10e-4,2.235 -0.034,4.473 0.014,6.708 0.023,1.071 -0.363,1.522 -1.466,1.529 -3.835,0.021 -3.048,0.14 -3.308,-2.976 -0.197,-2.385 -0.351,-4.758 -0.351,-7.148 10e-4,-1.1 0.232,-2.145 0.461,-3.193 0.326,-1.5 1.359,-2.389 2.792,-2.797 1.355,-0.383 1.823,-0.035 1.848,1.398 0.036,2.157 0.01,4.319 0.01,6.479 z"
         id="path3558"
         style="fill:#1b1819;fill-rule:evenodd" /><path
         d="m 672.424,428.722 c -0.152,2.456 -0.316,4.913 -0.449,7.37 -0.041,0.75 -0.367,1.141 -1.135,1.126 -0.152,-0.003 -0.311,0 -0.461,0.007 -3.086,0.123 -3.09,0.123 -3.09,-2.91 -0.002,-3.853 -0.018,-7.705 0.004,-11.558 0.014,-1.796 0.375,-2.013 2.043,-1.515 1.484,0.441 2.385,1.393 2.641,2.895 0.259,1.513 0.585,3.029 0.447,4.585 z"
         id="path3560"
         style="fill:#1b1819;fill-rule:evenodd" /><path
         d="m 664.619,429.186 c 0,2.072 0.025,4.146 -0.008,6.219 -0.027,1.738 -0.059,1.741 -1.861,1.805 -0.076,0.002 -0.152,0 -0.23,0.002 -2.531,0.049 -2.623,0.046 -2.545,-2.484 0.062,-2.087 -0.092,-3.918 -0.119,-5.991 -0.02,-1.559 -0.104,-3.235 0.145,-4.736 0.258,-1.542 1.834,-2.808 3.418,-2.966 0.941,-0.092 1.203,0.42 1.197,1.242 -0.004,2.303 0,4.607 0,6.91 -10e-4,-0.001 -10e-4,-0.001 0.003,-0.001 z"
         id="path3562"
         style="fill:#1b1819;fill-rule:evenodd" /><path
         d="m 488.72,519.688 c -1.309,0 -2.617,0.024 -3.926,-0.004 -2.604,-0.058 -3.578,-1.027 -3.587,-3.688 -0.004,-1.601 -0.157,-3.2 0.38,-4.797 0.49,-1.457 1.276,-2.355 2.822,-2.669 1.209,-0.246 2.396,-0.466 3.639,-0.449 1.453,0.018 2.91,0.132 4.345,-0.345 0.56,-0.187 1.228,-0.137 1.832,-0.064 2.875,0.346 3.927,2.062 3.451,4.844 -0.603,3.515 0.007,2.055 -1.201,4.893 -0.646,1.518 -1.7,2.307 -3.369,2.279 -1.462,-0.023 -2.925,-0.006 -4.386,-0.006 0,0.002 0,0.004 0,0.006 z"
         id="path3564"
         style="fill:#a66336;fill-rule:evenodd" /><path
         d="m 495.057,528.029 c -1.065,0 -1.991,0.019 -2.917,-0.004 -2.457,-0.065 -3.91,-1.472 -4.004,-3.85 -0.072,-1.777 1.729,-3.732 3.806,-3.476 2.607,0.324 5.222,0.185 7.806,0.51 1.234,0.157 2.33,0.712 2.854,2.048 0.654,1.677 0.076,3.253 -1.55,4.047 -1.967,0.958 -4.067,0.668 -5.995,0.725 z"
         id="path3566"
         style="fill:#a66336;fill-rule:evenodd" /><path
         d="m 505.833,511.791 c 2.024,0.279 4.183,0.255 5.301,2.519 1.106,2.235 0.077,4.571 -2.389,4.81 -2.071,0.2 -4.094,0.559 -6.12,0.97 -0.667,0.138 -1.392,0.097 -2.073,0.013 -1.508,-0.19 -2.354,-1.207 -2.174,-2.716 0.115,-0.981 0.421,-1.946 0.716,-2.896 0.463,-1.49 1.444,-2.352 3.081,-2.221 1.251,0.099 2.383,-0.678 3.658,-0.479 z"
         id="path3568"
         style="fill:#a66336;fill-rule:evenodd" /><path
         d="m 515.957,483.079 c 2.9,-0.228 5.925,0.743 9.014,0.466 0.461,-0.043 1.023,0.016 1.183,0.52 0.21,0.657 -0.376,0.999 -0.849,1.17 -1.812,0.645 -3.727,1.32 -5.61,0.995 -2.54,-0.44 -5.06,-0.31 -7.591,-0.36 -0.866,-0.016 -1.691,-0.1 -2.431,-0.581 -0.326,-0.212 -0.656,-0.444 -0.603,-0.896 0.051,-0.439 0.379,-0.71 0.76,-0.761 1.064,-0.14 2.055,-0.646 3.166,-0.564 0.921,0.062 1.851,0.011 2.961,0.011 z"
         id="path3570"
         style="fill:#a66336;fill-rule:evenodd" /><path
         d="m 501.863,509.955 c -1.357,-0.127 -2.382,-0.598 -2.928,-1.723 -0.326,-0.673 -0.113,-1.341 0.449,-1.863 0.91,-0.843 1.959,-0.667 3.007,-0.381 0.287,0.078 0.563,0.236 0.817,0.4 0.666,0.428 1.193,0.954 1.122,1.84 -0.074,0.931 -0.794,1.242 -1.504,1.527 -0.342,0.14 -0.735,0.156 -0.963,0.2 z"
         id="path3572"
         style="fill:#a66336;fill-rule:evenodd" /><path
         d="m 503.722,485.395 c -0.751,-0.068 -1.841,0.244 -2.127,-1.025 -0.166,-0.74 0.758,-1.225 2.32,-1.285 0.153,-0.004 0.307,-0.004 0.461,-10e-4 0.975,0.026 2.395,-0.118 2.373,1.081 -0.018,0.992 -1.409,1.193 -2.439,1.23 -0.154,0.002 -0.31,0 -0.588,0 z"
         id="path3574"
         style="fill:#a66336;fill-rule:evenodd" /><path
         d="m 783.402,519.684 c -1.461,0 -2.922,0.012 -4.385,-0.004 -1.723,-0.018 -2.916,-0.854 -3.531,-2.457 -0.777,-2.018 -1.303,-4.076 -1.127,-6.283 0.16,-1.977 0.529,-2.404 2.475,-2.98 1.074,-0.317 2.09,-0.416 3.158,-0.086 1.35,0.415 2.748,0.162 4.127,0.216 1.068,0.044 2.115,0.147 3.188,0.325 2.564,0.437 3.111,1.287 3.686,4.27 0.26,1.332 0.131,2.764 0.029,4.142 -0.125,1.788 -1.148,2.741 -3.008,2.839 -1.535,0.079 -3.074,0.014 -4.611,0.014 -10e-4,0 -10e-4,0.002 -10e-4,0.004 z"
         id="path3576"
         style="fill:#a66336;fill-rule:evenodd" /><path
         d="m 774.471,528.021 c -1.48,-0.091 -3.254,0.212 -4.973,-0.455 -1.791,-0.696 -2.684,-1.81 -2.508,-3.365 0.18,-1.625 1.484,-2.925 3.23,-3.098 0.912,-0.091 1.842,-0.01 2.768,-0.027 1.223,-0.024 2.438,0.071 3.646,-0.342 0.881,-0.3 1.801,-0.112 2.703,0.214 1.936,0.695 2.609,1.626 2.457,3.592 -0.141,1.854 -1.338,3.173 -3.133,3.459 -0.15,0.021 -0.307,0.022 -0.459,0.022 -1.151,0.001 -2.306,0 -3.731,0 z"
         id="path3578"
         style="fill:#a66336;fill-rule:evenodd" /><path
         d="m 765.904,511.785 c 1.562,0.182 3.17,0.309 4.754,0.576 0.939,0.158 1.744,0.686 2.035,1.682 0.318,1.1 0.729,2.186 0.762,3.352 0.053,1.809 -0.562,2.49 -2.359,2.738 -1.492,0.206 -2.9,-0.279 -4.328,-0.525 -1.061,-0.184 -2.1,-0.368 -3.182,-0.422 -2.049,-0.102 -3.379,-1.154 -3.549,-2.661 -0.18,-1.586 1.08,-3.567 2.674,-4.171 0.504,-0.19 1.02,-0.377 1.545,-0.472 0.525,-0.093 1.07,-0.069 1.648,-0.097 z"
         id="path3580"
         style="fill:#a66336;fill-rule:evenodd" /><path
         d="m 753.51,483.066 c 2.428,0.034 4.352,-0.145 6.221,0.486 0.459,0.152 0.947,0.271 1.018,0.783 0.098,0.675 -0.443,0.898 -0.98,1.064 -0.221,0.064 -0.441,0.201 -0.66,0.203 -4.635,0.027 -9.266,1.305 -13.898,0.021 -0.369,-0.101 -0.752,-0.196 -1.088,-0.368 -0.473,-0.24 -1.057,-0.527 -0.898,-1.162 0.123,-0.5 0.695,-0.589 1.16,-0.549 3.232,0.278 6.402,-0.757 9.125,-0.478 z"
         id="path3582"
         style="fill:#a66336;fill-rule:evenodd" /><path
         d="m 770.146,509.939 c -0.639,0.054 -1.213,-0.129 -1.75,-0.445 -1.127,-0.666 -1.297,-1.73 -0.385,-2.646 0.859,-0.867 1.941,-1.189 3.145,-1.044 0.777,0.093 1.568,0.273 1.773,1.171 0.213,0.944 0.09,1.775 -0.873,2.372 -0.613,0.38 -1.193,0.655 -1.91,0.592 z"
         id="path3584"
         style="fill:#a66336;fill-rule:evenodd" /><path
         d="m 765.674,483.082 c 0.689,-0.016 1.365,-0.005 1.996,0.346 0.387,0.217 0.908,0.338 0.826,0.92 -0.061,0.398 -0.398,0.703 -0.748,0.805 -1.424,0.42 -2.84,0.457 -4.178,-0.32 -0.328,-0.191 -0.648,-0.434 -0.549,-0.894 0.07,-0.338 0.381,-0.433 0.643,-0.579 0.633,-0.356 1.33,-0.251 2.01,-0.278 z"
         id="path3586"
         style="fill:#a66336;fill-rule:evenodd" /><path
         d="m 780.676,435.802 c -1.621,0.268 -3.416,-0.22 -5.227,-0.504 -1.234,-0.193 -2.33,-0.788 -3.273,-1.577 -1.555,-1.315 -1.316,-2.84 0.508,-3.781 0.766,-0.393 1.537,-0.691 2.418,-0.604 2.734,0.267 5.465,0.54 8.043,1.603 0.881,0.365 1.521,1.02 2.166,1.674 0.529,0.533 0.814,1.152 0.549,1.873 -0.285,0.771 -0.869,1.279 -1.723,1.309 -1.075,0.035 -2.151,0.007 -3.461,0.007 z"
         id="path3588"
         style="fill:#a66336;fill-rule:evenodd" /><path
         d="m 770.402,435.352 c 1.512,-0.281 3.111,0.535 4.795,0.538 0.355,0.001 0.732,0.227 1.061,0.417 0.664,0.391 1.414,0.824 1.27,1.725 -0.145,0.932 -0.861,1.338 -1.787,1.501 -2.705,0.472 -5.273,0.077 -7.73,-1.104 -0.859,-0.412 -1.707,-0.854 -1.438,-2.032 0.254,-1.106 1.172,-1.034 2.021,-1.043 0.535,-0.006 1.07,-0.002 1.808,-0.002 z"
         id="path3590"
         style="fill:#a66336;fill-rule:evenodd" /><path
         d="m 762.484,429.172 c 0.641,-1.51 1.611,-0.83 2.891,-1.162 0.646,-0.17 1.363,-0.053 2.051,-0.062 0.945,-0.029 2.184,0.591 2.316,0.93 l -0.004,0.002 c 0.422,1.918 -0.166,2.882 -2.062,3.182 -4.326,0.023 -5.043,-1.531 -5.043,-1.531 -0.295,-0.395 -0.412,-0.696 -0.149,-1.359 z"
         id="path3592"
         style="fill:#a66336;fill-rule:evenodd" /><path
         d="m 722.953,451.117 c -0.148,-0.008 -1.225,-0.238 -1.373,-0.479 -0.156,-0.154 -0.314,-0.312 -0.475,-0.463 -0.426,-0.616 -0.422,-1.231 -0.01,-1.85 1.273,-0.627 2.564,-0.619 3.891,-0.156 0.697,0.243 1.609,0.311 2.131,0.625 0.17,0.248 0.367,0.484 0.508,0.748 0.545,1.034 0.387,1.49 -0.678,1.854 -1.363,0.463 -2.677,0.046 -3.994,-0.279 z"
         id="path3594"
         style="fill:#a66336;fill-rule:evenodd" /><path
         d="m 718.299,447.873 c 0.262,0.507 0.602,1.409 -0.25,3.303 -0.191,0.221 -0.619,0.427 -1.123,0.392 -2.516,-0.232 -4.953,0.598 -7.479,0.517 -1.723,-0.055 -3.135,-0.4 -4.094,-1.914 -0.098,-0.342 -0.098,-0.562 0,-0.898 0.16,-0.154 0.229,-0.945 1.387,-1.407 0.928,-0.313 1.854,-0.626 2.783,-0.94 0.355,-0.248 1.025,-0.451 1.396,-0.443 1.078,-0.002 2.156,-0.005 3.234,-0.008 1.445,0.214 3.255,0.658 4.146,1.398 z"
         id="path3596"
         style="fill:#a66336;fill-rule:evenodd" /><path
         d="m 713.693,444.609 c -0.168,-0.231 -0.053,-0.914 -0.014,-0.914 0.463,-0.965 1.584,-1.648 2.791,-1.857 1.232,-0.361 2.627,-0.312 3.895,-0.114 0.459,0.007 2.777,0.522 3.484,1.021 0.535,0.379 0.951,0.748 0.938,1.447 -0.016,0.704 -0.377,1.133 -1.041,1.331 -0.143,0.043 -0.289,0.101 -0.443,0.124 -3.088,0.488 -6.184,0.946 -9.156,-0.551 l -0.004,-0.009 c -0.135,-0.173 -0.293,-0.325 -0.45,-0.478 z"
         id="path3598"
         style="fill:#a66336;fill-rule:evenodd" /><path
         d="m 569.026,486.313 c 1.388,0 2.779,0.062 4.163,-0.019 1.219,-0.065 1.874,0.457 2.15,1.596 0.089,0.372 0.266,0.725 0.35,1.102 0.588,2.605 0.178,3.203 -2.467,3.58 -2.987,0.43 -5.994,0.152 -8.992,0.228 -0.961,0.023 -1.426,-0.373 -1.403,-1.361 0.026,-1.231 0.039,-2.467 -0.005,-3.698 -0.039,-1.152 0.561,-1.448 1.58,-1.422 1.539,0.038 3.084,0.01 4.624,0.01 0,-0.006 0,-0.009 0,-0.016 z"
         id="path3600"
         style="fill:#a66336;fill-rule:evenodd" /><path
         d="m 577.304,499.751 c -1.074,0 -2.156,0.062 -3.226,-0.016 -1.562,-0.112 -2.688,-1.011 -2.895,-2.182 -0.286,-1.612 0.499,-3.062 2.067,-3.669 2.394,-0.928 4.805,-0.921 7.167,0.096 1.816,0.783 2.548,3.471 1.481,5.115 -0.342,0.529 -0.807,0.66 -1.367,0.66 -1.076,0 -2.152,0 -3.229,0 0.002,10e-4 0.002,-10e-4 0.002,-0.004 z"
         id="path3602"
         style="fill:#a66336;fill-rule:evenodd" /><path
         d="m 568.849,512.627 c 0.181,1.09 -0.23,2.271 -0.459,3.477 -0.182,0.942 -0.764,1.308 -1.645,1.243 -1.309,-0.095 -2.381,-0.618 -2.933,-1.894 -0.183,-0.423 -0.329,-0.867 -0.425,-1.318 -0.732,-3.429 0.592,-4.911 4.063,-4.662 0.946,0.069 1.45,0.364 1.403,1.367 -0.025,0.539 -0.006,1.08 -0.004,1.787 z"
         id="path3604"
         style="fill:#a66336;fill-rule:evenodd" /><path
         d="m 568.742,503.41 c 1.004,0.059 1.477,0.02 1.912,0.126 1.066,0.255 1.762,0.935 1.866,2.049 0.1,1.075 -0.566,1.663 -1.5,2.026 -1.238,0.484 -2.509,0.709 -3.795,0.309 -0.806,-0.253 -1.548,-0.639 -1.616,-1.689 -0.063,-0.946 0.309,-1.618 1.07,-2.119 0.792,-0.522 1.662,-0.746 2.063,-0.702 z"
         id="path3606"
         style="fill:#a66336;fill-rule:evenodd" /><path
         d="m 568.471,498.635 c 0.013,1.859 -0.632,2.685 -2.024,2.846 -0.887,0.103 -1.541,-0.222 -1.641,-1.174 -0.08,-0.757 -0.055,-1.532 -0.038,-2.299 0.025,-1.047 0.538,-1.775 1.575,-1.978 1.184,-0.229 1.623,0.646 1.947,1.541 0.155,0.423 0.157,0.898 0.181,1.064 z"
         id="path3608"
         style="fill:#a66336;fill-rule:evenodd" /><path
         d="m 578.886,491.835 c -1.047,0.146 -2.014,0.628 -2.121,-0.769 -0.101,-1.295 0.794,-2.799 1.678,-2.875 1.072,-0.092 2.416,1.27 2.406,2.582 -0.016,1.705 -1.432,0.842 -1.963,1.062 z"
         id="path3610"
         style="fill:#a66336;fill-rule:evenodd" /><path
         d="m 706.135,530.891 c 0.562,0.122 1.484,-0.008 1.648,0.906 0.195,1.076 -0.502,2.419 -1.506,2.58 -1.674,0.268 -3.396,0.268 -5.064,0.006 -1.213,-0.192 -1.828,-1.869 -1.316,-3.018 0.242,-0.534 0.699,-0.549 1.158,-0.561 0.771,-0.021 1.543,-0.005 2.312,-0.005 0,0.013 1.883,-0.099 2.768,0.092 z"
         id="path3612"
         style="fill:#a66336;fill-rule:evenodd" /><path
         d="m 707.971,519.143 c -0.121,0.366 -0.152,0.604 -0.924,1.035 -3.221,1.799 -6.707,1.32 -10.127,1.303 -1.15,-0.004 -1.775,-0.84 -1.797,-2.006 -0.023,-1.385 0.01,-2.77 -0.002,-4.154 -0.006,-0.737 0.338,-1.051 1.059,-1.239 2.887,-0.759 5.807,-0.466 8.709,-0.293 1.096,0.065 2.088,0.902 2.688,1.823 0.696,1.512 0.394,3.531 0.394,3.531 z"
         id="path3614"
         style="fill:#a66336;fill-rule:evenodd" /><path
         d="m 704.947,528.348 c -1.975,-0.27 -3.293,-3.023 -2.217,-4.652 0.244,-0.366 0.637,-0.459 1.016,-0.4 1.285,0.203 2.637,0.301 3.227,1.792 0.138,0.341 0.191,3.562 -2.026,3.26 z"
         id="path3616"
         style="fill:#a66336;fill-rule:evenodd" /><path
         d="m 541.443,448.988 c 1.339,-2.024 4.793,-2.099 5.836,-0.123 0.234,0.445 0.117,0.924 -0.147,1.309 -0.896,1.301 -1.723,2.723 -3.532,2.633 -0.414,-0.02 -3.655,-1.553 -2.157,-3.819 z"
         id="path3618"
         style="fill:#a66336;fill-rule:evenodd" /><path
         d="m 550.7,450.628 c -0.184,-0.316 -0.054,-1.251 -0.015,-1.251 0.513,-1.322 1.753,-2.258 3.08,-2.545 1.362,-0.495 2.904,-0.428 4.301,-0.155 0.509,0.007 3.069,0.714 3.852,1.397 0.592,0.518 1.052,1.023 1.033,1.98 -0.016,0.965 -0.417,1.553 -1.148,1.824 -0.16,0.061 -0.32,0.139 -0.487,0.169 -3.415,0.671 -6.831,1.297 -10.113,-0.755 l -0.004,-0.012 c -0.153,-0.235 -0.327,-0.442 -0.499,-0.652 z"
         id="path3620"
         style="fill:#a66336;fill-rule:evenodd" /><path
         d="m 551.056,441.326 c 0.689,0 1.354,0.069 2.031,0.319 2.286,0.851 2.523,1.53 1.224,3.835 -0.249,0.312 -1.234,0.527 -1.385,0.54 -1.683,-0.003 -3.366,-0.042 -5.048,0.008 -0.943,0.027 -1.81,-0.236 -2.685,-0.561 -0.652,-0.243 -1.026,-0.7 -1.046,-1.492 -0.02,-0.785 0.393,-1.202 0.932,-1.629 0.706,-0.561 4.751,-1.017 5.977,-1.02 z"
         id="path3622"
         style="fill:#a66336;fill-rule:evenodd" /><path
         d="m 711.789,462.67 c -1.902,0.068 -3.969,0.068 -6.115,-0.159 -0.717,-0.19 -1.514,-0.065 -2.271,-0.098 -0.844,-0.037 -1.275,0.332 -1.273,1.2 0,1.293 -0.029,0.551 -0.039,1.844 -0.002,0 0.002,0.002 0.002,0.002 0.074,1.393 0.191,3.368 0.074,3.733 -0.043,0.733 -0.629,1.362 -1.613,1.381 -1.844,0.036 -3.691,-0.035 -5.523,0.389 -0.973,0.224 -2.211,-0.759 -2.311,-1.839 -0.094,-1.436 -1.5,-6.718 -1.57,-8.042 -2.135,-6.421 -1.008,-13.322 -0.76,-20.279 0.076,-2.123 2.145,-1.333 3.502,-1.335 1.131,0.411 2.344,0.299 3.5,0.527 1.156,0.428 2.402,0.191 3.574,0.477 0.938,0.227 1.986,0.285 2.457,1.359 0.102,1.252 0.143,2.434 0.432,3.716 0.012,1.351 0.248,2.833 0.254,4.175 0.332,2.369 0.131,5.223 0.607,7.639 0.047,0.234 0.406,0.294 0.541,0.227 1.615,-0.077 1.598,-0.077 3.424,0.029 0.609,0.033 1.205,0.02 1.816,-0.01 0.979,-0.045 1.406,2.252 1.342,3.227 -0.042,0.61 -0.036,1.224 -0.05,1.837 z"
         id="path3624"
         style="fill:#ecc96c;fill-rule:evenodd" /><path
         d="m 577.044,468.706 c -0.03,0.531 -0.039,1.064 -0.096,1.593 -0.073,0.684 -0.438,1.184 -1.157,1.164 -1.906,-0.049 -3.775,0.301 -5.659,0.459 -0.887,0.075 -1.428,-0.193 -1.486,-1.227 -0.053,-0.977 -0.695,-3.308 -0.78,-3.521 -1.298,-3.253 -1.22,-3.944 -4.837,-3.54 -1.801,0.202 -1.561,0.45 -3.858,0.547 -0.131,0.005 -0.839,-0.017 -0.982,-0.561 -0.429,-1.628 -0.395,-3.327 -0.444,-5.025 -0.021,-0.784 0.648,-1.058 0.977,-1.075 1.663,-0.082 2.758,-0.252 4.16,-0.287 1.727,-0.042 1.732,-0.063 1.832,-1.826 0.026,-0.457 0.006,-0.916 0.008,-1.375 0,0 0.984,-11.068 1.168,-12.311 0.639,-1.305 8.5,-1.457 8.81,-1.473 1.007,-0.109 2.022,-0.259 2.806,0.628 0.404,0.692 0.453,1.464 0.451,2.233 -0.008,6.227 0.345,13.086 0.191,19.312 0.057,2.169 -0.811,4.177 -1.104,6.285 z"
         id="path3626"
         style="fill:#ecc96c;fill-rule:evenodd" /><path
         d="m 518.515,379.738 c 1.423,-0.632 0.154,-1.179 -0.057,-1.757 0.368,-0.214 0.56,-0.524 0.438,-0.944 -0.081,-0.29 -0.263,-0.551 -0.351,-0.841 -0.21,-0.709 -0.17,-1.38 0.537,-1.805 0.497,-0.297 1.062,-0.31 1.493,0.087 0.55,0.502 0.702,1.104 0.334,1.849 -1.006,2.038 -0.649,4.131 -0.136,6.216 0.426,0.391 0.577,0.9 0.632,1.451 0.127,1.965 -0.227,3.956 0.3,5.9 0.142,0.654 0.204,1.318 0.203,1.986 0.047,1.846 -0.242,3.708 0.287,5.529 0.309,3.464 0.135,6.877 1.102,10.28 -1.373,1.291 -2.897,1.235 -4.385,0.33 0.018,-5.897 0.039,-11.796 0.05,-17.693 0.002,-0.906 0.174,-1.854 -0.491,-2.639 0.598,-0.362 0.496,-0.939 0.469,-1.496 -0.533,-0.629 -0.937,-1.314 -0.943,-2.169 0.568,-0.105 1.006,-0.339 0.981,-1.014 -0.022,-0.605 -0.048,-1.208 -0.069,-1.812 0.042,-0.535 -0.857,-0.812 -0.394,-1.458 z"
         id="path3628"
         style="fill:#7a797a;fill-rule:evenodd" /><path
         d="m 495.287,388.396 c -2.07,-1.002 -4.225,-0.797 -6.377,-1.077 0.358,-1.046 1.197,-1.561 1.998,-2.084 2.593,-1.697 5.454,-2.377 8.54,-2.297 2.669,0.068 3.476,-0.329 4.074,-2.741 1.224,-4.921 5.291,-5.892 9.608,-4.89 1.97,0.458 3.68,1.529 5.329,2.674 1.272,0.621 1.55,1.291 0.097,2.036 -0.145,0.009 -0.295,-0.009 -0.441,0.004 -0.375,0.036 -0.244,0.166 -0.046,0.296 0.495,0.326 1.052,0.587 1.269,1.21 0.219,1.061 0.345,2.097 -0.811,2.75 -0.418,0.163 -0.87,0.107 -1.305,0.17 -1.484,0.211 -0.388,0.618 -0.049,0.955 0.489,0.227 1.029,0.298 1.521,0.515 0.217,0.109 0.377,0.272 0.489,0.485 0.093,0.611 0.227,1.246 -0.712,1.282 -1.828,-0.208 -3.638,-0.573 -5.496,-0.103 -1.272,0.321 -2.35,0.813 -2.715,2.174 -0.328,1.229 -1.271,1.75 -2.334,1.972 -3.927,0.811 -7.642,0.417 -10.91,-2.158 -0.604,-0.473 -0.456,-0.394 -1.729,-1.173 z"
         id="path3630"
         style="fill:#b83d2f;fill-rule:evenodd" /><path
         d="m 753.744,408.51 c -1.096,-0.043 -1.725,0.104 -2.732,-0.504 -0.773,-0.906 -0.674,-2.012 -0.674,-3.078 -0.004,-5.069 -0.049,-10.139 0.018,-15.206 0.113,-0.772 -0.025,-1.542 -0.061,-2.312 0.039,-0.691 0.174,-1.378 0.164,-2.073 0.061,-0.955 -0.07,-1.906 -0.088,-2.856 0.051,-0.467 0.803,-0.708 0.422,-1.318 0.131,-0.643 -0.602,-1.214 -0.16,-1.883 0.396,-0.07 0.836,-0.202 0.646,-0.697 -0.16,-0.416 -0.545,-0.736 -0.793,-1.124 -0.416,-0.653 -0.084,-1.209 0.354,-1.659 0.572,-0.59 1.26,-0.516 1.885,-0.061 0.559,0.409 0.852,1.036 0.396,1.607 -1.104,1.391 -0.754,2.995 -0.566,4.454 0.309,2.461 0.314,4.918 0.396,7.38 0.02,0.609 -0.07,1.248 0.393,1.761 -0.066,5.342 0.502,10.86 0.959,16.176 0.047,0.528 0.164,1.393 -0.559,1.393 z"
         id="path3632"
         style="fill:#7a797a;fill-rule:evenodd" /><path
         d="m 748.721,388.637 c -1.066,0.02 -2.15,-0.071 -3.197,0.093 -1.48,0.231 -2.738,0.795 -3.25,2.467 -0.52,1.686 -2.119,1.838 -3.545,2.006 -2.699,0.319 -6.041,0.156 -7.875,-1.026 -3.363,-2.386 -5.883,-3.841 -9.787,-3.509 0.357,-1.234 1.238,-1.73 2.033,-2.251 2.596,-1.701 5.49,-2.326 8.561,-2.242 2.477,0.067 3.391,-0.3 3.906,-2.625 1.09,-4.922 5.703,-6.193 9.758,-4.992 1.936,0.576 3.682,1.53 5.309,2.722 0.156,0.626 1.252,1.043 0.418,1.888 -0.803,0.029 -1.168,0.28 -0.529,1.042 0.926,0.935 0.518,2.096 0.535,3.184 -0.613,0.574 -1.428,0.21 -2.24,0.477 0.215,0.947 1.463,0.638 1.719,1.423 0.545,0.467 0.584,1.082 0.518,1.731 -0.152,-0.006 -0.305,-0.022 -0.457,-0.046 -0.575,-0.404 -1.293,-0.002 -1.877,-0.342 z"
         id="path3634"
         style="fill:#b83d2f;fill-rule:evenodd" /><path
         d="m 540.893,346.861 c -0.765,-2.402 -1.194,-5.318 -1.59,-8.027 -0.21,-1.445 -0.241,-2.872 -0.313,-4.309 -0.042,-0.834 -0.049,-3.142 1.799,-3.219 1.635,-0.069 1.898,0.077 3.479,0.583 1.47,0.47 1.297,1.945 1.631,3.087 0.197,0.744 0.191,1.514 0.254,2.277 0.068,0.848 0.076,1.803 1.257,1.842 1.099,0.036 1.919,-0.448 2.273,-1.562 0.401,-1.266 0.19,-2.597 0.426,-3.879 0.071,-0.38 0.217,-0.733 0.474,-1.037 1.096,-0.985 2.453,-0.787 3.746,-0.799 2.158,-0.021 4.318,-0.044 6.477,0.025 1.844,0.061 2.854,0.959 2.967,2.836 0.057,1 0.079,2.006 0.361,2.98 0.231,0.803 0.611,1.441 1.594,1.317 0.824,-0.105 1.481,-0.449 1.656,-1.351 0.236,-1.211 0.238,-2.453 0.546,-3.657 0.297,-1.162 0.883,-2.038 2.153,-2.055 3.648,-0.05 7.307,-0.39 10.941,0.108 0.271,0.038 1.225,0.621 1.359,0.885 0.784,1.503 0.225,3.332 0.785,4.899 0.252,0.701 0.455,1.332 1.338,1.3 0.792,-0.03 1.543,-0.189 1.905,-1.023 0.247,-0.572 0.21,-1.207 0.358,-1.804 0.358,-0.963 0.223,-1.988 0.372,-2.978 0.085,-0.411 0.243,-0.781 0.544,-1.081 1.598,-0.954 3.238,-1.124 4.903,-0.699 0.83,0.21 1.391,0.814 1.562,1.339 0.723,2.229 -0.264,4.494 -0.43,6.736 -0.051,0.68 -0.326,1.345 -0.373,2.041 -0.699,2.909 -1.418,5.818 -2.457,8.629 -1.349,3.647 -1.453,3.71 -5.297,3.74 -2.812,-0.171 -9.512,-0.226 -11.992,-0.15 -3.851,0.273 -7.2,0.177 -10.798,0.225 -4.37,0.059 -8.377,-0.391 -13.112,0.007 -1.143,-0.005 -1.143,-0.005 -3.123,0.023 -3.889,-0.017 -3.092,0.305 -4.282,-3.061 -0.406,-1.149 -0.987,-3.042 -1.393,-4.188 z"
         id="path3636"
         style="fill:#e2a647;fill-rule:evenodd" /><path
         d="m 665.258,263.021 c 1.18,0.026 2.389,-0.076 3.551,0.104 1.641,0.256 3.039,0.885 3.609,2.746 0.578,1.871 3.867,3.093 5.453,3.282 3,0.354 5.201,-0.88 7.24,-2.195 3.74,-2.652 6.541,-4.268 10.879,-3.9 -0.393,-1.372 -1.377,-1.924 -2.258,-2.504 -2.885,-1.889 -6.111,-2.583 -9.516,-2.49 -2.754,0.075 -3.771,-0.333 -4.346,-2.917 -1.213,-5.472 -6.34,-6.884 -10.84,-5.549 -2.154,0.642 -4.098,1.703 -5.906,3.025 -0.168,0.696 -1.389,1.159 -0.463,2.098 0.895,0.032 1.297,0.311 0.586,1.159 -1.027,1.039 -0.57,2.329 -0.592,3.537 0.68,0.639 1.586,0.235 2.49,0.532 -0.24,1.051 -1.627,0.709 -1.912,1.581 -0.605,0.52 -0.652,1.204 -0.574,1.923 0.168,-0.005 0.34,-0.023 0.506,-0.052 0.638,-0.445 1.44,10e-4 2.093,-0.38 z"
         id="path3638"
         style="fill:#b83d2f;fill-rule:evenodd" /><path
         d="m 660.137,248.783 c 0.447,-1.737 1.201,-3.435 0.018,-5.289 -0.594,-0.939 -0.197,-1.952 0.707,-2.648 0.832,-0.642 1.961,-0.541 2.742,0.208 0.648,0.622 0.959,2.038 0.283,2.763 -1.516,1.629 -0.666,3.248 -0.266,4.902 0.023,0.29 1.881,9.858 1.863,11.093 0.35,3.26 1.906,10.851 2.295,12.498 0.047,0.199 0.076,0.317 0.279,0.502 0.623,0.373 2.328,0.048 2.379,0.021 1.203,-0.283 1.412,0.035 1.426,1.709 0.055,0.802 -0.035,1.522 -0.088,2.503 -0.123,2.171 -0.166,4.226 0.205,6.371 0.197,1.178 0.977,2.064 1.551,3.052 0.25,0.432 0.445,0.818 -0.104,1.16 -1.979,1.052 -4.189,0.929 -6.283,1.017 -5.814,0.238 -11.646,0.309 -17.43,-0.558 -0.961,-0.271 -1.301,-1.023 -0.777,-1.746 2.072,-2.852 1.238,-6.008 1.127,-9.096 -0.033,-1.071 -0.072,-2.142 0.049,-3.211 0.113,-1.036 0.584,-1.729 1.732,-1.738 0.906,0.076 1.52,0.227 2.609,0.022 0.133,-0.051 0.432,-0.032 0.564,-0.38 1.398,-4.031 2.104,-7.995 3.049,-12.224 0.23,-1.032 2.038,-10.656 2.07,-10.931 z"
         id="path3640"
         style="fill:#b83d2f;fill-rule:evenodd" /><path
         d="m 568.001,382.954 c -3.279,0.153 -2.567,-1.21 -1.621,-3.386 1.056,-3.153 1.771,-4.789 2.523,-6.876 1.142,-3.167 2.061,-6.468 2.896,-9.652 0.716,-2.72 1.449,-4.79 2.262,-8.094 0.1,-0.519 0.493,-2.623 0.594,-4.308 0.075,-0.498 0.21,-0.896 0.785,-0.955 0.592,-0.059 1.102,0.089 1.24,0.736 0.174,0.82 0.68,2.102 0.81,2.932 0.589,1.998 0.704,3.053 1.048,4.589 1.174,4.491 2.343,8.988 3.997,13.32 3.069,0.917 6.22,0.878 9.367,0.87 0.646,-0.002 1.242,0.123 1.141,0.252 -0.532,0.684 -1.675,2.067 -2.208,2.609 -0.243,0.253 -0.639,0.302 -0.963,0.435 -0.734,0.308 -1.486,0.565 -2.264,0.743 -0.205,0.067 -0.417,0.122 -0.626,0.181 -0.199,0.071 -0.409,0.125 -0.616,0.177 -1.794,0.192 -2.306,1.067 -1.602,2.763 0.395,0.95 0.833,1.959 0.347,3.046 -1.173,1.277 -2.753,1.015 -4.132,0.836 -4.991,-0.647 -7.85,-0.066 -12.978,-0.218 z"
         id="path3642"
         style="fill:#b83d2f;fill-rule:evenodd" /><path
         d="m 588.33,332.374 c 1.896,-0.166 3.547,-0.324 5.428,-0.239 1.551,-0.042 1.75,-0.406 0.848,-1.508 -1.509,-1.841 -3.5,-3.245 -4.822,-5.262 -5.68,-6.972 -9.588,-14.956 -13.227,-23.099 -0.157,-0.389 -1.156,-3.009 -1.246,-3.206 -2.053,-4.792 -3.627,-9.757 -5.316,-14.685 -0.512,-1.481 -0.617,-2.739 0.433,-4.072 0.864,-1.097 1.261,-2.45 0.927,-3.899 -1.205,-2.99 -3.058,-4.389 -5.594,-4.217 -2.484,0.167 -4.035,1.773 -4.854,5.042 -0.01,0.243 0.008,0.48 0.062,0.717 0.182,0.659 0.253,1.348 0.583,1.961 0.823,1.011 1.632,1.954 1.067,3.471 -1.193,3.211 -3.744,12.158 -4.125,13.007 -0.068,0.297 -5.615,13.679 -9.061,19.716 -0.873,1.528 -8.109,11.3 -8.109,11.3 -0.133,0.172 -0.294,0.319 -0.443,0.476 0,0 -1.701,1.63 -2.893,3 -0.674,0.774 -0.306,1.177 0.537,1.224 1.223,-0.006 2.447,-0.051 3.67,-0.009 2.396,0.078 2.85,0.147 3.26,2.577 v 0.684 c 0.033,1.077 0.057,2.153 0.1,3.23 0.035,0.84 0.491,1.274 1.33,1.235 0.535,-0.024 1.338,-0.076 1.872,-0.085 1.358,-0.071 1.367,-0.482 1.589,-1.885 0.275,-1.612 0.186,-2.935 0.307,-4.542 0.115,-0.49 0.551,-0.709 0.818,-0.712 3.46,-0.035 6.922,-0.046 10.381,-0.025 1.017,0.005 1.24,0.751 1.238,1.596 -0.003,1.542 0.156,3.059 0.429,4.579 0.159,0.897 0.587,1.195 1.392,1.107 0.684,-0.073 1.4,0.06 2.084,0.015 1.02,-0.065 1.213,-0.977 1.213,-1.864 -0.002,-1.305 0.186,-2.593 0.346,-3.89 0.166,-1.347 0.75,-1.611 1.935,-1.597 3.715,0.042 7.149,0.063 10.865,0.01 0.742,-0.01 0.709,0.714 0.709,0.714 0.113,1.284 0.187,2.643 0.376,4.188 0.283,2.307 0.283,2.307 1.689,2.431 1.287,-0.084 1.287,-0.084 2.332,-0.205 0.887,-0.162 1.488,-0.724 1.289,-3.137 0,-1.207 -0.139,-2.776 -0.117,-3.074 -0.002,0 -0.005,-1.009 0.698,-1.068 z"
         id="path3644"
         style="fill:#b83d2f;fill-rule:evenodd" /><path
         d="m 690.146,348.221 c 2.07,-0.014 2.029,-0.008 2.258,2.134 0.156,1.464 6.857,25.858 8.469,31.166 0.186,0.609 -0.156,1.069 -0.34,1.122 -2.121,0.573 -4.291,0.621 -6.477,0.597 -2.762,-0.033 -5.436,0.19 -8.275,0.352 -3.35,0 -3.07,-0.284 -3.371,-2.152 0.021,-1.419 -0.141,-4.542 -3.178,-5.649 -0.354,-0.167 -3.457,-0.421 -3.695,-0.578 -0.146,-0.105 -2.59,-4.286 -2.529,-4.512 0.076,-0.086 10.893,0.718 11.553,-0.053 2.182,-5.981 3.57,-12.17 4.588,-18.46 0.488,-1.191 0.064,-2.571 0.699,-3.731 0.099,-0.081 0.201,-0.158 0.298,-0.236 z"
         id="path3646"
         style="fill:#b83d2f;fill-rule:evenodd" /><path
         d="m 669.445,389.37 c 1.648,2.352 2.797,3.832 3.047,6.603 -0.002,4.782 -0.006,9.564 -0.008,14.346 0.008,2.252 0.158,1.641 -0.014,3.277 -0.514,0.688 -1.264,0.439 -1.92,0.441 -6.529,0.019 -13.064,0.02 -19.596,0.008 -2.113,-0.005 -2.104,-0.029 -2.135,-2.203 -0.086,-5.606 0.23,-11.199 0.494,-16.793 0.764,-3.578 3.121,-5.932 6.031,-7.864 0.887,-0.457 1.75,-0.954 2.656,-1.364 3.459,-1.565 7.602,-0.371 9.76,1.743 1.185,1.159 1.013,0.984 1.685,1.806 z"
         id="path3648"
         style="fill:#1b1819;fill-rule:evenodd" /><path
         d="m 599.711,387.633 c 1.056,-0.605 2.075,-1.289 3.173,-1.805 2.66,-1.251 5.303,-1.214 7.854,0.352 0.519,0.317 1.029,0.65 1.541,0.976 2.594,2.065 4.283,4.96 4.92,7.056 0.137,0.396 0.219,1.364 0.171,1.784 0.005,3.773 0.064,7.55 -0.014,11.32 -0.038,1.709 0.237,3.546 0.11,5.253 -0.117,1.59 0.185,1.465 -1.468,1.472 -6.854,0.021 -13.709,0.021 -20.563,-0.002 -1.66,-0.005 -1.773,-0.072 -1.724,-1.677 0.122,-3.918 -0.009,-7.942 0.335,-11.756 0.119,-1.752 0.056,-3.382 0.065,-5.076 0.182,-2.698 1.79,-4.606 3.631,-6.334 0.603,-0.564 1.259,-1.108 1.969,-1.563 z"
         id="path3650"
         style="fill:#1b1819;fill-rule:evenodd" /><path
         d="m 605.591,410.328 c 3.279,0 6.56,-0.022 9.838,0.01 1.515,0.016 1.613,0.16 1.637,1.539 0.024,1.494 -0.123,1.695 -1.704,1.7 -6.485,0.021 -12.968,0.021 -19.451,10e-4 -1.592,-0.004 -2.221,-1.039 -1.685,-2.574 0.283,-0.804 0.943,-0.665 1.521,-0.667 3.284,-0.015 6.563,-0.009 9.844,-0.009 z"
         id="path3652"
         style="fill:#ad7031;fill-rule:evenodd" /><path
         d="m 627.096,387.661 c 1.095,-0.656 3.013,-2 4.884,-2.407 2.741,-0.597 5.116,0.321 7.245,1.671 0.338,0.296 0.762,0.497 1.15,0.743 2.852,2.09 4.117,4.54 4.281,7.845 0.139,5.388 0.307,10.778 0.416,16.168 0.049,2.341 -0.002,2.361 -2.223,2.364 -6.479,0.011 -12.959,0.012 -19.443,-0.008 -0.654,-0.002 -1.858,0.018 -1.917,-0.928 0.002,-3.254 0.002,-1.307 0,-2.775 -0.01,-4.782 -0.02,-9.565 -0.033,-14.347 0.251,-3.63 2.551,-6.368 5.64,-8.326 z"
         id="path3654"
         style="fill:#1b1819;fill-rule:evenodd" /><path
         d="m 633.309,413.586 c -3.318,0.002 -6.628,0.023 -9.944,-0.01 -1.529,-0.016 -1.63,-0.158 -1.653,-1.539 -0.024,-1.493 0.126,-1.695 1.722,-1.7 6.554,-0.021 13.104,-0.021 19.657,0 1.605,0.005 1.781,0.859 1.242,2.396 -0.283,0.803 -0.496,0.844 -1.082,0.846 -3.315,0.015 -6.63,0.007 -9.942,0.007 z"
         id="path3656"
         style="fill:#ad7031;fill-rule:evenodd" /><path
         d="m 661.297,413.586 c -3.314,0.002 -6.625,0.023 -9.941,-0.01 -1.531,-0.016 -1.629,-0.158 -1.654,-1.539 -0.023,-1.493 0.125,-1.695 1.723,-1.7 6.551,-0.021 13.105,-0.021 19.656,0 1.605,0.005 1.783,0.859 1.246,2.396 -0.285,0.803 -0.498,0.844 -1.086,0.846 -3.315,0.015 -6.63,0.007 -9.944,0.007 z"
         id="path3658"
         style="fill:#ad7031;fill-rule:evenodd" /></g></g></svg>