<?xml version="1.0" encoding="UTF-8" standalone="no"?>
<!-- Created with Inkscape (http://www.inkscape.org/) -->

<svg
   xmlns:dc="http://purl.org/dc/elements/1.1/"
   xmlns:cc="http://creativecommons.org/ns#"
   xmlns:rdf="http://www.w3.org/1999/02/22-rdf-syntax-ns#"
   xmlns:svg="http://www.w3.org/2000/svg"
   xmlns="http://www.w3.org/2000/svg"
   version="1.1"
   width="90.107109"
   height="38.744984"
   id="svg30050">
  <defs
     id="defs30052" />
  <metadata
     id="metadata30055">
    <rdf:RDF>
      <cc:Work
         rdf:about="">
        <dc:format>image/svg+xml</dc:format>
        <dc:type
           rdf:resource="http://purl.org/dc/dcmitype/StillImage" />
        <dc:title></dc:title>
      </cc:Work>
    </rdf:RDF>
  </metadata>
  <g
     transform="translate(447.9107,412.75555)"
     id="layer1">
    <g
       transform="matrix(1.25,0,0,-1.7769995,-447.9107,-376.74388)"
       id="g4810">
      <path
         d="m 0,0 c 0.322,0.351 0.434,0.55 0.603,0.644 3.836,2.103 7.84,3.769 12.204,4.439 0.646,0.098 1.341,0.238 1.896,-0.073 1.37,-0.762 1.828,0.067 2.396,1.092 1.089,1.971 2.875,3.17 4.973,3.827 3.682,1.152 5.933,-0.249 6.64,-4.03 0.689,-0.183 0.772,0.47 1.052,0.805 2.803,3.332 5.668,6.611 8.783,9.657 1.81,1.772 3.871,3.138 6.412,3.681 4.522,0.97 7.562,-1.262 7.906,-5.845 0.023,-0.287 0.033,-0.57 0.326,-0.855 1.049,0.19 2.241,1.143 3.262,-0.151 1.186,-1.501 0.418,-2.963 -0.365,-4.636 1.49,-0.264 2.797,-0.263 4.098,0.002 1.132,0.233 2.273,0.307 3.41,0.168 C 65.813,8.458 66.665,6.827 65.57,4.891 65.051,3.975 64.318,3.182 63.605,2.23 64.256,1.706 64.988,1.944 65.648,1.925 67.074,1.883 68.502,1.97 69.901,1.573 70.529,1.395 71.137,1.193 71.585,0.703 71.934,0.325 72.184,-0.116 72.048,-0.656 71.896,-1.252 71.395,-1.359 70.885,-1.402 70.457,-1.44 70.029,-1.452 69.602,-1.464 60.6,-1.724 51.622,-1.252 42.638,-0.797 37.01,-0.513 31.357,-0.72 25.721,-0.539 17.442,-0.276 9.168,-0.133 0.886,-0.179 0.684,-0.181 0.484,-0.102 0,0"
         id="path4812"
         style="fill:#ffffff;fill-opacity:1;fill-rule:evenodd;stroke:none" />
    </g>
  </g>
</svg>
