<?xml version="1.0" encoding="UTF-8" standalone="no"?>
<!-- Generator: Adobe Illustrator 16.0.4, SVG Export Plug-In . SVG Version: 6.00 Build 0)  -->

<svg
   xmlns:dc="http://purl.org/dc/elements/1.1/"
   xmlns:cc="http://creativecommons.org/ns#"
   xmlns:rdf="http://www.w3.org/1999/02/22-rdf-syntax-ns#"
   xmlns:svg="http://www.w3.org/2000/svg"
   xmlns="http://www.w3.org/2000/svg"
   xmlns:sodipodi="http://sodipodi.sourceforge.net/DTD/sodipodi-0.dtd"
   xmlns:inkscape="http://www.inkscape.org/namespaces/inkscape"
   version="1.1"
   id="Layer_1"
   x="0px"
   y="0px"
   width="289.353"
   height="171.78606"
   viewBox="0 0 289.353 171.78606"
   enable-background="new 0 0 1280 800"
   xml:space="preserve"
   inkscape:version="0.48.5 r10040"
   sodipodi:docname="dragon.svg"><metadata
     id="metadata3785"><rdf:RDF><cc:Work
         rdf:about=""><dc:format>image/svg+xml</dc:format><dc:type
           rdf:resource="http://purl.org/dc/dcmitype/StillImage" /><dc:title></dc:title></cc:Work></rdf:RDF></metadata><defs
     id="defs3783" /><sodipodi:namedview
     pagecolor="#ffffff"
     bordercolor="#666666"
     borderopacity="1"
     objecttolerance="10"
     gridtolerance="10"
     guidetolerance="10"
     inkscape:pageopacity="0"
     inkscape:pageshadow="2"
     inkscape:window-width="1880"
     inkscape:window-height="1035"
     id="namedview3781"
     showgrid="false"
     fit-margin-top="0"
     fit-margin-left="0"
     fit-margin-right="0"
     fit-margin-bottom="0"
     inkscape:zoom="0.27421875"
     inkscape:cx="144.13371"
     inkscape:cy="86.262423"
     inkscape:window-x="0"
     inkscape:window-y="0"
     inkscape:window-maximized="1"
     inkscape:current-layer="Layer_1" /><path
     clip-rule="evenodd"
     d="m 273.11271,33.615631 c 0.578,0.021 0.986,0.146 1.523,0.358 0.186,0.17 0.463,0.008 0.648,0.17 0.068,-0.014 0.127,-0.002 0.191,0.031 0.139,0.102 0.318,0.076 0.469,0.149 l 0.152,0.024 c 0.742,0.055 1.428,0.312 2.104,0.592 h 0.143 c 0.596,0.078 1.008,0.296 1.537,0.581 0.119,0.109 0.303,0.064 0.418,0.181 v 0 l 0.094,0.022 c 0.623,0.131 1.09,0.379 1.594,0.76 l 0.096,0.032 c 0.592,0.19 1.002,0.478 1.389,0.965 0.068,0.083 0.133,0.163 0.223,0.219 l -0.006,-0.007 0.209,0.215 c 0.578,0.492 0.678,1.159 0.689,1.862 -0.41,1.021 -1.047,1.853 -2.025,2.399 l -3.09,3.607 c -0.16,0.181 -0.307,0.372 -0.48,0.539 -1.24,1.189 -3.27,1.344 -4.67,0.361 l -0.109,-0.05 c -0.438,-0.154 -0.529,-0.551 -0.908,-0.774 -0.178,-0.513 -0.623,-0.721 -0.73,-1.271 l -0.041,-0.14 c -0.367,-0.505 -0.629,-0.88 -0.771,-1.495 l -0.045,-0.162 0,0 c -0.117,-0.11 -0.082,-0.29 -0.186,-0.406 -0.172,-0.245 -0.266,-0.385 -0.283,-0.687 l -0.012,-0.128 c -0.404,-0.789 -0.684,-1.623 -0.84,-2.497 l -0.035,-0.177 c -0.09,-0.181 -0.152,-0.375 -0.244,-0.554 -0.055,-0.107 -0.094,-0.224 -0.162,-0.325 l 0.01,-0.003 c 0.037,-0.566 -0.332,-0.94 -0.275,-1.508 l 0.006,-0.127 c -0.367,-0.968 -0.506,-1.992 -0.697,-3 -0.062,-0.324 0.027,-0.551 0.432,-0.469 1.18,0.24 2.383,0.348 3.535,0.706 l 0.147,0.007 z"
     id="path3667"
     inkscape:connector-curvature="0"
     style="fill:#b57aab;fill-rule:evenodd" /><path
     clip-rule="evenodd"
     d="m 82.160708,20.302631 c 0.098,-0.887 0.396,-1.453 0.734,-2.261 l 0.092,-0.223 c 0.283,-0.723 0.527,-1.466 0.969,-2.113 0.076,-0.075 0.135,-0.158 0.178,-0.257 -0.012,-0.06 0.006,-0.116 0.033,-0.168 0.061,-0.078 0.129,-0.148 0.168,-0.237 l 0.045,-0.16 c 0.057,-0.311 0.365,-0.508 0.365,-0.841 0.537,-0.535 0.785,-1.292 1.381,-1.774 0,0 0.164,-0.297 0.232,-0.352 0.418,-0.608 0.861,-1.192 1.426,-1.679 l 0.141,-0.166 c 0.598,-0.7369995 1.219,-1.1399995 1.879,-1.8139995 0.08,-0.057 0.146,-0.121 0.215,-0.19 l -0.002,0.004 0.225,-0.21 -0.006,0.014 c 0.072,-0.166 0.293,-0.1 0.381,-0.246 l 0.006,-0.006 c 0.08,-0.059 0.145,-0.137 0.225,-0.195 l -0.014,0.011 c 0.096,-0.142 0.305,-0.099 0.395,-0.242 l 0.012,-0.007 c 0.078,-0.056 0.145,-0.136 0.223,-0.193 l -0.01,0.012 c 0.098,-0.145 0.297,-0.106 0.402,-0.238 l 0,0 c 0.084,-0.08 0.158,-0.156 0.264,-0.196 0.059,0.006 0.109,-0.008 0.154,-0.041 l 0.223,-0.185 -0.018,0.011 c 0.104,-0.146 0.307,-0.114 0.42,-0.229 l -0.004,0.007 c 0.082,-0.179 0.291,-0.122 0.416,-0.222 l -0.008,0.003 c 0.105,-0.14 0.299,-0.111 0.42,-0.224 l -0.01,0.006 c 0.107,-0.14 0.303,-0.111 0.422,-0.224 l -0.01,0.008 c 0.105,-0.143 0.299,-0.116 0.428,-0.22 l -0.014,0.008 c 0.104,-0.141 0.238,-0.132 0.389,-0.099 l 0.23,-0.142 v 0.004 c 0.102,-0.148 0.242,-0.211 0.422,-0.185 0.072,-0.003 0.137,-0.022 0.195,-0.059 0.115,-0.116 0.301,-0.087 0.422,-0.198 l -0.01,0.007 c 0.35,-0.355 0.857,-0.272 1.275,-0.45 0.061,0.012 0.117,0.002 0.17,-0.026 0.176,-0.177 0.453,-0.024 0.625,-0.21 l -0.008,0.005 c 0.242,-0.242 0.609,-0.008 0.85,-0.23 0.068,0.008 0.129,0 0.188,-0.03 0.553,-0.022 0.166,0.518 0.414,0.676 -0.105,0.176 -0.213,0.353 -0.402,0.457 -1.26,0.696 -2.346,1.636 -3.484,2.505 l -0.127,0.136 c -0.693,0.711 -1.252,1.287 -1.943,2 l -0.062,0.102 c -0.061,0.101 -1.141,1.6609995 -1.922,2.4729995 l -0.178,0.193 c -0.605,1.055 -1.215,2.11 -1.822,3.165 -0.074,0.075 -0.205,0.41 -0.205,0.41 -0.33,0.773 -1.004,2.595 -1.008,2.733 -0.074,1.305 -0.621,2.479 -1.023,3.692 l -0.184,0.376 c -0.031,0.257 -0.029,0.514 -0.031,0.772 -0.014,0.508 -0.104,1.009 -0.227,1.494 l -0.393,1.74 c 0.158,1.032 0.096,2.037 -0.338,2.999 -0.826,0.022 -1.547,0.024 -2.373,0.045 -0.158,0.036 -0.375,0.08 -0.514,0.08 -0.371,-0.074 -0.52,-0.256 -0.764,-0.493 -0.254,-0.271 -0.525,-0.527 -0.807,-0.774 -0.033,-0.033 -0.07,-0.062 -0.102,-0.094 -0.066,-0.063 -0.135,-0.126 -0.197,-0.194 -0.283,-0.455 -1.016,-0.452 -1.123,-1.091 0.176,-0.045 0.352,-0.11 0.357,-0.314 0.057,-1.446 0.451,-2.842 0.586,-4.275 0.43,-0.662 0.236,-1.4 0.678,-2.06 l 0.068,-0.111 z"
     id="path3669"
     inkscape:connector-curvature="0"
     style="fill:#e26d7a;fill-rule:evenodd" /><path
     clip-rule="evenodd"
     d="m 189.28571,133.71163 c 1.119,-0.135 2.217,0.249 3.336,0.133 l 0.354,-0.135 c 1.33,-0.199 2.664,-0.118 3.998,-0.164 l 1.072,-0.005 c 0.879,-0.286 1.771,-0.531 2.688,-0.282 -0.191,0.896 0.355,1.757 0.477,2.594 l 0.078,0.097 c 0.27,0.396 0.57,0.323 1.004,0.278 0.793,-0.078 1.146,0.155 1.578,0.762 l 0.164,0.182 c 0.297,0.381 0.48,0.697 0.434,1.072 -0.188,1.65 0.15,3.247 0.428,4.853 l 0.041,0.126 c 0.504,1.728 1.244,3.219 1.979,4.852 l 0.043,0.07 c 0.664,1.098 1.287,2.127 1.947,3.227 l 0.061,0.07 c 0.508,0.56 1.221,1.779 1.221,1.779 1.004,1.256 1.906,2.414 2.707,3.812 0,0 0.416,0.655 0.477,0.727 0.045,0.037 0.16,0.34 0.242,0.419 l 0.002,0.002 c 0.127,0.107 0.09,0.309 0.227,0.408 v -0.008 c 0.195,0.363 0.486,0.39 0.822,0.229 0.268,-0.066 0.537,-0.169 0.811,-0.192 1.602,-0.135 3.227,-0.279 4.178,1.473 0.076,0.535 -0.178,0.926 -0.539,1.269 -0.768,0.551 -1.617,0.735 -2.553,0.612 -0.475,-0.062 -0.965,-0.053 -1.447,-0.076 -0.17,-0.008 -0.436,-0.049 -0.482,0.09 -0.211,0.598 -0.803,1.071 -0.604,1.802 l 0.078,0.044 c 1.631,0.888 2.357,2.287 2.678,4.061 0.086,0.676 -0.168,1.064 -0.881,1.078 -0.281,-0.211 -0.613,-0.301 -0.936,-0.435 -1.197,-0.496 -2.09,-1.206 -2.619,-2.421 0,0 -0.146,-0.166 -0.189,-0.217 -0.172,-0.215 -0.328,-0.477 -0.662,-0.238 -0.252,0.179 -0.188,0.402 -0.1,0.641 0.096,0.258 0.197,0.52 0.24,0.786 0.211,1.361 0.465,2.733 -0.455,3.965 -0.342,0.491 -0.752,0.522 -1.221,0.197 -0.461,-0.319 -0.793,-0.747 -1.086,-1.222 -0.688,-1.125 -0.477,-2.316 -0.289,-3.508 -0.064,-0.232 -0.221,-0.373 -0.451,-0.447 -0.062,0.015 -0.119,0 -0.168,-0.037 l -0.412,-0.179 c -0.754,-0.183 -1.379,-0.586 -1.926,-1.134 l -0.086,-0.086 c -1.045,-0.586 -1.637,-1.438 -2.254,-2.426 l -0.076,-0.089 c -0.615,-0.719 -0.984,-1.358 -1.232,-2.282 l -0.023,-0.079 c -0.703,-1.301 -1.158,-2.608 -1.344,-4.077 v -0.078 c -0.51,-1.564 -0.729,-3.045 -0.73,-4.688 v -0.131 c -0.396,-0.682 -0.023,-1.495 -0.355,-2.286 -1.109,0.604 -2.17,1.18 -3.23,1.754 -0.361,0.195 -0.596,0.398 -1.082,0.519 l -0.139,0.028 c -1.715,0.485 -3.109,-0.166 -4.279,-1.213 l -0.098,-0.09 c -0.789,-0.588 -1.297,-1.395 -1.717,-2.268 -0.137,-0.097 -0.092,-0.295 -0.213,-0.4 l -0.006,-0.007 -0.07,-0.126 c -0.756,-1.29 -1.252,-2.527 -1.514,-4.008 v -0.124 c -0.355,-0.86 -0.645,-1.618 -0.678,-2.562 v -0.107 c -0.137,-0.124 -0.191,-0.383 -0.223,-0.559 -0.334,-2.066 -0.656,-4.033 -0.998,-6.1 1.32,0.277 2.518,0.307 3.85,0.475 l 0.152,0 z"
     id="path3671"
     inkscape:connector-curvature="0"
     style="fill:#87a23e;fill-rule:evenodd" /><path
     clip-rule="evenodd"
     d="m 196.09471,122.87663 c -0.182,-0.283 -0.393,-0.278 -0.713,-0.221 -2.514,0.446 -5.035,0.839 -7.6,0.933 -1.098,0.042 -2.223,0.341 -3.305,0.192 -1.656,-0.231 -3.314,-0.005 -4.973,-0.191 -1.332,-0.147 -2.678,-0.226 -4.018,-0.374 -0.314,-0.037 -1.65,-0.287 -2.289,-0.376 l -0.59,-0.216 c -1.34,-0.537 -2.17,-0.559 -3.537,-0.99 -2.162,-0.685 -4.307,-1.404 -6.428,-2.201 l -0.33,-0.107 c -1.176,-0.561 -2.818,-1.07 -3.891,-1.525 -2.42,-1.023 -4.863,-1.986 -7.299,-2.975 l -9.043,-3.537 c -1.252,-0.391 -2.518,-0.735 -3.836,-0.729 -1.643,0.009 -3.223,0.407 -4.711,1.067 -1.027,0.457 -1.984,1.068 -3.08,1.391 2.434,-0.278 4.713,0.343 6.949,1.21 1.471,0.572 2.938,1.168 4.342,1.908 l 7.879,3.976 c 0.611,0.337 1.223,0.672 1.838,1.007 1.734,1.148 6.281,3.357 7.41,3.753 2.217,0.971 4.43,1.953 6.65,2.908 0.857,0.369 1.738,0.682 2.604,1.02 l 0.859,0.354 c 3.176,1.237 6.434,2.218 9.732,3.058 0.234,0.057 3.453,0.715 4.832,0.996 0.57,0.117 1.156,0.262 1.738,0.336 0.84,0.252 6.021,0.54 7.342,0.515 1.803,-0.048 3.607,-0.095 5.412,-0.141 0.889,-0.082 2.135,-0.274 2.695,-0.46 0.92,-0.088 1.184,-0.24 1.977,-0.467 l 14.336,-12.865 c -0.041,-0.493 0.088,-0.953 0.242,-1.415 0.688,-2.099 1.086,-4.264 1.447,-6.435 l 0.018,-0.723 c 0.363,-1.789 0.393,-3.611 0.514,-5.424 -1.59,0.04 -1.252,-0.167 -1.922,1.211 -0.809,1.684 -1.844,3.234 -2.955,4.729 -0.053,0.048 -0.072,0.095 -0.053,0.139 0.021,0.046 0.037,0.069 0.053,0.067 l -18.296,10.602 z"
     id="path3673"
     inkscape:connector-curvature="0"
     style="fill:#efb028;fill-rule:evenodd" /><path
     clip-rule="evenodd"
     d="m 150.40171,142.62863 c 0.283,0.441 0.17,0.776 -0.197,1.113 -0.281,0.258 -0.928,0.139 -1.312,-0.225 -0.488,-0.457 -0.809,-1.015 -0.9,-1.687 -0.08,-0.145 -0.057,-0.33 -0.172,-0.461 -0.031,-0.06 -0.045,-0.048 -0.037,-0.114 l -0.002,-0.073 c -0.344,0.195 -0.102,0.632 -0.359,0.861 l 0.008,0.114 c -0.004,0.309 0.031,0.516 -0.031,0.815 -0.096,0.487 -0.033,1.187 -0.643,1.286 -0.623,0.1 -0.947,-0.508 -1.166,-1.004 -0.375,-0.833 -0.486,-1.593 -0.355,-2.498 l 0.02,-0.133 c -0.131,0.059 -0.258,0.118 -0.385,0.178 l -0.041,0.094 c -0.252,0.664 -0.715,1.049 -1.199,1.534 -0.197,0.196 -0.439,0.364 -0.736,0.218 -0.244,-0.119 -0.303,-0.359 -0.318,-0.607 -0.055,-0.934 -0.135,-1.781 0.479,-2.579 l 0.059,-0.081 c 0.264,-0.682 0.596,-1.207 1.191,-1.637 l 0.068,-0.051 c 0.619,-0.876 1.424,-0.893 2.363,-0.885 l 0.121,0.002 c 0.666,0.054 1.186,-0.13 1.49,-0.789 0.121,-0.27 0.299,-0.421 0.482,-0.664 l 0.055,-0.068 c 0.186,-0.6 0.582,-1.089 0.846,-1.648 l 0.154,-0.201 c 0.199,-0.419 0.57,-1.225 0.771,-1.644 l 0.041,-0.083 c 0.016,-0.395 0.238,-0.712 0.393,-1.054 l 0.023,-0.071 c 0.254,-0.85 0.455,-1.535 0.711,-2.385 l 0.025,-0.086 c -0.096,-0.656 0.184,-1.275 0.188,-1.932 0,-1.714 -0.059,-3.416 -0.572,-5.07 0.25,0.115 0.498,0.231 0.748,0.349 1.379,0.641 2.652,1.495 4.098,1.999 0.775,0.618 1.799,0.781 2.564,1.406 0.1,1.111 -0.062,2.215 -0.176,3.312 -0.092,0.849 -0.188,1.721 -0.543,2.523 l -0.016,0.1 c -0.148,0.842 -0.396,1.438 -0.867,2.15 l -0.051,0.076 c -0.135,0.567 -0.445,1.036 -0.838,1.459 l -0.066,0.105 c -0.367,0.592 -0.779,0.988 -1.344,1.4 l -0.213,0.2 c -0.521,0.526 -1.141,0.882 -1.842,1.108 l -0.096,0.059 c -0.818,0.506 -1.654,0.62 -2.566,0.84 l -0.088,0.098 -0.078,0.09 c -0.084,0.116 0.051,0.102 -0.062,0.215 l 0,0 c -0.133,0.125 -0.092,0.315 -0.18,0.461 0,0.262 0,0.526 -0.004,0.791 l 0.006,0.066 c 0.008,0.486 0.186,0.651 -0.07,1.391 -0.014,0.011 0.018,0.139 0.057,0.166 0.389,0.252 0.258,0.756 0.518,1.064 l 0.046,0.087 z"
     id="path3675"
     inkscape:connector-curvature="0"
     style="fill:#87a23e;fill-rule:evenodd" /><path
     clip-rule="evenodd"
     d="m 251.33071,140.56163 c -0.07,0.069 -0.139,0.146 -0.215,0.207 -0.223,0.171 -0.445,0.353 -0.312,0.666 0.117,0.271 0.389,0.366 0.662,0.386 0.303,0.021 0.605,0.009 0.908,0.012 0.322,-0.098 0.654,-0.199 0.916,-0.429 0.404,-0.356 0.338,-0.704 -0.162,-0.928 -0.617,-0.276 -1.199,-0.016 -1.797,0.086 z"
     id="path3677"
     inkscape:connector-curvature="0"
     style="fill:#5a3f29;fill-rule:evenodd" /><path
     clip-rule="evenodd"
     d="m 248.73871,154.14763 c -0.359,-0.081 -0.717,-0.194 -1.082,-0.236 -0.271,-0.032 -0.551,0.048 -0.686,0.329 -0.135,0.268 0.061,0.444 0.209,0.626 0.105,0.132 0.219,0.255 0.33,0.381 0.424,0.148 0.816,0.38 1.283,0.385 0.285,0 0.572,-0.005 0.727,-0.291 0.166,-0.304 -0.031,-0.534 -0.225,-0.731 -0.161,-0.175 -0.364,-0.312 -0.556,-0.463 z"
     id="path3679"
     inkscape:connector-curvature="0"
     style="fill:#593e28;fill-rule:evenodd" /><path
     clip-rule="evenodd"
     d="m 253.76671,147.20163 c -0.326,0.103 -0.676,0.165 -0.975,0.318 -0.48,0.244 -0.457,0.652 -0.012,0.946 0.441,0.29 0.939,0.138 1.404,0.225 0.445,-0.065 1.018,-0.12 1.02,-0.652 0.006,-0.601 -0.604,-0.641 -1.078,-0.718 -0.123,-0.043 -0.254,-0.047 -0.363,-0.121 l 0.004,0.002 z"
     id="path3681"
     inkscape:connector-curvature="0"
     style="fill:#563923;fill-rule:evenodd" /><path
     clip-rule="evenodd"
     d="m 219.65671,160.03963 c -0.268,0.383 -0.422,0.814 -0.545,1.262 0.07,0.013 0.135,0.034 0.201,0.033 0.436,0 0.98,0.095 1.088,-0.471 0.092,-0.477 -0.361,-0.668 -0.744,-0.824 z"
     id="path3683"
     inkscape:connector-curvature="0"
     style="fill:#5a3f29;fill-rule:evenodd" /><path
     clip-rule="evenodd"
     d="m 216.78371,167.80063 c -0.121,0.499 -0.451,0.825 -0.881,1.073 0.328,0.331 0.744,0.698 1.16,0.37 0.404,-0.32 0.154,-0.821 -0.076,-1.219 -0.046,-0.087 -0.136,-0.149 -0.203,-0.224 z"
     id="path3685"
     inkscape:connector-curvature="0"
     style="fill:#5a3f29;fill-rule:evenodd" /><path
     clip-rule="evenodd"
     d="m 211.18271,170.94163 c -0.381,0.23 -0.803,0.201 -1.221,0.198 0.047,0.376 0.209,0.692 0.635,0.641 0.459,-0.056 0.557,-0.44 0.586,-0.839 z"
     id="path3687"
     inkscape:connector-curvature="0"
     style="fill:#5a3f29;fill-rule:evenodd" /><path
     clip-rule="evenodd"
     d="m 47.090708,78.288631 c 0,0 5.359,-0.496 6.518,-0.709 0,0 3.953,-0.352 5.822,-0.752 0,0 5.855,-0.779 7.223,-1.154 0,0 3.977,-0.603 4.84,-0.895 0.004,0 3.533,-0.683 5.096,-1.123 0,0 3.076,-0.606 4.566,-1.111 0.953,-0.224 2.061,-0.476 2.061,-0.476 0.492,-0.673 -0.096,-1.366 0.043,-2.044 -0.002,-0.296 -0.369,-6.394 -0.615,-8.289 -0.338,-1.822 -0.777,-5.919 -0.812,-6.027 -0.117,-0.304 -0.791,-3.351 -1.084,-4.595 -0.021,-0.102 -1.01,-4.201 -1.771,-5.591 -0.039,-0.08 -2.307,-2.372 -2.365,-2.413 -0.053,-0.042 -1.783,-0.283 -1.883,-0.265 -1.232,0.348 -54.207,5.923 -54.342,5.956 -0.084,0.031 -7.367,7.485 -7.939,7.924 l -4.7270001,-5.085 c -0.15,-0.234 -0.24,-0.71 -0.723,-0.402 -0.012,0.558 0.172,1.069 0.357,1.581 0.4,1.241 0.801,2.482 1.199,3.722 0.617,1.901 1.4650001,3.712 2.1990001,5.569 0,0 2.15,4.127 4.098,6.772 0.895,0.954 1.691,1.997 2.623,2.927 1.74,1.745 3.641,3.266 5.852,4.377 l -0.004,-0.003 c 0.117,0.13 1.547,0.6 2.119,0.788 1.678,0.364 3.336,0.825 5.043,1.029 1.848,0.22 3.682,0.505 5.549,0.414 0.002,0 7.643,0.054 11.057,-0.125 z"
     id="path3689"
     inkscape:connector-curvature="0"
     style="fill:#efb028;fill-rule:evenodd" /><path
     clip-rule="evenodd"
     d="m 99.057708,37.914631 c 0.254,-0.148 1.408002,-0.182 1.490002,-0.186 0.133,0.07 0.828,-0.039 0.828,-0.039 1.047,-0.039 3.119,0.112 3.119,0.112 1.154,0.082 2.236,0.342 3.09,1.188 0.631,0.621 0.684,1.215 0.146,1.912 -0.271,0.351 -0.607,0.655 -0.91,0.979 -0.516,0.116 -1.789,0.898 -1.789,0.898 -0.645,0.396 -1.32,0.728 -2.062,0.903 0,0 -0.793,0.505 -1.455,0.608 l -0.393,0.069 0.002,-0.008 c -0.123,0.098 -1.908002,0.77 -2.701002,0.89 0,0 -0.689,0.265 -1.035,0.399 -0.334,-0.567 -0.059,-1.285 -0.457,-1.835 -0.021,-0.344 -0.002,-0.697 -0.076,-1.028 -0.334,-1.474 -0.695,-2.941 -1.049,-4.409 0.078,-0.067 0.16,-0.118 0.252,-0.15 0.293,-0.063 0.586,-0.141 0.873,-0.215 0,10e-4 1.564,-0.044 2.127,-0.088 z"
     id="path3691"
     inkscape:connector-curvature="0"
     style="fill:#e26d7a;fill-rule:evenodd" /><path
     clip-rule="evenodd"
     d="m 100.67071,52.046631 c 0.459,-0.191 0.941,-0.071 1.412,-0.119 0,0 1.746,-0.209 2.285,-0.266 0,0 1.672,-0.393 2.496,-0.292 0,0 2.393,-0.264 2.539,-0.123 0.264,-0.008 0.529,-0.015 0.791,-0.025 0.508,0.152 1.045,-0.171 1.545,0.097 0,0 1.57,0.022 1.83,0.213 0.055,0.029 0.736,0.231 0.791,0.223 0.443,0.121 0.812,0.311 0.891,0.826 0.018,0.556 -0.238,0.987 -0.607,1.369 -0.529,0.546 -0.807,0.857 -1.51,1.164 l -0.311,0.152 c -0.709,0.464 -2.438,1.271 -2.438,1.271 -0.768,0.504 -1.424,0.723 -2.295,0.979 0,0 -1.275,0.718 -2.082,0.89 l -0.244,0.173 c -0.74,0.225 -2.217,0.678 -2.217,0.678 -0.662,0.328 -2.379,0.832 -2.379,0.832 -0.656,0.32 -1.037,0.393 -1.744002,0.555 -0.074,-0.008 -0.139,-0.013 -0.211,-0.019 -0.045,-1.72 -0.33,-3.414 -0.496,-5.121 -0.096,-0.989 -0.391,-1.96 -0.311,-2.967 0.398,-0.238 0.875,-0.186 1.295,-0.335 10e-4,0 0.845002,-0.142 0.970002,-0.155 z"
     id="path3693"
     inkscape:connector-curvature="0"
     style="fill:#e26d7a;fill-rule:evenodd" /><path
     clip-rule="evenodd"
     d="m 116.99871,89.021631 0.156,-1.49 c 0.318,-0.885 0.043,-1.795 0.109,-2.692 -0.195,-0.262 0.002,-0.615 -0.209,-0.873 -0.035,-0.044 -0.045,-0.094 -0.029,-0.15 -0.168,-0.579 -0.275,-1.203 -1.057,-1.28 l 0.004,0.003 c -0.625,-0.162 -1.252,-0.13 -1.871,0.036 -0.043,0.037 -0.092,0.047 -0.145,0.03 -0.605,0.21 -1.838,0.992 -1.912,1.065 l 0.002,0 c -0.18,0.126 -1.061,0.615 -1.605,1.318 0,0 -0.57,0.55 -0.639,0.615 0,0 -0.547,0.564 -0.611,0.64 l 0.006,-0.005 c 0,0 -0.32,0.36 -0.412,0.436 l 0.006,-0.008 c -0.076,0.069 -0.6,0.655 -0.6,0.655 -0.107,0.133 -0.215,0.422 -0.215,0.422 0.305,0.414 0.674,0.759 1.113,1.027 0.322,0.195 0.605,0.439 0.807,0.767 0.771,0.283 1.414,0.792 2.115,1.199 0.83,0.323 1,0.272 1.656,0.42 1.049,0.315 2.115,0.112 3.172,0.067 -0.008,-0.318 -0.008,-0.379 -0.018,-0.699 0.001,-0.001 0.16,-1.083 0.177,-1.503 z"
     id="path3695"
     inkscape:connector-curvature="0"
     style="fill:#e26d7a;fill-rule:evenodd" /><path
     clip-rule="evenodd"
     d="m 189.21971,68.710631 c -0.566,0.248 -1.457,1.071 -1.457,1.071 -0.264,0.154 -0.959,0.575 -1.018,0.663 l -0.803,0.695 c -0.221,0.256 -0.869,0.923 -0.869,0.923 -0.713,0.429 -2.229,2.153 -2.229,2.153 -0.408,0.288 -0.746,0.711 -1.018,1.13 0.383,-0.016 4.803,1.555 5.477,1.628 1.256,0.137 2.273,0.489 3.545,0.44 0,0 1.459,0.277 2.1,0.164 0.031,-0.043 0.061,-0.086 0.086,-0.127 0.018,-0.258 -0.002,-0.517 -0.006,-0.773 -0.004,-0.158 0.205,-1.812 0.096,-1.941 l 0.164,-0.944 0.211,-1.041 c 0.264,-0.32 0.439,-1.877 0.424,-2.142 l 0.098,-0.366 c 0,0 0,-0.685 -0.012,-1.029 -0.041,-1.326 -0.996,-2.078 -2.297,-1.765 -0.77,0.183 -1.502,0.486 -2.113,1.028 l -0.379,0.233 z"
     id="path3697"
     inkscape:connector-curvature="0"
     style="fill:#e26d7a;fill-rule:evenodd" /><path
     clip-rule="evenodd"
     d="m 220.96771,77.549631 c 0.92,-0.787 1.379,-1.087 2.26,-1.556 0.344,-0.182 0.713,-0.244 1.092,-0.24 0.789,0.009 1.342,0.532 1.25,1.297 -0.094,0.774 -0.119,1.384 -0.365,2.196 0,0 -0.074,0.2 -0.074,0.257 -0.154,0.024 -0.307,0.048 -0.463,0.072 -1.385,0.02 -2.775,0.038 -4.164,0.057 -0.559,-0.002 -1.119,0 -1.664,-0.164 0.571,-0.682 2.128,-1.919 2.128,-1.919 z"
     id="path3699"
     inkscape:connector-curvature="0"
     style="fill:#e26d7a;fill-rule:evenodd" /><path
     clip-rule="evenodd"
     d="m 210.63971,75.751631 h -0.002 c 0.256,-0.426 0.291,-0.916 0.328,-1.388 0.068,-0.965 -0.594,-1.558 -1.559,-1.407 -0.691,0.109 -1.309,0.397 -1.812,0.903 -0.457,0.204 -0.873,0.47 -1.182,0.88 l -1.797,1.521 c -1.297,0.907 -1.91,1.876 -2.527,2.514 0.986,0.003 1.949,0.157 2.918,0.319 0.498,0.083 1.012,0.026 1.521,0.031 0.213,-10e-4 2.512,0.15 2.512,0.15 0.424,-0.016 0.852,-0.031 1.27,-0.047 -0.01,-0.408 -0.018,-1.377 0.137,-2.168 -0.001,0 0.187,-0.959 0.193,-1.308 z"
     id="path3701"
     inkscape:connector-curvature="0"
     style="fill:#e26d7a;fill-rule:evenodd" /><path
     clip-rule="evenodd"
     d="m 100.26071,69.980631 c 0.012,-0.147 0.021,-0.294 0.027,-0.441 0.381,-0.428 0.869,-0.584 1.42,-0.582 0,0 3.598,-1.293 4.434,-1.5 l 0.295,-0.074 c 0.453,-0.18 1.412,-0.31 1.412,-0.31 0.854,-0.311 1.732,-0.44 2.639,-0.425 1.15,0.02 2.191,0.292 2.85,1.361 h 0.004 c 0.168,0.411 0.168,0.827 0.033,1.246 -0.455,1.069 -0.969,2.103 -1.824,2.926 l -0.193,0.229 c -0.252,0.44 -1.162,1.292 -1.162,1.292 -0.074,0.122 -1.602,1.591 -1.676,1.714 -0.475,0.36 -0.949,0.723 -1.426,1.083 l -0.234,0.199 c -0.043,0.07 -0.1,0.125 -0.172,0.165 -0.631,0.59 -1.27,1.17 -2.043,1.586 l -0.221,0.189 c 0,0 -0.125,0.119 -0.189,0.169 -0.395,0.484 -1.078,0.654 -1.344,1.272 -0.553,-1.5 -1.105,-3 -1.658,-4.5 -0.014,-0.373 -0.066,-0.734 -0.148,-1.104 -0.125,-0.592 -0.365,-1.169 -0.332,-1.79 -0.002,0.003 -0.426,-2.587 -0.492,-2.705 z"
     id="path3703"
     inkscape:connector-curvature="0"
     style="fill:#e26d7a;fill-rule:evenodd" /><path
     clip-rule="evenodd"
     d="m 158.56171,66.289631 c -0.301,-0.741 -0.922,-1.181 -1.549,-1.614 -1.434,-0.432 -2.605,-0.063 -3.516,1.128 l -0.189,0.131 c -0.363,0.588 -0.385,0.412 -0.756,1.133 l -0.662,1.685 0.477,-1.203 c -0.113,0.239 -0.537,1.515 -0.658,1.632 l -0.363,1.268 c -0.248,0.599 -0.34,0.937 -0.365,1.583 l -0.02,0.289 c -0.279,0.67 -0.217,1.398 -0.381,2.09 0.76,-0.018 1.523,0.003 2.275,-0.057 2.316,-0.182 4.621,0.182 6.93,0.055 0.418,-0.024 0.795,0.247 1.219,0.162 -0.084,-0.204 -0.168,-0.41 -0.25,-0.613 l -0.256,-1.808 c -0.029,-0.786 -0.207,-1.391 -0.465,-2.13 0,0 -0.135,-0.836 -0.217,-1.223 -0.184,-0.172 -0.027,-0.463 -0.219,-0.633 l -0.236,-0.609 c -0.102,-0.143 -0.799,-1.266 -0.799,-1.266 z"
     id="path3705"
     inkscape:connector-curvature="0"
     style="fill:#e26d7a;fill-rule:evenodd" /><path
     clip-rule="evenodd"
     d="m 132.86971,72.682631 c -0.021,-0.368 0.373,-1.913 0.559,-2.239 l 0.018,-0.134 c 0.121,-0.611 0.225,-1.086 0.344,-1.696 0.07,-0.099 0.25,-1.042 0.354,-1.094 l 0.199,-0.222 c 0.07,-0.674 0.857,-2.543 1.131,-3.146 l 0.129,-0.211 c 0.133,-0.479 0.393,-0.892 0.699,-1.278 l 0.068,-0.187 c 0.352,-1.042 1.146,-1.516 1.785,-2.343 0.107,-0.287 0.412,-0.288 0.615,-0.435 v 0 c 0.111,-0.123 0.307,-0.091 0.414,-0.217 v 0.002 c 0.174,-0.193 0.461,-0.04 0.641,-0.22 0.064,0.015 0.125,0.008 0.188,-0.021 0.205,-0.13 0.414,-0.152 0.623,0 0.043,0.03 0.09,0.036 0.137,0.016 0.26,0.083 0.498,0.211 0.689,0.407 l -0.016,-0.018 c 0.162,0.088 0.125,0.294 0.238,0.41 l -0.006,-0.009 c 0.143,0.119 0.127,0.316 0.217,0.461 -0.012,0.056 -0.006,0.109 0.029,0.157 0.209,0.251 0.004,0.606 0.209,0.859 0.012,0.127 0.021,0.254 0.035,0.381 0,0.625 0.018,1.053 0.018,1.678 l -0.016,0.198 c 0.062,0.549 0.131,0.881 0.057,1.43 l -0.045,0.216 c 0.064,0.482 0.018,1.469 -0.012,1.846 0.135,0.441 -0.045,0.867 -0.061,1.302 l 0.012,0.257 c 0.018,0.555 0.043,2.1 0.061,2.653 l 0.004,0.214 c -0.055,0.698 0.326,2.293 0.461,2.886 l -0.01,0.221 c -0.023,0.547 -0.174,0.335 -0.998,0.448 -1.369,0.351 -3.625,0.083 -4.936,-0.06 -1.693,-0.182 -2.506,-0.19 -4.242,-0.139 -0.041,-0.373 0.232,-1.767 0.395,-2.1 l 0.013,-0.273 z"
     id="path3707"
     inkscape:connector-curvature="0"
     style="fill:#e26d7a;fill-rule:evenodd" /><path
     clip-rule="evenodd"
     d="m 136.53171,17.172631 c -0.551,3.082 -0.656,10.39 -0.564,10.58 l 0.027,0.62 c 0.021,1.039 0.232,4.444 0.475,5.329 0.334,0.869 0.438,3.664 0.721,3.98 0,0 0.213,1.671 0.393,2.493 0.078,0.334 0.221,1.896 0.541,2.249 0.348,2.062 1.447,6.062 1.467,6.17 0.064,0.258 0.113,0.52 0.135,0.788 0.328,1.399 0.801,2.758 1.32,4.096 l 0.215,0.43 c 0.018,0.328 0.68,0.734 0.926,0.855 1.67,0.828 3.039,2.016 4.158,3.498 0.049,0.071 0.262,0.333 0.322,0.391 0.023,0.03 0.504,0.711 0.555,0.778 0.025,0.037 0.939,1.295 0.939,1.295 0.91,1.48 1.578,3.057 2.018,4.737 0.531,1.18 0.805,2.443 1.107,3.693 0.041,0.167 0.062,0.335 0.191,0.463 0.031,-0.016 0.068,-0.031 0.098,-0.047 0.078,-0.083 0.137,-0.181 0.189,-0.28 0.039,-0.066 0.074,-0.136 0.109,-0.205 0.053,-0.108 0.105,-0.216 0.156,-0.329 0.039,-0.081 0.068,-0.161 0.096,-0.247 0.164,-0.557 0.477,-1.041 0.76,-1.536 0.201,-0.431 0.471,-0.804 0.824,-1.122 0.779,-0.791 1.697,-1.227 2.834,-1.04 0.174,0.028 0.342,-0.003 0.469,-0.138 0.018,-0.842 -0.148,-1.665 -0.273,-2.494 l 0.033,0.025 c -0.049,-0.938 0.24,-2.684 0.174,-3.371 -0.209,-2.244 0.525,-4.149 1.961,-5.834 0.285,-0.334 0.676,-0.62 0.678,-1.127 -0.455,-0.521 -1.031,-0.902 -1.623,-1.223 -0.641,-0.346 -1.012,-0.776 -0.926,-1.531 0.02,-0.164 -0.061,-3.4 -0.133,-3.831 -1.111,-0.592 -2.387,-0.817 -3.439,-1.542 -0.08,-0.041 -0.891,-0.452 -0.891,-0.452 -0.742,-1.154 -1.213,-2.394 -1.229,-3.781 -0.01,-1.31 -0.031,-2.62 0.404,-3.881 0.162,-0.189 0.008,-0.463 0.17,-0.655 -0.012,-0.06 -0.008,-0.121 0.021,-0.179 0.074,-0.901 0.436,-1.723 0.703,-2.574 0.094,-0.327 0.295,-0.625 0.248,-0.988 l 4.084,-11.17 c -0.484,0.11 -0.865,0.416 -1.283,0.661 -2.209,1.306 -4.471,2.493 -6.969,3.159 -1.01,0.268 -2.023,0.438 -3.07,0.427 -0.023,-0.022 -0.045,-0.06 -0.074,-0.065 -2,-0.298 -2.99,-1.648 -3.557,-3.43 -0.25,-0.785 -0.68,-2.688 -0.715,-2.855 -0.215,-0.589 -0.074,-1.204 -0.139,-1.805 -0.008,-0.167 -0.02,-0.612 -0.02,-0.612 0.039,-1.212 -0.174,-2.423 0.02,-3.633 -0.006,-0.272 -0.006,-0.546 -0.008,-0.818 -0.002,-1.9609995 0.129,-3.9129995 0.482,-5.8449995 -0.092,-0.51 0.105,-1.005 0.141,-1.68 -1.012,1.169 -1.424,2.496 -2.174,3.62 -0.646,1.781 -1.381,3.5319995 -1.91,5.3549995 -0.375,1.287 -0.516,2.631 -0.98,3.895 -0.144,0.111 -0.19,0.733 -0.187,0.733 z"
     id="path3709"
     inkscape:connector-curvature="0"
     style="fill:#87a23e;fill-rule:evenodd" /><path
     clip-rule="evenodd"
     d="m 164.53971,74.620631 c -1.168,-0.335 -2.365,-0.394 -3.568,-0.352 -3.443,-0.321 -6.891,-0.323 -10.34,-0.157 -2.146,0.167 -4.305,0.187 -6.42,0.631 -0.801,0.326 -1.674,0.099 -2.492,0.289 -2.66,0.262 -4.535,0.178 -7.389,-0.307 -0.625,-0.106 -1.205,-0.266 -1.793,0.068 -0.139,0.095 -0.252,0.217 -0.344,0.358 -0.059,0.092 -0.096,0.192 -0.121,0.296 -0.059,0.298 -0.07,0.604 -0.16,0.899 -0.021,1.086 -0.559,1.744 -1.553,2.204 -1.607,0.744 -3.055,1.752 -4.23,3.104 -0.105,0.102 -0.211,0.203 -0.32,0.302 -0.271,0.227 -0.879,1.333 -1.201,1.917 0,0 -0.42,0.64 -0.471,0.746 -0.037,0.063 -0.211,0.307 -0.248,0.369 -0.047,0.063 -0.316,0.472 -0.416,0.606 -1.324,1.963 -2.959,3.612 -4.955,4.894 -0.787,0.301 -1.182,0.463 -1.869,0.467 -0.928,0.071 -1.672,0.08 -2.598,0.047 h -0.383 c -0.656,-0.194 -0.656,-0.039 -1.377,-0.25 l -0.18,-0.039 c -0.676,-0.499 -1.141,-0.629 -1.803,-1.178 l -0.396,-0.188 c -0.92,-0.904 -1.135,-0.914 -1.686,-1.603 -0.092,-0.087 -0.471,-0.405 -0.559,-0.481 -0.082,-0.077 -0.385,-0.524 -0.453,-0.554 l -0.199,-0.28 c -0.131,-0.174 -0.271,-0.34 -0.396,-0.52 -0.068,-0.104 -0.148,-0.203 -0.229,-0.301 -0.102,-0.135 -0.193,-0.276 -0.283,-0.419 -0.068,-0.112 -0.141,-0.22 -0.217,-0.326 -0.33,-0.49 -0.686,-0.964 -0.992,-1.471 -0.092,-0.164 -0.18,-0.332 -0.262,-0.5 -0.453,-0.699 -0.869,-1.574 -1.242,-2.339 l -0.227,-0.517 c -0.473,-1.209 -1.422,-3.744 -1.754,-5.233 l -0.148,-0.81 c -0.066,-0.444 -0.268,-0.864 -0.227,-1.326 -0.217,-0.882 -0.236,-1.938 -0.535,-2.892 v -0.286 c -0.031,-1.366 -0.096,-2.729 -0.518002,-4.043 l 0.016,-0.837 c -0.062,-1.305 -0.166002,-2.606 -0.465002,-3.883 l -0.088,-0.319 c 0.037,-2.235 -0.4,-4.425 -0.623,-6.636 -0.029,-0.34 -0.107,-0.676 -0.129,-1.018 -0.014,-0.116 -0.029,-0.23 -0.037,-0.345 -0.018,-0.227 -0.16,-1.203 -0.268,-1.574 l -0.055,-0.869 c -0.199,-1.407 -0.43,-2.808 -0.66,-4.208 -0.209,-0.638 -0.238,-1.662 -0.438,-2.471 l -0.162,-0.752 c -0.287,-1.379 -0.609,-2.75 -0.992,-4.104 -0.203,-0.851 -0.539,-1.658 -0.826,-2.484 -0.141,-0.288 -0.66,-1.112 -1.049,-1.186 l -5.281,-5.622 c -0.766,-0.71 -1.756,-0.631 -2.688,-0.767 -0.773,0.23 -1.59,0.158 -2.375,0.314 -0.131,0.019 -0.268,0.04 -0.404,0.059 l -4.377,0.97 c -1.898,0.594 -3.693,1.466 -5.295,2.608 -1.432,1.019 -2.943,1.271 -4.604,1.196 -4.465,-0.201 -8.932,-0.187 -13.396,-0.1 -3.742,0.074 -7.484,-0.061 -11.225,0.056 -4.225,0.133 -8.439,0.527 -12.668,0.558 -1.203,0.009 -2.354,0.428 -3.557,0.549 l -0.947,0.115 c -0.643,-0.118 -0.209,-0.634 -0.289,-0.921 l 0.051,-0.166 c 0.344,-1.152 0.322,-1.267 0.318,-2.084 -0.051,-0.253 -0.154,-0.493 -0.209,-0.745 -0.02,-0.093 -0.051,-0.184 -0.088,-0.273 -0.158,-0.334 -0.359,-0.646 -0.619,-0.916 -0.07,-0.059 -0.154,-0.093 -0.246,-0.102 -0.988,-0.725 -2.109,-0.902 -3.295,-0.805 -0.469,0.275 -1.002,0.139 -1.402,0.576 l -0.084,0.08 c -0.771,0.298 -1.346,0.837 -1.811,1.514 l -0.16,0.165 c -1.094,1.109 -1.49,2.359 -2.01,3.778 -0.17,0.463 -0.408,0.766 -0.867,0.901 -0.342,0.033 -0.244,0.024 -0.582,0.055 -1.15,-0.047 -2.275,0.206 -3.398,0.375 -0.814,0.124 -1.668,0.019 -2.449,0.355 -0.2830001,0.014 -0.086,0 -0.3770001,0.003 -0.615,-1.245 -1.25,-2.478 -2.203,-3.511 -1.062,-1.151 -2.297,-1.977 -3.885,-2.244 -0.826,-0.141 -1.596,-0.019 -2.342,0.267 -1.14599996,0.438 -1.65999996,1.506 -1.36299996,2.811 0.145,0.636 0.389,1.253 0.586,1.879 0.045,0.035 0.059,0.079 0.045,0.133 0.074,0.157 0.051,0.364 0.229,0.472 l -0.014,-0.017 c 0.092,0.137 0.062,0.335 0.23399996,0.427 l -0.023,-0.017 c 0.033,0.096 0.113,0.156 0.178,0.232 0.588,0.737 1.002,1.562 1.295,2.458 0.59,1.801 1.211,3.594 1.82,5.39 0.881,2.125 1.768,4.251 2.65,6.377 0.602,0.585 0.713,1.482 1.309,2.071 0.32,0.722 0.631,1.449 1.148,2.067 0.8980001,1.093 1.6880001,1.238 2.8810001,0.48 2.625,-1.669 4.732,-3.919 6.795,-6.198 0.643,-0.711 1.211,-1.021 2.133,-0.56 0.771,0.384 1.668,0.423 2.471,0.74 0.174,0.095 0.393,0.031 0.555,0.165 l 0.092,-0.007 0.094,0.002 c 0.547,0.435 1.234,0.412 1.863,0.579 0.152,0.003 0.303,-0.002 0.451,-0.012 0.07,-0.002 0.143,0.003 0.209,0.017 0.18,0.169 0.457,-0.008 0.627,0.182 0.143,0.011 0.283,0.02 0.424,0.028 0.08,0.051 0.152,0.104 0.227,0.162 l 0.092,-0.006 0.096,0.013 c 0.178,0.172 0.463,0.003 0.643,0.18 l 0.098,-10e-4 0.098,0.01 c 0.18,0.169 0.459,0 0.635,0.181 l -0.008,-0.004 c 0.25,0.228 0.605,-0.022 0.855,0.19 0.211,0.01 0.412,0.021 0.621,0.03 0.078,0.051 0.15,0.104 0.227,0.158 0.131,0.003 0.262,0.008 0.395,0.01 0.186,0.162 0.457,-0.002 0.637,0.177 l 0.1,-0.004 0.1,0.01 c 0.188,0.169 0.465,0.011 0.654,0.177 0.201,0.006 0.4,0.013 0.604,0.019 0.133,0.096 0.312,0.062 0.443,0.165 l 0.086,-0.009 0.09,0.008 c 0.201,0.161 0.404,0.111 0.615,0.03 0.078,0.047 0.162,0.094 0.246,0.143 0.076,0.082 0.168,0.148 0.266,0.2 0.764,0.152 1.52,0.367 2.311,0.171 0.83,-0.11 1.645,0.117 2.461,0.192 1.777,0.158 3.555,0.348 5.348,0.279 0.172,-0.006 1.783,0.125 2.438,0.113 2.002,-0.033 3.986,-0.209 5.957,-0.523 0.172,-0.027 0.348,-0.011 0.518,-0.017 0.723,0.303 1.367,0.121 1.984,-0.288 0.541,-0.395 1.262,-0.064 1.809,-0.438 3.652,-0.968 7.041,-2.496 10.08,-4.754 1.23,-0.915 2.305,-2.004 3.07,-3.354 0.314,-0.562 0.762,-0.841 1.369,-0.659 0.521,0.155 1.025,-0.123 1.525,0.027 0,0 0.486,0.003 0.625,0.006 0.119,0.116 0.744,0.265 0.848,0.407 l -0.008,-0.008 c 0.086,0.054 0.373,0.329 0.436,0.41 l -0.004,-0.006 c 0.084,0.061 0.449,0.608 0.449,0.608 0.062,0.074 0.141,0.136 0.197,0.216 l -0.01,-0.006 c 0.146,0.098 0.33,0.708 0.453,0.819 l 0,0 c 0.682,1.549 1.242,3.146 1.783,4.752 0.195,0.167 0.846,3.452 1.156,4.765 0.227,0.238 0.65,3.479 0.838,4.708 0.096,0.642 0.141,0.943 0.355,1.93 -0.025,1.004 0.275,1.971 0.354,2.968 0.07,0.956 0.271,1.899 0.414,2.849 0.016,0.75 0.256,2.011 0.268,2.286 0.01,0.651 0.27,1.375 0.24,2.083 0.395,1.713 0.771,3.43 1.178,5.138 0.133,0.567 0.178,1.161 0.447,1.694 0.197,1.412 0.551,2.787 0.961,4.15 0.156,0.195 0.039,0.463 0.184,0.661 l 0.027,0.161 c -0.07,0.506 0.268,0.948 0.225,1.452 0.334,0.827 0.445,1.716 0.688,2.57 0.057,0.197 0.068,0.406 0.223,0.564 0.256,1.545 0.648,3.055 1.154,4.537 0.061,1.068 0.588,2.035 0.684,3.098 0.324,0.535 0.283,1.211 0.662,1.728 0.195,1.125 0.658,2.159 1.092,3.199999 0.59,1.422 1.15,2.863 2.025,4.146 v 0.002 c 0.133,0.101 0.389,0.576 0.408,0.696 0.504,1.097 1.182,2.079 1.977,2.983 0.586,0.927 1.279,1.77 2.117,2.481 l 0.033,-0.028 c 0.068,0.068 0.139,0.138 0.203,0.205 0.074,0.066 0.148,0.132 0.217,0.199 l 0.186,0.271 c 0.752,0.848 1.594,1.594 2.574002,2.175 l 0.398,0.294 c 0.906,0.732 1.889,1.328 2.973,1.749 1.293,0.751 2.67,1.281 4.145,1.556 0.438,0.128 1.725,0.401 1.725,0.401 2.637,0.599 5.277,0.64 7.938,0.163 1.186,-0.022 2.309,-0.361 3.434,-0.684 2.783,-0.795 5.355,-2.014 7.553,-3.926 0.547,-0.477 1.23,-0.406 1.811,-0.691 1.055,-0.074 1.967,-0.54 2.908,-0.979 2.383,-1.108 4.863,-1.572 7.467,-0.808 0.398,0.117 0.803,0.24 1.223,0.124 l 0.08,0.008 c 0.012,0.417 -0.033,0.758 -0.02,1.176 0.139,0.777 -0.17,1.525 -0.15,2.295 -0.072,0.436 -0.145,0.869 -0.217,1.302 -0.008,0.054 -0.002,0.107 0.02,0.158 -0.209,0.464 -0.328,0.951 -0.367,1.46 -0.266,0.632 -0.529,1.268 -0.789,1.902 -0.398,0.571 -0.801,1.141 -1.201,1.712 -0.273,0.139 -0.471,0.356 -0.643,0.604 l -0.186,0.193 c -1.057,0.53 -2.111,1.066 -3.309,1.217 -1.678,0.205 -3.211,-0.322 -4.74,-0.879 -0.289,-0.105 -0.592,-0.191 -0.887,-0.282 -1.512,-0.466 -2.691,0.132 -3.734,1.173 -0.889,0.596 -1.312,1.491 -1.568,2.484 -0.086,0.323 -0.195,0.736 0.123,0.973 0.348,0.263 0.74,0.064 1.059,-0.152 0.535,-0.367 1.053,-0.762 1.635,-1.188 -0.125,0.765 -0.371,1.457 -0.324,2.192 0.023,0.46 0.109,0.897 0.324,1.298 0.342,0.641 0.76,0.671 1.172,0.077 0.338,-0.485 0.531,-1.05 0.74,-1.602 0.084,-0.222 0.104,-0.474 0.395,-0.745 0.033,0.455 0.07,0.835 0.092,1.215 0.037,0.569 0.229,1.084 0.568,1.535 0.244,0.326 0.574,0.516 0.996,0.422 0.41,-0.094 0.496,-0.439 0.559,-0.791 0.105,-0.58 0.199,-1.164 0.156,-1.756 -0.045,-0.633 0.162,-1.133 0.184,-1.756 l 0.004,-0.103 c 0.584,-0.779 0.584,-0.776 1.479,-0.329 1.697,0.852 3.412,1.654 5.275,2.102 1.561,0.379 3.404,0.471 4.955,0.109 l 0.189,-0.086 c 1.266,-0.258 2.277,-0.913 3.037,-1.959 0.395,-0.344 0.646,-0.684 0.822,-1.176 l 0.029,-0.083 c 0.459,-0.641 0.781,-1.351 0.988,-2.109 l 0.062,-0.101 c 0.275,-0.459 0.414,-0.746 0.504,-1.278 l 0.021,-0.095 c 0.117,-0.111 0.059,-0.32 0.223,-0.406 l 0.016,0.023 c 0.057,-0.152 0.111,-0.307 0.16,-0.461 0.309,-0.312 0.354,-0.551 0.463,-1.078 l 0.025,-0.096 c 0.246,-0.447 0.199,-0.584 0.342,-1.01 0.021,-0.215 0.061,-0.426 0.064,-0.646 l 0.002,-0.099 c 0.305,-0.626 -0.006,-1.191 0.305,-1.785 l -0.006,-0.189 c 0.24,0.477 0.723,0.6 1.164,0.788 3.145,1.323 6.322,2.546 9.486,3.819 3.809,1.444 7.662,2.749 11.637,3.688 0.631,0.156 1.043,0.226 2.012,0.416 1.703,0.333 3.439,0.416 5.168,0.506 4.682,0.236 9.35,0.033 13.971,-0.859 0.949,-0.182 1.604,-0.035 2.059,0.871 0.312,0.617 0.715,1.19 1.117,1.756 0.711,0.977 1.365,1.996 2.016,3.015 0.617,0.88 1.281,1.726 1.795,2.671 0.285,0.373 2.494,3.553 3.133,3.797 l 0.182,0.23 c 0.477,0.824 1.055,1.564 1.713,2.246 0.115,0.057 0.652,0.816 0.652,0.816 0.102,0.053 0.334,0.498 0.463,0.596 l 0.006,0.006 c 0.729,1.042 1.537,2.018 2.473,2.885 0.811,1.078 1.773,2 2.822,2.848 0.092,0.189 0.236,0.324 0.438,0.395 0.092,0.053 0.174,0.117 0.238,0.205 l -0.006,-0.006 c 0.084,0.053 0.148,0.126 0.223,0.193 l 0.002,0.005 c 0.07,0.065 0.139,0.125 0.217,0.177 l 0.02,0.02 c 0.041,0.068 0.096,0.115 0.17,0.146 0.133,0.092 0.264,0.184 0.395,0.274 0.107,0.038 0.184,0.112 0.256,0.192 l 0,0 c 0.062,0.059 0.131,0.112 0.207,0.16 0.129,0.083 0.27,0.166 0.4,0.248 0.078,0.051 0.154,0.105 0.232,0.16 0.125,0.111 0.256,0.222 0.434,0.232 0.053,0.061 0.115,0.102 0.193,0.124 0.07,0.026 0.145,0.054 0.217,0.079 0.121,0.115 0.312,0.066 0.432,0.191 v 0.002 c 0.115,0.113 0.285,0.074 0.408,0.16 0.068,0.014 0.143,0.026 0.209,0.038 0.65,0.147 1.299,0.102 1.943,-0.03 l 0.15,-0.045 c 1.023,-0.398 1.777,-1.156 2.516,-1.914 1.324,-1.357 2.443,-2.871 3.172,-4.641 1.189,-2.012 1.797,-4.232 2.336,-6.477 0.229,-0.934 0.391,-1.882 0.6,-2.895 0.408,0.321 0.357,0.836 0.643,1.152 0.098,0.119 0.068,0.295 0.184,0.409 l -0.002,-0.007 c 0.145,0.127 0.121,0.325 0.197,0.481 -0.014,0.056 0,0.103 0.043,0.141 0.125,0.122 0.092,0.313 0.195,0.443 l 0.045,0.167 c 0.59,1.639 1.268,3.238 2.127,4.755 0.182,0.103 0.15,0.314 0.232,0.468 l 0.049,0.141 c 0.805,1.896 1.809,3.678 2.975,5.373 0.771,1.417 1.68,2.736 2.842,3.869 1.004,1.201 2.084,2.303 3.617,2.818 0,0 0.32,0.113 0.412,0.165 0.912,0.36 1.592,1.135 2.533,1.445 0.631,0.552 1.311,1.022 2.07,1.37 0.344,0.158 0.705,0.3 1.102,0.22 -0.154,-0.923 -0.154,-0.923 1.229,-1.1 -0.074,-0.929 -0.529,-1.664 -1.197,-2.282 -0.252,-0.229 -0.486,-0.467 -0.732,-0.701 0.029,-0.123 0.102,-0.214 0.215,-0.271 l -0.018,0.017 c 0.045,-0.103 0.119,-0.178 0.217,-0.23 l -0.014,0.016 c 0.043,-0.1 0.119,-0.17 0.199,-0.236 l -0.008,0.009 c 0.061,-0.071 0.111,-0.142 0.164,-0.216 0.049,-0.037 0.066,-0.084 0.059,-0.143 0.014,-0.117 0.088,-0.201 0.166,-0.284 0.037,-0.037 0.045,-0.081 0.025,-0.132 0.027,-0.143 0.113,-0.232 0.248,-0.279 l 0.059,0.016 0.053,-0.023 c 1.014,0.355 2.041,0.165 3.059,0.082 1.018,-0.084 2.047,-0.236 2.949,-0.798 -0.02,-0.069 -0.051,-0.134 -0.115,-0.158 -1.242,-0.47 -1.242,-0.468 -0.305,-1.331 -0.115,-0.242 -0.354,-0.322 -0.578,-0.381 -1.277,-0.33 -2.463,-0.381 -3.736,0.007 l -0.088,0.026 c -0.061,-0.021 -0.117,-0.016 -0.172,0.02 -0.344,0.016 -0.482,0.061 -0.686,0.199 l -0.059,0.01 c -0.225,-0.062 -0.184,-0.295 -0.289,-0.438 -0.01,-0.126 -0.021,-0.252 -0.037,-0.378 -0.188,-0.164 0.043,-0.34 -0.18,-0.489 v -0.066 c 0.055,-0.099 0.039,-0.188 -0.031,-0.271 v 0.004 c -0.031,-0.383 0.16,-0.543 0.518,-0.644 0.801,-0.223 1.566,-0.532 2.289,-0.952 0.803,-0.467 1.443,-1.065 1.66,-2.016 -0.07,-0.123 -0.18,-0.219 -0.316,-0.217 -0.781,0.015 -0.918,-0.402 -0.727,-1.054 -0.51,-0.299 -1.016,-0.071 -1.516,0.024 -0.707,0.139 -1.246,0.189 -1.877,0.575 l -0.174,0.095 c -0.482,0.021 -0.854,0.308 -1.18,0.6 -0.398,0.353 -0.707,0.319 -1.08,0.014 -0.322,-0.26 -0.668,-0.488 -1.004,-0.729 -0.104,-0.059 -0.193,-0.132 -0.232,-0.251 l -0.197,-0.231 c -0.875,-1.271 -1.631,-2.361 -2.498,-3.633 l -0.123,-0.178 -0.004,-10e-4 c -0.068,-0.073 -0.16,-0.132 -0.193,-0.236 l 0.023,0.017 c -0.186,-0.087 -0.141,-0.303 -0.242,-0.435 -0.857,-1.632 -1.803,-3.208 -2.814,-4.744 l -0.068,-0.14 c -0.707,-1.41 -1.422,-2.637 -2.338,-3.926 -1.006,-1.865 -2.129,-3.654 -3.469,-5.297 -0.619,-0.927 -1.119,-1.727 -2.154,-2.235 l -0.156,-0.084 c -0.748,-0.457 -1.334,-0.079 -1.863,0.403 -0.676,0.615 -1.125,1.406 -1.518,2.219 -0.525,1.092 -0.992,2.211 -1.504,3.31 -0.461,1.005 -0.945,1.999 -1.422,2.997 l 0.016,0.002 c -0.035,0.104 -0.123,0.164 -0.191,0.24 -0.156,0.196 -0.221,0.465 -0.449,0.613 l 0.029,-0.016 c -0.049,0.128 -0.139,0.206 -0.277,0.228 -0.057,-0.001 -0.098,0.024 -0.127,0.077 -0.072,0.043 -0.135,0.1 -0.188,0.163 -0.67,0.334 -1.303,0.366 -1.854,-0.232 0,0 0.045,0.133 0,0 -0.918,-1.606 -1.586,-3.317 -2.146,-5.076 -0.07,-0.22 -0.082,-0.479 -0.287,-0.644 -0.305,-1.339 -0.77,-2.629 -1.203,-3.928 -0.305,-0.512 -0.141,-0.562 -0.234,-1.424 l -0.127,-0.137 c -0.293,-1.953 -1.129,-3.73 -1.807,-5.553 -0.113,-0.225 -0.215,-0.459 -0.336,-0.68 l -0.152,-0.057 0.168,-0.194 c 1.174,-1.153 1.975,-2.573 2.682,-4.019 0.459,-0.939 0.941,-1.715 2.027,-1.934 l -0.004,0.002 0.617,-0.043 c 2.564,0.198 5.133,0.369 7.709,0.238 1.879,0.059 3.75,0.014 5.625,-0.133 0.281,-0.014 0.562,-0.025 0.848,-0.04 0.896,-0.239 1.842,0.032 2.742,-0.225 0.121,-0.009 0.246,-0.017 0.361,-0.022 1.059,0.033 2.102,-0.109 3.131,-0.316 0.406,-0.204 0.875,0.027 1.275,-0.192 l 0.086,0.017 0.086,-0.036 c 1.059,-0.024 2.092,-0.202 3.111,-0.498 0.324,-0.241 0.748,0.007 1.076,-0.213 l 0.084,0.016 0.084,-0.038 c 1.49,-0.168 2.932,-0.545 4.363,-0.975 0.145,-0.082 0.318,-0.082 0.465,-0.154 l 0.145,-0.026 c 2.113,-0.418 4.123,-1.177 6.135,-1.917 0.938,-0.344 1.895,-0.661 2.758,-1.186 2.389,-0.924999 4.658,-2.087999 6.785,-3.517999 1.039,-0.441 1.865,-1.236 2.871,-1.74 0.33,-0.288 0.666,-0.579 0.992,-0.869 l 0.25,-0.195 -0.008,0.004 c 0.066,-0.094 0.148,-0.172 0.264,-0.205 0.07,0 0.121,-0.029 0.156,-0.09 0.072,-0.032 0.131,-0.083 0.17,-0.149 l 0.014,-0.013 c 0.08,-0.057 0.141,-0.137 0.229,-0.189 l -0.014,0.01 c 0.064,-0.104 0.148,-0.18 0.268,-0.211 0.822,-0.519 1.547,-1.152 2.201,-1.863 0.014,-0.096 0.072,-0.144 0.168,-0.142 l 0.402,-0.383 c 1.684,-1.464 3.211,-3.068 4.525,-4.873 0.561,-0.404 0.795,-1.099 1.326,-1.525 0.916,-1.502 1.992,-2.897 2.82,-4.448 0.146,-0.272 0.275,-0.553 0.408,-0.827 0.756,-1.044 1.119,-2.296 1.803,-3.378 0.305,-1.151 0.969,-2.173 1.195,-3.352 0.834,-1.936 1.289,-3.98 1.738,-6.026 0.057,-0.232 0.137,-0.458 0.197,-0.689 -0.01,-0.14 -0.029,-0.276 -0.043,-0.416 l 0.035,-0.364 c 0.164,-0.274 -0.033,-0.613 0.154,-0.885 0.26,-0.9 0.295,-1.833 0.35,-2.757 0.078,-1.374 0.158,-2.75 0.094,-4.127 -0.289,-0.719 -0.186,-1.494 -0.312,-2.238 -0.387,-2.148 -1.059,-4.204 -1.803,-6.243 -0.961,-1.828 -1.961,-3.633 -3.383,-5.157 -0.424,-0.452 -0.842,-0.906 -1.262,-1.359 -0.646,-0.331 -1.162,-0.836 -1.717,-1.289 -0.428,-0.256 -0.898,-0.448 -1.273,-0.79 -0.076,-0.059 -0.15,-0.132 -0.23,-0.188 l -0.008,0.016 c -0.652,-0.203 -1.27,-0.486 -1.863,-0.811 -0.674,-0.08 -1.361,-0.627 -2.152,-0.543 0.305,0.394 0.859,0.714 0.963,1.183 0.094,0.52 0.576,0.785 0.795,1.221 0.049,0.075 0.098,0.148 0.152,0.224 0.047,0.079 0.092,0.156 0.143,0.235 0.371,0.716 0.779,1.412 1.094,2.157 0.311,0.761 0.598,1.527 0.791,2.328 0.186,0.739 0.35,1.484 0.463,2.24 l 0.311,1.302 c -0.156,0.776 -0.146,1.539 0.084,2.307 0.119,0.418 0.137,0.868 0,1.302 -0.01,0.189 -0.02,0.378 -0.027,0.567 -0.197,0.333 0.062,0.735 -0.16,1.064 -0.002,0.912 -0.299,1.764 -0.52,2.632 -0.09,0.366 -0.182,0.735 -0.271,1.104 l -0.182,0.343 c -0.521,0.893 -0.504,1.616 -1.148,2.451 -0.24,0.889 -0.912,1.55 -1.236,2.394 l -0.199,0.283 c -1.385,1.858 -2.959,3.542 -4.656,5.118 l -0.414,0.199 c -1.326,1.218 -2.836,2.173 -4.369,3.091 -0.326,0.193 -0.695,0.303 -0.957,0.593 -0.322,0.063 -0.609,0.19 -0.844,0.432 h 0.004 c -1.096,0.454 -1.881,0.783 -2.975,1.238 l -0.383,0.023 c -1.686,0.173 -3.232,0.839 -4.805,1.392 h -0.215 c -2.393,0.501 -4.785,1.011 -7.193,1.441 l -0.777,0.192 c -2.57,0.233 -5.121,0.693 -7.699,0.848 -0.24,0.014 -1.473,0.121 -1.672,0.258 l -1.234,-0.034 c -3.793,0.45 -7.611,0.285 -11.42,0.454 -0.518,0.024 -1.039,0.011 -1.553,0.101 -0.197,0.027 -0.389,0.093 -0.537,0.244 0,0 -2.215,-0.216 -3.75,-0.003 l -0.504,-0.031 c -0.572,-0.131 -1.148,-0.2 -1.73,-0.282 -0.969,-0.028 -1.932,0.016 -2.896,0.048 l -0.811,0.052 c -0.543,0 -0.861,-0.208 -1.164,-0.193 -1.162,0.061 -2.309,-0.075 -3.461,-0.129 -0.42,-0.002 -0.84,0.003 -1.26,0.021 -0.639,0.035 -1.273,0.1 -1.91,-0.038 l -0.805,0.033 c -1.391,-0.185 -2.771,-0.455 -4.178,-0.476 -2.928,-0.371 -5.854,-0.742 -8.795,-1.034 -0.172,0.007 -0.338,-0.041 -0.504,-0.077 -0.615,-0.067 -1.223,-0.193 -1.84,-0.245 -1.9,-0.234 -3.797,-0.303 -5.645,-1.078 -1.057,-0.447 -2.062,-1.329 -3.367,-1.128 -1.17,1.188 -2.594,0.999 -4.043,0.759 -0.92,-0.15 -1.85,-0.227 -2.781,-0.281 -0.699,-0.041 -0.965,-0.335 -0.865,-1.064 0.188,-1.406 0.52,-2.778 0.877,-4.148 0.648,-2.637 1.764,-5.079 3.102,-7.431 0.037,-0.158 0.67,-1.366 0.869,-1.771 0,0 0.723,-0.949 0.812,-1.056 0.475,-0.425 0.875,-0.909 1.246,-1.423 0.559,-0.487 1.145,-0.945 1.617,-1.527 l 1.857,-1.467 c 0.592,-0.312 1.176,-0.64 1.674,-1.102 0.062,0.002 0.887,-0.403 1.129,-0.49 0.299,-0.205 0.596,-0.408 0.896,-0.612 0.842,-0.306 1.672,-0.653 2.467,-1.076 1.502,-0.394 2.943,-0.977 4.471,-1.266 0.713,-0.132 1.414,-0.299 2.121,-0.45 2.355,-0.292 4.717,-0.572 7.125,-0.543 -1.152,-0.716 -2.504,-0.988 -3.621,-1.751 -0.105,-0.135 -1.289,-0.645 -1.418,-0.74 0,0 -0.938,-0.447 -0.994,-0.356 l -15.074,-1.364 c -0.58,-0.207 -4.717,-8.116 -4.961,-8.675 0.244,0.559 7.562,-6.154 11.199,-8.481 2.029,-2.272 4.395,-4.086 7.17,-5.355 0.627,-0.335 1.289,-0.602 1.963,-0.826 0.111,-0.031 0.217,-0.072 0.318,-0.12 0.477,-0.27 1.393,-0.273 1.264,-0.927 -0.109,-0.523 -0.961,-0.309 -1.492,-0.295 -1.27,0.033 -2.549,-0.024 -3.816,0.152 -4.434,1.458 -8.607,3.473 -12.564,5.943 -0.879,0.645 -12.652,-10.247 -11.422,-12.358 1.521,-2.686 3.082,-5.3409995 4.998,-7.7709995 1.088,-1.525 2.062,-3.137 3.434,-4.444 0.633,-0.786 1.49,-1.376 1.988,-2.28200002 -0.008,-0.166 -0.102,-0.267 -0.252,-0.323 -0.734,-0.051 -1.248,0.447 -1.836,0.751 -0.082,0.049 -0.156,0.106 -0.236,0.162 -0.701,0.42600002 -1.414,0.82900002 -2.1,1.28200002 -0.07,0.046 -0.135,0.101 -0.199,0.157 -0.094,0.074 -0.188,0.147 -0.291,0.213 -0.062,0.036 -0.127,0.083 -0.184,0.129 -0.064,0.044 -0.119,0.093 -0.176,0.143 -0.035,0.021 -0.061,0.045 -0.094,0.066 -0.064,0.037 -0.127,0.077 -0.199,0.117 -0.066,0.036 -0.133,0.082 -0.199,0.128 -0.066,0.049 -0.127,0.102 -0.188,0.159 -0.039,0.025 -0.068,0.055 -0.102,0.082 -0.072,0.052 -0.137,0.106 -0.207,0.162 -0.578,0.384 -1.123,0.822 -1.689,1.232 -1.902,1.624 -3.572,3.48 -5.281,5.2889995 -0.066,0.061 -0.123,0.127 -0.178,0.194 -0.053,0.062 -0.102,0.126 -0.148,0.193 -0.053,0.061 -0.09,0.126 -0.125,0.193 -0.039,0.062 -0.074,0.129 -0.102,0.195 -0.037,0.058 -0.074,0.12 -0.109,0.178 -0.041,0.052 -0.082,0.107 -0.127,0.159 0,-10e-4 -0.066,0.078 -0.066,0.078 -0.051,0.047 -0.096,0.096 -0.146,0.147 -0.023,0.024 -0.045,0.052 -0.074,0.075 -0.051,0.05 -0.102,0.101 -0.148,0.155 -0.027,0.024 -0.053,0.054 -0.078,0.08 -0.057,0.054 -0.1,0.112 -0.146,0.173 -0.045,0.062 -0.09,0.126 -0.131,0.194 -0.102,0.169 -0.227,0.319 -0.352,0.472 -0.055,0.064 -0.102,0.133 -0.145,0.204 -0.061,0.109 -0.125,0.217 -0.199,0.321 -0.059,0.064 -0.117,0.133 -0.172,0.203 -0.062,0.067 -0.121,0.14 -0.17,0.215 -1.428,2.115 -2.65,4.34 -3.713,6.657 -0.818,1.671 -1.488,3.4 -2.107,5.151 -0.045,0.095 -0.076,0.192 -0.105,0.291 -0.057,0.198 -0.127,0.394 -0.195,0.591 -0.908,2.718 -1.52,5.505 -2.018,8.321 -0.029,0.102 -0.049,0.206 -0.062,0.312 -0.031,0.311 -0.051,0.625 -0.148,0.928 -0.041,0.157 -0.064,0.317 -0.078,0.48 -0.119,0.779 -0.154,1.572 -0.324,2.348 -0.186,2.217 -0.471,4.431 -0.322,6.665 0.006,0.428 0.002,0.855 0.021,1.282 0.051,0.647 0.02,1.296 0.07,1.943 -0.125,1.244 0.35,2.135 1.494,2.7 0.43,0.212 0.799,0.543 1.18,0.847 1.387,1.295 2.41,2.837 3.184,4.563 0.256,0.563 0.404,1.186 0.867,1.642 0.936,1.611 1.375,6.331 1.225,4.955 l -0.187,11.44 z"
     id="path3711"
     inkscape:connector-curvature="0"
     style="fill:#87a23e;fill-rule:evenodd" /><path
     clip-rule="evenodd"
     d="m 218.49671,144.95063 c 0.004,0.067 0.004,0.136 0,0.204 -0.141,0.279 -0.131,0.557 0.02,0.831 0.008,0.067 0.008,0.138 0.012,0.205 0.074,0.065 0.143,0.135 0.211,0.205 l 0,0 c 0.818,0.056 1.572,-0.083 2.08,-0.81 0.215,-0.301 0.441,-0.596 0.225,-1.021 -0.203,-0.393 -0.494,-0.534 -0.91,-0.496 -0.137,0.013 -0.273,0.006 -0.41,0.008 -0.064,0.004 -0.135,0.009 -0.205,0.01 -0.066,0.072 -0.133,0.142 -0.201,0.209 -0.07,0.002 -0.139,0.008 -0.207,0.011 -0.068,0.076 -0.139,0.142 -0.205,0.213 v -0.001 c -0.066,0.074 -0.137,0.145 -0.205,0.216 l 0.004,-0.003 c -0.074,0.07 -0.136,0.148 -0.209,0.219 z"
     id="path3713"
     inkscape:connector-curvature="0"
     style="fill:#cea4c7;fill-rule:evenodd" /><path
     clip-rule="evenodd"
     d="m 221.14171,141.49163 c -0.18,0.331 -0.49,0.616 -0.389,1.052 0.613,0.665 1.061,0.756 1.68,0.38 0.416,-0.256 0.52,-0.654 0.441,-1.069 -0.094,-0.486 -0.475,-0.621 -0.947,-0.595 -0.289,0.017 -0.537,0.109 -0.785,0.232 z"
     id="path3715"
     inkscape:connector-curvature="0"
     style="fill:#cea4c7;fill-rule:evenodd" /><path
     clip-rule="evenodd"
     d="m 217.07671,143.95263 c -0.01,-0.046 -0.027,-0.069 -0.037,-0.069 l -0.018,0.004 c -0.064,-0.067 -0.135,-0.135 -0.203,-0.203 h -0.002 c -0.074,-0.064 -0.141,-0.141 -0.211,-0.204 -0.729,-0.833 -1.729,-1.118 -2.744,-1.39 -0.064,0.005 -0.133,0.006 -0.199,0.005 -0.105,0.127 -0.303,0.085 -0.416,0.204 -0.744,0.664 -0.768,0.771 -0.391,1.688 0.08,0.203 0.156,0.407 0.234,0.611 0.43,0.341 0.848,0.679 1.275,1.019 0.066,0.07 0.145,0.131 0.211,0.201 l 0.004,-0.002 c 0.068,0.07 0.148,0.133 0.217,0.204 0.068,0 0.133,10e-4 0.201,0.003 0.072,0.062 0.145,0.129 0.209,0.199 0.08,0.066 0.154,0.127 0.223,0.199 0.066,-0.002 0.131,-0.002 0.201,0 0.072,0.068 0.145,0.129 0.219,0.2 l -0.004,-0.001 c 0.115,0.12 0.311,0.071 0.42,0.196 0.072,-0.001 0.143,-0.001 0.209,-0.001 0.068,0.073 0.15,0.129 0.221,0.199 0.135,-0.002 0.273,-0.004 0.408,-0.007 0.143,0.118 0.281,0.109 0.416,-0.011 l 0,0 c 0.172,-0.109 0.303,-0.255 0.406,-0.429 0,-0.068 -0.002,-0.136 -0.002,-0.204 0.139,-0.282 0.139,-0.561 -0.02,-0.834 -0.006,-0.067 -0.008,-0.135 -0.008,-0.204 -0.129,-0.104 -0.088,-0.306 -0.219,-0.415 -0.002,-0.068 -0.004,-0.135 -0.004,-0.205 -0.078,-0.062 -0.133,-0.143 -0.207,-0.207 -0.006,-0.066 -0.01,-0.134 -0.012,-0.203 -0.066,-0.074 -0.131,-0.15 -0.213,-0.209 l 0,0 -0.164,-0.134 z"
     id="path3717"
     inkscape:connector-curvature="0"
     style="fill:#cea4c7;fill-rule:evenodd" /><path
     clip-rule="evenodd"
     d="m 218.86271,143.49763 c 0.062,-0.008 0.133,-0.009 0.199,-0.011 0.109,-0.128 0.303,-0.091 0.414,-0.218 v 0.003 c 0.072,-0.071 0.135,-0.143 0.209,-0.211 v -0.002 c 0.064,-0.073 0.133,-0.145 0.201,-0.211 v -0.002 c 0.066,-0.074 0.135,-0.145 0.201,-0.217 l -0.002,0.003 c 0.16,-0.351 0.145,-0.696 -0.02,-1.042 -0.557,-0.832 -1.334,-1.151 -2.314,-0.982 -0.646,0.654 -0.781,1.437 -0.572,2.303 0.064,0.07 0.135,0.139 0.203,0.205 0.076,0.071 0.148,0.141 0.223,0.211 0.074,0.062 0.146,0.127 0.217,0.192 l -0.004,-0.001 c 0.353,0.153 0.695,0.141 1.045,-0.02 z"
     id="path3719"
     inkscape:connector-curvature="0"
     style="fill:#cea4c7;fill-rule:evenodd" /><path
     clip-rule="evenodd"
     d="m 90.719708,36.064631 c -0.203,-0.026 -0.299,-0.06 -0.391,-0.102 -0.145,-0.133 -0.045,-0.178 -0.088,-0.358 -0.033,-0.127 -0.078,-0.25 -0.129,-0.371 -0.074,-0.157 -0.158,-0.308 -0.221,-0.468 -0.115,-0.33 -0.248,-0.65 -0.436,-0.948 -0.156,-0.317 -0.324,-0.625 -0.543,-0.906 -0.053,-0.072 -0.102,-0.143 -0.146,-0.218 -0.051,-0.074 -0.195,-0.287 -0.221,-0.322 -0.055,-0.069 -0.104,-0.138 -0.152,-0.212 -0.111,-0.265 -0.408,-0.464 -0.285,-0.815 0.34,-0.686 0.607,-1.399 0.754,-2.15 0.139,-0.313 0.281,-0.622 0.41,-0.939 0.752,-1.837 1.322,-3.581 2.398,-5.264 l 0.203,-0.263 c 0.381,-1.443 0.916,-2.2 1.797,-3.212 0,0 0.453,-0.746 0.598,-0.84 l -0.01,0.011 c 0.051,-0.092 0.391,-0.451 0.391,-0.451 0.08,-0.082 0.557,-0.583 0.615,-0.63 0,0 0.139,-0.145 0.197,-0.228 l -0.004,0.008 c 0.082,-0.068 0.393,-0.478 0.393,-0.478 0.502,-0.919 1.137,-1.482 1.896,-2.171 l 0.137,-0.122 c 0.801,-1.032 1.785,-1.863 2.865002,-2.588 0,0 0.217,-0.264 0.348,-0.36 0.904,-0.655 1.822,-1.301 2.734,-1.9509995 0,0 1.125,-0.548 1.232,-0.679 l -0.004,-10e-4 c 1.123,-0.392 2.121,-1.088 3.301,-1.336 l 0.191,-0.09 c 1.176,-0.577 1.918,-0.756 3.201,-0.966 l 0.33,-0.057 c 0.873,-0.297 1.613,-0.469 2.541,-0.475 l 0.162,-0.003 c 1.156,-0.294 2.127,-0.317 3.309,-0.28 0,0 1.789,-0.044 2.578,-0.045 0.381,-0.002 0.551,0.178 0.455,0.599 -0.08,0.365 -0.219,0.599 -0.613,0.716 -0.58,0.174 -1.215,0.205 -1.738,0.565 -0.188,0.014 -1.359,0.373 -1.359,0.373 -0.625,0.423 -1.209,0.516 -1.902,0.766 -0.137,0.101 -0.588,0.216 -0.588,0.216 -0.633,0.457 -1.172,0.812 -1.902,1.0829995 -0.074,0.057 -0.562,0.334 -0.627,0.402 -0.053,0.034 -0.42,0.24 -0.42,0.24 l -0.125,0.087 c -1.145,0.8 -1.986,1.39 -3.125,2.191 l -0.176,0.125 c -1.781,1.292 -4.596,4.641 -4.596,4.641 -0.281,0.299 -0.596,0.578 -0.857,0.896 -0.637,0.771 -1.129,1.405 -1.75,2.188 l -0.123,0.156 c -0.877,1.408 -1.754002,2.814 -2.623002,4.221 l -0.047,0.395 c -0.404,1.491 -1.256,2.78 -1.879,4.17 l -0.127,0.271 c -0.268,1.133 -0.648,1.859 -1.078,2.973 -0.064,0.123 -0.439,0.902 -0.502,1.053 0,0 -0.057,0.267 -0.123,0.378 -0.027,0.056 -0.014,0.613 -0.191,0.784 -0.32,0.38 -0.303,0.892 -0.498,1.318 -0.096,0.209 -0.307,0.208 -0.412,0.2 -0.547,-0.033 -1.076,-0.153 -1.59,-0.356 l -1.435,-0.371 z"
     id="path3721"
     inkscape:connector-curvature="0"
     style="fill:#e26d7a;fill-rule:evenodd" /><path
     clip-rule="evenodd"
     d="m 159.48571,19.407631 c -0.342,0.794 -0.785,1.533 -1.221,2.278 -1.031,1.758 -2.164,3.455 -3.051,5.297 -0.828,1.209 -1.494,2.509 -2.135,3.823 -0.123,0.118 -0.078,0.308 -0.193,0.431 l 0.006,-0.005 c -0.244,0.376 -0.363,0.812 -0.572,1.202 -0.809,1.501 -1.4,3.124 -2.523,4.446 l -0.469,0.809 c -1.064,2.206 -2.143,4.408 -3.209,6.615 -0.16,0.337 -0.834,1.829 -1.008,2.241 -0.574,1.366 -1.174,2.721 -1.768,4.08 l 0.002,0.003 c -0.07,-0.502 0.135,-0.953 0.256,-1.419 0.285,-1.067 0.654,-2.066 0.885,-3.193 0.576,-1.587 1.15,-3.174 1.711,-4.765 0,0 0.525,-1.594 0.564,-1.667 0.039,-0.11 1.061,-3.264 1.459,-4.027 0.344,-0.66 1.02,-2.349 1.02,-2.349 0.027,-0.067 2.336,-5.418 5.541,-10.267 0.66,-1.003 1.225,-2.104 2.195,-2.879 l -0.004,0.006 c 0.102,-0.035 0.156,-0.123 0.217,-0.205 0.623,-0.479 1.246,-0.955 1.871,-1.433 0.326,-0.243 0.664,-0.304 0.664,0.27 l -0.238,0.708 z"
     id="path3723"
     inkscape:connector-curvature="0"
     style="fill:#b57aab;fill-rule:evenodd" /><path
     clip-rule="evenodd"
     d="m 156.92071,46.581631 c -0.824,0.667 -1.883,0.826 -2.822,1.245 -1.98,0.884 -3.965,1.753 -5.902,2.736 -1.287,0.653 -2.576,1.301 -3.766,2.123 1.031,-0.184 1.965,-0.652 2.914,-1.041 1.953,-0.796 3.967,-1.416 5.963,-2.083 0.85,-0.284 1.699,-0.569 2.559,-0.812 0.354,-0.098 0.709,-0.3 1.102,-0.135 0.075,-0.681 0.06,-1.359 -0.048,-2.033 z"
     id="path3725"
     inkscape:connector-curvature="0"
     style="fill:#b57aab;fill-rule:evenodd" /><path
     clip-rule="evenodd"
     d="m 164.68071,48.015631 c -0.84,0.157 -1.217,-0.239 -1.227,-1.098 -0.008,-0.672 0.266,-1.131 0.67,-1.582 l 2.586,-2.113 c 0.449,-0.35 3.232,-2.149 3.756,-2.379 l 2.189,-1.381 c 0.477,-0.469 2.66,-1.721 2.66,-1.721 0.627,-0.525 1.281,-0.994 2.043,-1.291 l 0.861,-0.604 c 0.1,-0.136 0.303,-0.099 0.395,-0.242 0.219,-0.167 0.424,-0.354 0.654,-0.502 2.297,-1.49 4.596,-2.978 6.9,-4.453 1.164,-0.746 2.26,-1.601 3.506,-2.218 -0.328,0.716 -0.967,2.154 -0.967,2.154 -0.172,0.283 -0.357,1.019 -0.373,1.218 -0.17,2.663 0.59,5.072 2.033,7.29 l -0.006,-0.003 c 0.129,0.108 0.092,0.303 0.227,0.408 0,0 1.182,1.767 1.369,2.008 1.113,1.417 2.457,2.604 3.883,3.682 1.098,0.827 3.686,2.186 3.742,2.301 0.006,0.12 -0.047,0.209 -0.152,0.267 -0.266,0.122 -0.543,0.11 -0.822,0.052 -1.301,-0.282 -2.613,-0.507 -3.934,-0.711 -1.527,-0.271 -6.332,-0.477 -7.148,-0.851 0,0 -3.084,-0.143 -3.189,-0.183 l -0.428,-0.051 c -0.834,0.021 -3.797,-0.019 -4.635,10e-4 l -2.936,0.166 c -0.123,0.059 -2.479,0.343 -2.602,0.355 -1.336,0.125 -4.186,0.4 -4.186,0.4 -0.873,0.307 -1.633,0.24 -2.529,0.424 0.002,0 -1.551,0.508 -2.34,0.657 z"
     id="path3727"
     inkscape:connector-curvature="0"
     style="fill:#b57aab;fill-rule:evenodd" /><path
     clip-rule="evenodd"
     d="m 181.22571,40.348631 c -0.004,1.229 1.051,1.394 1.834,1.83 0.291,0.167 0.68,0.127 0.932,0.389 0.414,-0.007 0.83,-0.015 1.244,-0.024 0.062,-0.07 0.141,-0.138 0.213,-0.206 l 0.004,-0.002 c 0.062,-0.074 0.127,-0.144 0.197,-0.209 0.283,-0.911 0.021,-1.812 -0.693,-2.365 -0.215,-0.167 -0.469,-0.291 -0.672,-0.467 -0.264,-0.229 -0.518,-0.256 -0.844,-0.131 -0.707,0.263 -1.428,0.482 -2.02,0.973 -0.055,0.078 -0.119,0.147 -0.191,0.213 h -0.004 z"
     id="path3729"
     inkscape:connector-curvature="0"
     style="fill:#cea4c7;fill-rule:evenodd" /><path
     clip-rule="evenodd"
     d="m 183.98871,33.413631 c 0.58,-0.543 1.207,-1.022 1.986,-1.247 0.617,-0.179 0.859,-0.064 1.186,0.49 0.785,1.32 0.33,3.326 -1.002,4.453 l -0.209,0.21 c -0.064,0.072 -0.139,0.14 -0.203,0.208 -0.068,0.005 -0.137,0.009 -0.213,0.012 -0.162,0.192 -0.449,0.023 -0.611,0.22 -0.523,0.014 -1.043,0.016 -1.564,0.045 -0.523,0.03 -1.043,0.002 -1.531,-0.197 -0.58,-0.233 -0.811,-0.653 -0.646,-1.239 0.078,-0.259 0.24,-0.499 0.385,-0.734 0.59,-0.97 1.23,-1.257 2.078,-1.953 l 0.344,-0.268 z"
     id="path3731"
     inkscape:connector-curvature="0"
     style="fill:#cea4c7;fill-rule:evenodd" /><path
     clip-rule="evenodd"
     d="m 178.04771,37.312631 c -0.131,0.35 -0.277,0.696 -0.385,1.052 -0.221,0.721 0.043,1.199 0.789,1.37 0.625,0.142 1.219,0.065 1.713,-0.404 0.422,-1.349 0.137,-1.842 -1.209,-2.074 -0.236,-0.041 -0.465,-0.107 -0.695,-0.162 -0.086,0.062 -0.156,0.136 -0.223,0.215 l 0.01,0.003 z"
     id="path3733"
     inkscape:connector-curvature="0"
     style="fill:#cea4c7;fill-rule:evenodd" /><path
     clip-rule="evenodd"
     d="m 186.41071,38.925631 c 0.002,0.327 0.154,0.6 0.334,0.846 0.449,0.6 1.34,0.808 1.814,0.44 0.52,-0.397 0.48,-1.165 -0.107,-1.815 -0.137,-0.151 -0.289,-0.305 -0.463,-0.403 -0.287,-0.163 -0.58,-0.388 -0.951,-0.171 -0.371,0.215 -0.654,0.691 -0.627,1.103 z"
     id="path3735"
     inkscape:connector-curvature="0"
     style="fill:#cea4c7;fill-rule:evenodd" /><path
     clip-rule="evenodd"
     d="m 161.00471,39.785631 c -0.527,1.328 -0.863,2.686 -0.746,4.133 0.041,0.514 0.16,0.96 0.676,1.186 0.535,0.236 0.977,0 1.316,-0.357 0.496,-0.52 1.135,-0.93 1.361,-1.671 l 0.201,-0.192 c 0.852,-0.812 1.371,-1.288 2.078,-2.233 l 0.119,-0.156 0.014,-0.004 c 0.07,-0.062 0.133,-0.129 0.188,-0.204 l 0.012,-0.008 c 0.07,-0.063 0.135,-0.131 0.203,-0.204 l 0.004,-0.005 c 0.068,-0.067 0.135,-0.136 0.199,-0.206 0.553,-0.418 0.928,-0.763 1.332,-1.327 l 0.109,-0.144 -0.004,-0.003 c 0.16,-0.197 0.416,-0.275 0.588,-0.456 0.705,-0.621 1.381,-1.041 1.98,-1.772 l 0.104,-0.123 c 0.979,-0.604 4.27,-3.304 5.102,-4.081 l 0.389,-0.243 c 0.758,-0.409 1.428,-0.93 2.072,-1.499 l 0.254,-0.112 c 0.908,-0.554 3.02,-1.847 3.84,-2.535 l 0.211,-0.164 c 0.57,-0.312 1.154,-0.608 1.715,-0.94 3.25,-1.914 6.648,-3.508 10.217,-4.735 0.158,-0.055 0.301,-0.148 0.455,-0.224 -0.18,-0.205 -0.422,-0.208 -0.67,-0.21 -3.312,-0.017 -6.572,-0.449 -9.793,-1.234 -2.156,-0.525 -4.209,-1.288 -6.07,-2.53 -0.436,-0.291 -2.162,-2.309 -2.529,-3.054 -0.504,-1.033 -0.637,-3.958 -0.635,-4.5049995 0.191,-1.022 0.25,-1.736 0.574,-2.517 0.078,-0.189 0.195,-0.359 0.176,-0.575 -0.627,0.558 -1.033,1.294 -1.496,1.979 -1.281,1.8919995 -2.541,3.7959995 -3.529,5.8629995 0,0 -0.807,1.359 -1.178,2.053 -0.814,1.52 -1.607,3.06 -2.207,4.68 -0.031,0.104 -0.361,0.618 -0.361,0.68 l -0.213,0.52 c -0.91,1.674 -1.465,3.08 -1.99,4.912 l -0.08,0.148 c -0.576,0.984 -0.881,1.891 -1.09,3.01 l -0.07,0.149 c -0.707,1.481 -1.141,2.884 -1.486,4.485 l -0.059,0.138 c -0.59,1.429 -0.906,2.498 -1.219,4.013 l -0.064,0.274 z"
     id="path3737"
     inkscape:connector-curvature="0"
     style="fill:#b57aab;fill-rule:evenodd" /><path
     clip-rule="evenodd"
     d="m 175.51871,19.232631 c -0.223,0.351 -0.471,0.685 -0.66,1.048 -0.281,0.53 -0.178,0.716 0.504,1.045 0.943,0.033 1.75,-0.321 2.473,-0.898 0,-0.071 0.006,-0.14 0.006,-0.21 0.135,-0.279 0.135,-0.557 -0.021,-0.829 -0.373,-0.668 -0.939,-0.922 -1.689,-0.792 -0.061,0.075 -0.135,0.14 -0.201,0.21 v 0.002 c -0.07,0.072 -0.135,0.142 -0.207,0.211 l -0.002,0 c -0.068,0.071 -0.127,0.15 -0.203,0.213 l 0,0 z"
     id="path3739"
     inkscape:connector-curvature="0"
     style="fill:#cea4c7;fill-rule:evenodd" /><path
     clip-rule="evenodd"
     d="m 169.23871,26.871631 c 0.385,-0.434 0.807,-0.846 1.15,-1.313 0.348,-0.478 0.613,-1.012 0.262,-1.624 -0.545,-0.768 -1.354,-0.571 -2.104,-0.57 -0.068,0.069 -0.15,0.128 -0.215,0.201 -0.135,0.08 -0.273,0.161 -0.408,0.241 -0.271,0.677 -0.869,1.158 -1.098,1.859 -0.078,0.227 -0.221,0.437 -0.271,0.668 -0.213,0.945 0.24,1.385 1.186,1.199 0.553,-0.109 0.967,-0.512 1.498,-0.661 z"
     id="path3741"
     inkscape:connector-curvature="0"
     style="fill:#cea4c7;fill-rule:evenodd" /><path
     clip-rule="evenodd"
     d="m 171.69471,15.989631 0,0 c -0.064,0.078 -0.139,0.143 -0.205,0.215 l 0,0 c -0.07,0.071 -0.127,0.147 -0.201,0.214 -0.508,0.716 -0.764,1.405 -1.135,2.193 l -0.061,0.127 c -0.002,0.067 -0.002,0.134 -0.002,0.201 -0.064,0.07 -0.123,0.154 -0.199,0.22 -0.223,0.53 -0.613,0.981 -0.727,1.567 -0.072,0.38 -0.145,0.768 0.209,1.034 0.371,0.279 0.785,0.421 1.242,0.173 0.328,-0.18 0.664,-0.351 0.998,-0.525 l 0.201,-0.074 c 0.209,-0.075 0.215,-0.074 0.418,-0.146 0.545,-0.364 1.092,-0.727 1.639,-1.091 0.068,-0.065 0.135,-0.135 0.201,-0.206 v -0.004 c 0.076,-0.066 0.131,-0.145 0.207,-0.209 v -10e-4 l 0.117,-0.094 c 0.275,-0.214 0.422,-0.334 0.691,-0.549 0.002,-0.069 0.006,-0.139 0.008,-0.208 0.072,-0.068 0.121,-0.151 0.199,-0.215 0,-0.07 0,-0.138 0,-0.208 0.066,-0.073 0.131,-0.144 0.197,-0.212 0.252,-0.766 0.311,-1.511 -0.387,-2.077 -0.848,-0.679 -1.766,-1.085 -2.867,-0.616 -0.189,0.079 -0.367,0.188 -0.551,0.285 l 0.008,0.206 z"
     id="path3743"
     inkscape:connector-curvature="0"
     style="fill:#cea4c7;fill-rule:evenodd" /><path
     clip-rule="evenodd"
     d="m 74.821708,43.281631 c -0.518,-0.321 -1.129,-0.203 -1.691,-0.335 -0.623,-0.146 -1.055,0.097 -1.4,0.739 -0.959,1.811 -2.492,3.104 -4.182,4.204 -2.418,1.571 -5.047,2.699 -7.756,3.665 -0.348,0.126 -0.742,0.17 -1.014,0.466 1.98,-0.139 3.857,-0.72 5.699,-1.412 2.721,-1.024 5.143,-2.522 7.037,-4.776 0.109,-0.132 0.266,-0.243 0.332,-0.393 0.58,-1.293 1.742,-1.772 2.975,-2.158 z"
     id="path3745"
     inkscape:connector-curvature="0"
     style="fill:#818542;fill-rule:evenodd" /><path
     clip-rule="evenodd"
     d="m 56.967708,52.460631 c -0.682,-0.045 -1.322,0.197 -1.984,0.288 0.084,1.14 0.732,2.011 1.385,2.878 0.15,0.097 0.289,0.112 0.404,-0.045 l -0.006,0.005 c -0.104,-1.054 0.107,-2.085 0.201,-3.126 z"
     id="path3747"
     inkscape:connector-curvature="0"
     style="fill:#fffdf9;fill-rule:evenodd" /><path
     clip-rule="evenodd"
     d="m 23.852708,49.623631 c -0.189,-0.229 -0.371,-0.215 -0.635,-0.302 -0.885,-0.292 -1.803,-0.492 -2.656,-0.875 -0.354,-0.159 -0.609,-0.082 -0.898,0.24 -1.156,1.289 -2.324,2.569 -3.561,3.783 -1.184,1.16 -2.457,2.223 -3.859,3.124 -1.043,0.671 -1.725,0.556 -2.4920001,-0.439 -0.477,-0.625 -0.91,-1.292 -1.357,-1.939 0.418,1.848 1.23,3.417 3.0200001,4.301 0.203,-0.008 0.404,-0.015 0.604,-0.022 0.125,-0.114 0.314,-0.085 0.43,-0.21 0.818,-0.584 1.633,-1.167 2.453,-1.751 0.553,-0.455 0.754,-0.811 1.229,-1.254 l -0.002,0.002 c 0.061,-0.076 0.746,-0.785 0.816,-0.855 0.674,-0.779 1.35,-1.557 2.029,-2.335 0.123,-0.282 1.055,-1.292 1.211,-1.491 l -0.002,0.002 c 0.064,-0.071 0.141,-0.137 0.205,-0.208 0.176,-0.106 0.176,-0.106 0.418,-0.01 0.326,0.226 2.646,0.34 2.721,0.356 0.295,0.003 0.197,0.017 0.326,-0.117 z"
     id="path3749"
     inkscape:connector-curvature="0"
     style="fill:#818542;fill-rule:evenodd" /><path
     clip-rule="evenodd"
     d="m 38.262708,52.703631 c -0.791,-0.254 -1.605,-0.354 -2.43,-0.369 -0.072,0.216 -0.08,0.428 0.033,0.635 0.018,0.115 0.033,0.235 0.055,0.353 0.137,0.208 0.029,0.488 0.197,0.687 0.047,0.039 0.057,0.085 0.031,0.139 0.074,0.154 0.074,0.338 0.182,0.479 0.023,0.065 0.045,0.132 0.066,0.198 -0.043,0.185 0.037,0.314 0.178,0.42 l -0.004,-0.005 c 0.123,0.118 0.098,0.306 0.211,0.423 l 0.002,0.002 c 0.139,0.102 0.098,0.302 0.232,0.405 l -0.006,-0.004 c 0.113,0.111 0.041,0.341 0.252,0.386 l -0.018,-0.007 c 0.035,0.108 0.127,0.173 0.219,0.232 l -0.021,-0.023 c 0.531,0.003 0.16,-0.494 0.371,-0.668 -0.01,-0.494 -0.068,-0.994 0.166,-1.46 0.014,-0.12 0.025,-0.239 0.039,-0.357 0.139,-0.217 0.039,-0.484 0.146,-0.707 -0.029,-0.048 -0.021,-0.09 0.02,-0.126 0.028,-0.211 0.052,-0.422 0.079,-0.633 z"
     id="path3751"
     inkscape:connector-curvature="0"
     style="fill:#fffdf9;fill-rule:evenodd" /><path
     clip-rule="evenodd"
     d="m 26.660708,50.321631 c -0.703,-0.133 -1.355,-0.501 -2.1,-0.418 0.012,1.19 0.449,2.259 0.943,3.314 0.008,0.115 0.072,0.189 0.174,0.236 0.201,0.067 0.314,0.457 0.609,0.158 -0.027,-0.996 -0.066,-1.992 0.373,-2.929 l -0.006,0.007 c 0.121,-0.122 0.126,-0.244 0.007,-0.368 z"
     id="path3753"
     inkscape:connector-curvature="0"
     style="fill:#fffdf9;fill-rule:evenodd" /><path
     clip-rule="evenodd"
     d="m 16.102708,35.751631 c 0.057,0.772 -0.105,1.577 0.389,2.361 0.207,-0.658 0.41,-1.266 0.602,-1.873 0.107,-0.358 -0.084,-0.5 -0.408,-0.544 -0.195,0.019 -0.39,0.037 -0.583,0.056 z"
     id="path3755"
     inkscape:connector-curvature="0"
     style="fill:#8a9546;fill-rule:evenodd" /><path
     clip-rule="evenodd"
     d="m 9.8777079,36.483631 c -0.021,0.67 0.4060001,1.145 0.7600001,1.842 0.148,-0.482 0.125,-0.846 0.23,-1.181 0.174,-0.512 -0.154,-0.677 -0.613,-0.665 -0.125,0.003 -0.252,0.004 -0.3770001,0.004 z"
     id="path3757"
     inkscape:connector-curvature="0"
     style="fill:#8a9546;fill-rule:evenodd" /><path
     clip-rule="evenodd"
     d="m 23.110708,32.647631 c -0.006,-0.156 0,-0.312 -0.014,-0.465 -0.008,-0.119 -0.018,-0.268 -0.207,-0.15 -0.123,0.115 -0.068,0.312 -0.191,0.424 h 0.002 c -0.154,1.158 -0.67,2.19 -1.217,3.182 -1.391,2.51 -3.24,4.65 -5.441,6.492 -0.262,0.221 -0.504,0.483 -0.701,0.765 -0.164,0.242 -0.145,0.535 0.061,0.773 0.188,0.216 0.414,0.184 0.664,0.099 1.779,-0.601 3.088,-1.758 4.117,-3.318 1.334,-2.037 2.062,-4.285 2.574,-6.633 0.085,-0.392 0.044,-0.839 0.353,-1.169 z"
     id="path3759"
     inkscape:connector-curvature="0"
     style="fill:#7a7e3b;fill-rule:evenodd" /><path
     clip-rule="evenodd"
     d="m 3.7997079,35.193631 c 0.33,1.777 1.244,3.272 2.256,4.728 0.756,1.087 1.758,1.843 2.953,2.364 0.496,0.215 0.959,0.004 1.1330001,-0.493 0.109,-0.308 -0.104,-0.42 -0.2990001,-0.575 -0.875,-0.672 -1.762,-1.333 -2.607,-2.044 -1.35,-1.144 -2.453,-2.51 -3.441,-3.974 l 0.005,-0.006 z"
     id="path3761"
     inkscape:connector-curvature="0"
     style="fill:#787f3d;fill-rule:evenodd" /><path
     clip-rule="evenodd"
     d="m 77.580708,36.357631 c 0.561,-0.37 0.812,-0.631 1.197,-0.971 0.416,-0.366 0.775,-0.781 1.049,-1.266 0.568,-1.013 0.566,-2.148 -0.277,-2.391 -1.982,-0.559 -3.619,0.229 -5.188,1.307 -0.215,0.146 -0.078,0.288 0.008,0.428 0.752,1.108 1.287,2.256 0.678,3.62 0.201,0.229 0.436,0.137 0.656,0.049 0.627,-0.253 1.252,-0.518 1.877,-0.776 z"
     id="path3763"
     inkscape:connector-curvature="0"
     style="fill:#ffffff;fill-rule:evenodd" /><path
     clip-rule="evenodd"
     d="m 75.049708,37.084631 c 0.275,-0.31 0.488,-0.658 0.648,-1.042 0.156,-0.371 0.256,-0.7 -0.256,-0.915 -0.26,-0.11 -0.424,-0.425 -0.316,-0.693 0.326,-0.801 -0.258,-0.839 -0.756,-0.969 -1.127,0.197 -2.207,1.731 -1.994,2.83 0.09,0.458 0.393,0.722 0.795,0.875 0.633,0.234 1.27,0.3 1.879,-0.086 z"
     id="path3765"
     inkscape:connector-curvature="0"
     style="fill:#603725;fill-rule:evenodd" /><path
     clip-rule="evenodd"
     d="m 75.412708,41.617631 c 0.004,0.068 0.008,0.138 0.008,0.206 0.08,0.061 0.135,0.142 0.211,0.205 0.074,0.137 0.146,0.274 0.223,0.411 0.074,0.063 0.139,0.136 0.209,0.204 l 0,0 c 0.07,0.068 0.148,0.13 0.219,0.203 1.008,0.472 1.988,1.048 3.281,0.923 -0.406,-0.558 -1.023,-0.68 -1.424,-1.079 -0.395,-0.387 -0.793,-0.764 -1.197,-1.136 -0.355,-0.334 -0.658,-0.698 -0.729,-1.205 -0.523,-0.333 -0.297,-1.039 -0.703,-1.442 -0.439,1.193 -0.447,1.477 -0.098,2.71 z"
     id="path3767"
     inkscape:connector-curvature="0"
     style="fill:#8a9448;fill-rule:evenodd" /><path
     clip-rule="evenodd"
     d="m 28.029708,34.619631 c -0.217,0.012 -0.51,0.071 -0.727,0.082 -0.533,0.177 -1.08,0.337 -1.199,1.007 -0.332,1.106 -0.83,2.152 -1.213,3.248 1.231,-1.293 2.595,-2.574 3.139,-4.337 z"
     id="path3769"
     inkscape:connector-curvature="0"
     style="fill:#8a9448;fill-rule:evenodd" /><path
     clip-rule="evenodd"
     d="m 73.571708,38.350631 c -1.502,-0.601 -3.121,-0.757 -4.596,-1.433 -0.215,0.265 -0.119,0.509 0.059,0.729 0.311,0.391 0.725,0.63 1.207,0.768 1.111,0.316 2.212,0.135 3.33,-0.064 z"
     id="path3771"
     inkscape:connector-curvature="0"
     style="fill:#8a9546;fill-rule:evenodd" /><path
     clip-rule="evenodd"
     d="m 78.406708,36.688631 c 0.43,0.09 0.793,0.121 0.506,0.78 -0.264,0.609 -0.055,0.792 0.926,1.19 -0.049,0.642 -0.385,1.154 -0.771,1.637 0.234,0.29 0.486,0.091 0.719,0.013 0.475,-0.158 0.939,-0.334 1.404,-0.502 0.512,-0.237 1.27,-0.847 1.27,-0.847 0.184,-0.139 0.758,-0.696 0.758,-0.696 0.4,-0.591 0.803,-1.175 1.037,-1.859 0,-0.069 0.102,-0.495 -0.021,-0.625 -0.428,-0.807 -1.123,-1.08 -2.002,-1.009 -1.553,0.127 -2.963,0.603 -4.066,1.778 0.067,0.079 0.145,0.126 0.24,0.14 z"
     id="path3773"
     inkscape:connector-curvature="0"
     style="fill:#ffffff;fill-rule:evenodd" /><path
     clip-rule="evenodd"
     d="m 78.076708,36.544631 c -0.047,0.012 -0.867,0.847 -1.166,1.316 -0.457,0.727 -0.723,1.453 -0.152,2.228 0.783,0.446 1.584,0.625 2.432,0.167 1.023,-0.64 1.174,-1.287 0.438,-2.094 -0.23,-0.255 -0.314,-0.514 -0.309,-0.838 0.008,-0.444 -0.197,-0.718 -0.645,-0.792 -0.197,-0.017 -0.293,-0.117 -0.598,0.013 z"
     id="path3775"
     inkscape:connector-curvature="0"
     style="fill:#613823;fill-rule:evenodd" /><path
     clip-rule="evenodd"
     d="m 86.981708,36.759631 c 0.111,0.284 0.217,0.569 0.326,0.854 0.418,1.095 0.578,1.19 1.717,0.937 0.232,-0.051 0.443,-0.16 0.668,-0.241 l 0.135,-0.041 c 0.443,-0.142 0.678,-0.174 0.844,-0.665 l 0.047,-0.108 c 0.002,-0.479 -0.15,-0.884 -0.15,-1.361 0,0 -0.23,-0.854 -0.299,-0.917 -0.008,-0.172 -0.203,-0.426 -0.203,-0.426 -0.025,-0.396 -0.453,-1.02 -0.453,-1.02 -0.09,-0.413 -0.109,-0.671 -0.477,-0.918 0,0 -0.178,-0.246 -0.201,-0.312 -0.064,-0.068 -0.352,-0.348 -0.395,-0.448 -0.012,-0.322 -0.318,-0.482 -0.432,-0.75 -0.107,-0.08 -0.229,-0.146 -0.324,-0.242 -0.846,-0.886 -1.869,-1.177 -3.061,-0.942 -0.119,0.118 -0.301,0.091 -0.426,0.188 l -0.012,-0.008 c 0,0 -0.455,0.037 -0.586,0.265 0,0 -0.486,0.319 -0.633,0.581 0,0 -0.328,0.266 -0.385,0.484 l -0.07,0.076 c -0.273,0.249 -0.258,0.519 -0.311,0.847 -0.107,0.71 0.037,0.859 0.791,0.921 0.84,0.069 1.576,0.366 2.152,1.001 0.203,0.135 0.398,0.269 0.6,0.404 l 0.094,0.156 c 0.379,0.613 0.508,0.882 0.887,1.495 l 0.157,0.19 z"
     id="path3777"
     inkscape:connector-curvature="0"
     style="fill:#a73459;fill-rule:evenodd" /><path
     clip-rule="evenodd"
     d="m 74.242708,27.070631 c -0.41,0.59 -0.215,1.235 -0.166,1.869 l 0,0 c 0.213,0.319 0.488,0.387 0.83,0.202 1.025,-0.611 1.938,-0.343 2.988,-0.119 l 0.141,0.031 c 0.357,0.355 0.92,0.39 1.244,0.795 0.463,0.304 1.002,0.521 1.291,1.043 0.492,0.463 0.949,0.407 1.439,-0.026 0.525,-0.463 1.979,-1.151 1.617,-1.988 l -0.041,-0.222 c -0.08,-0.292 -0.172,-0.556 -0.424,-0.765 l -0.361,-0.18 c -0.314,-0.324 -0.992,-0.559 -1.059,-0.634 -0.449,-0.551 -0.889,-0.601 -1.271,-0.979 -0.758,-0.477 -1.557,-0.867 -2.455,-1.034 -1.508,-0.286 -2.711,0.25 -3.57,1.604 l -0.203,0.403 z"
     id="path3779"
     inkscape:connector-curvature="0"
     style="fill:#a73459;fill-rule:evenodd" /></svg>