<?xml version="1.0" encoding="UTF-8" standalone="no"?>
<!-- Generator: Adobe Illustrator 16.0.4, SVG Export Plug-In . SVG Version: 6.00 Build 0)  -->

<svg
   xmlns:dc="http://purl.org/dc/elements/1.1/"
   xmlns:cc="http://creativecommons.org/ns#"
   xmlns:rdf="http://www.w3.org/1999/02/22-rdf-syntax-ns#"
   xmlns:svg="http://www.w3.org/2000/svg"
   xmlns="http://www.w3.org/2000/svg"
   xmlns:sodipodi="http://sodipodi.sourceforge.net/DTD/sodipodi-0.dtd"
   xmlns:inkscape="http://www.inkscape.org/namespaces/inkscape"
   version="1.1"
   id="Layer_1"
   x="0px"
   y="0px"
   width="104.089"
   height="25.309"
   viewBox="0 0 104.089 25.309"
   enable-background="new 0 0 1280 800"
   xml:space="preserve"
   inkscape:version="0.48.5 r10040"
   sodipodi:docname="hspace.svg"><metadata
     id="metadata9"><rdf:RDF><cc:Work
         rdf:about=""><dc:format>image/svg+xml</dc:format><dc:type
           rdf:resource="http://purl.org/dc/dcmitype/StillImage" /><dc:title></dc:title></cc:Work></rdf:RDF></metadata><defs
     id="defs7" /><sodipodi:namedview
     pagecolor="#ffffff"
     bordercolor="#666666"
     borderopacity="1"
     objecttolerance="10"
     gridtolerance="10"
     guidetolerance="10"
     inkscape:pageopacity="0"
     inkscape:pageshadow="2"
     inkscape:window-width="640"
     inkscape:window-height="480"
     id="namedview5"
     showgrid="false"
     fit-margin-top="0"
     fit-margin-left="0"
     fit-margin-right="0"
     fit-margin-bottom="0"
     inkscape:zoom="0.2328125"
     inkscape:cx="51.898"
     inkscape:cy="13.403"
     inkscape:window-x="551"
     inkscape:window-y="61"
     inkscape:window-maximized="0"
     inkscape:current-layer="Layer_1" /><path
     stroke-miterlimit="10"
     d="m 0.5,14.021 c 0,1.662 0.574,3.112 1.713,4.306 1.089,1.153 2.493,2.091 4.153,2.859 1.665,0.725 3.48,1.237 5.454,1.62 1.973,0.341 3.736,0.512 5.395,0.512 0.933,0 1.812,-0.042 2.69,-0.085 0.008,-0.001 0.017,-0.001 0.025,-0.002 0.828,-0.079 1.655,-0.198 2.442,-0.354 0.09,-0.019 0.184,-0.005 0.263,0.036 2.48,1.277 5.813,1.896 9.945,1.896 3.792,0 7.686,-0.853 11.683,-2.56 2.388,-1.023 4.876,-2.174 7.319,-3.412 1.607,-0.81 3.165,-1.662 4.775,-2.515 4.102,-2.262 8.2,-4.479 12.353,-6.7400004 4.114,-2.169 8.181,-3.85 12.243,-4.998 0.156,-0.046 0.334,0.004 0.418,0.122 0.33,0.465 0.545,0.991 0.68,1.55 0.141,0.621 0.07,1.275 -0.139,2.028 -0.037,0.135 0.043,0.273 0.195,0.331 l 0.01,0.004 c 0.209,0.08 0.453,-0.025 0.496,-0.213 0.145,-0.614 0.209,-1.247 0.165,-1.852 0,-0.625 -0.153,-1.249 -0.462,-1.847 -0.08,-0.155 0.025,-0.336 0.221,-0.388 2.207,-0.568 4.42,-0.836 6.678,-0.836 4.518,0 7.791,0.768 9.966,2.303 2.183,1.579 3.274,3.455 3.274,5.6720004 0,0.896 -0.414,1.792 -1.249,2.602 -0.778,0.896 -1.87,1.707 -3.167,2.432 -1.296,0.726 -2.802,1.365 -4.516,1.833 -1.715,0.47 -3.478,0.684 -5.346,0.684 -3.168,0 -6.073,-0.428 -8.722,-1.364 -1.885,-0.656 -3.595,-1.437 -5.124,-2.355 -0.341,-0.205 -0.748,0.157 -0.477,0.422 0.418,0.408 0.884,0.798 1.398,1.164 1.242,0.855 2.541,1.622 3.942,2.263 1.454,0.596 2.908,1.108 4.36,1.406 1.453,0.342 2.804,0.47 4.051,0.47 1.918,0 3.84,-0.256 5.709,-0.768 1.921,-0.513 3.633,-1.152 5.139,-2.048 1.507,-0.854 2.701,-1.876 3.689,-3.071 0.982,-1.151 1.447,-2.43 1.447,-3.752 0,-1.7060004 -0.566,-3.1560004 -1.659,-4.3500004 -1.139,-1.153 -2.542,-2.135 -4.2,-2.858 -1.665,-0.726 -3.479,-1.237 -5.457,-1.621 -1.97,-0.34 -3.734,-0.511 -5.344,-0.511 -1.04,0 -2.023,0.042 -3.064,0.128 -1.026,0.12 -2.009,0.278 -3.03,0.511 -0.116,0.026 -0.239,0.002 -0.327,-0.063 -0.912,-0.67 -2.06,-1.149 -3.441,-1.514 -1.453,-0.38499999 -3.322,-0.59799999 -5.555,-0.59799999 -3.841,0 -7.838,0.93799999 -11.99,2.72999999 -2.596,1.149 -5.242,2.388 -7.941,3.753 -1.505,0.809 -3.063,1.619 -4.619,2.473 C 42.702,11.801 38.446,14.061 34.085,16.323 c -4.243,2.227 -8.44,3.791 -12.634,4.733 -0.117,0.026 -0.246,0.003 -0.336,-0.064 -1.212,-0.91 -1.604,-2.033 -1.224,-3.369 0.039,-0.137 -0.039,-0.277 -0.193,-0.337 l -0.007,-0.001 c -0.21,-0.08 -0.456,0.024 -0.499,0.213 -0.269,1.188 0.026,2.343 0.918,3.444 0.142,0.176 0.019,0.412 -0.234,0.447 -0.748,0.102 -1.488,0.205 -2.195,0.308 -0.932,0.127 -1.867,0.17 -2.798,0.17 -4.465,0 -7.788,-0.768 -9.97,-2.303 -2.13,-1.578 -3.219,-3.455 -3.219,-5.63 0,-0.892 0.412,-1.783 1.183,-2.676 0.006,-0.007 0.014,-0.015 0.021,-0.021 0.832,-0.85 1.868,-1.6570004 3.21,-2.3790004 1.298,-0.769 2.804,-1.363 4.519,-1.832 1.66,-0.471 3.422,-0.726 5.291,-0.726 3.165,0 6.073,0.468 8.775,1.406 1.85,0.626 3.549,1.421 5.096,2.3660004 0.342,0.209 0.752,-0.1570004 0.477,-0.4240004 -0.428,-0.412 -0.9,-0.801 -1.422,-1.174 -1.194,-0.854 -2.491,-1.621 -3.945,-2.262 -1.402,-0.639 -2.855,-1.107 -4.357,-1.407 -1.458,-0.341 -2.806,-0.469 -4.05,-0.469 -1.921,0 -3.843,0.257 -5.71,0.726 -1.922,0.512 -3.582,1.193 -5.089,2.046 -1.506,0.898 -2.749,1.92 -3.736,3.1140004 C 1.018,11.418 0.5,12.699 0.5,14.021 z m 24.384,8.838 c -0.323,-0.093 -0.325,-0.467 0,-0.553 2.542,-0.664 5.131,-1.564 7.798,-2.698 2.96,-1.281 5.921,-2.688 8.825,-4.224 2.961,-1.533 5.866,-3.113 8.773,-4.732 0.418,-0.257 0.883,-0.512 1.3,-0.7270004 2.438,-1.322 4.775,-2.558 7.061,-3.668 2.698,-1.278 5.345,-2.346 7.886,-3.24 2.549,-0.853 4.937,-1.28 7.166,-1.28 1.733,0 3.353,0.313 4.828,0.913 0.281,0.114 0.248,0.452 -0.05,0.535 -3.959,1.104 -8.004,2.702 -12.098,4.863 C 62.016,10.31 57.703,12.613 53.447,14.872 c -0.625,0.342 -1.245,0.684 -1.867,1.024 -3.583,1.876 -7.006,3.583 -10.333,5.075 -3.943,1.748 -7.525,2.602 -10.85,2.602 -0.932,0 -1.973,-0.043 -3.111,-0.213 -0.839,-0.119 -1.628,-0.282 -2.402,-0.501 z"
     id="path3"
     inkscape:connector-curvature="0"
     style="fill:#ffffff;stroke:#000000;stroke-linejoin:round;stroke-miterlimit:10" /></svg>