<?xml version="1.0" encoding="UTF-8" standalone="no"?>
<!-- Generator: Adobe Illustrator 16.0.4, SVG Export Plug-In . SVG Version: 6.00 Build 0)  -->

<svg
   xmlns:dc="http://purl.org/dc/elements/1.1/"
   xmlns:cc="http://creativecommons.org/ns#"
   xmlns:rdf="http://www.w3.org/1999/02/22-rdf-syntax-ns#"
   xmlns:svg="http://www.w3.org/2000/svg"
   xmlns="http://www.w3.org/2000/svg"
   xmlns:sodipodi="http://sodipodi.sourceforge.net/DTD/sodipodi-0.dtd"
   xmlns:inkscape="http://www.inkscape.org/namespaces/inkscape"
   version="1.1"
   id="Layer_1"
   x="0px"
   y="0px"
   width="765.25836"
   height="126.30154"
   viewBox="0 0 765.25836 126.30154"
   enable-background="new 0 0 1280 800"
   xml:space="preserve"
   inkscape:version="0.48.5 r10040"
   sodipodi:docname="title.svg"><metadata
     id="metadata97"><rdf:RDF><cc:Work
         rdf:about=""><dc:format>image/svg+xml</dc:format><dc:type
           rdf:resource="http://purl.org/dc/dcmitype/StillImage" /><dc:title></dc:title></cc:Work></rdf:RDF></metadata><defs
     id="defs95" /><sodipodi:namedview
     pagecolor="#ffffff"
     bordercolor="#666666"
     borderopacity="1"
     objecttolerance="10"
     gridtolerance="10"
     guidetolerance="10"
     inkscape:pageopacity="0"
     inkscape:pageshadow="2"
     inkscape:window-width="640"
     inkscape:window-height="480"
     id="namedview93"
     showgrid="false"
     fit-margin-top="0"
     fit-margin-left="0"
     fit-margin-right="0"
     fit-margin-bottom="0"
     inkscape:zoom="0.2328125"
     inkscape:cx="382.13351"
     inkscape:cy="61.90954"
     inkscape:window-x="0"
     inkscape:window-y="0"
     inkscape:window-maximized="0"
     inkscape:current-layer="Layer_1" /><g
     id="g3"
     transform="translate(-257.86649,-335.608)"><g
       id="g5"><g
         id="g7"><path
           clip-rule="evenodd"
           d="m 357.018,461.375 c -31.349,0.089 -68.188,-0.08 -93.331,-0.772 -14.812,-0.405 13.459,-24.94 12.508,-45.808 -1.083,-23.734 -29.341,-44.465 -12.508,-43.771 28.209,1.181 54.76,2.133 95.911,2.749 l 8.478,4.844 c 3.597,23.714 5.837,47.72 1.404,73.129 -0.434,7.717 -3.018,9.604 -12.462,9.629 z"
           id="path9"
           inkscape:connector-curvature="0"
           style="fill:#ffff34;fill-rule:evenodd" /><path
           d="m 357.018,461.475 -18.365,0.061 c -6.122,0.023 -12.243,0.141 -18.365,0.206 -6.122,0.069 -12.243,0.198 -18.367,0.161 l -18.373,-0.134 c -6.125,-0.022 -12.248,-0.185 -18.371,-0.289 -0.75,-0.021 -1.546,-0.009 -2.334,-0.084 -0.863,-0.09 -1.702,-0.255 -2.551,-0.732 -0.854,-0.446 -1.538,-1.443 -1.664,-2.394 -0.16,-0.951 -0.009,-1.812 0.189,-2.612 0.426,-1.596 1.103,-3.013 1.804,-4.401 0.71,-1.385 1.472,-2.725 2.247,-4.051 3.107,-5.293 6.356,-10.464 8.914,-15.989 1.274,-2.757 2.391,-5.594 3.145,-8.529 0.736,-2.938 1.101,-5.96 0.844,-8.987 -0.469,-6.046 -2.627,-11.885 -5.426,-17.277 -2.786,-5.433 -6.223,-10.488 -9.481,-15.695 -0.8,-1.313 -1.581,-2.647 -2.218,-4.085 -0.312,-0.722 -0.59,-1.474 -0.726,-2.299 -0.054,-0.417 -0.086,-0.851 -0.002,-1.303 0.083,-0.45 0.291,-0.904 0.609,-1.258 0.651,-0.724 1.53,-0.967 2.318,-1.135 0.807,-0.152 1.603,-0.182 2.39,-0.178 l 4.6,0.113 18.359,0.491 18.356,0.548 c 6.118,0.177 12.237,0.238 18.355,0.362 l 18.354,0.329 18.352,0.425 0.272,0.006 0.227,0.13 8.47,4.858 0.435,0.249 0.068,0.484 1.285,9.113 c 0.371,3.048 0.721,6.098 1.04,9.15 l 0.381,4.592 c 0.119,1.53 0.271,3.059 0.363,4.592 l 0.219,4.604 c 0.066,1.533 0.165,3.066 0.177,4.604 l -0.002,4.609 c -0.014,1.535 0.028,3.07 -0.033,4.605 l -0.222,4.603 c -0.088,1.532 -0.116,3.067 -0.249,4.597 l -0.458,4.582 c -0.163,1.525 -0.284,3.056 -0.48,4.576 -0.477,3.032 -0.977,6.057 -1.418,9.09 l 0.003,-0.023 c -0.062,0.771 -0.121,1.541 -0.244,2.309 -0.041,0.385 -0.142,0.764 -0.216,1.145 -0.064,0.385 -0.206,0.753 -0.312,1.128 -0.106,0.376 -0.297,0.726 -0.441,1.089 -0.202,0.338 -0.378,0.695 -0.626,1.001 -0.248,0.31 -0.495,0.618 -0.808,0.863 -0.281,0.282 -0.626,0.477 -0.955,0.692 -0.335,0.205 -0.704,0.344 -1.056,0.513 -0.372,0.116 -0.737,0.256 -1.113,0.354 -0.754,0.192 -1.518,0.315 -2.284,0.416 -0.769,0.071 -1.537,0.144 -2.307,0.163 -0.77,0.044 -1.54,0.026 -2.309,0.042 z m 0,-0.201 c 0.766,-0.024 1.534,-0.017 2.297,-0.071 0.766,-0.029 1.526,-0.11 2.287,-0.189 0.756,-0.109 1.507,-0.238 2.241,-0.436 0.366,-0.1 0.718,-0.239 1.078,-0.356 0.336,-0.167 0.691,-0.306 1.007,-0.505 0.311,-0.209 0.638,-0.396 0.898,-0.666 0.293,-0.234 0.522,-0.529 0.752,-0.823 0.232,-0.291 0.394,-0.634 0.583,-0.955 0.133,-0.351 0.312,-0.683 0.41,-1.049 0.098,-0.364 0.231,-0.718 0.289,-1.095 0.068,-0.373 0.163,-0.74 0.198,-1.12 0.111,-0.752 0.16,-1.514 0.212,-2.274 l 0,-0.01 0.002,-0.016 c 0.429,-3.027 0.8,-6.062 1.194,-9.092 0.15,-1.52 0.227,-3.047 0.343,-4.57 l 0.321,-4.568 c 0.087,-1.524 0.069,-3.055 0.106,-4.58 l 0.072,-4.577 c 0.011,-1.525 -0.081,-3.052 -0.116,-4.577 l -0.146,-4.573 c -0.064,-1.524 -0.212,-3.045 -0.299,-4.567 l -0.306,-4.566 c -0.121,-1.52 -0.301,-3.037 -0.449,-4.555 l -0.466,-4.554 -1.152,-9.086 -1.309,-9.072 0.502,0.732 -8.485,-4.831 0.498,0.136 -18.368,-0.383 -18.365,-0.48 c -6.121,-0.175 -12.245,-0.287 -18.363,-0.514 l -18.347,-0.803 -18.345,-0.859 -4.576,-0.211 c -0.741,-0.019 -1.483,-0.002 -2.184,0.117 -0.688,0.125 -1.375,0.342 -1.763,0.778 -0.404,0.415 -0.496,1.066 -0.402,1.755 0.099,0.688 0.336,1.392 0.619,2.077 0.577,1.374 1.319,2.705 2.086,4.018 1.54,2.629 3.213,5.197 4.815,7.811 1.604,2.613 3.146,5.271 4.534,8.013 2.744,5.479 5.006,11.324 5.552,17.527 0.291,3.08 -0.055,6.223 -0.779,9.221 -0.721,3.01 -1.774,5.925 -3.004,8.75 -2.458,5.657 -5.619,10.955 -8.587,16.282 -0.738,1.334 -1.459,2.673 -2.116,4.028 -0.648,1.352 -1.256,2.736 -1.587,4.111 -0.152,0.68 -0.251,1.369 -0.141,1.932 0.105,0.565 0.374,0.956 0.874,1.236 0.487,0.28 1.183,0.436 1.836,0.494 0.736,0.065 1.474,0.047 2.253,0.062 6.118,0.084 12.237,0.109 18.353,0.273 l 18.353,0.43 c 6.117,0.223 12.24,0.283 18.36,0.395 6.122,0.088 12.243,0.229 18.364,0.275 l 18.366,0.13 z"
           id="path11"
           inkscape:connector-curvature="0" /></g><g
         id="g13"><path
           clip-rule="evenodd"
           d="m 353.616,461.384 c 11.771,-10.629 -35.035,-27.122 -44.915,-30.673 3.692,-22.451 32.057,-35.534 60.907,-40.812 2.592,19.019 4.033,39.16 0.269,60.527 -0.77,13.496 -9.112,10.869 -16.261,10.958 z"
           id="path15"
           inkscape:connector-curvature="0"
           style="fill:#f1c11d;fill-rule:evenodd" /><path
           d="m 353.546,461.312 c 0.89,-0.873 1.549,-1.938 1.677,-3.119 0.106,-1.176 -0.321,-2.338 -0.981,-3.331 -0.65,-1.007 -1.496,-1.894 -2.402,-2.708 -0.9,-0.821 -1.867,-1.579 -2.868,-2.291 -2.004,-1.424 -4.134,-2.683 -6.307,-3.858 -2.178,-1.169 -4.392,-2.28 -6.632,-3.337 -8.977,-4.217 -18.29,-7.693 -27.585,-11.25 l -0.625,-0.238 0.137,-0.59 c 0.188,-0.809 0.337,-1.625 0.56,-2.424 0.252,-0.789 0.434,-1.6 0.75,-2.365 0.286,-0.776 0.57,-1.552 0.933,-2.295 0.324,-0.76 0.704,-1.49 1.104,-2.211 0.777,-1.451 1.701,-2.814 2.664,-4.139 0.998,-1.301 2.048,-2.555 3.169,-3.742 1.127,-1.18 2.307,-2.307 3.536,-3.375 0.615,-0.533 1.229,-1.068 1.876,-1.562 0.634,-0.511 1.278,-1.008 1.939,-1.48 0.648,-0.492 1.307,-0.969 1.984,-1.42 0.665,-0.469 1.343,-0.917 2.035,-1.345 0.682,-0.444 1.375,-0.868 2.08,-1.274 0.696,-0.42 1.402,-0.824 2.119,-1.207 0.709,-0.397 1.428,-0.777 2.15,-1.148 0.719,-0.38 1.439,-0.759 2.173,-1.108 1.456,-0.725 2.936,-1.4 4.426,-2.05 1.491,-0.65 3,-1.258 4.514,-1.854 1.519,-0.584 3.048,-1.141 4.587,-1.671 1.542,-0.52 3.088,-1.03 4.651,-1.483 1.561,-0.46 3.127,-0.905 4.704,-1.307 1.573,-0.417 3.157,-0.792 4.744,-1.157 1.588,-0.359 3.184,-0.676 4.781,-0.991 l 0.962,-0.189 0.131,0.981 1.004,7.551 0.42,3.789 c 0.132,1.264 0.298,2.523 0.402,3.791 l 0.303,3.804 c 0.083,1.27 0.218,2.534 0.259,3.808 l 0.157,3.815 c 0.04,1.272 0.13,2.542 0.104,3.817 l -0.021,3.82 c -0.024,1.273 0.024,2.547 -0.06,3.819 l -0.206,3.816 c -0.089,1.271 -0.11,2.546 -0.254,3.812 l -0.406,3.801 c -0.146,1.265 -0.247,2.534 -0.43,3.795 l -1.23,7.537 0.009,-0.082 c -0.142,0.992 -0.181,1.985 -0.412,2.969 l -0.324,1.473 -0.502,1.441 c -0.148,0.484 -0.451,0.924 -0.67,1.384 -0.203,0.473 -0.588,0.853 -0.884,1.274 -0.297,0.428 -0.749,0.728 -1.117,1.091 -0.419,0.304 -0.871,0.576 -1.325,0.816 -0.483,0.173 -0.945,0.429 -1.448,0.514 -0.494,0.122 -0.985,0.241 -1.485,0.28 -0.497,0.075 -0.993,0.103 -1.488,0.111 -0.496,0.031 -0.987,0.008 -1.479,0 -1.963,-0.053 -3.894,-0.281 -5.834,-0.336 l -0.239,-0.008 0.17,-0.164 z m 0.325,-0.032 c 0.891,-0.028 1.783,-0.043 2.672,-0.036 0.973,0.01 1.945,0.024 2.909,-0.006 0.481,-0.021 0.964,-0.025 1.438,-0.084 0.478,-0.036 0.951,-0.091 1.413,-0.189 0.471,-0.062 0.918,-0.202 1.362,-0.34 0.46,-0.1 0.846,-0.365 1.272,-0.53 0.39,-0.231 0.77,-0.483 1.123,-0.761 0.302,-0.336 0.683,-0.594 0.923,-0.984 0.24,-0.388 0.563,-0.711 0.725,-1.15 0.176,-0.426 0.431,-0.809 0.546,-1.264 l 0.402,-1.334 0.243,-1.391 c 0.177,-0.921 0.172,-1.887 0.269,-2.825 l 0.004,-0.046 0.005,-0.037 0.991,-7.493 c 0.148,-1.25 0.215,-2.51 0.326,-3.764 l 0.303,-3.765 c 0.11,-1.253 0.098,-2.516 0.152,-3.772 l 0.13,-3.773 c 0.068,-1.257 0.004,-2.519 0.014,-3.776 l -0.024,-3.776 c 0.012,-1.259 -0.101,-2.517 -0.131,-3.775 l -0.148,-3.776 c -0.038,-1.259 -0.17,-2.514 -0.25,-3.771 l -0.262,-3.773 c -0.085,-1.258 -0.231,-2.512 -0.344,-3.768 l -0.362,-3.769 -0.889,-7.525 1.092,0.792 c -1.584,0.286 -3.166,0.582 -4.743,0.906 -1.577,0.32 -3.153,0.651 -4.719,1.024 -3.137,0.728 -6.245,1.572 -9.333,2.483 -1.542,0.465 -3.076,0.956 -4.601,1.476 -1.521,0.528 -3.037,1.076 -4.534,1.672 -1.498,0.593 -2.986,1.212 -4.452,1.882 -1.47,0.66 -2.926,1.354 -4.34,2.127 -0.715,0.371 -1.419,0.764 -2.114,1.17 -0.704,0.394 -1.396,0.806 -2.076,1.236 -0.691,0.416 -1.368,0.852 -2.032,1.308 -0.676,0.438 -1.334,0.901 -1.981,1.382 -0.658,0.465 -1.286,0.969 -1.91,1.477 -0.636,0.494 -1.238,1.028 -1.841,1.561 -1.212,1.057 -2.339,2.207 -3.418,3.395 -0.546,0.588 -1.038,1.223 -1.559,1.831 -0.484,0.638 -0.958,1.284 -1.421,1.935 -0.884,1.332 -1.725,2.691 -2.416,4.127 -0.357,0.711 -0.694,1.431 -0.975,2.174 -0.318,0.729 -0.561,1.483 -0.804,2.237 -0.274,0.743 -0.415,1.527 -0.625,2.288 -0.181,0.77 -0.29,1.554 -0.439,2.327 l -0.487,-0.829 c 4.734,1.56 9.43,3.275 14.07,5.125 4.628,1.883 9.226,3.857 13.705,6.102 2.241,1.117 4.462,2.281 6.617,3.57 2.159,1.279 4.276,2.644 6.276,4.186 1.977,1.55 3.934,3.25 5.23,5.508 0.643,1.108 1.055,2.446 0.851,3.764 -0.197,1.224 -0.97,2.243 -1.833,3.017 z"
           id="path17"
           inkscape:connector-curvature="0" /></g><g
         id="g19"><path
           clip-rule="evenodd"
           d="m 923.974,461.375 c 31.349,0.089 68.191,-0.08 93.333,-0.772 14.811,-0.405 -13.462,-24.94 -12.507,-45.808 1.086,-23.734 29.338,-44.465 12.507,-43.771 -28.206,1.181 -54.767,2.133 -95.912,2.749 l -8.472,4.844 c -3.606,23.714 -5.844,47.72 -1.401,73.129 0.421,7.717 3,9.604 12.452,9.629 z"
           id="path21"
           inkscape:connector-curvature="0"
           style="fill:#ffff34;fill-rule:evenodd" /><path
           d="m 923.974,461.274 18.364,-0.13 c 6.121,-0.047 12.242,-0.188 18.363,-0.275 6.121,-0.111 12.244,-0.172 18.361,-0.395 l 18.352,-0.43 c 6.117,-0.164 12.235,-0.189 18.354,-0.273 0.779,-0.016 1.517,0.003 2.254,-0.062 0.653,-0.059 1.349,-0.213 1.836,-0.493 0.5,-0.28 0.769,-0.671 0.874,-1.236 0.11,-0.562 0.011,-1.253 -0.142,-1.932 -0.33,-1.375 -0.938,-2.759 -1.587,-4.111 -0.657,-1.355 -1.378,-2.694 -2.116,-4.028 -2.967,-5.328 -6.129,-10.625 -8.586,-16.283 -1.23,-2.824 -2.283,-5.739 -3.003,-8.748 -0.725,-2.998 -1.07,-6.143 -0.779,-9.222 0.546,-6.203 2.809,-12.05 5.553,-17.527 1.388,-2.743 2.931,-5.401 4.534,-8.014 1.601,-2.614 3.274,-5.182 4.813,-7.812 0.768,-1.313 1.51,-2.645 2.087,-4.018 0.282,-0.686 0.52,-1.388 0.618,-2.077 0.094,-0.689 10e-4,-1.34 -0.402,-1.755 -0.389,-0.436 -1.075,-0.653 -1.763,-0.778 -0.701,-0.12 -1.443,-0.136 -2.184,-0.117 l -4.576,0.211 -18.346,0.859 -18.348,0.803 c -6.117,0.227 -12.241,0.339 -18.362,0.514 l -18.365,0.48 -18.368,0.383 0.498,-0.137 -8.479,4.831 0.502,-0.732 -1.312,9.072 -1.153,9.086 -0.467,4.553 c -0.147,1.519 -0.328,3.036 -0.449,4.556 l -0.306,4.566 c -0.087,1.522 -0.235,3.043 -0.299,4.566 l -0.146,4.574 c -0.035,1.525 -0.128,3.052 -0.115,4.577 l 0.072,4.577 c 0.037,1.526 0.02,3.056 0.107,4.58 l 0.322,4.568 c 0.117,1.523 0.193,3.051 0.345,4.57 0.395,3.029 0.767,6.064 1.197,9.092 l 0.002,0.016 v 0.01 c 0.052,0.761 0.1,1.522 0.21,2.275 0.034,0.38 0.128,0.746 0.195,1.119 0.058,0.377 0.19,0.73 0.288,1.096 0.097,0.365 0.275,0.697 0.408,1.049 0.188,0.32 0.35,0.664 0.582,0.955 0.229,0.295 0.459,0.59 0.752,0.823 0.26,0.271 0.588,0.458 0.897,0.667 0.317,0.199 0.671,0.338 1.008,0.504 0.359,0.117 0.712,0.258 1.077,0.355 0.734,0.197 1.485,0.327 2.241,0.436 0.761,0.08 1.521,0.16 2.286,0.189 0.767,0.057 1.535,0.049 2.301,0.073 z m 0,0.201 c -0.77,-0.016 -1.539,0.002 -2.308,-0.045 -0.771,-0.02 -1.538,-0.092 -2.307,-0.162 -0.767,-0.102 -1.53,-0.224 -2.284,-0.416 -0.376,-0.098 -0.741,-0.236 -1.113,-0.354 -0.353,-0.168 -0.721,-0.309 -1.056,-0.513 -0.329,-0.216 -0.675,-0.409 -0.955,-0.691 -0.313,-0.245 -0.561,-0.554 -0.808,-0.863 -0.249,-0.307 -0.425,-0.665 -0.626,-1.001 -0.145,-0.364 -0.335,-0.715 -0.44,-1.09 -0.105,-0.376 -0.247,-0.744 -0.311,-1.129 -0.074,-0.381 -0.175,-0.76 -0.215,-1.145 -0.121,-0.768 -0.179,-1.538 -0.239,-2.309 l 0.002,0.023 c -0.442,-3.033 -0.943,-6.058 -1.421,-9.09 -0.196,-1.52 -0.318,-3.05 -0.481,-4.576 l -0.46,-4.581 c -0.133,-1.529 -0.161,-3.065 -0.249,-4.598 l -0.223,-4.603 c -0.062,-1.534 -0.02,-3.07 -0.034,-4.605 l -0.003,-4.609 c 0.012,-1.537 0.111,-3.07 0.177,-4.604 l 0.22,-4.604 c 0.092,-1.533 0.244,-3.062 0.363,-4.593 l 0.381,-4.591 c 0.319,-3.053 0.671,-6.103 1.042,-9.151 l 1.288,-9.113 0.068,-0.483 0.434,-0.249 8.465,-4.857 0.227,-0.13 0.271,-0.006 18.353,-0.425 18.354,-0.329 c 6.118,-0.125 12.236,-0.186 18.355,-0.362 l 18.356,-0.548 18.358,-0.491 4.6,-0.113 c 0.788,-0.004 1.584,0.025 2.391,0.178 0.789,0.168 1.667,0.411 2.318,1.135 0.318,0.354 0.525,0.808 0.609,1.258 0.084,0.453 0.053,0.887 0,1.303 -0.136,0.826 -0.413,1.578 -0.725,2.3 -0.638,1.438 -1.418,2.771 -2.219,4.085 -3.257,5.208 -6.694,10.262 -9.479,15.695 -2.798,5.393 -4.956,11.231 -5.427,17.277 -0.256,3.027 0.107,6.048 0.844,8.987 0.753,2.936 1.87,5.771 3.144,8.529 2.558,5.525 5.807,10.695 8.914,15.988 0.774,1.328 1.536,2.668 2.246,4.051 0.701,1.39 1.378,2.807 1.805,4.402 0.197,0.801 0.35,1.66 0.188,2.613 -0.126,0.949 -0.81,1.947 -1.665,2.393 -0.849,0.477 -1.688,0.643 -2.551,0.731 -0.788,0.075 -1.584,0.063 -2.334,0.084 -6.123,0.104 -12.246,0.267 -18.371,0.289 l -18.372,0.134 c -6.125,0.037 -12.245,-0.093 -18.367,-0.161 -6.121,-0.065 -12.243,-0.183 -18.364,-0.206 l -18.364,-0.059 z"
           id="path23"
           inkscape:connector-curvature="0" /></g><g
         id="g25"><path
           clip-rule="evenodd"
           d="m 927.378,461.384 c -11.776,-10.629 36.99,-29.09 46.87,-32.64 -3.688,-22.454 -34.013,-33.567 -62.865,-38.845 -2.595,19.019 -4.024,39.16 -0.269,60.527 0.774,13.496 9.115,10.869 16.264,10.958 z"
           id="path27"
           inkscape:connector-curvature="0"
           style="fill:#f1c11d;fill-rule:evenodd" /><path
           d="m 927.126,461.28 c -0.904,-0.81 -1.694,-1.917 -1.798,-3.221 -0.147,-1.388 0.39,-2.731 1.067,-3.872 1.401,-2.308 3.421,-4.085 5.471,-5.716 4.155,-3.232 8.7,-5.864 13.33,-8.274 2.313,-1.211 4.663,-2.349 7.032,-3.441 2.369,-1.092 4.746,-2.163 7.153,-3.162 2.404,-1.007 4.821,-1.981 7.261,-2.896 2.434,-0.933 4.894,-1.79 7.363,-2.629 l -0.465,0.79 c -0.263,-1.564 -0.588,-3.127 -1.111,-4.633 -0.253,-0.756 -0.519,-1.509 -0.857,-2.233 -0.296,-0.743 -0.67,-1.45 -1.045,-2.159 -0.747,-1.418 -1.648,-2.752 -2.601,-4.051 -0.993,-1.268 -2.056,-2.486 -3.207,-3.622 -0.579,-0.563 -1.146,-1.142 -1.771,-1.657 -0.606,-0.537 -1.223,-1.062 -1.867,-1.553 -0.629,-0.512 -1.278,-0.996 -1.941,-1.463 -0.648,-0.486 -1.333,-0.923 -2.016,-1.361 -1.36,-0.882 -2.763,-1.703 -4.188,-2.475 -1.423,-0.781 -2.873,-1.513 -4.346,-2.197 -0.729,-0.355 -1.478,-0.671 -2.226,-0.986 -0.745,-0.324 -1.495,-0.633 -2.253,-0.926 -1.506,-0.606 -3.031,-1.163 -4.564,-1.697 -3.067,-1.063 -6.177,-2.004 -9.313,-2.843 -3.137,-0.837 -6.288,-1.617 -9.462,-2.301 -3.175,-0.682 -6.36,-1.312 -9.558,-1.877 l 1.102,-0.799 -0.89,7.524 -0.362,3.768 c -0.112,1.256 -0.259,2.511 -0.344,3.769 l -0.269,3.772 c -0.08,1.257 -0.212,2.513 -0.25,3.771 l -0.147,3.775 c -0.035,1.26 -0.148,2.518 -0.135,3.775 l -0.023,3.777 c 0.009,1.258 -0.055,2.52 0.014,3.775 l 0.127,3.774 c 0.055,1.257 0.043,2.52 0.153,3.773 l 0.303,3.765 c 0.111,1.254 0.179,2.514 0.326,3.764 l 0.987,7.494 0.005,0.036 0.005,0.046 c 0.098,0.938 0.093,1.904 0.271,2.825 l 0.244,1.391 0.403,1.334 c 0.116,0.456 0.37,0.839 0.547,1.265 0.163,0.439 0.486,0.764 0.727,1.15 0.241,0.392 0.622,0.648 0.924,0.986 0.354,0.277 0.734,0.528 1.124,0.76 0.426,0.167 0.812,0.431 1.273,0.531 0.444,0.138 0.891,0.277 1.362,0.34 0.462,0.098 0.936,0.152 1.413,0.189 0.475,0.057 0.957,0.062 1.438,0.082 0.965,0.03 1.937,0.016 2.91,0.005 0.89,-0.004 1.782,0.01 2.674,0.038 z m 0.251,0.204 c -1.941,0.053 -3.871,0.281 -5.835,0.333 -0.491,0.009 -0.982,0.03 -1.478,10e-4 -0.495,-0.01 -0.991,-0.037 -1.488,-0.113 -0.499,-0.038 -0.991,-0.158 -1.484,-0.28 -0.503,-0.085 -0.963,-0.343 -1.447,-0.513 -0.454,-0.24 -0.905,-0.513 -1.324,-0.816 -0.368,-0.363 -0.82,-0.663 -1.116,-1.09 -0.295,-0.422 -0.681,-0.803 -0.884,-1.275 -0.22,-0.459 -0.521,-0.898 -0.67,-1.383 l -0.502,-1.44 -0.324,-1.473 c -0.229,-0.983 -0.269,-1.977 -0.411,-2.968 l 0.01,0.081 -1.229,-7.538 c -0.183,-1.26 -0.283,-2.529 -0.429,-3.795 l -0.405,-3.799 c -0.144,-1.268 -0.165,-2.541 -0.254,-3.812 l -0.209,-3.815 c -0.085,-1.272 -0.036,-2.546 -0.061,-3.819 l -0.021,-3.82 c -0.024,-1.275 0.064,-2.545 0.099,-3.817 l 0.156,-3.815 c 0.04,-1.273 0.176,-2.538 0.259,-3.808 l 0.296,-3.804 c 0.104,-1.268 0.271,-2.527 0.402,-3.792 l 0.419,-3.789 1.004,-7.552 0.132,-0.984 0.972,0.185 c 3.215,0.613 6.419,1.292 9.6,2.074 1.592,0.381 3.177,0.795 4.758,1.223 1.581,0.425 3.155,0.879 4.721,1.361 1.563,0.488 3.12,0.995 4.668,1.53 1.547,0.541 3.086,1.1 4.613,1.691 1.526,0.591 3.046,1.203 4.544,1.865 1.504,0.646 2.986,1.344 4.454,2.069 1.476,0.708 2.929,1.464 4.355,2.269 1.43,0.797 2.834,1.643 4.198,2.551 0.687,0.447 1.362,0.91 2.026,1.391 0.675,0.465 1.336,0.949 1.977,1.462 0.657,0.491 1.287,1.019 1.906,1.558 0.634,0.521 1.229,1.088 1.832,1.646 1.203,1.121 2.304,2.349 3.374,3.605 1.03,1.287 2.015,2.623 2.849,4.057 0.419,0.717 0.836,1.436 1.177,2.195 0.383,0.74 0.693,1.512 0.99,2.292 0.609,1.554 1.02,3.178 1.36,4.815 l 0.118,0.568 -0.583,0.223 c -2.42,0.923 -4.821,1.903 -7.228,2.863 l -7.186,2.965 c -2.382,1.018 -4.77,2.021 -7.127,3.092 -2.359,1.064 -4.701,2.164 -7.022,3.303 -2.322,1.137 -4.604,2.35 -6.859,3.603 -2.25,1.263 -4.455,2.606 -6.533,4.112 -1.039,0.754 -2.045,1.55 -2.984,2.412 -0.941,0.855 -1.84,1.77 -2.543,2.811 -0.698,1.027 -1.248,2.213 -1.189,3.447 0.025,0.611 0.195,1.214 0.477,1.773 0.291,0.561 0.696,1.041 1.153,1.514 l 0.159,0.165 -0.233,0.005 z"
           id="path29"
           inkscape:connector-curvature="0" /></g><g
         id="g31"><path
           clip-rule="evenodd"
           d="m 310.327,341.394 c 30.288,-0.797 71.094,1.454 117.818,-2.096 14.487,-1.101 183.639,-4.16 215.577,-2.178 30.821,1.918 156.699,-1.896 179.49,-0.613 56.72,3.186 107.743,1.641 149.168,2.783 14.789,0.408 16.81,90.277 0,89.574 -52.465,-2.184 -131.891,-3.6 -221.261,-3.548 -16.076,0.011 -65.485,0.669 -94.05,2.819 -31.689,2.387 -156.557,0.317 -195.51,-1.071 -43.103,-1.536 -109.436,2.348 -151.232,3.91 -15.801,0.586 -15.815,-89.162 0,-89.58 z"
           id="path33"
           inkscape:connector-curvature="0"
           style="fill:#fdee33;fill-rule:evenodd" /><path
           d="m 310.325,341.293 c 0,0 1.483,-0.023 4.357,-0.07 2.874,-0.037 7.137,-0.15 12.701,-0.123 11.128,-0.069 27.443,0.222 48.207,0.033 5.191,-0.026 10.657,-0.193 16.391,-0.291 5.733,-0.152 11.727,-0.469 17.977,-0.712 6.245,-0.397 12.744,-0.811 19.485,-1.24 3.375,-0.149 6.81,-0.302 10.305,-0.457 3.499,-0.105 7.056,-0.212 10.671,-0.32 28.928,-0.83 61.546,-1.582 97.149,-2.049 17.8,-0.261 36.343,-0.396 55.54,-0.456 4.8,0.018 9.64,0.036 14.52,0.053 2.439,0.014 4.889,0.028 7.349,0.042 2.46,0.029 4.934,0.136 7.415,0.201 4.954,0.15 9.945,0.302 14.973,0.455 2.513,0.078 5.034,0.157 7.565,0.235 2.53,0.086 5.07,0.168 7.614,0.15 40.728,0.203 83.772,-0.635 128.266,-0.958 5.564,-0.007 11.152,-0.014 16.762,-0.021 2.803,-0.035 5.619,0.077 8.437,0.131 2.814,0.076 5.652,0.109 8.462,0.221 11.289,0.462 22.659,0.927 34.099,1.396 5.719,0.293 11.459,0.318 17.215,0.413 5.756,0.087 11.527,0.174 17.312,0.261 11.57,0.219 23.208,0.226 34.889,0.264 11.68,-0.021 23.41,0.195 35.174,0.33 2.941,0.037 5.885,0.075 8.83,0.112 0.151,0.005 0.414,-0.005 0.588,0.026 l 0.55,0.069 c 0.407,0.116 0.823,0.237 1.159,0.44 0.711,0.368 1.306,0.894 1.813,1.467 1.022,1.151 1.769,2.476 2.407,3.828 1.267,2.717 2.105,5.582 2.815,8.462 0.699,2.885 1.228,5.806 1.669,8.738 0.865,5.867 1.349,11.786 1.581,17.716 0.225,5.93 0.19,11.875 -0.163,17.811 -0.367,5.931 -1,11.869 -2.312,17.704 -0.677,2.909 -1.508,5.807 -2.827,8.546 -0.668,1.359 -1.469,2.69 -2.584,3.812 -0.54,0.572 -1.213,1.043 -1.944,1.406 -0.74,0.358 -1.597,0.494 -2.404,0.49 -23.726,-0.586 -47.452,-1.171 -71.085,-1.754 -5.908,-0.146 -11.811,-0.291 -17.706,-0.437 -2.947,-0.067 -5.894,-0.134 -8.837,-0.201 -2.944,-0.015 -5.887,-0.03 -8.827,-0.046 -11.76,-0.061 -23.485,-0.122 -35.164,-0.183 -23.357,-0.146 -46.528,-0.292 -69.422,-0.435 -2.861,-0.019 -5.719,-0.037 -8.571,-0.056 -2.84,-0.024 -5.698,0.039 -8.539,0.054 -5.688,0.052 -11.359,0.09 -17.002,0.226 -5.645,0.112 -11.268,0.223 -16.87,0.333 -5.602,0.178 -11.181,0.354 -16.736,0.531 -2.778,0.091 -5.55,0.182 -8.316,0.273 l -4.144,0.146 -4.128,0.232 c -5.498,0.304 -10.972,0.606 -16.419,0.908 -5.497,0.315 -10.902,0.494 -16.316,0.746 -2.699,0.149 -5.405,0.166 -8.102,0.205 -2.696,0.04 -5.386,0.08 -8.067,0.119 -21.453,0.301 -42.392,0.135 -62.797,-0.018 -10.199,-0.125 -20.258,-0.248 -30.167,-0.37 -9.908,-0.18 -19.666,-0.356 -29.261,-0.53 -9.594,-0.242 -19.027,-0.481 -28.285,-0.716 -4.629,-0.149 -9.215,-0.296 -13.756,-0.442 -4.516,-0.146 -9.028,-0.213 -13.472,-0.322 -2.224,-0.041 -4.438,-0.113 -6.638,-0.131 -2.198,0.004 -4.385,0.008 -6.559,0.012 -4.35,0.018 -8.65,-0.02 -12.905,0.027 -8.511,0.165 -16.828,0.211 -24.934,0.479 -8.107,0.214 -16.005,0.432 -23.682,0.719 -7.677,0.284 -15.134,0.561 -22.36,0.827 -14.452,0.558 -27.978,1.079 -40.484,1.562 -0.782,0.029 -1.56,0.058 -2.333,0.086 -0.789,0.024 -1.649,-0.158 -2.371,-0.53 -1.415,-0.804 -2.425,-2.059 -3.205,-3.356 -1.559,-2.629 -2.447,-5.474 -3.204,-8.244 -1.454,-5.575 -2.177,-11.025 -2.666,-16.197 -0.926,-10.359 -0.839,-19.665 -0.346,-27.719 0.513,-8.055 1.49,-14.879 2.824,-20.292 1.321,-5.398 3.048,-9.441 5.031,-11.598 0.97,-1.087 1.987,-1.639 2.704,-1.834 0.354,-0.128 0.639,-0.136 0.825,-0.16 0.184,-0.018 0.279,-0.029 0.279,-0.029 z m 0.004,0.201 c 0,0 -0.089,0.011 -0.268,0.032 -0.178,0.024 -0.449,0.031 -0.786,0.155 -0.682,0.188 -1.657,0.717 -2.603,1.783 -1.934,2.111 -3.646,6.132 -4.944,11.514 -1.312,5.396 -2.267,12.209 -2.754,20.251 -0.467,8.04 -0.524,17.333 0.431,27.662 0.503,5.155 1.243,10.589 2.703,16.117 0.771,2.741 1.679,5.556 3.212,8.091 0.762,1.254 1.746,2.426 3.018,3.135 0.653,0.322 1.329,0.468 2.091,0.449 0.773,-0.033 1.551,-0.068 2.333,-0.104 12.501,-0.578 26.022,-1.205 40.468,-1.873 7.225,-0.326 14.681,-0.662 22.356,-1.008 7.676,-0.354 15.577,-0.637 23.686,-0.92 8.107,-0.336 16.433,-0.453 24.951,-0.69 4.261,-0.079 8.578,-0.089 12.939,-0.129 2.181,-0.015 4.375,-0.03 6.579,-0.044 2.204,0.005 4.415,0.066 6.64,0.097 35.602,0.872 74.137,1.648 114.925,2.007 20.384,0.135 41.352,0.283 62.726,-0.035 2.671,-0.041 5.35,-0.082 8.034,-0.123 2.686,-0.041 5.377,-0.061 8.081,-0.212 5.396,-0.255 10.86,-0.442 16.273,-0.757 10.927,-0.604 21.96,-1.28 33.087,-1.519 5.563,-0.164 11.149,-0.329 16.758,-0.495 5.61,-0.099 11.243,-0.197 16.896,-0.297 5.653,-0.125 11.322,-0.15 17.011,-0.189 2.847,-0.009 5.686,-0.065 8.553,-0.035 2.854,0.023 5.712,0.049 8.575,0.073 22.902,0.2 46.083,0.404 69.45,0.609 11.682,0.114 23.411,0.23 35.175,0.347 2.94,0.028 5.884,0.057 8.828,0.086 2.944,0.081 5.89,0.162 8.837,0.242 5.895,0.174 11.796,0.346 17.703,0.52 23.631,0.692 47.354,1.388 71.076,2.083 0.673,-0.002 1.311,-0.096 1.916,-0.384 0.592,-0.295 1.16,-0.678 1.64,-1.186 0.985,-0.981 1.75,-2.223 2.388,-3.516 1.269,-2.609 2.1,-5.449 2.773,-8.309 1.312,-5.742 1.962,-11.638 2.345,-17.53 0.371,-5.898 0.424,-11.815 0.221,-17.717 -0.212,-5.901 -0.675,-11.793 -1.516,-17.624 -0.429,-2.913 -0.943,-5.812 -1.626,-8.668 -0.69,-2.849 -1.514,-5.679 -2.733,-8.316 -0.612,-1.311 -1.33,-2.582 -2.266,-3.64 -0.464,-0.528 -0.994,-0.994 -1.592,-1.304 -0.299,-0.183 -0.598,-0.254 -0.892,-0.359 l -0.546,-0.07 c -0.19,-0.033 -0.298,-0.011 -0.515,-0.022 -2.943,-0.047 -5.885,-0.094 -8.824,-0.14 -11.758,-0.173 -23.479,-0.427 -35.162,-0.445 -11.682,-0.107 -23.314,-0.032 -34.895,-0.237 -5.789,-0.073 -11.564,-0.146 -17.324,-0.219 -5.759,-0.082 -11.505,-0.092 -17.223,-0.371 -11.441,-0.426 -22.813,-0.849 -34.104,-1.27 -2.837,-0.096 -5.639,-0.11 -8.451,-0.168 -2.81,-0.037 -5.609,-0.132 -8.415,-0.08 -5.604,0.042 -11.188,0.083 -16.749,0.124 -22.246,0.363 -44.121,0.721 -65.532,1.07 -21.418,0.375 -42.356,0.644 -62.797,0.518 -2.556,0.022 -5.096,-0.055 -7.626,-0.136 -2.53,-0.074 -5.053,-0.147 -7.565,-0.221 -5.023,-0.143 -10.012,-0.285 -14.962,-0.426 -2.471,-0.06 -4.929,-0.162 -7.384,-0.186 -2.457,-0.009 -4.904,-0.019 -7.342,-0.028 -4.875,-0.029 -9.71,-0.057 -14.505,-0.085 -19.184,-0.009 -37.724,0.061 -55.52,0.259 -35.591,0.319 -68.23,0.713 -97.133,1.35 -3.613,0.081 -7.168,0.161 -10.664,0.239 -3.496,0.128 -6.933,0.254 -10.309,0.378 -6.746,0.378 -13.248,0.742 -19.496,1.092 -6.257,0.196 -12.257,0.467 -17.993,0.576 -5.737,0.082 -11.206,0.234 -16.398,0.247 -20.77,0.132 -37.086,-0.204 -48.208,-0.165 -5.561,-0.042 -9.826,0.06 -12.699,0.089 -2.874,0.037 -4.357,0.057 -4.357,0.057 z"
           id="path35"
           inkscape:connector-curvature="0" /></g></g><g
       id="g37"><g
         id="g39"><text
           transform="translate(546.0581,370.9897)"
           id="text41"><tspan
             x="0"
             y="0"
             font-size="32.5377"
             id="tspan43"
             style="font-size:32.53770065px;font-family:Folkard">Dia de Sonho</tspan><tspan
             x="-101.719"
             y="31.93"
             font-size="32.5377"
             id="tspan45"
             style="font-size:32.53770065px;font-family:Folkard">No Reino das Nobres Acoes</tspan></text>
<g
           id="g47"><g
             id="g49"><path
               stroke-miterlimit="10"
               d="m 798.834,385.111 c 0.163,0.053 0.323,0.104 0.479,0.164 0.646,0.035 1.157,0.077 1.543,0.121 0.672,0.082 1.199,0.1 1.578,0.061 0.59,-0.064 1.367,-0.265 2.331,-0.605 0.252,-0.09 0.487,-0.219 0.715,-0.387 0.438,-0.327 0.759,-0.712 0.966,-1.157 -0.154,-0.143 -0.301,-0.292 -0.442,-0.442 -0.079,0.231 -0.279,0.468 -0.601,0.708 -0.577,0.429 -1.244,0.676 -1.995,0.74 -0.815,0.066 -2.172,-0.027 -4.063,-0.285 -0.65,-0.017 -1.389,0.024 -2.209,0.116 0.599,0.268 1.15,0.625 1.698,0.966 z"
               id="path51"
               inkscape:connector-curvature="0"
               style="stroke:#010001;stroke-width:0.5;stroke-miterlimit:10" /></g></g><g
           id="g53"><g
             id="g55"><path
               stroke-miterlimit="10"
               d="m 789.562,408.95 c 0.523,0.067 0.8,0.064 0.836,-0.007 0.035,-0.091 -0.011,-0.186 -0.156,-0.285 -0.15,-0.02 -0.353,-0.088 -0.619,-0.207 -0.58,-0.262 -0.885,-0.977 -0.905,-2.145 -0.002,-0.279 0,-0.535 0.017,-0.773 l -0.907,-0.406 c -0.062,0.371 -0.106,0.783 -0.129,1.244 -0.062,1.301 0.217,2.09 0.834,2.369 0.165,0.072 0.507,0.144 1.029,0.21 z"
               id="path57"
               inkscape:connector-curvature="0"
               style="stroke:#010001;stroke-width:0.5;stroke-miterlimit:10" /></g></g></g><g
         id="g59"><path
           d="m 418.351,384.549 c -1.57,0.674 -2.739,2.172 -2.494,3.951 0.244,1.782 1.486,2.997 3.289,3.092 1.719,0.09 2.743,-1.648 2.384,-3.157 -0.371,-1.546 -2.503,-1.682 -3.431,-0.658 -0.608,0.675 0.387,1.675 0.998,0.999 0.737,-0.814 1.987,1.159 0.049,1.404 -0.664,0.086 -1.228,-0.38 -1.574,-0.884 -0.618,-0.9 -0.338,-2.058 0.339,-2.818 1.935,-2.174 4.903,-0.01 5.579,2.112 0.753,2.372 -0.878,4.467 -2.803,5.611 -1.95,1.163 -4.407,1.289 -6.61,1.458 -0.903,0.071 -0.909,1.484 0,1.414 4.24,-0.327 9.4,-1.149 10.805,-5.871 1.096,-3.684 -2.61,-8.34 -6.531,-6.653 z"
           id="path61"
           inkscape:connector-curvature="0" /><path
           d="m 418.351,408.197 c -1.57,-0.676 -2.739,-2.173 -2.494,-3.951 0.244,-1.78 1.486,-2.996 3.289,-3.093 1.719,-0.089 2.743,1.647 2.384,3.157 -0.371,1.545 -2.503,1.682 -3.431,0.656 -0.608,-0.672 0.387,-1.674 0.998,-0.998 0.737,0.816 1.987,-1.154 0.049,-1.402 -0.664,-0.085 -1.228,0.379 -1.574,0.884 -0.618,0.897 -0.338,2.058 0.339,2.815 1.935,2.177 4.903,0.013 5.579,-2.107 0.753,-2.375 -0.878,-4.472 -2.803,-5.614 -1.95,-1.161 -4.407,-1.289 -6.61,-1.458 -0.903,-0.07 -0.909,-1.481 0,-1.414 4.24,0.329 9.4,1.151 10.805,5.874 1.096,3.681 -2.61,8.339 -6.531,6.651 z"
           id="path63"
           inkscape:connector-curvature="0" /><path
           d="m 399.66,401.904 c -1.042,-0.683 -2.112,-0.32 -3.277,-0.279 -2.938,0.102 -5.675,-0.745 -8.045,-2.485 -0.462,-0.339 -0.911,0.021 -1,0.468 -0.071,0.218 -0.046,0.471 0.137,0.692 1.2,1.444 2.707,2.662 4.401,3.492 -0.542,-0.181 -1.074,-0.337 -1.584,-0.475 -3.642,-0.969 -8.731,-1.7 -10.146,-5.64 1.818,0.203 3.163,-2.104 2.207,-3.893 -1.517,-2.837 -5.187,-4.356 -8.207,-4.833 -0.888,-0.139 -1.295,1.214 -0.398,1.355 1.729,0.272 3.427,0.81 4.899,1.777 0.78,0.509 1.793,1.115 2.247,1.965 0.363,0.678 0.511,2.987 -0.988,2.079 -0.129,-0.077 -0.253,-0.106 -0.374,-0.103 -0.434,-0.205 -1.145,0.174 -1.048,0.831 0.752,5.072 6.18,6.563 10.418,7.574 2.586,0.615 5.158,1.383 7.022,3.379 1.101,1.176 1.675,2.996 0.893,4.484 -0.336,0.642 -1.03,0.992 -1.686,1.188 -0.397,0.095 -0.793,0.086 -1.185,-0.021 -1.208,-0.248 -1.95,-2.848 -0.067,-2.318 0.877,0.249 1.25,-1.115 0.375,-1.361 -3.22,-0.904 -3.993,3.842 -1.095,4.891 1.347,0.488 2.915,0.309 4.012,-0.676 1.379,-1.232 1.64,-2.904 1.209,-4.648 -0.577,-2.332 -2.521,-3.836 -4.674,-4.832 0.004,0.003 0.008,0.003 0.016,0.006 1.45,0.434 5.513,1.532 6.374,-0.442 0.334,-0.757 0.344,-1.661 -0.436,-2.175 z"
           id="path65"
           inkscape:connector-curvature="0" /><path
           d="m 399.66,373.647 c -1.042,0.684 -2.112,0.319 -3.277,0.28 -2.938,-0.101 -5.675,0.464 -8.045,2.202 -0.462,0.341 -0.911,0.263 -1,-0.186 -0.071,-0.217 -0.046,-0.469 0.137,-0.69 1.2,-1.446 2.707,-2.663 4.401,-3.495 -0.542,0.183 -1.074,0.34 -1.584,0.475 -3.642,0.971 -8.731,1.702 -10.146,5.642 1.818,-0.203 3.163,2.104 2.207,3.894 -1.517,2.838 -5.187,4.354 -8.207,4.832 -0.888,0.139 -1.295,-1.213 -0.398,-1.355 1.729,-0.271 3.427,-0.809 4.899,-1.777 0.78,-0.509 1.793,-1.115 2.247,-1.964 0.363,-0.678 0.511,-2.989 -0.988,-2.08 -0.129,0.078 -0.253,0.105 -0.374,0.104 -0.434,0.202 -1.145,-0.176 -1.048,-0.831 0.752,-5.074 6.18,-6.565 10.418,-7.574 2.586,-0.615 5.158,-1.381 7.022,-3.381 1.101,-1.174 1.675,-2.997 0.893,-4.483 -0.336,-0.642 -1.03,-0.992 -1.686,-1.188 -0.397,-0.092 -0.793,-0.086 -1.185,0.022 -1.208,0.247 -1.95,2.846 -0.067,2.315 0.877,-0.248 1.25,1.116 0.375,1.361 -3.22,0.909 -3.993,-3.84 -1.095,-4.888 1.347,-0.486 2.915,-0.309 4.012,0.674 1.379,1.233 1.64,2.905 1.209,4.649 -0.577,2.331 -2.521,3.835 -4.674,4.832 0.004,-0.002 0.008,-0.004 0.016,-0.004 1.45,-0.436 5.513,-1.533 6.374,0.443 0.334,0.755 0.344,1.659 -0.436,2.171 z"
           id="path67"
           inkscape:connector-curvature="0" /><path
           d="m 427.493,398.44 c 0,0.312 -0.253,0.564 -0.564,0.564 h -1.127 c -0.313,0 -0.567,-0.252 -0.567,-0.564 v -4.099 c 0,-0.313 0.254,-0.566 0.567,-0.566 h 1.127 c 0.311,0 0.564,0.253 0.564,0.566 v 4.099 z"
           id="path69"
           inkscape:connector-curvature="0" /><polygon
           points="428.716,393.85 437.091,396.391 428.716,398.932 "
           id="polygon71" /><path
           d="m 428.999,395.684 h -22.3 c -0.292,0 -0.49,0.148 -0.594,0.344 -0.074,0.04 -0.146,0.091 -0.211,0.167 -5.355,6.193 -14.698,6.513 -20.483,0.736 -2.828,-2.822 -4.032,-6.916 -3.686,-10.835 0.338,-3.839 2.727,-7.208 5.887,-9.283 6.536,-4.298 15.839,-1.203 18.662,6.044 1.424,3.653 -0.042,8.15 -3.782,9.707 -3.295,1.37 -7.63,-0.79 -7.966,-4.448 -0.29,-3.145 2.348,-5.965 5.526,-5.394 2.341,0.422 3.621,2.346 3.672,4.363 -0.014,-0.462 -1.241,-0.859 -1.586,-0.937 -0.766,-0.17 -1.594,-0.1 -2.298,0.26 -0.928,0.471 -1.596,1.452 -1.609,2.492 -0.019,1.149 0.775,2.24 1.843,2.669 1.065,0.43 2.337,0.229 3.28,-0.429 1.125,-0.789 1.765,-2.143 1.83,-3.5 0.092,-1.874 -0.809,-3.914 -2.257,-5.113 -1.668,-1.381 -4.158,-1.727 -6.124,-0.796 -2.01,0.953 -3.294,2.867 -3.614,5.06 -0.062,0.438 -0.089,0.88 -0.074,1.325 0.094,2.893 2.349,5.031 4.947,5.906 2.882,0.969 5.94,-0.103 7.94,-2.276 2.201,-2.392 2.665,-5.77 1.787,-8.806 -1.819,-6.306 -9.051,-10.399 -15.395,-9.406 -4.56,0.713 -8.514,3.616 -10.663,7.688 -2.267,4.298 -1.811,9.594 0.474,13.773 2.251,4.119 6.814,6.996 11.451,7.479 4.997,0.521 9.956,-1.486 13.236,-5.277 0.027,-0.032 0.047,-0.065 0.069,-0.099 H 429 c 0.91,-0.001 0.91,-1.414 -10e-4,-1.414 z"
           id="path73"
           inkscape:connector-curvature="0" /><path
           d="m 381.355,388.913 c 0,0.415 -0.281,0.75 -0.627,0.75 h -5.545 c -0.346,0 -0.627,-0.335 -0.627,-0.75 v -2.379 c 0,-0.415 0.281,-0.751 0.627,-0.751 h 5.545 c 0.346,0 0.627,0.336 0.627,0.751 v 2.379 z"
           id="path75"
           inkscape:connector-curvature="0" /><path
           d="m 862.644,384.549 c 1.572,0.674 2.733,2.172 2.491,3.951 -0.245,1.782 -1.486,2.997 -3.287,3.092 -1.72,0.09 -2.744,-1.648 -2.379,-3.157 0.369,-1.546 2.499,-1.682 3.423,-0.658 0.611,0.675 -0.386,1.675 -0.998,0.999 -0.734,-0.814 -1.982,1.159 -0.046,1.404 0.663,0.086 1.228,-0.38 1.573,-0.884 0.615,-0.9 0.338,-2.058 -0.337,-2.818 -1.937,-2.174 -4.905,-0.01 -5.581,2.112 -0.753,2.372 0.879,4.467 2.802,5.611 1.949,1.163 4.409,1.289 6.612,1.458 0.901,0.071 0.907,1.484 0,1.414 -4.242,-0.327 -9.399,-1.149 -10.807,-5.871 -1.092,-3.684 2.608,-8.34 6.534,-6.653 z"
           id="path77"
           inkscape:connector-curvature="0" /><path
           d="m 862.644,408.197 c 1.572,-0.676 2.733,-2.173 2.491,-3.951 -0.245,-1.78 -1.486,-2.996 -3.287,-3.093 -1.72,-0.089 -2.744,1.647 -2.379,3.157 0.369,1.545 2.499,1.682 3.423,0.656 0.611,-0.672 -0.386,-1.674 -0.998,-0.998 -0.734,0.816 -1.982,-1.154 -0.046,-1.402 0.663,-0.085 1.228,0.379 1.573,0.884 0.615,0.897 0.338,2.058 -0.337,2.815 -1.937,2.177 -4.905,0.013 -5.581,-2.107 -0.753,-2.375 0.879,-4.472 2.802,-5.614 1.949,-1.161 4.409,-1.289 6.612,-1.458 0.901,-0.07 0.907,-1.481 0,-1.414 -4.242,0.329 -9.399,1.151 -10.807,5.874 -1.092,3.681 2.608,8.339 6.534,6.651 z"
           id="path79"
           inkscape:connector-curvature="0" /><path
           d="m 881.334,401.904 c 1.04,-0.683 2.112,-0.32 3.277,-0.279 2.936,0.102 5.675,-0.745 8.043,-2.485 0.463,-0.339 0.913,0.021 0.997,0.468 0.074,0.218 0.052,0.471 -0.132,0.692 -1.198,1.444 -2.71,2.662 -4.401,3.492 0.543,-0.181 1.074,-0.337 1.583,-0.475 3.644,-0.969 8.735,-1.7 10.148,-5.64 -1.815,0.203 -3.165,-2.104 -2.208,-3.893 1.516,-2.837 5.189,-4.356 8.208,-4.833 0.886,-0.139 1.295,1.214 0.396,1.355 -1.729,0.272 -3.426,0.81 -4.897,1.777 -0.775,0.509 -1.795,1.115 -2.247,1.965 -0.36,0.678 -0.509,2.987 0.99,2.079 0.125,-0.077 0.25,-0.106 0.364,-0.103 0.442,-0.205 1.153,0.174 1.056,0.831 -0.755,5.072 -6.18,6.563 -10.418,7.574 -2.589,0.615 -5.155,1.383 -7.021,3.379 -1.105,1.176 -1.677,2.996 -0.896,4.484 0.338,0.642 1.032,0.992 1.687,1.188 0.394,0.095 0.794,0.086 1.19,-0.021 1.205,-0.248 1.947,-2.848 0.062,-2.318 -0.882,0.249 -1.249,-1.115 -0.38,-1.361 3.224,-0.904 3.992,3.842 1.102,4.891 -1.346,0.488 -2.919,0.309 -4.014,-0.676 -1.38,-1.232 -1.643,-2.904 -1.211,-4.648 0.575,-2.332 2.524,-3.836 4.674,-4.832 -0.004,0.003 -0.008,0.003 -0.013,0.006 -1.451,0.434 -5.515,1.532 -6.377,-0.442 -0.332,-0.757 -0.342,-1.661 0.438,-2.175 z"
           id="path81"
           inkscape:connector-curvature="0" /><path
           d="m 881.334,373.647 c 1.04,0.684 2.112,0.319 3.277,0.28 2.936,-0.101 5.675,0.464 8.043,2.202 0.463,0.341 0.913,0.263 0.997,-0.186 0.074,-0.217 0.052,-0.469 -0.132,-0.69 -1.198,-1.446 -2.71,-2.663 -4.401,-3.495 0.543,0.183 1.074,0.34 1.583,0.475 3.644,0.971 8.735,1.702 10.148,5.642 -1.815,-0.203 -3.165,2.104 -2.208,3.894 1.516,2.838 5.189,4.354 8.208,4.832 0.886,0.139 1.295,-1.213 0.396,-1.355 -1.729,-0.271 -3.426,-0.809 -4.897,-1.777 -0.775,-0.509 -1.795,-1.115 -2.247,-1.964 -0.36,-0.678 -0.509,-2.989 0.99,-2.08 0.125,0.078 0.25,0.105 0.364,0.104 0.442,0.202 1.153,-0.176 1.056,-0.831 -0.755,-5.074 -6.18,-6.565 -10.418,-7.574 -2.589,-0.615 -5.155,-1.381 -7.021,-3.381 -1.105,-1.174 -1.677,-2.997 -0.896,-4.483 0.338,-0.642 1.032,-0.992 1.687,-1.188 0.394,-0.092 0.794,-0.086 1.19,0.022 1.205,0.247 1.947,2.846 0.062,2.315 -0.882,-0.248 -1.249,1.116 -0.38,1.361 3.224,0.909 3.992,-3.84 1.102,-4.888 -1.346,-0.486 -2.919,-0.309 -4.014,0.674 -1.38,1.233 -1.643,2.905 -1.211,4.649 0.575,2.331 2.524,3.835 4.674,4.832 -0.004,-0.002 -0.008,-0.004 -0.013,-0.004 -1.451,-0.436 -5.515,-1.533 -6.377,0.443 -0.332,0.755 -0.342,1.659 0.438,2.171 z"
           id="path83"
           inkscape:connector-curvature="0" /><path
           d="m 853.502,398.44 c 0,0.312 0.25,0.564 0.562,0.564 h 1.13 c 0.313,0 0.563,-0.252 0.563,-0.564 v -4.099 c 0,-0.313 -0.25,-0.566 -0.563,-0.566 h -1.13 c -0.312,0 -0.562,0.253 -0.562,0.566 v 4.099 z"
           id="path85"
           inkscape:connector-curvature="0" /><polygon
           points="852.276,393.85 843.903,396.391 852.276,398.932 "
           id="polygon87" /><path
           d="m 851.995,395.684 h 22.299 c 0.294,0 0.489,0.148 0.594,0.344 0.075,0.04 0.148,0.091 0.213,0.167 5.352,6.193 14.695,6.513 20.48,0.736 2.832,-2.822 4.032,-6.916 3.688,-10.835 -0.34,-3.839 -2.731,-7.208 -5.892,-9.283 -6.533,-4.298 -15.832,-1.203 -18.657,6.044 -1.422,3.653 0.042,8.15 3.778,9.707 3.298,1.37 7.63,-0.79 7.972,-4.448 0.286,-3.145 -2.35,-5.965 -5.528,-5.394 -2.34,0.422 -3.621,2.346 -3.668,4.363 0.011,-0.462 1.234,-0.859 1.578,-0.937 0.768,-0.17 1.594,-0.1 2.303,0.26 0.923,0.471 1.597,1.452 1.611,2.492 0.017,1.149 -0.775,2.24 -1.842,2.669 -1.068,0.43 -2.336,0.229 -3.283,-0.429 -1.128,-0.789 -1.766,-2.143 -1.832,-3.5 -0.09,-1.874 0.807,-3.914 2.256,-5.113 1.672,-1.381 4.161,-1.727 6.123,-0.796 2.014,0.953 3.294,2.867 3.615,5.06 0.064,0.438 0.089,0.88 0.076,1.325 -0.098,2.893 -2.352,5.031 -4.949,5.906 -2.881,0.969 -5.936,-0.103 -7.94,-2.276 -2.2,-2.392 -2.665,-5.77 -1.785,-8.806 1.82,-6.306 9.055,-10.399 15.398,-9.406 4.56,0.713 8.515,3.616 10.662,7.688 2.269,4.298 1.81,9.594 -0.474,13.773 -2.256,4.119 -6.815,6.996 -11.454,7.479 -4.995,0.521 -9.957,-1.486 -13.236,-5.277 -0.028,-0.032 -0.048,-0.065 -0.068,-0.099 h -22.038 c -0.912,-0.001 -0.912,-1.414 0,-1.414 z"
           id="path89"
           inkscape:connector-curvature="0" /><path
           d="m 899.637,388.913 c 0,0.415 0.283,0.75 0.627,0.75 h 5.546 c 0.351,0 0.63,-0.335 0.63,-0.75 v -2.379 c 0,-0.415 -0.279,-0.751 -0.63,-0.751 h -5.546 c -0.344,0 -0.627,0.336 -0.627,0.751 v 2.379 z"
           id="path91"
           inkscape:connector-curvature="0" /></g></g></g></svg>