<?xml version="1.0" encoding="UTF-8" standalone="no"?>
<!-- Created with Inkscape (http://www.inkscape.org/) -->

<svg
   xmlns:dc="http://purl.org/dc/elements/1.1/"
   xmlns:cc="http://creativecommons.org/ns#"
   xmlns:rdf="http://www.w3.org/1999/02/22-rdf-syntax-ns#"
   xmlns:svg="http://www.w3.org/2000/svg"
   xmlns="http://www.w3.org/2000/svg"
   version="1.1"
   width="765.25836"
   height="126.30154"
   viewBox="0 0 765.25836 126.30154"
   id="Layer_1"
   xml:space="preserve"><metadata
     id="metadata97"><rdf:RDF><cc:Work
         rdf:about=""><dc:format>image/svg+xml</dc:format><dc:type
           rdf:resource="http://purl.org/dc/dcmitype/StillImage" /><dc:title></dc:title></cc:Work></rdf:RDF></metadata><defs
     id="defs95" /><g
     id="layer1"><g
       transform="translate(0,-3.4399415e-6)"
       id="g3241"><path
         d="m 99.15151,125.767 c -31.349,0.089 -68.188,-0.08 -93.331,-0.772 -14.812,-0.405 13.459,-24.94 12.508,-45.808 -1.083,-23.734 -29.341,-44.465 -12.508,-43.771 28.209,1.181 54.76,2.133 95.911,2.749 l 8.478,4.844 c 3.597,23.714 5.837,47.72 1.404,73.129 -0.434,7.717 -3.018,9.604 -12.462,9.629 z"
         id="path9"
         style="fill:#ffff34;fill-rule:evenodd" /><path
         d="m 99.15151,125.867 -18.365,0.061 c -6.122,0.023 -12.243,0.141 -18.365,0.206 -6.122,0.069 -12.243,0.198 -18.367,0.161 l -18.373,-0.134 c -6.125,-0.022 -12.248,-0.185 -18.371,-0.289 -0.75,-0.021 -1.546,-0.009 -2.334,-0.084 -0.863,-0.09 -1.702,-0.255 -2.551,-0.732 -0.854,-0.446 -1.538,-1.443 -1.664,-2.394 -0.16,-0.951 -0.009,-1.812 0.189,-2.612 0.426,-1.596 1.103,-3.013 1.804,-4.401 0.71,-1.385 1.472,-2.725 2.247,-4.051 3.107,-5.293 6.356,-10.464 8.914,-15.989 1.274,-2.757 2.391,-5.594 3.145,-8.529 0.736,-2.938 1.101,-5.96 0.844,-8.987 -0.469,-6.046 -2.627,-11.885 -5.426,-17.277 -2.786,-5.433 -6.223,-10.488 -9.481,-15.695 -0.8,-1.313 -1.581,-2.647 -2.218,-4.085 -0.312,-0.722 -0.59,-1.474 -0.726,-2.299 -0.054,-0.417 -0.086,-0.851 -0.002,-1.303 0.083,-0.45 0.291,-0.904 0.609,-1.258 0.651,-0.724 1.53,-0.967 2.318,-1.135 0.807,-0.152 1.603,-0.182 2.39,-0.178 l 4.6,0.113 18.359,0.491 18.356,0.548 c 6.118,0.177 12.237,0.238 18.355,0.362 l 18.354,0.329 18.352,0.425 0.272,0.006 0.227,0.13 8.47,4.858 0.435,0.249 0.068,0.484 1.285,9.113 c 0.371,3.048 0.721,6.098 1.04,9.15 l 0.381,4.592 c 0.119,1.53 0.271,3.059 0.363,4.592 l 0.219,4.604 c 0.066,1.533 0.165,3.066 0.177,4.604 l -0.002,4.609 c -0.014,1.535 0.028,3.07 -0.033,4.605 l -0.222,4.603 c -0.088,1.532 -0.116,3.067 -0.249,4.597 l -0.458,4.582 c -0.163,1.525 -0.284,3.056 -0.48,4.576 -0.477,3.032 -0.977,6.057 -1.418,9.09 l 0.003,-0.023 c -0.062,0.771 -0.121,1.541 -0.244,2.309 -0.041,0.385 -0.142,0.764 -0.216,1.145 -0.064,0.385 -0.206,0.753 -0.312,1.128 -0.106,0.376 -0.297,0.726 -0.441,1.089 -0.202,0.338 -0.378,0.695 -0.626,1.001 -0.248,0.31 -0.495,0.618 -0.808,0.863 -0.281,0.282 -0.626,0.477 -0.955,0.692 -0.335,0.205 -0.704,0.344 -1.056,0.513 -0.372,0.116 -0.737,0.256 -1.113,0.354 -0.754,0.192 -1.518,0.315 -2.284,0.416 -0.769,0.071 -1.537,0.144 -2.307,0.163 -0.77,0.044 -1.54,0.026 -2.309,0.042 z m 0,-0.201 c 0.766,-0.024 1.534,-0.017 2.297,-0.071 0.766,-0.029 1.526,-0.11 2.287,-0.189 0.756,-0.109 1.507,-0.238 2.241,-0.436 0.366,-0.1 0.718,-0.239 1.078,-0.356 0.336,-0.167 0.691,-0.306 1.007,-0.505 0.311,-0.209 0.638,-0.396 0.898,-0.666 0.293,-0.234 0.522,-0.529 0.752,-0.823 0.232,-0.291 0.394,-0.634 0.583,-0.955 0.133,-0.351 0.312,-0.683 0.41,-1.049 0.098,-0.364 0.231,-0.718 0.289,-1.095 0.068,-0.373 0.163,-0.74 0.198,-1.12 0.111,-0.752 0.16,-1.514 0.212,-2.274 l 0,-0.01 0.002,-0.016 c 0.429,-3.027 0.8,-6.062 1.194,-9.092 0.15,-1.52 0.227,-3.047 0.343,-4.57 l 0.321,-4.568 c 0.087,-1.524 0.069,-3.055 0.106,-4.58 l 0.072,-4.577 c 0.011,-1.525 -0.081,-3.052 -0.116,-4.577 l -0.146,-4.573 c -0.064,-1.524 -0.212,-3.045 -0.299,-4.567 l -0.306,-4.566 c -0.121,-1.52 -0.301,-3.037 -0.449,-4.555 l -0.466,-4.554 -1.152,-9.086 -1.309,-9.072 0.502,0.732 -8.485,-4.831 0.498,0.136 -18.368,-0.383 -18.365,-0.48 c -6.121,-0.175 -12.245,-0.287 -18.363,-0.514 l -18.347,-0.803 -18.345,-0.859 -4.576,-0.211 c -0.741,-0.019 -1.483,-0.002 -2.184,0.117 -0.688,0.125 -1.375,0.342 -1.763,0.778 -0.404,0.415 -0.496,1.066 -0.402,1.755 0.099,0.688 0.336,1.392 0.619,2.077 0.577,1.374 1.319,2.705 2.086,4.018 1.54,2.629 3.213,5.197 4.815,7.811 1.604,2.613 3.146,5.271 4.534,8.013 2.744,5.479 5.006,11.324 5.552,17.527 0.291,3.08 -0.055,6.223 -0.779,9.221 -0.721,3.01 -1.774,5.925 -3.004,8.75 -2.458,5.657 -5.619,10.955 -8.587,16.282 -0.738,1.334 -1.459,2.673 -2.116,4.028 -0.648,1.352 -1.256,2.736 -1.587,4.111 -0.152,0.68 -0.251,1.369 -0.141,1.932 0.105,0.565 0.374,0.956 0.874,1.236 0.487,0.28 1.183,0.436 1.836,0.494 0.736,0.065 1.474,0.047 2.253,0.062 6.118,0.084 12.237,0.109 18.353,0.273 l 18.353,0.43 c 6.117,0.223 12.24,0.283 18.36,0.395 6.122,0.088 12.243,0.229 18.364,0.275 l 18.366,0.13 z"
         id="path11" /></g><g
       transform="translate(0,-3.4399415e-6)"
       id="g3312"><path
         d="m 95.74951,125.776 c 11.771,-10.629 -35.035,-27.122 -44.915,-30.673 3.692,-22.451 32.057,-35.534 60.907,-40.812 2.592,19.019 4.033,39.16 0.269,60.527 -0.77,13.496 -9.112,10.869 -16.261,10.958 z"
         id="path15"
         style="fill:#f1c11d;fill-rule:evenodd" /><path
         d="m 95.67951,125.704 c 0.89,-0.873 1.549,-1.938 1.677,-3.119 0.106,-1.176 -0.321,-2.338 -0.981,-3.331 -0.65,-1.007 -1.496,-1.894 -2.402,-2.708 -0.9,-0.821 -1.867,-1.579 -2.868,-2.291 -2.004,-1.424 -4.134,-2.683 -6.307,-3.858 -2.178,-1.169 -4.392,-2.28 -6.632,-3.337 -8.977,-4.217 -18.29,-7.693 -27.585,-11.25 l -0.625,-0.238 0.137,-0.59 c 0.188,-0.809 0.337,-1.625 0.56,-2.424 0.252,-0.789 0.434,-1.6 0.75,-2.365 0.286,-0.776 0.57,-1.552 0.933,-2.295 0.324,-0.76 0.704,-1.49 1.104,-2.211 0.777,-1.451 1.701,-2.814 2.664,-4.139 0.998,-1.301 2.048,-2.555 3.169,-3.742 1.127,-1.18 2.307,-2.307 3.536,-3.375 0.615,-0.533 1.229,-1.068 1.876,-1.562 0.634,-0.511 1.278,-1.008 1.939,-1.48 0.648,-0.492 1.307,-0.969 1.984,-1.42 0.665,-0.469 1.343,-0.917 2.035,-1.345 0.682,-0.444 1.375,-0.868 2.08,-1.274 0.696,-0.42 1.402,-0.824 2.119,-1.207 0.709,-0.397 1.428,-0.777 2.15,-1.148 0.719,-0.38 1.439,-0.759 2.173,-1.108 1.456,-0.725 2.936,-1.4 4.426,-2.05 1.491,-0.65 3,-1.258 4.514,-1.854 1.519,-0.584 3.048,-1.141 4.587,-1.671 1.542,-0.52 3.088,-1.03 4.651,-1.483 1.561,-0.46 3.127,-0.905 4.704,-1.307 1.573,-0.417 3.157,-0.792 4.744,-1.157 1.588,-0.359 3.184,-0.676 4.781,-0.991 l 0.962,-0.189 0.131,0.981 1.004,7.551 0.42,3.789 c 0.132,1.264 0.298,2.523 0.402,3.791 l 0.303,3.804 c 0.083,1.27 0.218,2.534 0.259,3.808 l 0.157,3.815 c 0.04,1.272 0.13,2.542 0.104,3.817 l -0.021,3.82 c -0.024,1.273 0.024,2.547 -0.06,3.819 l -0.206,3.816 c -0.089,1.271 -0.11,2.546 -0.254,3.812 l -0.406,3.801 c -0.146,1.265 -0.247,2.534 -0.43,3.795 l -1.23,7.537 0.009,-0.082 c -0.142,0.992 -0.181,1.985 -0.412,2.969 l -0.324,1.473 -0.502,1.441 c -0.148,0.484 -0.451,0.924 -0.67,1.384 -0.203,0.473 -0.588,0.853 -0.884,1.274 -0.297,0.428 -0.749,0.728 -1.117,1.091 -0.419,0.304 -0.871,0.576 -1.325,0.816 -0.483,0.173 -0.945,0.429 -1.448,0.514 -0.494,0.122 -0.985,0.241 -1.485,0.28 -0.497,0.075 -0.993,0.103 -1.488,0.111 -0.496,0.031 -0.987,0.008 -1.479,0 -1.963,-0.053 -3.894,-0.281 -5.834,-0.336 l -0.239,-0.008 0.17,-0.164 z m 0.325,-0.032 c 0.891,-0.028 1.783,-0.043 2.672,-0.036 0.973,0.01 1.945,0.024 2.909,-0.006 0.481,-0.021 0.964,-0.025 1.438,-0.084 0.478,-0.036 0.951,-0.091 1.413,-0.189 0.471,-0.062 0.918,-0.202 1.362,-0.34 0.46,-0.1 0.846,-0.365 1.272,-0.53 0.39,-0.231 0.77,-0.483 1.123,-0.761 0.302,-0.336 0.683,-0.594 0.923,-0.984 0.24,-0.388 0.563,-0.711 0.725,-1.15 0.176,-0.426 0.431,-0.809 0.546,-1.264 l 0.402,-1.334 0.243,-1.391 c 0.177,-0.921 0.172,-1.887 0.269,-2.825 l 0.004,-0.046 0.005,-0.037 0.991,-7.493 c 0.148,-1.25 0.215,-2.51 0.326,-3.764 l 0.303,-3.765 c 0.11,-1.253 0.098,-2.516 0.152,-3.772 l 0.13,-3.773 c 0.068,-1.257 0.004,-2.519 0.014,-3.776 l -0.024,-3.776 c 0.012,-1.259 -0.101,-2.517 -0.131,-3.775 l -0.148,-3.776 c -0.038,-1.259 -0.17,-2.514 -0.25,-3.771 l -0.262,-3.773 c -0.085,-1.258 -0.231,-2.512 -0.344,-3.768 l -0.362,-3.769 -0.889,-7.525 1.092,0.792 c -1.584,0.286 -3.166,0.582 -4.743,0.906 -1.577,0.32 -3.153,0.651 -4.719,1.024 -3.137,0.728 -6.245,1.572 -9.333,2.483 -1.542,0.465 -3.076,0.956 -4.601,1.476 -1.521,0.528 -3.037,1.076 -4.534,1.672 -1.498,0.593 -2.986,1.212 -4.452,1.882 -1.47,0.66 -2.926,1.354 -4.34,2.127 -0.715,0.371 -1.419,0.764 -2.114,1.17 -0.704,0.394 -1.396,0.806 -2.076,1.236 -0.691,0.416 -1.368,0.852 -2.032,1.308 -0.676,0.438 -1.334,0.901 -1.981,1.382 -0.658,0.465 -1.286,0.969 -1.91,1.477 -0.636,0.494 -1.238,1.028 -1.841,1.561 -1.212,1.057 -2.339,2.207 -3.418,3.395 -0.546,0.588 -1.038,1.223 -1.559,1.831 -0.484,0.638 -0.958,1.284 -1.421,1.935 -0.884,1.332 -1.725,2.691 -2.416,4.127 -0.357,0.711 -0.694,1.431 -0.975,2.174 -0.318,0.729 -0.561,1.483 -0.804,2.237 -0.274,0.743 -0.415,1.527 -0.625,2.288 -0.181,0.77 -0.29,1.554 -0.439,2.327 l -0.487,-0.829 c 4.734,1.56 9.43,3.275 14.07,5.125 4.628,1.883 9.226,3.857 13.705,6.102 2.241,1.117 4.462,2.281 6.617,3.57 2.159,1.279 4.276,2.644 6.276,4.186 1.977,1.55 3.934,3.25 5.23,5.508 0.643,1.108 1.055,2.446 0.851,3.764 -0.197,1.224 -0.97,2.243 -1.833,3.017 z"
         id="path17" /></g><g
       transform="translate(0,-3.4399415e-6)"
       id="g3245"><path
         d="m 666.10751,125.767 c 31.349,0.089 68.191,-0.08 93.333,-0.772 14.811,-0.405 -13.462,-24.94 -12.507,-45.808 1.086,-23.734 29.338,-44.465 12.507,-43.771 -28.206,1.181 -54.767,2.133 -95.912,2.749 l -8.472,4.844 c -3.606,23.714 -5.844,47.72 -1.401,73.129 0.421,7.717 3,9.604 12.452,9.629 z"
         id="path21"
         style="fill:#ffff34;fill-rule:evenodd" /><path
         d="m 666.10751,125.666 18.364,-0.13 c 6.121,-0.047 12.242,-0.188 18.363,-0.275 6.121,-0.111 12.244,-0.172 18.361,-0.395 l 18.352,-0.43 c 6.117,-0.164 12.235,-0.189 18.354,-0.273 0.779,-0.016 1.517,0.003 2.254,-0.062 0.653,-0.059 1.349,-0.213 1.836,-0.493 0.5,-0.28 0.769,-0.671 0.874,-1.236 0.11,-0.562 0.011,-1.253 -0.142,-1.932 -0.33,-1.375 -0.938,-2.759 -1.587,-4.111 -0.657,-1.355 -1.378,-2.694 -2.116,-4.028 -2.967,-5.328 -6.129,-10.625 -8.586,-16.283 -1.23,-2.824 -2.283,-5.739 -3.003,-8.748 -0.725,-2.998 -1.07,-6.143 -0.779,-9.222 0.546,-6.203 2.809,-12.05 5.553,-17.527 1.388,-2.743 2.931,-5.401 4.534,-8.014 1.601,-2.614 3.274,-5.182 4.813,-7.812 0.768,-1.313 1.51,-2.645 2.087,-4.018 0.282,-0.686 0.52,-1.388 0.618,-2.077 0.094,-0.689 10e-4,-1.34 -0.402,-1.755 -0.389,-0.436 -1.075,-0.653 -1.763,-0.778 -0.701,-0.12 -1.443,-0.136 -2.184,-0.117 l -4.576,0.211 -18.346,0.859 -18.348,0.803 c -6.117,0.227 -12.241,0.339 -18.362,0.514 l -18.365,0.48 -18.368,0.383 0.498,-0.137 -8.479,4.831 0.502,-0.732 -1.312,9.072 -1.153,9.086 -0.467,4.553 c -0.147,1.519 -0.328,3.036 -0.449,4.556 l -0.306,4.566 c -0.087,1.522 -0.235,3.043 -0.299,4.566 l -0.146,4.574 c -0.035,1.525 -0.128,3.052 -0.115,4.577 l 0.072,4.577 c 0.037,1.526 0.02,3.056 0.107,4.58 l 0.322,4.568 c 0.117,1.523 0.193,3.051 0.345,4.57 0.395,3.029 0.767,6.064 1.197,9.092 l 0.002,0.016 v 0.01 c 0.052,0.761 0.1,1.522 0.21,2.275 0.034,0.38 0.128,0.746 0.195,1.119 0.058,0.377 0.19,0.73 0.288,1.096 0.097,0.365 0.275,0.697 0.408,1.049 0.188,0.32 0.35,0.664 0.582,0.955 0.229,0.295 0.459,0.59 0.752,0.823 0.26,0.271 0.588,0.458 0.897,0.667 0.317,0.199 0.671,0.338 1.008,0.504 0.359,0.117 0.712,0.258 1.077,0.355 0.734,0.197 1.485,0.327 2.241,0.436 0.761,0.08 1.521,0.16 2.286,0.189 0.767,0.057 1.535,0.049 2.301,0.073 z m 0,0.201 c -0.77,-0.016 -1.539,0.002 -2.308,-0.045 -0.771,-0.02 -1.538,-0.092 -2.307,-0.162 -0.767,-0.102 -1.53,-0.224 -2.284,-0.416 -0.376,-0.098 -0.741,-0.236 -1.113,-0.354 -0.353,-0.168 -0.721,-0.309 -1.056,-0.513 -0.329,-0.216 -0.675,-0.409 -0.955,-0.691 -0.313,-0.245 -0.561,-0.554 -0.808,-0.863 -0.249,-0.307 -0.425,-0.665 -0.626,-1.001 -0.145,-0.364 -0.335,-0.715 -0.44,-1.09 -0.105,-0.376 -0.247,-0.744 -0.311,-1.129 -0.074,-0.381 -0.175,-0.76 -0.215,-1.145 -0.121,-0.768 -0.179,-1.538 -0.239,-2.309 l 0.002,0.023 c -0.442,-3.033 -0.943,-6.058 -1.421,-9.09 -0.196,-1.52 -0.318,-3.05 -0.481,-4.576 l -0.46,-4.581 c -0.133,-1.529 -0.161,-3.065 -0.249,-4.598 l -0.223,-4.603 c -0.062,-1.534 -0.02,-3.07 -0.034,-4.605 l -0.003,-4.609 c 0.012,-1.537 0.111,-3.07 0.177,-4.604 l 0.22,-4.604 c 0.092,-1.533 0.244,-3.062 0.363,-4.593 l 0.381,-4.591 c 0.319,-3.053 0.671,-6.103 1.042,-9.151 l 1.288,-9.113 0.068,-0.483 0.434,-0.249 8.465,-4.857 0.227,-0.13 0.271,-0.006 18.353,-0.425 18.354,-0.329 c 6.118,-0.125 12.236,-0.186 18.355,-0.362 l 18.356,-0.548 18.358,-0.491 4.6,-0.113 c 0.788,-0.004 1.584,0.025 2.391,0.178 0.789,0.168 1.667,0.411 2.318,1.135 0.318,0.354 0.525,0.808 0.609,1.258 0.084,0.453 0.053,0.887 0,1.303 -0.136,0.826 -0.413,1.578 -0.725,2.3 -0.638,1.438 -1.418,2.771 -2.219,4.085 -3.257,5.208 -6.694,10.262 -9.479,15.695 -2.798,5.393 -4.956,11.231 -5.427,17.277 -0.256,3.027 0.107,6.048 0.844,8.987 0.753,2.936 1.87,5.771 3.144,8.529 2.558,5.525 5.807,10.695 8.914,15.988 0.774,1.328 1.536,2.668 2.246,4.051 0.701,1.39 1.378,2.807 1.805,4.402 0.197,0.801 0.35,1.66 0.188,2.613 -0.126,0.949 -0.81,1.947 -1.665,2.393 -0.849,0.477 -1.688,0.643 -2.551,0.731 -0.788,0.075 -1.584,0.063 -2.334,0.084 -6.123,0.104 -12.246,0.267 -18.371,0.289 l -18.372,0.134 c -6.125,0.037 -12.245,-0.093 -18.367,-0.161 -6.121,-0.065 -12.243,-0.183 -18.364,-0.206 l -18.364,-0.059 z"
         id="path23" /></g><g
       transform="translate(0,-3.4399415e-6)"
       id="g3316"><path
         d="m 669.51151,125.776 c -11.776,-10.629 36.99,-29.09 46.87,-32.64 -3.688,-22.454 -34.013,-33.567 -62.865,-38.845 -2.595,19.019 -4.024,39.16 -0.269,60.527 0.774,13.496 9.115,10.869 16.264,10.958 z"
         id="path27"
         style="fill:#f1c11d;fill-rule:evenodd" /><path
         d="m 669.25951,125.672 c -0.904,-0.81 -1.694,-1.917 -1.798,-3.221 -0.147,-1.388 0.39,-2.731 1.067,-3.872 1.401,-2.308 3.421,-4.085 5.471,-5.716 4.155,-3.232 8.7,-5.864 13.33,-8.274 2.313,-1.211 4.663,-2.349 7.032,-3.441 2.369,-1.092 4.746,-2.163 7.153,-3.162 2.404,-1.007 4.821,-1.981 7.261,-2.896 2.434,-0.933 4.894,-1.79 7.363,-2.629 l -0.465,0.79 c -0.263,-1.564 -0.588,-3.127 -1.111,-4.633 -0.253,-0.756 -0.519,-1.509 -0.857,-2.233 -0.296,-0.743 -0.67,-1.45 -1.045,-2.159 -0.747,-1.418 -1.648,-2.752 -2.601,-4.051 -0.993,-1.268 -2.056,-2.486 -3.207,-3.622 -0.579,-0.563 -1.146,-1.142 -1.771,-1.657 -0.606,-0.537 -1.223,-1.062 -1.867,-1.553 -0.629,-0.512 -1.278,-0.996 -1.941,-1.463 -0.648,-0.486 -1.333,-0.923 -2.016,-1.361 -1.36,-0.882 -2.763,-1.703 -4.188,-2.475 -1.423,-0.781 -2.873,-1.513 -4.346,-2.197 -0.729,-0.355 -1.478,-0.671 -2.226,-0.986 -0.745,-0.324 -1.495,-0.633 -2.253,-0.926 -1.506,-0.606 -3.031,-1.163 -4.564,-1.697 -3.067,-1.063 -6.177,-2.004 -9.313,-2.843 -3.137,-0.837 -6.288,-1.617 -9.462,-2.301 -3.175,-0.682 -6.36,-1.312 -9.558,-1.877 l 1.102,-0.799 -0.89,7.524 -0.362,3.768 c -0.112,1.256 -0.259,2.511 -0.344,3.769 l -0.269,3.772 c -0.08,1.257 -0.212,2.513 -0.25,3.771 l -0.147,3.775 c -0.035,1.26 -0.148,2.518 -0.135,3.775 l -0.023,3.777 c 0.009,1.258 -0.055,2.52 0.014,3.775 l 0.127,3.774 c 0.055,1.257 0.043,2.52 0.153,3.773 l 0.303,3.765 c 0.111,1.254 0.179,2.514 0.326,3.764 l 0.987,7.494 0.005,0.036 0.005,0.046 c 0.098,0.938 0.093,1.904 0.271,2.825 l 0.244,1.391 0.403,1.334 c 0.116,0.456 0.37,0.839 0.547,1.265 0.163,0.439 0.486,0.764 0.727,1.15 0.241,0.392 0.622,0.648 0.924,0.986 0.354,0.277 0.734,0.528 1.124,0.76 0.426,0.167 0.812,0.431 1.273,0.531 0.444,0.138 0.891,0.277 1.362,0.34 0.462,0.098 0.936,0.152 1.413,0.189 0.475,0.057 0.957,0.062 1.438,0.082 0.965,0.03 1.937,0.016 2.91,0.005 0.89,-0.004 1.782,0.01 2.674,0.038 z m 0.251,0.204 c -1.941,0.053 -3.871,0.281 -5.835,0.333 -0.491,0.009 -0.982,0.03 -1.478,10e-4 -0.495,-0.01 -0.991,-0.037 -1.488,-0.113 -0.499,-0.038 -0.991,-0.158 -1.484,-0.28 -0.503,-0.085 -0.963,-0.343 -1.447,-0.513 -0.454,-0.24 -0.905,-0.513 -1.324,-0.816 -0.368,-0.363 -0.82,-0.663 -1.116,-1.09 -0.295,-0.422 -0.681,-0.803 -0.884,-1.275 -0.22,-0.459 -0.521,-0.898 -0.67,-1.383 l -0.502,-1.44 -0.324,-1.473 c -0.229,-0.983 -0.269,-1.977 -0.411,-2.968 l 0.01,0.081 -1.229,-7.538 c -0.183,-1.26 -0.283,-2.529 -0.429,-3.795 l -0.405,-3.799 c -0.144,-1.268 -0.165,-2.541 -0.254,-3.812 l -0.209,-3.815 c -0.085,-1.272 -0.036,-2.546 -0.061,-3.819 l -0.021,-3.82 c -0.024,-1.275 0.064,-2.545 0.099,-3.817 l 0.156,-3.815 c 0.04,-1.273 0.176,-2.538 0.259,-3.808 l 0.296,-3.804 c 0.104,-1.268 0.271,-2.527 0.402,-3.792 l 0.419,-3.789 1.004,-7.552 0.132,-0.984 0.972,0.185 c 3.215,0.613 6.419,1.292 9.6,2.074 1.592,0.381 3.177,0.795 4.758,1.223 1.581,0.425 3.155,0.879 4.721,1.361 1.563,0.488 3.12,0.995 4.668,1.53 1.547,0.541 3.086,1.1 4.613,1.691 1.526,0.591 3.046,1.203 4.544,1.865 1.504,0.646 2.986,1.344 4.454,2.069 1.476,0.708 2.929,1.464 4.355,2.269 1.43,0.797 2.834,1.643 4.198,2.551 0.687,0.447 1.362,0.91 2.026,1.391 0.675,0.465 1.336,0.949 1.977,1.462 0.657,0.491 1.287,1.019 1.906,1.558 0.634,0.521 1.229,1.088 1.832,1.646 1.203,1.121 2.304,2.349 3.374,3.605 1.03,1.287 2.015,2.623 2.849,4.057 0.419,0.717 0.836,1.436 1.177,2.195 0.383,0.74 0.693,1.512 0.99,2.292 0.609,1.554 1.02,3.178 1.36,4.815 l 0.118,0.568 -0.583,0.223 c -2.42,0.923 -4.821,1.903 -7.228,2.863 l -7.186,2.965 c -2.382,1.018 -4.77,2.021 -7.127,3.092 -2.359,1.064 -4.701,2.164 -7.022,3.303 -2.322,1.137 -4.604,2.35 -6.859,3.603 -2.25,1.263 -4.455,2.606 -6.533,4.112 -1.039,0.754 -2.045,1.55 -2.984,2.412 -0.941,0.855 -1.84,1.77 -2.543,2.811 -0.698,1.027 -1.248,2.213 -1.189,3.447 0.025,0.611 0.195,1.214 0.477,1.773 0.291,0.561 0.696,1.041 1.153,1.514 l 0.159,0.165 -0.233,0.005 z"
         id="path29" /></g><g
       transform="translate(0,-3.4399415e-6)"
       id="g3153"><path
         d="m 52.46051,5.786 c 30.288,-0.797 71.094,1.454 117.818,-2.096 14.487,-1.101 183.639,-4.16 215.577,-2.178 30.821,1.918 156.699,-1.896 179.49,-0.613 56.72,3.186 107.743,1.641 149.168,2.783 14.789,0.408 16.81,90.277 0,89.574 -52.465,-2.184 -131.891,-3.6 -221.261,-3.548 -16.076,0.011 -65.485,0.669 -94.05,2.819 -31.689,2.387 -156.557,0.317 -195.51,-1.071 -43.103,-1.536 -109.436,2.348 -151.232,3.91 -15.801,0.586 -15.815,-89.162 0,-89.58 z"
         id="path33"
         style="fill:#fdee33;fill-rule:evenodd" /><path
         d="m 52.45851,5.685 c 0,0 1.483,-0.023 4.357,-0.07 2.874,-0.037 7.137,-0.15 12.701,-0.123 11.128,-0.069 27.443,0.222 48.207,0.033 5.191,-0.026 10.657,-0.193 16.391,-0.291 5.733,-0.152 11.727,-0.469 17.977,-0.712 6.245,-0.397 12.744,-0.811 19.485,-1.24 3.375,-0.149 6.81,-0.302 10.305,-0.457 3.499,-0.105 7.056,-0.212 10.671,-0.32 28.928,-0.83 61.546,-1.582 97.149,-2.049 17.8,-0.261 36.343,-0.396 55.54,-0.456 4.8,0.018 9.64,0.036 14.52,0.053 2.439,0.014 4.889,0.028 7.349,0.042 2.46,0.029 4.934,0.136 7.415,0.201 4.954,0.15 9.945,0.302 14.973,0.455 2.513,0.078 5.034,0.157 7.565,0.235 2.53,0.086 5.07,0.168 7.614,0.15 40.728,0.203 83.772,-0.635 128.266,-0.958 5.564,-0.007 11.152,-0.014 16.762,-0.021 2.803,-0.035 5.619,0.077 8.437,0.131 2.814,0.076 5.652,0.109 8.462,0.221 11.289,0.462 22.659,0.927 34.099,1.396 5.719,0.293 11.459,0.318 17.215,0.413 5.756,0.087 11.527,0.174 17.312,0.261 11.57,0.219 23.208,0.226 34.889,0.264 11.68,-0.021 23.41,0.195 35.174,0.33 2.941,0.037 5.885,0.075 8.83,0.112 0.151,0.005 0.414,-0.005 0.588,0.026 l 0.55,0.069 c 0.407,0.116 0.823,0.237 1.159,0.44 0.711,0.368 1.306,0.894 1.813,1.467 1.022,1.151 1.769,2.476 2.407,3.828 1.267,2.717 2.105,5.582 2.815,8.462 0.699,2.885 1.228,5.806 1.669,8.738 0.865,5.867 1.349,11.786 1.581,17.716 0.225,5.93 0.19,11.875 -0.163,17.811 -0.367,5.931 -1,11.869 -2.312,17.704 -0.677,2.909 -1.508,5.807 -2.827,8.546 -0.668,1.359 -1.469,2.69 -2.584,3.812 -0.54,0.572 -1.213,1.043 -1.944,1.406 -0.74,0.358 -1.597,0.494 -2.404,0.49 -23.726,-0.586 -47.452,-1.171 -71.085,-1.754 -5.908,-0.146 -11.811,-0.291 -17.706,-0.437 -2.947,-0.067 -5.894,-0.134 -8.837,-0.201 -2.944,-0.015 -5.887,-0.03 -8.827,-0.046 -11.76,-0.061 -23.485,-0.122 -35.164,-0.183 -23.357,-0.146 -46.528,-0.292 -69.422,-0.435 -2.861,-0.019 -5.719,-0.037 -8.571,-0.056 -2.84,-0.024 -5.698,0.039 -8.539,0.054 -5.688,0.052 -11.359,0.09 -17.002,0.226 -5.645,0.112 -11.268,0.223 -16.87,0.333 -5.602,0.178 -11.181,0.354 -16.736,0.531 -2.778,0.091 -5.55,0.182 -8.316,0.273 l -4.144,0.146 -4.128,0.232 c -5.498,0.304 -10.972,0.606 -16.419,0.908 -5.497,0.315 -10.902,0.494 -16.316,0.746 -2.699,0.149 -5.405,0.166 -8.102,0.205 -2.696,0.04 -5.386,0.08 -8.067,0.119 -21.453,0.301 -42.392,0.135 -62.797,-0.018 -10.199,-0.125 -20.258,-0.248 -30.167,-0.37 -9.908,-0.18 -19.666,-0.356 -29.261,-0.53 -9.594,-0.242 -19.027,-0.481 -28.285,-0.716 -4.629,-0.149 -9.215,-0.296 -13.756,-0.442 -4.516,-0.146 -9.028,-0.213 -13.472,-0.322 -2.224,-0.041 -4.438,-0.113 -6.638,-0.131 -2.198,0.004 -4.385,0.008 -6.559,0.012 -4.35,0.018 -8.65,-0.02 -12.905,0.027 -8.511,0.165 -16.828,0.211 -24.934,0.479 -8.107,0.214 -16.005,0.432 -23.682,0.719 -7.677,0.284 -15.134,0.561 -22.36,0.827 -14.452,0.558 -27.978,1.079 -40.484,1.562 -0.782,0.029 -1.56,0.058 -2.333,0.086 -0.789,0.024 -1.649,-0.158 -2.371,-0.53 -1.415,-0.804 -2.425,-2.059 -3.205,-3.356 -1.559,-2.629 -2.447,-5.474 -3.204,-8.244 -1.454,-5.575 -2.177,-11.025 -2.666,-16.197 -0.926,-10.359 -0.839,-19.665 -0.346,-27.719 0.513,-8.055 1.49,-14.879 2.824,-20.292 1.321,-5.398 3.048,-9.441 5.031,-11.598 0.97,-1.087 1.987,-1.639 2.704,-1.834 0.354,-0.128 0.639,-0.136 0.825,-0.16 0.184,-0.018 0.279,-0.029 0.279,-0.029 z m 0.004,0.201 c 0,0 -0.089,0.011 -0.268,0.032 -0.178,0.024 -0.449,0.031 -0.786,0.155 -0.682,0.188 -1.657,0.717 -2.603,1.783 -1.934,2.111 -3.646,6.132 -4.944,11.514 -1.312,5.396 -2.267,12.209 -2.754,20.251 -0.467,8.04 -0.524,17.333 0.431,27.662 0.503,5.155 1.243,10.589 2.703,16.117 0.771,2.741 1.679,5.556 3.212,8.091 0.762,1.254 1.746,2.426 3.018,3.135 0.653,0.322 1.329,0.468 2.091,0.449 0.773,-0.033 1.551,-0.068 2.333,-0.104 12.501,-0.578 26.022,-1.205 40.468,-1.873 7.225,-0.326 14.681,-0.662 22.356,-1.008 7.676,-0.354 15.577,-0.637 23.686,-0.92 8.107,-0.336 16.433,-0.453 24.951,-0.69 4.261,-0.079 8.578,-0.089 12.939,-0.129 2.181,-0.015 4.375,-0.03 6.579,-0.044 2.204,0.005 4.415,0.066 6.64,0.097 35.602,0.872 74.137,1.648 114.925,2.007 20.384,0.135 41.352,0.283 62.726,-0.035 2.671,-0.041 5.35,-0.082 8.034,-0.123 2.686,-0.041 5.377,-0.061 8.081,-0.212 5.396,-0.255 10.86,-0.442 16.273,-0.757 10.927,-0.604 21.96,-1.28 33.087,-1.519 5.563,-0.164 11.149,-0.329 16.758,-0.495 5.61,-0.099 11.243,-0.197 16.896,-0.297 5.653,-0.125 11.322,-0.15 17.011,-0.189 2.847,-0.009 5.686,-0.065 8.553,-0.035 2.854,0.023 5.712,0.049 8.575,0.073 22.902,0.2 46.083,0.404 69.45,0.609 11.682,0.114 23.411,0.23 35.175,0.347 2.94,0.028 5.884,0.057 8.828,0.086 2.944,0.081 5.89,0.162 8.837,0.242 5.895,0.174 11.796,0.346 17.703,0.52 23.631,0.692 47.354,1.388 71.076,2.083 0.673,-0.002 1.311,-0.096 1.916,-0.384 0.592,-0.295 1.16,-0.678 1.64,-1.186 0.985,-0.981 1.75,-2.223 2.388,-3.516 1.269,-2.609 2.1,-5.449 2.773,-8.309 1.312,-5.742 1.962,-11.638 2.345,-17.53 0.371,-5.898 0.424,-11.815 0.221,-17.717 -0.212,-5.901 -0.675,-11.793 -1.516,-17.624 -0.429,-2.913 -0.943,-5.812 -1.626,-8.668 -0.69,-2.849 -1.514,-5.679 -2.733,-8.316 -0.612,-1.311 -1.33,-2.582 -2.266,-3.64 -0.464,-0.528 -0.994,-0.994 -1.592,-1.304 -0.299,-0.183 -0.598,-0.254 -0.892,-0.359 l -0.546,-0.07 c -0.19,-0.033 -0.298,-0.011 -0.515,-0.022 -2.943,-0.047 -5.885,-0.094 -8.824,-0.14 -11.758,-0.173 -23.479,-0.427 -35.162,-0.445 -11.682,-0.107 -23.314,-0.032 -34.895,-0.237 -5.789,-0.073 -11.564,-0.146 -17.324,-0.219 -5.759,-0.082 -11.505,-0.092 -17.223,-0.371 -11.441,-0.426 -22.813,-0.849 -34.104,-1.27 -2.837,-0.096 -5.639,-0.11 -8.451,-0.168 -2.81,-0.037 -5.609,-0.132 -8.415,-0.08 -5.604,0.042 -11.188,0.083 -16.749,0.124 -22.246,0.363 -44.121,0.721 -65.532,1.07 -21.418,0.375 -42.356,0.644 -62.797,0.518 -2.556,0.022 -5.096,-0.055 -7.626,-0.136 -2.53,-0.074 -5.053,-0.147 -7.565,-0.221 -5.023,-0.143 -10.012,-0.285 -14.962,-0.426 -2.471,-0.06 -4.929,-0.162 -7.384,-0.186 -2.457,-0.009 -4.904,-0.019 -7.342,-0.028 -4.875,-0.029 -9.71,-0.057 -14.505,-0.085 -19.184,-0.009 -37.724,0.061 -55.52,0.259 -35.591,0.319 -68.23,0.713 -97.133,1.35 -3.613,0.081 -7.168,0.161 -10.664,0.239 -3.496,0.128 -6.933,0.254 -10.309,0.378 -6.746,0.378 -13.248,0.742 -19.496,1.092 -6.257,0.196 -12.257,0.467 -17.993,0.576 -5.737,0.082 -11.206,0.234 -16.398,0.247 -20.77,0.132 -37.086,-0.204 -48.208,-0.165 -5.561,-0.042 -9.826,0.06 -12.699,0.089 -2.874,0.037 -4.357,0.057 -4.357,0.057 z"
         id="path35" /><g
         id="text41"><path
           d="m 311.33406,24.2172 c -2e-5,0.637207 -0.12204,1.559108 -0.36605,2.765705 -0.25761,1.328629 -0.5152,2.196301 -0.77277,2.603016 -1.13884,1.803135 -2.32511,3.131756 -3.55881,3.985868 -1.23374,0.854116 -2.88096,1.470976 -4.94166,1.850582 -1.30152,0.230475 -2.15564,0.345712 -2.56235,0.345713 0.12201,-1e-6 -0.43384,-0.08812 -1.66756,-0.264369 -1.69467,-0.230475 -3.33512,-0.345713 -4.92132,-0.345713 -0.31183,0 -0.91513,0.108459 -1.80991,0.325377 -0.88123,0.230475 -1.34896,0.345713 -1.40319,0.345713 -0.0678,0 -0.10846,-0.08135 -0.12202,-0.244033 -0.0136,-0.108459 -0.0271,-0.216918 -0.0407,-0.325377 0.50162,0.05423 0.94902,-0.352491 1.34218,-1.220164 0.32538,-0.718538 0.48806,-1.369292 0.48807,-1.952262 -1e-5,-1.233716 0.0678,-4.033311 0.20336,-8.398794 0.13557,-4.365458 0.20335,-7.171832 0.20336,-8.41913 -1e-5,-0.826979 -0.21692,-1.443839 -0.65076,-1.850581 -0.20336,-0.203339 -0.61008,-0.406699 -1.22016,-0.610082 -0.47451,-0.176223 -0.73888,-0.366026 -0.79311,-0.56941 0.0271,-0.02709 0.0678,-0.101657 0.12202,-0.223697 0.0542,-0.121993 0.11524,-0.183001 0.18302,-0.183024 l 4.06722,0.386385 c 1.59976,0.149154 2.9555,0.22372 4.06721,0.223697 0.24402,2.3e-5 0.79988,-0.03387 1.66756,-0.101681 0.86766,-0.08132 1.42351,-0.121993 1.66755,-0.122016 3.40289,2.3e-5 6.08725,1.159178 8.05308,3.477467 1.84379,2.182755 2.76569,5.023022 2.76571,8.52081 m -3.98587,0 c -2e-5,-1.762446 -0.34573,-3.680812 -1.03714,-5.755106 -0.84057,-2.535209 -1.90483,-4.033298 -3.19276,-4.49427 -1.0846,-0.393142 -2.01328,-0.589723 -2.78604,-0.589745 -0.39318,2.2e-5 -1.56589,0.135595 -3.51814,0.406721 -0.17625,0.325398 -0.42706,0.813463 -0.75243,1.464196 -0.2576,0.542315 -0.3864,1.071052 -0.38639,1.586213 l -0.0407,7.910729 c -1e-5,0.786337 0.14234,2.46745 0.42706,5.043343 0.31181,2.765708 0.56262,4.284132 0.75243,4.555278 0.31181,0.433837 1.23371,0.650755 2.76571,0.650754 l 0.22369,0 c 2.54877,10e-7 4.52137,-1.186268 5.9178,-3.558811 1.08457,-1.830239 1.62686,-4.236671 1.62688,-7.219302"
           id="path3179"
           style="font-size:32.53770065px;font-family:Folkard" /><path
           d="m 317.84923,17.445291 c -10e-6,0.460968 -0.23726,0.949033 -0.71177,1.464197 -0.46095,0.501639 -0.91512,0.75245 -1.36251,0.752434 -0.50163,1.6e-5 -1.00325,-0.237238 -1.50487,-0.711762 -0.50163,-0.474491 -0.75244,-0.948999 -0.75244,-1.423525 0,-0.325358 0.3186,-0.745637 0.9558,-1.260836 0.63719,-0.528718 1.12526,-0.793086 1.4642,-0.793106 0.43383,2e-5 0.86088,0.223716 1.28117,0.67109 0.42027,0.433855 0.63041,0.86769 0.63042,1.301508 m 1.76923,17.875399 -0.10168,0.06101 c -0.39317,0 -1.2744,-0.08134 -2.64368,-0.244033 -1.3693,-0.162688 -2.25731,-0.244032 -2.66403,-0.244033 -0.827,1e-6 -1.38963,0.162689 -1.68789,0.488066 l -0.26437,-0.854115 1.85058,-0.833779 c 0.2847,-1.22016 0.42706,-3.172421 0.42706,-5.856786 0,-1.043909 -0.0542,-1.796343 -0.16269,-2.257303 -0.17625,-0.759202 -0.57619,-1.376062 -1.19983,-1.850581 l 0,-0.447394 c 2.25052,-0.637184 3.77573,-1.796338 4.57562,-3.477467 l 0.46773,0 0,0.813443 c -1e-5,0.515194 -0.10169,1.220177 -0.30505,2.11495 -0.21692,1.016815 -0.34571,1.708241 -0.38638,2.074279 -0.10847,1.071042 -0.16269,2.331877 -0.16269,3.782508 0,1.098153 0.12201,2.24375 0.36605,3.436794 0.33893,1.735346 0.83377,2.603017 1.48453,2.603016 l -0.0203,0.101681 0.42705,0.589745"
           id="path3181"
           style="font-size:32.53770065px;font-family:Folkard" /><path
           d="m 337.17103,35.280018 0,0.101681 -0.16269,0 c -0.21694,0 -0.68466,-0.03389 -1.40319,-0.101681 -0.705,-0.08134 -1.15917,-0.122016 -1.36252,-0.122016 l -1.97259,0 c -0.13559,0 -0.39996,0.04067 -0.79311,0.122016 -0.39317,0.06779 -0.63721,0.101681 -0.7321,0.101681 0.42027,-1.016803 0.78632,-2.386096 1.09815,-4.107885 0.32536,-1.721781 0.48805,-3.206312 0.48806,-4.453598 -10e-6,-1.260826 -0.29149,-1.891243 -0.87445,-1.891254 -0.0407,1.1e-5 -0.2576,0.0678 -0.65075,0.203361 -1.49132,0.08135 -2.63692,0.406731 -3.43679,0.976131 -0.7999,0.555861 -1.43709,1.477762 -1.91159,2.765704 -0.36606,1.003252 -0.54908,1.599776 -0.54908,1.789574 0,0.976135 0.61686,1.830249 1.85058,2.562344 1.09814,0.650755 2.21663,0.976132 3.35545,0.976131 0.20335,10e-7 0.3796,-0.0068 0.52874,-0.02034 l -0.36605,0.427057 0,-0.04067 c -0.97614,0.56941 -2.04039,0.854115 -3.19276,0.854115 -1.85736,0 -3.33512,-0.332156 -4.43326,-0.996467 -1.09815,-0.677867 -1.64722,-1.626883 -1.64722,-2.847049 0,-1.450634 0.68464,-2.677575 2.05394,-3.680828 0.89478,-0.650745 2.32508,-1.321835 4.29091,-2.01327 2.11494,-0.745645 3.39611,-1.254046 3.84352,-1.525204 0.17623,-0.108448 0.26435,-0.298251 0.26436,-0.56941 -1e-5,-0.284693 -0.12202,-0.562619 -0.36604,-0.833779 -0.24405,-0.284692 -0.50164,-0.427044 -0.77278,-0.427057 -0.84056,1.3e-5 -2.5759,0.42707 -5.20603,1.281172 -2.63013,0.840568 -4.3248,1.260846 -5.08401,1.260836 0.54229,-0.501612 1.3015,-1.308275 2.27764,-2.419992 0.25758,-0.44738 0.69142,-1.098133 1.3015,-1.952262 0.17625,0.216933 0.51518,0.535531 1.01681,0.955795 0.50161,0.257604 1.42352,0.386399 2.7657,0.386385 0.25758,1.4e-5 0.83377,-0.04066 1.72857,-0.122016 0.90833,-0.09489 1.4913,-0.142339 1.7489,-0.142352 0.90833,1.3e-5 1.8099,0.332168 2.70469,0.996467 0.89478,0.664323 1.38962,1.409978 1.48454,2.236967 0.0678,0.542304 0.13556,2.060729 0.20336,4.555278 0.0407,1.870921 0.23724,3.375788 0.58974,4.514606 0.23046,0.176247 0.61007,0.372828 1.13882,0.589745 -10e-6,0.05423 0.0271,0.162689 0.0813,0.325377 0.0678,0.149132 0.10166,0.244033 0.10168,0.284705"
           id="path3183"
           style="font-size:32.53770065px;font-family:Folkard" /><path
           d="m 365.78895,36.581526 -0.5084,0 c -0.20338,-10e-7 -0.75245,-0.257591 -1.64722,-0.77277 -0.88124,-0.501623 -1.43032,-0.860893 -1.64722,-1.077811 -0.2576,-0.393163 -0.69822,-0.901564 -1.32185,-1.525205 -1.0846,1.45064 -2.39966,2.175959 -3.94519,2.175959 -0.17626,0 -0.50163,-0.04745 -0.97613,-0.142353 -0.47452,-0.0949 -0.766,-0.142352 -0.87445,-0.142352 -1.87093,-0.826999 -3.19277,-1.742121 -3.96554,-2.745369 -0.89478,-1.138815 -1.34218,-2.65724 -1.34218,-4.555278 0,-0.460943 0.16269,-1.172704 0.48807,-2.135286 0.33893,-0.962563 0.64397,-1.586202 0.91512,-1.870918 1.23372,-1.247266 2.68436,-1.870905 4.35192,-1.870918 1.23371,1.3e-5 2.33186,0.332169 3.29444,0.996467 0.36604,0.366061 0.60329,0.549086 0.71176,0.549074 0.12201,1.2e-5 0.1898,-0.02032 0.20336,-0.06101 0.14912,-2.426756 0.22369,-4.236664 0.2237,-5.429729 -1e-5,-1.667538 -0.10169,-2.643668 -0.30504,-2.928393 -0.28471,-0.433816 -1.17272,-0.650733 -2.66402,-0.650754 l -0.12202,-0.284705 3.59948,-1.2405 c 1.3964,-0.488043 2.51488,-1.098124 3.35545,-1.830246 l 0.42706,0 c -0.63721,3.15889 -0.94903,5.348404 -0.93546,6.568549 l 0.0203,12.120293 c -2e-5,3.145314 0.88799,5.429729 2.66402,6.853253 m -5.55174,-4.168893 c -10e-6,-0.257586 -0.0678,-0.610078 -0.20336,-1.057475 l -0.26437,-0.894787 c -0.0814,-0.664305 -0.12203,-2.209845 -0.12202,-4.636622 -1e-5,-0.650744 -0.21015,-1.220153 -0.63042,-1.708229 -0.42029,-0.488054 -0.92869,-0.732087 -1.5252,-0.732099 -0.12203,1.2e-5 -0.6711,0.16948 -1.64722,0.508402 -1.03037,0.36606 -1.80992,1.199838 -2.33865,2.501336 -0.46095,1.111712 -0.69143,2.284424 -0.69143,3.518139 0,1.138824 0.36605,2.155626 1.09815,3.050409 0.74565,0.881231 1.61332,1.321845 2.60302,1.321844 0.61007,10e-7 1.34217,-0.176244 2.19629,-0.528737 1.01679,-0.420277 1.5252,-0.86767 1.52521,-1.342181"
           id="path3185"
           style="font-size:32.53770065px;font-family:Folkard" /><path
           d="m 378.67947,33.368428 c -0.47452,0.664313 -1.35575,1.186272 -2.64369,1.565877 -1.03037,0.298263 -2.07428,0.447394 -3.13175,0.447394 -1.61333,0 -3.13176,-0.657532 -4.55528,-1.972598 -1.42352,-1.32862 -2.13529,-2.772479 -2.13529,-4.331582 0,-4.880644 2.15562,-7.320969 6.46687,-7.320983 1.51842,1.4e-5 2.85382,0.589759 4.00621,1.769238 1.15236,1.179502 1.73533,2.542017 1.7489,4.087549 -0.48808,0.257597 -1.36253,0.386392 -2.62335,0.386385 -0.40673,7e-6 -1.32863,-0.04066 -2.76571,-0.122017 -1.42353,-0.09489 -2.33865,-0.142344 -2.74537,-0.142352 -0.29826,8e-6 -0.5423,0.07457 -0.73209,0.223697 -10e-6,1.708235 0.52195,3.165651 1.56587,4.372253 1.04391,1.206608 2.33186,1.809911 3.86385,1.80991 0.31181,10e-7 0.93545,-0.128794 1.87092,-0.386385 0.94901,-0.257589 1.55231,-0.386384 1.80991,-0.386386 m -3.23343,-6.995605 c -10e-6,-0.759204 -0.31183,-1.572645 -0.93546,-2.440328 -0.69144,-0.962561 -1.39642,-1.443847 -2.11495,-1.44386 -0.58298,1.3e-5 -1.21339,0.555864 -1.89126,1.667557 -0.62364,1.016813 -0.93546,1.843812 -0.93545,2.481 -10e-6,0.230483 0.0542,0.393172 0.16268,0.488065 0.33893,-0.02711 0.70498,-0.04066 1.09815,-0.04067 0.33893,8e-6 1.08458,0.02712 2.23697,0.08134 1.16592,0.05424 1.9048,0.08135 2.21663,0.08134 0.10845,-0.257581 0.16268,-0.549065 0.16269,-0.87445"
           id="path3187"
           style="font-size:32.53770065px;font-family:Folkard" /><path
           d="m 410.9401,28.81315 c -2e-5,1.93871 -0.66433,3.857076 -1.99294,5.755106 -1.31508,1.884474 -2.94196,3.253768 -4.88065,4.107885 -0.7999,0.338931 -1.38286,0.508398 -1.7489,0.508401 l -1.70823,0 c -2.07429,-3e-6 -4.06722,-0.494847 -5.9788,-1.484532 -2.30476,-1.206608 -3.45713,-2.758926 -3.45713,-4.656959 0,-1.748897 0.95579,-3.226649 2.86738,-4.433261 1.68111,-1.057468 3.43679,-1.586205 5.26704,-1.586213 1.3015,8e-6 2.67079,0.386393 4.10789,1.159155 1.65398,0.894793 2.48098,1.93871 2.48099,3.131754 -10e-6,0.935462 -0.53553,1.748904 -1.60654,2.440328 -0.93548,0.610082 -1.89805,0.915123 -2.88772,0.915122 -0.71856,10e-7 -1.47777,-0.196581 -2.27764,-0.589745 -0.96258,-0.460949 -1.44387,-1.003244 -1.44386,-1.626885 -1e-5,-0.311817 0.1559,-0.650751 0.46772,-1.016804 0.32537,-0.366044 0.63719,-0.549069 0.93546,-0.549073 0.39316,4e-6 0.86089,0.291487 1.40319,0.87445 -0.7321,0.501626 -1.09815,0.908347 -1.09815,1.220164 0,0.664313 0.36605,0.996469 1.09815,0.996467 0.52873,2e-6 1.03035,-0.325375 1.50487,-0.976131 0.4745,-0.664308 0.71175,-1.315061 0.71176,-1.952262 -10e-6,-0.854109 -0.39995,-1.613322 -1.19982,-2.277639 -0.77278,-0.623632 -1.62012,-0.935451 -2.54201,-0.935459 -1.51844,8e-6 -2.72504,0.467737 -3.61982,1.403189 -0.88123,0.935464 -1.32185,2.182741 -1.32185,3.741835 0,1.464198 0.75921,2.697918 2.27764,3.701164 1.34218,0.894784 2.77926,1.342177 4.31125,1.34218 0.17623,-3e-6 0.6643,-0.0339 1.4642,-0.101681 1.59975,-0.135576 3.12496,-0.908345 4.57561,-2.318311 1.45062,-1.396408 2.17594,-2.860603 2.17596,-4.392589 -2e-5,-2.711468 -1.18629,-4.562048 -3.55881,-5.551745 -2.20987,-0.610072 -4.41972,-1.233711 -6.62956,-1.870918 -2.3861,-0.908332 -3.57915,-2.630117 -3.57915,-5.16536 0,-1.76244 0.58974,-3.267308 1.76924,-4.514606 1.19304,-1.260814 2.64368,-1.891231 4.35192,-1.891254 0.27114,2.3e-5 0.86088,0.142375 1.76924,0.427057 0.90833,0.27117 1.49807,0.406744 1.76923,0.406722 0.28469,2.2e-5 0.63041,-0.257568 1.03714,-0.772771 0.21691,-0.271124 0.50161,-0.65073 0.85412,-1.138819 0.25757,1.708251 0.69819,4.270593 1.32184,7.687031 -0.44741,-0.108442 -0.9897,-0.596507 -1.62688,-1.464196 -0.75923,-1.057456 -1.4371,-1.789554 -2.03361,-2.196295 -1.11172,-0.732077 -2.60303,-1.098126 -4.47393,-1.098147 -1.88449,2.1e-5 -2.82672,0.847356 -2.82672,2.542008 0,0.664329 1.2066,1.355754 3.61982,2.074278 3.15886,0.949032 5.4026,1.904826 6.73124,2.867385 2.41319,1.735356 3.6198,4.155345 3.61982,7.259974"
           id="path3189"
           style="font-size:32.53770065px;font-family:Folkard" /><path
           d="m 426.21502,28.264077 c -10e-6,3.172429 -1.38286,5.32805 -4.14855,6.466868 -1.05749,0.433836 -1.7218,0.650754 -1.99294,0.650754 l -3.45713,0 c -1.15238,0 -2.26408,-0.738877 -3.33511,-2.216631 -1.03036,-1.396406 -1.54554,-2.697913 -1.54554,-3.904524 0,-1.626878 0.39994,-3.043622 1.19982,-4.250237 0.79989,-1.206595 1.94548,-2.074266 3.4368,-2.603017 1.19304,-0.433822 2.12172,-0.65074 2.78604,-0.650754 1.78956,1.4e-5 3.40967,0.671103 4.86032,2.013271 1.46418,1.328633 2.19628,2.826721 2.19629,4.49427 m -3.25377,0.508401 c -1e-5,-1.369287 -0.36606,-2.650457 -1.09814,-3.843516 -0.84057,-1.342168 -1.9116,-2.013257 -3.2131,-2.01327 -1.15239,1.3e-5 -2.06751,0.759225 -2.74537,2.277639 -0.5423,1.206615 -0.81345,2.46745 -0.81344,3.782508 -1e-5,1.003251 0.12879,1.769242 0.38638,2.297975 0.40672,0.827003 0.90834,1.531986 1.50487,2.11495 0.74565,0.745657 1.4913,1.118485 2.23697,1.118484 0.0949,1e-6 0.29825,-0.01356 0.61008,-0.04067 0.31181,-0.04067 0.52195,-0.06101 0.63042,-0.06101 0.16268,10e-7 0.52195,-0.338933 1.07781,-1.016804 0.949,-1.152373 1.42351,-2.691134 1.42352,-4.616286"
           id="path3191"
           style="font-size:32.53770065px;font-family:Folkard" /><path
           d="m 444.49968,35.707076 c -0.55587,-10e-7 -1.8506,-0.05423 -3.88419,-0.162689 -2.02006,-0.108459 -3.32835,-0.162688 -3.92486,-0.162688 0.20335,-0.31182 0.67108,-0.711762 1.40319,-1.199828 1.85735,-1.274391 2.78602,-3.33511 2.78604,-6.182163 -2e-5,-1.24727 -0.39318,-2.209843 -1.17949,-2.887721 -0.78634,-0.677858 -1.88449,-1.016792 -3.29444,-1.016803 -1.30152,1.1e-5 -2.22342,0.277937 -2.76571,0.833778 -0.5423,0.542305 -0.81345,1.457427 -0.81344,2.745369 l 0,1.586213 c -10e-6,1.342185 0.14234,2.453888 0.42706,3.335114 0.28469,0.881231 0.79987,1.796353 1.54554,2.745368 -0.14914,0.176246 -0.34572,0.264369 -0.58975,0.264369 -0.2576,0 -0.82023,-0.122016 -1.68789,-0.366049 -0.86768,-0.25759 -1.43031,-0.386384 -1.6879,-0.386385 -0.40672,10e-7 -0.85411,0.05423 -1.34218,0.162688 -0.39316,0.0949 -0.90156,0.203361 -1.5252,0.325377 0.31182,-0.271147 0.63042,-0.549073 0.95579,-0.833778 0.51518,-0.623638 0.77277,-1.504866 0.77277,-2.643688 0,-0.108456 0.0542,-0.318595 0.16269,-0.630418 0.10846,-0.311815 0.16269,-0.515176 0.16269,-0.610082 l 0,-3.538475 c 0,-0.366041 -0.0678,-0.88122 -0.20336,-1.545541 -0.16269,-0.71853 -0.31182,-1.145587 -0.44739,-1.281172 -0.16269,0.01357 -0.36605,0.02035 -0.61008,0.02034 -0.47451,1.1e-5 -1.09815,-0.0271 -1.87092,-0.08134 0.0949,-0.230464 0.48806,-0.427046 1.17949,-0.589746 0,1.2e-5 0.43383,-0.08811 1.30151,-0.264369 0.4745,-0.189791 1.62688,-0.765979 3.45713,-1.728565 0.23047,0.32539 0.33893,1.138832 0.32538,2.440328 l 0.16268,0.142352 c 2.49455,-1.545528 4.50104,-2.318298 6.01948,-2.318311 2.86059,1.3e-5 4.29089,1.376086 4.29091,4.128221 -2e-5,1.355745 -0.52198,2.982629 -1.56588,4.880655 -1.0846,1.992936 -2.20986,3.26055 -3.37579,3.802843 l 0.0203,0.04067 c 0.67786,-0.06779 1.5862,-0.379606 2.72503,-0.935459 1.09813,-0.542293 1.93869,-1.077809 2.52167,-1.606549 0.122,0.78633 0.30503,1.959042 0.54908,3.518139"
           id="path3193"
           style="font-size:32.53770065px;font-family:Folkard" /><path
           d="m 461.82601,26.23047 c -2e-5,1.789581 -0.36607,3.23344 -1.09815,4.331582 -0.32539,0.48807 -1.20662,1.694675 -2.64369,3.619819 l 2.76571,0.549074 0,0.650754 -3.86386,0.06101 c -0.12202,0 -0.36606,-0.04745 -0.73209,-0.142353 -0.35251,-0.0949 -0.5762,-0.142352 -0.67109,-0.142352 -0.0949,0 -0.33217,0.04067 -0.71177,0.122016 -0.37961,0.06779 -0.63042,0.101681 -0.75243,0.101681 0.5694,-0.379607 1.40318,-0.962573 2.50133,-1.748902 1.5862,-1.247275 2.37931,-2.86738 2.37932,-4.860319 -10e-6,-1.491303 -0.42707,-2.69113 -1.28117,-3.599483 -0.85412,-0.92189 -2.01328,-1.382841 -3.47746,-1.382852 -1.09816,1.1e-5 -1.83026,0.155921 -2.1963,0.467729 -0.3525,0.311831 -0.52874,0.962584 -0.52874,1.952262 0,0.379616 -0.0136,1.226951 -0.0407,2.542008 -0.0136,1.315071 -0.0203,2.155627 -0.0203,2.521672 0,1.043921 0.0203,1.721789 0.061,2.033606 0.0949,0.7321 0.34571,1.315066 0.75244,1.748902 l 0,0.447393 -0.65076,0 c -1.08459,-0.732098 -2.04039,-1.098146 -2.86738,-1.098147 -0.24404,1e-6 -1.12527,0.325377 -2.64369,0.976131 l -0.2847,-0.162689 c 0.43383,-0.325376 1.03035,-0.881228 1.78957,-1.667557 0.25759,-0.379604 0.39994,-1.742119 0.42706,-4.087549 -0.0271,2.020053 -0.0407,0.535522 -0.0407,-4.453597 0,-0.162678 0.0203,-0.508391 0.061,-1.03714 0.0407,-0.542283 0.061,-0.894774 0.061,-1.057475 0,-2.847033 -0.13558,-4.81963 -0.40672,-5.917794 -0.13558,-0.488047 -0.59653,-0.894768 -1.38285,-1.220164 -0.84056,-0.352472 -1.26084,-0.528718 -1.26084,-0.528738 1.19305,-0.46093 2.54878,-1.071011 4.06721,-1.830245 0.23047,-0.460929 0.77955,-0.948994 1.64722,-1.464197 0.61008,-0.366025 1.03714,-0.691402 1.28118,-0.976131 l 0.42705,0 0.061,0.284705 c -10e-6,0.515204 -0.14236,1.220187 -0.42706,2.114951 -0.32538,1.043938 -0.5084,1.748921 -0.54907,2.11495 -0.18981,1.599789 -0.28471,3.511377 -0.2847,5.73477 -10e-6,1.233734 0.14912,2.006504 0.44739,2.318311 0.59652,-0.325365 1.38962,-0.732086 2.37932,-1.220164 1.05746,-0.515166 1.87091,-0.772756 2.44033,-0.77277 1.40995,1.4e-5 2.63689,0.460964 3.68082,1.382852 1.05746,0.921913 1.5862,2.020059 1.58622,3.294442"
           id="path3195"
           style="font-size:32.53770065px;font-family:Folkard" /><path
           d="m 476.86452,28.264077 c -1e-5,3.172429 -1.38286,5.32805 -4.14856,6.466868 -1.05748,0.433836 -1.72179,0.650754 -1.99293,0.650754 l -3.45713,0 c -1.15238,0 -2.26409,-0.738877 -3.33511,-2.216631 -1.03037,-1.396406 -1.54555,-2.697913 -1.54555,-3.904524 0,-1.626878 0.39995,-3.043622 1.19983,-4.250237 0.79988,-1.206595 1.94548,-2.074266 3.4368,-2.603017 1.19304,-0.433822 2.12172,-0.65074 2.78604,-0.650754 1.78956,1.4e-5 3.40967,0.671103 4.86032,2.013271 1.46418,1.328633 2.19628,2.826721 2.19629,4.49427 m -3.25377,0.508401 c -10e-6,-1.369287 -0.36606,-2.650457 -1.09815,-3.843516 -0.84056,-1.342168 -1.91159,-2.013257 -3.21309,-2.01327 -1.15239,1.3e-5 -2.06751,0.759225 -2.74537,2.277639 -0.5423,1.206615 -0.81345,2.46745 -0.81345,3.782508 0,1.003251 0.1288,1.769242 0.38639,2.297975 0.40672,0.827003 0.90834,1.531986 1.50487,2.11495 0.74565,0.745657 1.4913,1.118485 2.23697,1.118484 0.0949,1e-6 0.29825,-0.01356 0.61008,-0.04067 0.31181,-0.04067 0.52195,-0.06101 0.63042,-0.06101 0.16267,10e-7 0.52194,-0.338933 1.07781,-1.016804 0.949,-1.152373 1.42351,-2.691134 1.42352,-4.616286"
           id="path3197"
           style="font-size:32.53770065px;font-family:Folkard" /><path
           d="m 206.93069,44.006571 c -0.16271,0.352515 -0.50842,0.671113 -1.03714,0.955795 -0.59654,0.325399 -1.01004,0.637218 -1.2405,0.935459 -0.39318,0.542316 -0.6101,1.335421 -0.65075,2.379319 -0.0271,0.92192 -0.12204,2.87418 -0.28471,5.856786 -0.13559,2.413224 -0.20338,4.379041 -0.20336,5.897458 -2e-5,3.023299 0.26435,5.361944 0.79311,7.015942 0.2169,0.704983 0.92866,1.626884 2.13528,2.765705 l 0,0.711762 c -0.0542,-3e-6 -0.17626,0.01355 -0.36604,0.04067 -0.17627,0.04067 -0.29151,0.06101 -0.34572,0.06101 -0.18982,-3e-6 -0.41352,-0.05423 -0.67109,-0.162688 -0.43385,-0.176249 -0.67788,-0.264372 -0.7321,-0.264369 -2.53524,-3.497802 -4.56885,-6.629553 -6.10082,-9.395261 -0.36606,-0.650747 -1.04392,-2.047155 -2.0336,-4.189229 -0.82701,-1.830233 -1.58622,-3.179191 -2.27764,-4.046877 -0.29827,-1.125246 -0.88124,-2.304736 -1.7489,-3.538475 -0.0678,0.840575 -0.0881,1.877713 -0.061,3.111418 l 0.061,3.131754 c -1e-5,0.528749 -0.0203,1.75569 -0.061,3.680827 -0.0271,1.911596 -0.0407,3.138538 -0.0407,3.680827 -1e-5,2.467445 0.0678,3.768952 0.20336,3.904525 -0.0678,0.677868 0.39993,1.226942 1.40319,1.647221 1.27438,0.542293 1.9997,0.901563 2.17596,1.077811 l -0.14236,0.528738 c -0.10847,0.04067 -0.54908,0.061 -1.32184,0.06101 -2.91484,-3e-6 -4.86032,0.108456 -5.83645,0.325377 -0.23048,0.08134 -0.61008,0.1898 -1.13882,0.325377 l -0.2237,-0.223697 0,-0.813442 c 0.84056,-0.47451 1.40319,-0.813444 1.6879,-1.016804 0.73209,-0.528738 1.15915,-1.016803 1.28117,-1.464196 0.36604,-1.315064 0.54907,-3.992643 0.54907,-8.032745 0,-1.125253 -0.0136,-2.616562 -0.0407,-4.473934 l -0.061,-3.497803 c 0,-0.257573 0.0271,-0.847318 0.0813,-1.769237 0.0542,-0.93544 0.0813,-1.538743 0.0813,-1.80991 0,-0.162668 -0.25082,-0.454151 -0.75243,-0.87445 -0.48807,-0.379586 -0.85412,-0.610061 -1.09815,-0.691427 -0.51518,-0.162666 -1.36252,-0.379584 -2.54201,-0.650754 l -0.16269,-0.77277 c 0.13558,-0.06776 0.29149,-0.101657 0.46773,-0.10168 0.16269,2.3e-5 0.57619,0.02036 1.2405,0.06101 0.66431,0.04069 1.09137,0.06103 1.28117,0.06101 0.0949,2.3e-5 0.90156,0.02036 2.41999,0.06101 0.89479,0.02714 1.67433,0.02036 2.33865,-0.02034 1.53198,2.006513 2.92161,4.318043 4.16889,6.934598 0.74565,1.640456 1.86413,4.101118 3.35545,7.381991 0.0949,0.216926 0.33892,0.704991 0.7321,1.464196 0.0678,-0.284697 0.0813,-0.677861 0.0407,-1.179492 -0.0407,-0.569401 -0.061,-0.955785 -0.061,-1.159155 -2e-5,-0.542285 0.0203,-1.735333 0.061,-3.579147 0.0406,-1.857346 0.061,-3.050394 0.061,-3.579147 -1e-5,-1.681097 -0.21693,-2.908038 -0.65075,-3.680828 -0.54231,-0.976109 -1.57267,-1.64042 -3.09108,-1.992934 l 0,-0.915123 4.94166,-0.02034 c 0.2169,2.3e-5 0.70497,-0.0881 1.4642,-0.264369 0.77275,-0.189779 1.27437,-0.284681 1.50487,-0.284704 l 0.44739,0.406721"
           id="path3199"
           style="font-size:32.53770065px;font-family:Folkard" /><path
           d="m 221.79889,60.194077 c -1e-5,3.17243 -1.38286,5.32805 -4.14855,6.466868 -1.05749,0.433836 -1.7218,0.650754 -1.99294,0.650754 l -3.45713,0 c -1.15238,0 -2.26408,-0.738876 -3.33511,-2.216631 -1.03036,-1.396406 -1.54554,-2.697913 -1.54554,-3.904524 0,-1.626877 0.39994,-3.043622 1.19982,-4.250237 0.79989,-1.206595 1.94548,-2.074266 3.4368,-2.603016 1.19304,-0.433823 2.12172,-0.650741 2.78604,-0.650754 1.78956,1.3e-5 3.40967,0.671103 4.86032,2.01327 1.46418,1.328633 2.19628,2.826722 2.19629,4.49427 m -3.25377,0.508401 c -1e-5,-1.369286 -0.36606,-2.650457 -1.09814,-3.843515 -0.84057,-1.342169 -1.9116,-2.013258 -3.2131,-2.013271 -1.15239,1.3e-5 -2.06751,0.759225 -2.74537,2.277639 -0.5423,1.206616 -0.81345,2.46745 -0.81344,3.782508 -1e-5,1.003251 0.12879,1.769242 0.38638,2.297975 0.40672,0.827003 0.90834,1.531986 1.50487,2.114951 0.74565,0.745657 1.4913,1.118484 2.23697,1.118483 0.0949,10e-7 0.29825,-0.01356 0.61008,-0.04067 0.31181,-0.04067 0.52195,-0.06101 0.63042,-0.06101 0.16268,1e-6 0.52195,-0.338933 1.07781,-1.016803 0.949,-1.152374 1.42351,-2.691135 1.42352,-4.616287"
           id="path3201"
           style="font-size:32.53770065px;font-family:Folkard" /><path
           d="m 280.41505,73.859911 c -5e-5,0.108453 -0.33898,0.169461 -1.0168,0.183025 -1.15242,0.04067 -2.21668,0.115231 -3.19276,0.223696 -0.67791,-0.122023 -1.41679,-0.203367 -2.21663,-0.244032 l -2.1963,-0.142353 c -4.93492,-0.501629 -9.06991,-1.945488 -12.405,-4.331581 -1.23374,-0.881231 -2.9013,-2.386098 -5.00267,-4.514606 -2.42679,-2.45388 -4.16213,-4.121436 -5.20603,-5.002672 -2.04718,-1.721777 -3.95877,-2.860596 -5.73477,-3.416458 -0.0813,0.271158 -0.12203,0.908354 -0.12202,1.91159 -1e-5,3.091087 0.27114,5.192478 0.81345,6.304179 0.29825,0.637199 2.0607,1.152378 5.28737,1.545541 l 0.0814,0.935459 c -0.16271,0.02711 -0.39318,0.04067 -0.69143,0.04067 -0.51519,0 -1.68791,-0.04067 -3.51814,-0.122016 -1.8167,-0.0949 -2.98941,-0.142353 -3.51814,-0.142353 -1.13882,0 -2.39288,0.0949 -3.76217,0.284705 -1.8438,0.271147 -2.99618,0.630417 -3.45713,1.077811 l -0.54907,0 c 0.31182,-0.582967 1.24727,-1.450638 2.80637,-2.603016 1.31506,-0.989686 2.06072,-2.053938 2.23697,-3.192761 0.12201,-0.813438 0.16268,-1.850576 0.12202,-3.111418 l -0.0813,-3.172426 c 0,-0.216907 0.0407,-0.684636 0.12202,-1.403188 0.0813,-0.732085 0.12201,-1.206593 0.12201,-1.423525 0,-1.803115 -0.0746,-3.084286 -0.22369,-3.843516 -0.29827,-1.464177 -0.9558,-2.467422 -1.9726,-3.009737 -0.13558,-0.108438 -0.3525,-0.284684 -0.65075,-0.528738 -0.2576,-0.162667 -0.67788,-0.35247 -1.26084,-0.569409 -0.56941,-0.230454 -0.97613,-0.494822 -1.22016,-0.793107 0.21691,-0.352469 0.44739,-0.528714 0.69142,-0.528737 0.28471,2.3e-5 0.91512,0.108482 1.89126,0.325377 0.97612,0.203383 1.61332,0.305063 1.91159,0.305041 0.20335,-0.05421 0.82021,-0.189781 1.85058,-0.406722 2.81992,-0.555829 5.11112,-0.833755 6.87359,-0.833778 0.14911,2.3e-5 0.42704,0.03392 0.83378,0.10168 0.42026,0.05425 0.65073,0.08137 0.69142,0.08134 2.603,0.203384 4.53492,0.596548 5.79578,1.179492 1.99291,0.921923 2.98938,2.474241 2.9894,4.656958 -2e-5,3.185998 -2.54881,5.626323 -7.64636,7.320983 1.2337,0.56942 2.42675,1.38964 3.57915,2.460664 0.3118,0.298269 1.36249,1.328629 3.15209,3.091081 0.63717,0.637201 1.77599,1.647224 3.41646,3.030074 1.898,1.59977 3.01648,2.447105 3.35545,2.542007 6.46683,3.497799 11.80165,5.246699 16.00448,5.246705 0.35244,-6e-6 0.69138,-0.01356 1.0168,-0.04067 l 0,0.528737 M 253.00204,51.408898 c -2e-5,-2.033589 -0.76601,-3.585907 -2.29798,-4.656959 -1.32863,-0.935437 -3.03008,-1.403166 -5.10435,-1.403188 -0.8948,2.2e-5 -1.48454,0.176268 -1.76924,0.528738 -0.0271,0.935479 -0.11524,2.081076 -0.26436,3.436794 -0.1627,1.640459 -0.24405,2.779277 -0.24404,3.416459 -1e-5,2.060733 1.3015,3.091093 3.90453,3.091081 1.70821,1.2e-5 3.09784,-0.39993 4.16889,-1.199827 1.07101,-0.813429 1.60653,-1.884461 1.60655,-3.213098"
           id="path3203"
           style="font-size:32.53770065px;font-family:Folkard" /><path
           d="m 274.92685,65.298429 c -0.47452,0.664312 -1.35574,1.186271 -2.64368,1.565877 -1.03037,0.298262 -2.07429,0.447393 -3.13176,0.447393 -1.61333,0 -3.13176,-0.657532 -4.55528,-1.972598 -1.42352,-1.32862 -2.13528,-2.772479 -2.13528,-4.331582 0,-4.880644 2.15562,-7.320969 6.46687,-7.320982 1.51841,1.3e-5 2.85381,0.589759 4.0062,1.769237 1.15237,1.179503 1.73533,2.542017 1.7489,4.087549 -0.48808,0.257598 -1.36253,0.386392 -2.62335,0.386385 -0.40673,7e-6 -1.32863,-0.04066 -2.7657,-0.122016 -1.42354,-0.09489 -2.33866,-0.142345 -2.74537,-0.142353 -0.29827,8e-6 -0.5423,0.07457 -0.7321,0.223697 -1e-5,1.708235 0.52195,3.165651 1.56588,4.372253 1.04391,1.206609 2.33186,1.809911 3.86385,1.80991 0.31181,1e-6 0.93545,-0.128794 1.87091,-0.386385 0.94901,-0.257588 1.55231,-0.386383 1.80991,-0.386385 m -3.23343,-6.995606 c -1e-5,-0.759203 -0.31183,-1.572645 -0.93546,-2.440328 -0.69143,-0.962561 -1.39642,-1.443847 -2.11495,-1.44386 -0.58297,1.3e-5 -1.21339,0.555865 -1.89125,1.667557 -0.62365,1.016814 -0.93547,1.843813 -0.93546,2.481 -1e-5,0.230484 0.0542,0.393172 0.16269,0.488065 0.33893,-0.02711 0.70498,-0.04066 1.09814,-0.04067 0.33893,9e-6 1.08459,0.02712 2.23697,0.08134 1.16593,0.05424 1.9048,0.08135 2.21663,0.08134 0.10845,-0.257582 0.16268,-0.549065 0.16269,-0.874451"
           id="path3205"
           style="font-size:32.53770065px;font-family:Folkard" /><path
           d="m 281.39626,49.375291 c 0,0.460969 -0.23726,0.949034 -0.71176,1.464197 -0.46095,0.501639 -0.91513,0.75245 -1.36251,0.752434 -0.50163,1.6e-5 -1.00325,-0.237238 -1.50487,-0.711762 -0.50163,-0.474491 -0.75244,-0.948999 -0.75244,-1.423524 0,-0.325359 0.3186,-0.745637 0.9558,-1.260836 0.63719,-0.528718 1.12526,-0.793087 1.46419,-0.793107 0.43383,2e-5 0.86089,0.223717 1.28118,0.67109 0.42027,0.433855 0.63041,0.867691 0.63041,1.301508 m 1.76924,17.8754 -0.10168,0.06101 c -0.39317,0 -1.2744,-0.08134 -2.64369,-0.244033 -1.3693,-0.162688 -2.2573,-0.244032 -2.66402,-0.244033 -0.827,10e-7 -1.38963,0.162689 -1.6879,0.488066 l -0.26436,-0.854115 1.85058,-0.833778 c 0.2847,-1.220161 0.42705,-3.172421 0.42706,-5.856786 -10e-6,-1.04391 -0.0542,-1.796343 -0.16269,-2.257303 -0.17625,-0.759203 -0.57619,-1.376063 -1.19983,-1.850582 l 0,-0.447394 c 2.25052,-0.637183 3.77572,-1.796338 4.57561,-3.477466 l 0.46773,0 0,0.813442 c 0,0.515195 -0.10168,1.220178 -0.30504,2.114951 -0.21692,1.016815 -0.34572,1.70824 -0.38638,2.074278 -0.10847,1.071042 -0.1627,2.331877 -0.16269,3.782508 -1e-5,1.098153 0.12201,2.24375 0.36605,3.436795 0.33893,1.735345 0.83377,2.603016 1.48453,2.603016 l -0.0203,0.10168 0.42706,0.589746"
           id="path3207"
           style="font-size:32.53770065px;font-family:Folkard" /><path
           d="m 301.4095,67.637076 c -0.55587,0 -1.8506,-0.05423 -3.88419,-0.162689 -2.02006,-0.108459 -3.32835,-0.162688 -3.92486,-0.162688 0.20335,-0.311819 0.67108,-0.711762 1.40319,-1.199828 1.85735,-1.274391 2.78603,-3.33511 2.78604,-6.182163 -10e-6,-1.24727 -0.39318,-2.209842 -1.17949,-2.887721 -0.78634,-0.677858 -1.88449,-1.016792 -3.29444,-1.016803 -1.30152,1.1e-5 -2.22342,0.277937 -2.76571,0.833779 -0.5423,0.542305 -0.81345,1.457426 -0.81344,2.745368 l 0,1.586213 c -1e-5,1.342185 0.14234,2.453889 0.42706,3.335114 0.28469,0.881232 0.79987,1.796354 1.54554,2.745369 -0.14914,0.176246 -0.34572,0.264368 -0.58975,0.264369 -0.2576,-1e-6 -0.82023,-0.122017 -1.68789,-0.36605 -0.86768,-0.257589 -1.43031,-0.386384 -1.6879,-0.386385 -0.40672,10e-7 -0.85411,0.05423 -1.34218,0.162689 -0.39316,0.0949 -0.90156,0.203361 -1.5252,0.325377 0.31182,-0.271147 0.63042,-0.549073 0.95579,-0.833779 0.51518,-0.623638 0.77277,-1.504866 0.77277,-2.643688 0,-0.108455 0.0542,-0.318594 0.16269,-0.630418 0.10846,-0.311815 0.16269,-0.515176 0.16269,-0.610082 l 0,-3.538475 c 0,-0.36604 -0.0678,-0.88122 -0.20336,-1.545541 -0.16269,-0.71853 -0.31182,-1.145587 -0.44739,-1.281171 -0.16269,0.01357 -0.36605,0.02035 -0.61008,0.02034 -0.47451,1.1e-5 -1.09815,-0.0271 -1.87092,-0.08134 0.0949,-0.230464 0.48806,-0.427045 1.17949,-0.589746 0,1.2e-5 0.43383,-0.08811 1.30151,-0.264368 0.4745,-0.189791 1.62688,-0.765979 3.45713,-1.728566 0.23047,0.325391 0.33893,1.138832 0.32538,2.440328 l 0.16268,0.142352 c 2.49455,-1.545528 4.50104,-2.318297 6.01948,-2.318311 2.86059,1.4e-5 4.29089,1.376086 4.29091,4.128221 -2e-5,1.355745 -0.52198,2.982629 -1.56588,4.880655 -1.0846,1.992937 -2.20986,3.26055 -3.37579,3.802844 l 0.0203,0.04067 c 0.67786,-0.06779 1.5862,-0.379606 2.72503,-0.935459 1.09813,-0.542293 1.93869,-1.077809 2.52168,-1.606549 0.12199,0.78633 0.30502,1.959042 0.54907,3.518139"
           id="path3209"
           style="font-size:32.53770065px;font-family:Folkard" /><path
           d="m 316.74289,60.194077 c -2e-5,3.17243 -1.38287,5.32805 -4.14856,6.466868 -1.05749,0.433836 -1.7218,0.650754 -1.99294,0.650754 l -3.45713,0 c -1.15238,0 -2.26408,-0.738876 -3.33511,-2.216631 -1.03036,-1.396406 -1.54554,-2.697913 -1.54554,-3.904524 0,-1.626877 0.39994,-3.043622 1.19983,-4.250237 0.79988,-1.206595 1.94548,-2.074266 3.43679,-2.603016 1.19304,-0.433823 2.12172,-0.650741 2.78604,-0.650754 1.78957,1.3e-5 3.40967,0.671103 4.86032,2.01327 1.46418,1.328633 2.19628,2.826722 2.1963,4.49427 m -3.25377,0.508401 c -2e-5,-1.369286 -0.36606,-2.650457 -1.09815,-3.843515 -0.84057,-1.342169 -1.9116,-2.013258 -3.2131,-2.013271 -1.15238,1.3e-5 -2.0675,0.759225 -2.74537,2.277639 -0.5423,1.206616 -0.81344,2.46745 -0.81344,3.782508 0,1.003251 0.12879,1.769242 0.38638,2.297975 0.40672,0.827003 0.90834,1.531986 1.50487,2.114951 0.74565,0.745657 1.49131,1.118484 2.23697,1.118483 0.0949,10e-7 0.29825,-0.01356 0.61008,-0.04067 0.31181,-0.04067 0.52195,-0.06101 0.63042,-0.06101 0.16268,1e-6 0.52195,-0.338933 1.07781,-1.016803 0.94901,-1.152374 1.42351,-2.691135 1.42353,-4.616287"
           id="path3211"
           style="font-size:32.53770065px;font-family:Folkard" /><path
           d="m 345.66839,68.511527 -0.5084,0 c -0.20338,-2e-6 -0.75245,-0.257591 -1.64722,-0.772771 -0.88124,-0.501623 -1.43032,-0.860893 -1.64722,-1.077811 -0.2576,-0.393163 -0.69822,-0.901564 -1.32185,-1.525205 -1.0846,1.45064 -2.39966,2.175959 -3.94519,2.175959 -0.17626,0 -0.50163,-0.04745 -0.97613,-0.142353 -0.47452,-0.0949 -0.766,-0.142352 -0.87445,-0.142352 -1.87093,-0.826999 -3.19277,-1.742121 -3.96554,-2.745368 -0.89478,-1.138816 -1.34218,-2.65724 -1.34218,-4.555279 0,-0.460942 0.16269,-1.172704 0.48807,-2.135286 0.33893,-0.962563 0.64397,-1.586202 0.91512,-1.870918 1.23372,-1.247266 2.68436,-1.870904 4.35192,-1.870918 1.23371,1.4e-5 2.33186,0.332169 3.29444,0.996467 0.36604,0.366062 0.6033,0.549086 0.71176,0.549074 0.12201,1.2e-5 0.1898,-0.02032 0.20336,-0.06101 0.14913,-2.426756 0.22369,-4.236664 0.2237,-5.429729 -10e-6,-1.667538 -0.10169,-2.643668 -0.30504,-2.928393 -0.28471,-0.433815 -1.17272,-0.650733 -2.66402,-0.650754 l -0.12202,-0.284705 3.59948,-1.2405 c 1.3964,-0.488042 2.51488,-1.098124 3.35545,-1.830245 l 0.42706,0 c -0.63721,3.158889 -0.94903,5.348403 -0.93546,6.568548 l 0.0203,12.120293 c -2e-5,3.145314 0.88799,5.429729 2.66402,6.853254 m -5.55174,-4.168893 c -10e-6,-0.257587 -0.0678,-0.610079 -0.20336,-1.057476 l -0.26437,-0.894786 c -0.0814,-0.664306 -0.12203,-2.209845 -0.12202,-4.636623 -10e-6,-0.650743 -0.21015,-1.220153 -0.63042,-1.708229 -0.42028,-0.488054 -0.92869,-0.732086 -1.5252,-0.732098 -0.12203,1.2e-5 -0.6711,0.169479 -1.64722,0.508401 -1.03037,0.366061 -1.80992,1.199838 -2.33865,2.501336 -0.46095,1.111713 -0.69143,2.284425 -0.69143,3.518139 0,1.138824 0.36605,2.155626 1.09815,3.050409 0.74565,0.881231 1.61332,1.321846 2.60302,1.321845 0.61007,10e-7 1.34217,-0.176245 2.19629,-0.528738 1.01679,-0.420277 1.5252,-0.86767 1.52521,-1.34218"
           id="path3213"
           style="font-size:32.53770065px;font-family:Folkard" /><path
           d="m 362.87016,67.210019 0,0.10168 -0.16269,0 c -0.21694,0 -0.68467,-0.03389 -1.40319,-0.10168 -0.705,-0.08134 -1.15917,-0.122017 -1.36252,-0.122017 l -1.97259,0 c -0.13559,0 -0.39996,0.04067 -0.79311,0.122017 -0.39318,0.06779 -0.63721,0.10168 -0.7321,0.10168 0.42027,-1.016802 0.78632,-2.386096 1.09815,-4.107885 0.32536,-1.721781 0.48805,-3.206312 0.48806,-4.453598 -10e-6,-1.260826 -0.29149,-1.891243 -0.87445,-1.891253 -0.0407,10e-6 -0.2576,0.0678 -0.65075,0.20336 -1.49132,0.08136 -2.63692,0.406731 -3.4368,0.976131 -0.79989,0.555861 -1.43708,1.477762 -1.91159,2.765705 -0.36605,1.003251 -0.54907,1.599775 -0.54907,1.789573 0,0.976135 0.61686,1.830249 1.85058,2.562344 1.09814,0.650756 2.21662,0.976132 3.35545,0.976131 0.20335,1e-6 0.3796,-0.0068 0.52874,-0.02034 l -0.36605,0.427058 0,-0.04067 c -0.97614,0.56941 -2.04039,0.854115 -3.19276,0.854115 -1.85737,0 -3.33512,-0.332155 -4.43326,-0.996467 -1.09815,-0.677867 -1.64722,-1.626882 -1.64722,-2.847049 0,-1.450634 0.68464,-2.677575 2.05394,-3.680827 0.89478,-0.650746 2.32508,-1.321836 4.29091,-2.01327 2.11494,-0.745646 3.39611,-1.254047 3.84351,-1.525205 0.17624,-0.108448 0.26436,-0.298251 0.26437,-0.56941 -10e-6,-0.284693 -0.12202,-0.562619 -0.36605,-0.833779 -0.24404,-0.284692 -0.50163,-0.427044 -0.77277,-0.427057 -0.84056,1.3e-5 -2.57591,0.42707 -5.20603,1.281172 -2.63013,0.840568 -4.3248,1.260846 -5.08401,1.260836 0.54229,-0.501612 1.3015,-1.308275 2.27764,-2.419991 0.25758,-0.447381 0.69142,-1.098134 1.3015,-1.952263 0.17625,0.216933 0.51518,0.535531 1.01681,0.955795 0.50161,0.257604 1.42351,0.386399 2.7657,0.386386 0.25758,1.3e-5 0.83377,-0.04066 1.72857,-0.122017 0.90833,-0.09489 1.4913,-0.142339 1.7489,-0.142352 0.90833,1.3e-5 1.80989,0.332169 2.70469,0.996467 0.89478,0.664323 1.38962,1.409978 1.48454,2.236967 0.0678,0.542305 0.13555,2.060729 0.20336,4.555278 0.0406,1.870922 0.23724,3.375789 0.58974,4.514606 0.23046,0.176247 0.61007,0.372829 1.13882,0.589746 -1e-5,0.05423 0.0271,0.162689 0.0813,0.325377 0.0678,0.149131 0.10166,0.244033 0.10168,0.284705"
           id="path3215"
           style="font-size:32.53770065px;font-family:Folkard" /><path
           d="m 377.2681,62.634404 c -2e-5,1.4642 -0.72534,2.643691 -2.17596,3.538475 -1.24729,0.759214 -2.65726,1.13882 -4.2299,1.13882 -0.24404,0 -2.78605,-0.122016 -7.62603,-0.366049 l 0,-0.488066 c 0.50162,-0.433834 0.93546,-1.084588 1.30151,-1.952262 0.1898,-0.474505 0.48806,-1.199823 0.89479,-2.175958 0.1898,-0.474503 0.48806,-0.942232 0.89478,-1.403189 0.20336,0.108465 0.30504,0.305047 0.30504,0.589746 0,0.09491 -0.0271,0.298268 -0.0813,0.610082 -0.0407,0.311824 -0.061,0.508406 -0.061,0.589746 0,2.453887 1.87091,3.680828 5.61276,3.680827 0.54228,10e-7 1.47096,-0.521957 2.78604,-1.565877 0.10844,-0.230472 0.30503,-0.596521 0.58974,-1.098147 -10e-6,-1.1117 -0.94225,-1.959035 -2.82671,-2.542008 -10e-6,6e-6 -1.38964,-0.413493 -4.16889,-1.2405 -1.47776,-0.596516 -2.21664,-1.50486 -2.21663,-2.725032 -1e-5,-1.152366 0.65075,-2.074267 1.95226,-2.765705 1.09814,-0.582954 2.25729,-0.874437 3.47746,-0.874451 0.17624,1.4e-5 0.54907,0.04069 1.11849,0.122017 0.58295,0.0678 0.949,0.101694 1.09815,0.10168 0.2169,1.4e-5 0.46771,-0.02032 0.75243,-0.06101 0.17623,-0.04066 0.52195,-0.108445 1.03714,-0.203361 -0.28472,0.325391 -0.42707,0.630431 -0.42706,0.915123 -1e-5,0.162701 0.0407,0.562644 0.12202,1.199828 0.0949,0.62365 0.14234,1.03715 0.14235,1.2405 l -0.71176,0 c -0.47452,-0.650743 -1.17273,-1.172702 -2.09462,-1.565877 -0.90835,-0.406709 -1.85736,-0.610069 -2.84704,-0.610082 -1.04393,1.3e-5 -1.56589,0.311832 -1.56588,0.935459 -1e-5,0.433847 0.44739,0.759224 1.34218,0.976131 0.69142,0.149142 1.72178,0.386395 3.09108,0.711762 3.00972,0.799894 4.51459,2.562351 4.51461,5.287376"
           id="path3217"
           style="font-size:32.53770065px;font-family:Folkard" /><path
           d="m 409.84646,44.006571 c -0.16271,0.352515 -0.50842,0.671113 -1.03714,0.955795 -0.59654,0.325399 -1.01004,0.637218 -1.2405,0.935459 -0.39318,0.542316 -0.6101,1.335421 -0.65075,2.379319 -0.0271,0.92192 -0.12204,2.87418 -0.28471,5.856786 -0.13559,2.413224 -0.20337,4.379041 -0.20336,5.897458 -1e-5,3.023299 0.26435,5.361944 0.79311,7.015942 0.2169,0.704983 0.92866,1.626884 2.13529,2.765705 l 0,0.711762 c -0.0543,-3e-6 -0.17627,0.01355 -0.36605,0.04067 -0.17627,0.04067 -0.29151,0.06101 -0.34572,0.06101 -0.18982,-3e-6 -0.41352,-0.05423 -0.67109,-0.162688 -0.43385,-0.176249 -0.67788,-0.264372 -0.73209,-0.264369 -2.53525,-3.497802 -4.56885,-6.629553 -6.10082,-9.395261 -0.36606,-0.650747 -1.04393,-2.047155 -2.03361,-4.189229 -0.82701,-1.830233 -1.58622,-3.179191 -2.27764,-4.046877 -0.29827,-1.125246 -0.88123,-2.304736 -1.7489,-3.538475 -0.0678,0.840575 -0.0881,1.877713 -0.061,3.111418 l 0.061,3.131754 c -10e-6,0.528749 -0.0203,1.75569 -0.061,3.680827 -0.0271,1.911596 -0.0407,3.138538 -0.0407,3.680827 -10e-6,2.467445 0.0678,3.768952 0.20336,3.904525 -0.0678,0.677868 0.39994,1.226942 1.40319,1.647221 1.27438,0.542293 1.9997,0.901563 2.17596,1.077811 l -0.14236,0.528738 c -0.10846,0.04067 -0.54908,0.061 -1.32184,0.06101 -2.91484,-3e-6 -4.86032,0.108456 -5.83645,0.325377 -0.23048,0.08134 -0.61008,0.1898 -1.13882,0.325377 l -0.2237,-0.223697 0,-0.813442 c 0.84056,-0.47451 1.40319,-0.813444 1.6879,-1.016804 0.73209,-0.528738 1.15915,-1.016803 1.28117,-1.464196 0.36604,-1.315064 0.54907,-3.992643 0.54907,-8.032745 0,-1.125253 -0.0136,-2.616562 -0.0407,-4.473934 l -0.061,-3.497803 c 0,-0.257573 0.0271,-0.847318 0.0814,-1.769237 0.0542,-0.93544 0.0813,-1.538743 0.0813,-1.80991 0,-0.162668 -0.25081,-0.454151 -0.75243,-0.87445 -0.48807,-0.379586 -0.85412,-0.610061 -1.09815,-0.691427 -0.51518,-0.162666 -1.36252,-0.379584 -2.54201,-0.650754 l -0.16269,-0.77277 c 0.13558,-0.06776 0.29149,-0.101657 0.46773,-0.10168 0.16269,2.3e-5 0.57619,0.02036 1.2405,0.06101 0.66431,0.04069 1.09137,0.06103 1.28117,0.06101 0.0949,2.3e-5 0.90157,0.02036 2.42,0.06101 0.89478,0.02714 1.67432,0.02036 2.33864,-0.02034 1.53198,2.006513 2.92161,4.318043 4.1689,6.934598 0.74564,1.640456 1.86412,4.101118 3.35545,7.381991 0.0949,0.216926 0.33892,0.704991 0.73209,1.464196 0.0678,-0.284697 0.0813,-0.677861 0.0407,-1.179492 -0.0407,-0.569401 -0.061,-0.955785 -0.061,-1.159155 -2e-5,-0.542285 0.0203,-1.735333 0.061,-3.579147 0.0406,-1.857346 0.061,-3.050394 0.061,-3.579147 -1e-5,-1.681097 -0.21693,-2.908038 -0.65075,-3.680828 -0.54231,-0.976109 -1.57267,-1.64042 -3.09108,-1.992934 l 0,-0.915123 4.94166,-0.02034 c 0.2169,2.3e-5 0.70497,-0.0881 1.4642,-0.264369 0.77275,-0.189779 1.27437,-0.284681 1.50487,-0.284704 l 0.44739,0.406721"
           id="path3219"
           style="font-size:32.53770065px;font-family:Folkard" /><path
           d="m 424.71466,60.194077 c -10e-6,3.17243 -1.38286,5.32805 -4.14855,6.466868 -1.05749,0.433836 -1.7218,0.650754 -1.99294,0.650754 l -3.45713,0 c -1.15238,0 -2.26408,-0.738876 -3.33511,-2.216631 -1.03036,-1.396406 -1.54554,-2.697913 -1.54554,-3.904524 0,-1.626877 0.39994,-3.043622 1.19983,-4.250237 0.79988,-1.206595 1.94548,-2.074266 3.43679,-2.603016 1.19304,-0.433823 2.12172,-0.650741 2.78604,-0.650754 1.78956,1.3e-5 3.40967,0.671103 4.86032,2.01327 1.46418,1.328633 2.19628,2.826722 2.19629,4.49427 m -3.25377,0.508401 c -1e-5,-1.369286 -0.36606,-2.650457 -1.09814,-3.843515 -0.84057,-1.342169 -1.9116,-2.013258 -3.2131,-2.013271 -1.15238,1.3e-5 -2.06751,0.759225 -2.74537,2.277639 -0.5423,1.206616 -0.81345,2.46745 -0.81344,3.782508 -1e-5,1.003251 0.12879,1.769242 0.38638,2.297975 0.40672,0.827003 0.90834,1.531986 1.50487,2.114951 0.74565,0.745657 1.49131,1.118484 2.23697,1.118483 0.0949,10e-7 0.29825,-0.01356 0.61008,-0.04067 0.31181,-0.04067 0.52195,-0.06101 0.63042,-0.06101 0.16268,1e-6 0.52195,-0.338933 1.07781,-1.016803 0.94901,-1.152374 1.42351,-2.691135 1.42352,-4.616287"
           id="path3221"
           style="font-size:32.53770065px;font-family:Folkard" /><path
           d="m 441.90118,59.726347 c -2e-5,1.776022 -0.39996,3.213103 -1.19983,4.311246 -0.81346,1.138821 -2.18275,2.135288 -4.10788,2.989401 -0.12203,0 -0.42029,0.04745 -0.89479,0.142352 -0.47452,0.0949 -0.79312,0.142353 -0.95579,0.142353 -1.57267,0 -2.90129,-0.725319 -3.98587,-2.175959 -0.20337,0.135576 -0.42707,0.37283 -0.67109,0.711762 -0.18981,0.244034 -0.39995,0.515182 -0.63042,0.813443 -0.37961,0.406721 -0.98291,0.813442 -1.80991,1.220164 -0.86767,0.420277 -1.53876,0.630416 -2.01327,0.630418 1.77601,-1.423525 2.66402,-3.70794 2.66402,-6.853254 l 0,-11.632228 c 0,-1.586194 -0.10168,-2.514873 -0.30504,-2.78604 -0.27115,-0.393144 -1.12526,-0.576168 -2.56234,-0.549074 l -0.16269,-0.325377 3.61982,-1.2405 c 1.40996,-0.488043 2.52167,-1.098124 3.33511,-1.830245 l 0.42706,0 c -0.13558,0.732121 -0.33894,1.830267 -0.61008,3.294442 -0.21693,1.193068 -0.32538,2.297993 -0.32538,3.314778 0,1.274409 0.0746,3.084317 0.2237,5.429729 l -0.0407,0 0.24403,0.06101 c 0.16268,1.2e-5 0.38638,-0.183012 0.67109,-0.549074 0.97612,-0.664298 2.08105,-0.996453 3.31478,-0.996467 1.66754,1.4e-5 3.12496,0.623652 4.37225,1.870918 0.27113,0.284716 0.5694,0.908355 0.89479,1.870918 0.33892,0.962582 0.50838,1.674344 0.5084,2.135286 m -3.29444,2.114951 c -2e-5,-1.287944 -0.22371,-2.467434 -0.67109,-3.538475 -0.43385,-1.08458 -1.19984,-1.9048 -2.29798,-2.460664 -0.70499,-0.35248 -1.26762,-0.528725 -1.68789,-0.528737 -0.33894,1.2e-5 -0.72533,0.149143 -1.15916,0.447393 -0.42028,0.284716 -0.69143,0.589757 -0.81344,0.915123 -0.0949,0.216928 -0.14236,0.908354 -0.14235,2.074278 -10e-6,1.572663 -0.061,2.786047 -0.18303,3.640156 -0.0136,0.02712 -0.0949,0.325381 -0.24403,0.894786 -0.12202,0.501627 -0.18303,0.854118 -0.18302,1.057476 -10e-6,0.47451 0.50839,0.921903 1.5252,1.34218 0.85411,0.352493 1.57943,0.528739 2.17596,0.528738 0.97612,10e-7 1.83023,-0.440614 2.56234,-1.321845 0.74565,-0.881226 1.11847,-1.898028 1.11849,-3.050409"
           id="path3223"
           style="font-size:32.53770065px;font-family:Folkard" /><path
           d="m 454.82221,56.797954 c -10e-6,0.745666 -0.2576,1.396419 -0.77277,1.952262 -0.51519,0.542303 -1.13205,0.813451 -1.85058,0.813443 -0.55586,8e-6 -0.93547,-0.061 -1.13882,-0.183025 -0.0678,-0.04066 -0.33216,-0.305032 -0.7931,-0.793106 l 0,-0.549074 0.30504,0.04067 c 0.25758,1e-5 0.48805,-0.09489 0.69142,-0.284705 0.20335,-0.20335 0.30503,-0.433826 0.30504,-0.691426 -1e-5,-0.501612 -0.19659,-0.92189 -0.58974,-1.260836 -0.39317,-0.338922 -0.85412,-0.508389 -1.38285,-0.508401 -1.61334,1.2e-5 -2.40644,1.423535 -2.37932,4.270573 0.0407,0.433843 0.061,1.030367 0.061,1.789574 0,1.152381 -0.0339,2.223413 -0.10168,3.213098 l 0.36605,0.264368 c -0.0271,0.366052 0.19658,0.7321 0.67109,1.098148 0.0542,0.02712 0.46773,0.291484 1.2405,0.793106 l 0,0.549074 c -0.32538,0.04067 -0.61686,0.06101 -0.87445,0.06101 -0.25759,0 -0.827,-0.04745 -1.70823,-0.142352 -0.88123,-0.0949 -1.43708,-0.142353 -1.66755,-0.142353 -0.75922,0 -1.60655,0.08812 -2.54201,0.264369 l 0,-0.630418 c 0.65075,-0.379605 1.08459,-0.813441 1.30151,-1.301508 0.14913,-0.352489 0.22369,-0.955792 0.22369,-1.80991 0,-0.501618 -0.0271,-1.592986 -0.0813,-3.274106 -0.0542,-1.694663 -0.0814,-2.786031 -0.0814,-3.274106 0,-1.653988 -0.5084,-2.467429 -1.5252,-2.440327 l 0,-1.179492 c 0.71854,0.352505 1.31506,0.528751 1.78957,0.528738 0.13557,1.3e-5 0.46773,-0.02032 0.99647,-0.06101 0.54229,-0.04066 0.89478,-0.06099 1.05748,-0.06101 0.43383,1.4e-5 1.08458,0.02035 1.95226,0.06101 -0.13558,0.12203 -0.27793,0.37962 -0.42706,0.772771 0.71853,-0.799872 1.80312,-1.199814 3.25377,-1.199828 0.98968,1.4e-5 1.85057,0.318612 2.58268,0.955795 0.74564,0.637209 1.11847,1.423536 1.11848,2.358983"
           id="path3225"
           style="font-size:32.53770065px;font-family:Folkard" /><path
           d="m 467.99235,65.298429 c -0.47452,0.664312 -1.35575,1.186271 -2.64369,1.565877 -1.03037,0.298262 -2.07428,0.447393 -3.13175,0.447393 -1.61333,0 -3.13176,-0.657532 -4.55528,-1.972598 -1.42352,-1.32862 -2.13528,-2.772479 -2.13528,-4.331582 0,-4.880644 2.15562,-7.320969 6.46686,-7.320982 1.51842,1.3e-5 2.85382,0.589759 4.00621,1.769237 1.15236,1.179503 1.73533,2.542017 1.7489,4.087549 -0.48808,0.257598 -1.36253,0.386392 -2.62335,0.386385 -0.40673,7e-6 -1.32863,-0.04066 -2.76571,-0.122016 -1.42353,-0.09489 -2.33865,-0.142345 -2.74537,-0.142353 -0.29826,8e-6 -0.54229,0.07457 -0.73209,0.223697 -10e-6,1.708235 0.52195,3.165651 1.56587,4.372253 1.04391,1.206609 2.33186,1.809911 3.86386,1.80991 0.31181,1e-6 0.93544,-0.128794 1.87091,-0.386385 0.94901,-0.257588 1.55231,-0.386383 1.80991,-0.386385 m -3.23343,-6.995606 c -10e-6,-0.759203 -0.31183,-1.572645 -0.93546,-2.440328 -0.69143,-0.962561 -1.39642,-1.443847 -2.11495,-1.44386 -0.58297,1.3e-5 -1.21339,0.555865 -1.89125,1.667557 -0.62365,1.016814 -0.93547,1.843813 -0.93546,2.481 -10e-6,0.230484 0.0542,0.393172 0.16269,0.488065 0.33893,-0.02711 0.70497,-0.04066 1.09814,-0.04067 0.33893,9e-6 1.08459,0.02712 2.23697,0.08134 1.16593,0.05424 1.9048,0.08135 2.21663,0.08134 0.10845,-0.257582 0.16268,-0.549065 0.16269,-0.874451"
           id="path3227"
           style="font-size:32.53770065px;font-family:Folkard" /><path
           d="m 482.69786,62.634404 c -10e-6,1.4642 -0.72533,2.643691 -2.17596,3.538475 -1.24729,0.759214 -2.65725,1.13882 -4.2299,1.13882 -0.24404,0 -2.78605,-0.122016 -7.62602,-0.366049 l 0,-0.488066 c 0.50162,-0.433834 0.93545,-1.084588 1.3015,-1.952262 0.18981,-0.474505 0.48807,-1.199823 0.89479,-2.175958 0.1898,-0.474503 0.48806,-0.942232 0.89479,-1.403189 0.20335,0.108465 0.30504,0.305047 0.30504,0.589746 0,0.09491 -0.0271,0.298268 -0.0813,0.610082 -0.0407,0.311824 -0.061,0.508406 -0.061,0.589746 -1e-5,2.453887 1.87091,3.680828 5.61275,3.680827 0.54228,10e-7 1.47096,-0.521957 2.78604,-1.565877 0.10845,-0.230472 0.30503,-0.596521 0.58975,-1.098147 -2e-5,-1.1117 -0.94225,-1.959035 -2.82672,-2.542008 -10e-6,6e-6 -1.38964,-0.413493 -4.16889,-1.2405 -1.47776,-0.596516 -2.21663,-1.50486 -2.21663,-2.725032 0,-1.152366 0.65075,-2.074267 1.95226,-2.765705 1.09814,-0.582954 2.2573,-0.874437 3.47747,-0.874451 0.17624,1.4e-5 0.54906,0.04069 1.11848,0.122017 0.58296,0.0678 0.94901,0.101694 1.09815,0.10168 0.21691,1.4e-5 0.46772,-0.02032 0.75243,-0.06101 0.17624,-0.04066 0.52195,-0.108445 1.03714,-0.203361 -0.28471,0.325391 -0.42707,0.630431 -0.42705,0.915123 -2e-5,0.162701 0.0407,0.562644 0.12201,1.199828 0.0949,0.62365 0.14234,1.03715 0.14235,1.2405 l -0.71176,0 c -0.47452,-0.650743 -1.17272,-1.172702 -2.09461,-1.565877 -0.90836,-0.406709 -1.85737,-0.610069 -2.84705,-0.610082 -1.04392,1.3e-5 -1.56588,0.311832 -1.56588,0.935459 0,0.433847 0.44739,0.759224 1.34218,0.976131 0.69142,0.149142 1.72178,0.386395 3.09108,0.711762 3.00973,0.799894 4.5146,2.562351 4.51461,5.287376"
           id="path3229"
           style="font-size:32.53770065px;font-family:Folkard" /><path
           d="m 528.98275,78.821911 c -4e-5,2.04715 -1.37611,3.707926 -4.12822,4.982335 -2.237,1.0439 -4.51464,1.565859 -6.83292,1.565877 l -1.99294,0 c -4.32481,-1.8e-5 -8.28356,-1.193066 -11.87626,-3.579147 -3.68761,-2.453897 -6.2025,-5.687328 -7.54468,-9.700302 -0.1898,-0.528742 -0.46095,-1.321848 -0.81344,-2.37932 -0.2847,-0.881231 -0.42706,-1.694672 -0.42706,-2.440327 0,-4.568831 1.54554,-9.049539 4.63663,-13.442138 3.09107,-4.392572 6.71766,-7.253175 10.87979,-8.581818 -0.1627,-0.04065 -0.34573,-0.06099 -0.54907,-0.06101 -2.03362,2.3e-5 -4.46039,0.420301 -7.28031,1.260836 l -7.09729,2.155623 c 0.16269,-0.284686 1.12526,-1.457398 2.88772,-3.518139 1.38285,-1.599746 2.17595,-2.745343 2.37932,-3.436794 l 0.65075,0 c 0.35249,1.789597 2.52167,2.684383 6.50754,2.68436 0.24402,2.3e-5 0.74565,0.03392 1.50487,0.10168 0.7592,0.06781 1.24727,0.101703 1.4642,0.10168 1.00323,2.3e-5 2.57588,-0.142329 4.71797,-0.427057 l 4.81964,-0.610082 c 0.16267,-0.02709 0.44059,0.08137 0.83378,0.325377 -0.0543,0.203384 -0.33218,0.386409 -0.83378,0.549074 -0.58299,0.189826 -0.99649,0.393186 -1.2405,0.610082 -0.4203,0.393186 -0.63044,1.016824 -0.63041,1.870918 -3e-5,0.311839 0.061,1.03038 0.18302,2.155622 0.12199,1.12528 0.183,1.84382 0.18303,2.155623 -3e-5,0.311835 -0.0407,1.003261 -0.12202,2.074278 -0.0678,1.071046 -0.10171,1.762471 -0.10168,2.074279 -3e-5,0.610093 0.0474,1.999723 0.14235,4.168893 0.0949,2.169185 0.14233,3.565594 0.14235,4.189229 -2e-5,0.555855 0.16267,1.193051 0.48807,1.91159 0.39314,0.867672 0.84053,1.281172 1.34218,1.240499 -0.0271,0.06779 -0.0407,0.122017 -0.0407,0.162689 -3e-5,0.04067 0.0135,0.06101 0.0407,0.06101 0.0678,0.04067 0.10165,0.108459 0.10168,0.203361 -0.0136,0.04067 -0.0475,0.06101 -0.10168,0.06101 -0.27117,0 -0.84736,-0.0949 -1.72857,-0.284705 -0.86769,-0.20336 -1.42354,-0.30504 -1.66755,-0.305041 -1.09817,10e-7 -3.27413,0.325377 -6.52788,0.976131 0.0813,-0.379606 0.38637,-0.657532 0.91512,-0.833778 0.70497,-0.25759 1.1388,-0.576188 1.30151,-0.955795 0.25757,-0.623638 0.52872,-2.284414 0.81344,-4.982336 0.25757,-2.53522 0.38637,-4.324792 0.38639,-5.36872 -2e-5,-0.759201 -1.03038,-1.138807 -3.09108,-1.13882 -0.56943,1.3e-5 -1.23374,0.01357 -1.99294,0.04067 -1.38286,0.04068 -3.03008,0.515193 -4.94166,1.423525 -2.03361,0.976141 -3.34868,2.006501 -3.9452,3.091081 -0.25759,0.501631 -0.56941,1.830252 -0.93546,3.985868 -0.35249,2.060724 -0.52874,3.457132 -0.52873,4.189229 -10e-6,4.365471 1.59976,8.303885 4.79931,11.815253 3.28087,3.619804 7.07693,5.429712 11.38819,5.429729 l 0.99647,0 c 2.19627,-1.7e-5 4.16209,-0.399959 5.89746,-1.199828 2.20982,-1.030375 3.31475,-2.508128 3.31478,-4.433262 -3e-5,-1.694681 -0.52877,-3.03686 -1.58622,-4.02654 -1.0575,-0.976138 -2.46069,-1.464203 -4.20956,-1.464197 -1.08462,-6e-6 -2.06752,0.33215 -2.94873,0.996467 -0.92192,0.691419 -1.38287,1.498082 -1.38285,2.419992 -2e-5,0.691416 0.27112,1.38962 0.81344,2.094614 0.55583,0.704972 1.13202,1.057463 1.72857,1.057476 0.86764,-1.3e-5 1.30148,-0.359283 1.3015,-1.077812 -2e-5,-0.298273 -0.43386,-0.718551 -1.3015,-1.260836 0.65073,-0.637206 1.20658,-0.955804 1.66755,-0.955795 0.32535,-9e-6 0.67785,0.189794 1.05748,0.56941 0.37958,0.379597 0.56938,0.732088 0.56941,1.057476 -3e-5,0.691414 -0.57622,1.281159 -1.72857,1.769237 -0.92192,0.393151 -1.78959,0.589733 -2.60301,0.589746 -1.1524,-1.3e-5 -2.25733,-0.305054 -3.31478,-0.915123 -1.26086,-0.718553 -1.89127,-1.599781 -1.89126,-2.643688 -10e-6,-1.301517 0.97612,-2.419999 2.9284,-3.355451 1.68109,-0.79989 3.24019,-1.199832 4.67729,-1.199827 2.10137,-5e-6 4.12141,0.542289 6.06015,1.626885 2.2776,1.274385 3.41642,2.867375 3.41646,4.778975 m -14.25558,-27.514694 0,-2.928393 c -2e-5,-0.582947 -0.38641,-1.592971 -1.15916,-3.030073 -1.92516,0.244054 -3.81642,1.098168 -5.67376,2.562344 -1.85737,1.450657 -3.3758,3.240229 -4.55528,5.368721 2.37253,-0.881215 3.85028,-1.409952 4.43326,-1.586213 1.69466,-0.515165 3.23342,-0.772754 4.61629,-0.772771 0.67785,1.7e-5 1.4574,0.128812 2.33865,0.386385"
           id="path3231"
           style="font-size:32.53770065px;font-family:Folkard" /><path
           d="m 535.46232,64.708683 -0.52874,0.874451 c -1.69468,1.152377 -3.30123,1.728565 -4.81964,1.728565 -2.16919,0 -4.00621,-0.691426 -5.51108,-2.074279 -1.50487,-1.396406 -2.2573,-3.145305 -2.2573,-5.246704 0,-2.047154 1.08459,-3.694373 3.25377,-4.941663 1.46419,-0.854102 2.77248,-1.281158 3.92486,-1.281172 0.23047,1.4e-5 0.69142,0.08136 1.38285,0.244033 0.70498,0.162701 1.15915,0.244046 1.36252,0.244033 0.29825,1.3e-5 0.73887,-0.18979 1.32184,-0.56941 l 0.75244,0 c -0.14915,0.366062 -0.22371,0.874463 -0.2237,1.525204 -10e-6,0.881241 0.0746,1.911601 0.2237,3.091082 -0.14915,0.108468 -0.37284,0.162697 -0.67109,0.162689 -0.18982,-1.043908 -0.74567,-1.884465 -1.66756,-2.521672 -0.90835,-0.637185 -1.93871,-0.955783 -3.09108,-0.955795 -1.0846,1.2e-5 -1.95227,0.671102 -2.60302,2.01327 -0.51518,1.071042 -0.77277,2.230196 -0.77277,3.477467 0,1.654005 0.54229,3.030077 1.62689,4.128221 1.08458,1.084591 2.4471,1.626886 4.08755,1.626885 0.74564,1e-6 1.47096,-0.169466 2.17596,-0.508402 0.44738,-0.230474 1.12524,-0.569408 2.0336,-1.016803"
           id="path3233"
           style="font-size:32.53770065px;font-family:Folkard" /><path
           d="m 550.60762,60.194077 c -10e-6,3.17243 -1.38286,5.32805 -4.14855,6.466868 -1.05749,0.433836 -1.7218,0.650754 -1.99294,0.650754 l -3.45713,0 c -1.15238,0 -2.26408,-0.738876 -3.33511,-2.216631 -1.03036,-1.396406 -1.54554,-2.697913 -1.54554,-3.904524 0,-1.626877 0.39994,-3.043622 1.19983,-4.250237 0.79988,-1.206595 1.94547,-2.074266 3.43679,-2.603016 1.19304,-0.433823 2.12172,-0.650741 2.78604,-0.650754 1.78956,1.3e-5 3.40967,0.671103 4.86032,2.01327 1.46418,1.328633 2.19628,2.826722 2.19629,4.49427 m -3.25377,0.508401 c -10e-6,-1.369286 -0.36606,-2.650457 -1.09814,-3.843515 -0.84057,-1.342169 -1.9116,-2.013258 -3.2131,-2.013271 -1.15238,1.3e-5 -2.06751,0.759225 -2.74537,2.277639 -0.5423,1.206616 -0.81345,2.46745 -0.81344,3.782508 -10e-6,1.003251 0.12879,1.769242 0.38638,2.297975 0.40672,0.827003 0.90834,1.531986 1.50487,2.114951 0.74565,0.745657 1.49131,1.118484 2.23697,1.118483 0.0949,10e-7 0.29825,-0.01356 0.61008,-0.04067 0.31181,-0.04067 0.52195,-0.06101 0.63042,-0.06101 0.16268,1e-6 0.52195,-0.338933 1.07781,-1.016803 0.949,-1.152374 1.42351,-2.691135 1.42352,-4.616287"
           id="path3235"
           style="font-size:32.53770065px;font-family:Folkard" /><path
           d="m 563.8896,65.298429 c -0.47452,0.664312 -1.35575,1.186271 -2.64369,1.565877 -1.03037,0.298262 -2.07428,0.447393 -3.13175,0.447393 -1.61333,0 -3.13176,-0.657532 -4.55528,-1.972598 -1.42353,-1.32862 -2.13529,-2.772479 -2.13529,-4.331582 0,-4.880644 2.15562,-7.320969 6.46687,-7.320982 1.51842,1.3e-5 2.85382,0.589759 4.00621,1.769237 1.15236,1.179503 1.73533,2.542017 1.7489,4.087549 -0.48808,0.257598 -1.36253,0.386392 -2.62335,0.386385 -0.40674,7e-6 -1.32864,-0.04066 -2.76571,-0.122016 -1.42353,-0.09489 -2.33865,-0.142345 -2.74537,-0.142353 -0.29826,8e-6 -0.5423,0.07457 -0.7321,0.223697 0,1.708235 0.52196,3.165651 1.56588,4.372253 1.04391,1.206609 2.33186,1.809911 3.86385,1.80991 0.31181,1e-6 0.93545,-0.128794 1.87092,-0.386385 0.949,-0.257588 1.55231,-0.386383 1.80991,-0.386385 m -3.23343,-6.995606 c -10e-6,-0.759203 -0.31183,-1.572645 -0.93546,-2.440328 -0.69144,-0.962561 -1.39642,-1.443847 -2.11495,-1.44386 -0.58298,1.3e-5 -1.21339,0.555865 -1.89126,1.667557 -0.62364,1.016814 -0.93546,1.843813 -0.93546,2.481 0,0.230484 0.0542,0.393172 0.16269,0.488065 0.33893,-0.02711 0.70498,-0.04066 1.09815,-0.04067 0.33893,9e-6 1.08458,0.02712 2.23697,0.08134 1.16592,0.05424 1.9048,0.08135 2.21663,0.08134 0.10845,-0.257582 0.16268,-0.549065 0.16269,-0.874451"
           id="path3237"
           style="font-size:32.53770065px;font-family:Folkard" /><path
           d="m 578.59511,62.634404 c -2e-5,1.4642 -0.72534,2.643691 -2.17596,3.538475 -1.24729,0.759214 -2.65726,1.13882 -4.2299,1.13882 -0.24404,0 -2.78605,-0.122016 -7.62603,-0.366049 l 0,-0.488066 c 0.50163,-0.433834 0.93546,-1.084588 1.30151,-1.952262 0.1898,-0.474505 0.48807,-1.199823 0.89479,-2.175958 0.1898,-0.474503 0.48806,-0.942232 0.89479,-1.403189 0.20335,0.108465 0.30503,0.305047 0.30504,0.589746 -10e-6,0.09491 -0.0271,0.298268 -0.0813,0.610082 -0.0407,0.311824 -0.061,0.508406 -0.061,0.589746 0,2.453887 1.87092,3.680828 5.61276,3.680827 0.54228,10e-7 1.47096,-0.521957 2.78604,-1.565877 0.10844,-0.230472 0.30503,-0.596521 0.58974,-1.098147 -1e-5,-1.1117 -0.94225,-1.959035 -2.82671,-2.542008 -10e-6,6e-6 -1.38964,-0.413493 -4.16889,-1.2405 -1.47776,-0.596516 -2.21664,-1.50486 -2.21663,-2.725032 -10e-6,-1.152366 0.65075,-2.074267 1.95226,-2.765705 1.09814,-0.582954 2.25729,-0.874437 3.47747,-0.874451 0.17623,1.4e-5 0.54906,0.04069 1.11848,0.122017 0.58296,0.0678 0.949,0.101694 1.09815,0.10168 0.2169,1.4e-5 0.46771,-0.02032 0.75243,-0.06101 0.17623,-0.04066 0.52195,-0.108445 1.03714,-0.203361 -0.28472,0.325391 -0.42707,0.630431 -0.42706,0.915123 -10e-6,0.162701 0.0407,0.562644 0.12202,1.199828 0.0949,0.62365 0.14234,1.03715 0.14235,1.2405 l -0.71176,0 c -0.47452,-0.650743 -1.17272,-1.172702 -2.09462,-1.565877 -0.90835,-0.406709 -1.85736,-0.610069 -2.84704,-0.610082 -1.04393,1.3e-5 -1.56589,0.311832 -1.56588,0.935459 -10e-6,0.433847 0.44739,0.759224 1.34218,0.976131 0.69142,0.149142 1.72178,0.386395 3.09108,0.711762 3.00973,0.799894 4.51459,2.562351 4.51461,5.287376"
           id="path3239"
           style="font-size:32.53770065px;font-family:Folkard" /></g><path
         d="m 540.96751,49.503 c 0.163,0.053 0.323,0.104 0.479,0.164 0.646,0.035 1.157,0.077 1.543,0.121 0.672,0.082 1.199,0.1 1.578,0.061 0.59,-0.064 1.367,-0.265 2.331,-0.605 0.252,-0.09 0.487,-0.219 0.715,-0.387 0.438,-0.327 0.759,-0.712 0.966,-1.157 -0.154,-0.143 -0.301,-0.292 -0.442,-0.442 -0.079,0.231 -0.279,0.468 -0.601,0.708 -0.577,0.429 -1.244,0.676 -1.995,0.74 -0.815,0.066 -2.172,-0.027 -4.063,-0.285 -0.65,-0.017 -1.389,0.024 -2.209,0.116 0.599,0.268 1.15,0.625 1.698,0.966 z"
         id="path51"
         style="stroke:#010001;stroke-width:0.5;stroke-miterlimit:10" /><path
         d="m 531.69551,73.342 c 0.523,0.067 0.8,0.064 0.836,-0.007 0.035,-0.091 -0.011,-0.186 -0.156,-0.285 -0.15,-0.02 -0.353,-0.088 -0.619,-0.207 -0.58,-0.262 -0.885,-0.977 -0.905,-2.145 -0.002,-0.279 0,-0.535 0.017,-0.773 l -0.907,-0.406 c -0.062,0.371 -0.106,0.783 -0.129,1.244 -0.062,1.301 0.217,2.09 0.834,2.369 0.165,0.072 0.507,0.144 1.029,0.21 z"
         id="path57"
         style="stroke:#010001;stroke-width:0.5;stroke-miterlimit:10" /><path
         d="m 160.48451,48.941 c -1.57,0.674 -2.739,2.172 -2.494,3.951 0.244,1.782 1.486,2.997 3.289,3.092 1.719,0.09 2.743,-1.648 2.384,-3.157 -0.371,-1.546 -2.503,-1.682 -3.431,-0.658 -0.608,0.675 0.387,1.675 0.998,0.999 0.737,-0.814 1.987,1.159 0.049,1.404 -0.664,0.086 -1.228,-0.38 -1.574,-0.884 -0.618,-0.9 -0.338,-2.058 0.339,-2.818 1.935,-2.174 4.903,-0.01 5.579,2.112 0.753,2.372 -0.878,4.467 -2.803,5.611 -1.95,1.163 -4.407,1.289 -6.61,1.458 -0.903,0.071 -0.909,1.484 0,1.414 4.24,-0.327 9.4,-1.149 10.805,-5.871 1.096,-3.684 -2.61,-8.34 -6.531,-6.653 z"
         id="path61" /><path
         d="m 160.48451,72.589 c -1.57,-0.676 -2.739,-2.173 -2.494,-3.951 0.244,-1.78 1.486,-2.996 3.289,-3.093 1.719,-0.089 2.743,1.647 2.384,3.157 -0.371,1.545 -2.503,1.682 -3.431,0.656 -0.608,-0.672 0.387,-1.674 0.998,-0.998 0.737,0.816 1.987,-1.154 0.049,-1.402 -0.664,-0.085 -1.228,0.379 -1.574,0.884 -0.618,0.897 -0.338,2.058 0.339,2.815 1.935,2.177 4.903,0.013 5.579,-2.107 0.753,-2.375 -0.878,-4.472 -2.803,-5.614 -1.95,-1.161 -4.407,-1.289 -6.61,-1.458 -0.903,-0.07 -0.909,-1.481 0,-1.414 4.24,0.329 9.4,1.151 10.805,5.874 1.096,3.681 -2.61,8.339 -6.531,6.651 z"
         id="path63" /><path
         d="m 141.79351,66.296 c -1.042,-0.683 -2.112,-0.32 -3.277,-0.279 -2.938,0.102 -5.675,-0.745 -8.045,-2.485 -0.462,-0.339 -0.911,0.021 -1,0.468 -0.071,0.218 -0.046,0.471 0.137,0.692 1.2,1.444 2.707,2.662 4.401,3.492 -0.542,-0.181 -1.074,-0.337 -1.584,-0.475 -3.642,-0.969 -8.731,-1.7 -10.146,-5.64 1.818,0.203 3.163,-2.104 2.207,-3.893 -1.517,-2.837 -5.187,-4.356 -8.207,-4.833 -0.888,-0.139 -1.295,1.214 -0.398,1.355 1.729,0.272 3.427,0.81 4.899,1.777 0.78,0.509 1.793,1.115 2.247,1.965 0.363,0.678 0.511,2.987 -0.988,2.079 -0.129,-0.077 -0.253,-0.106 -0.374,-0.103 -0.434,-0.205 -1.145,0.174 -1.048,0.831 0.752,5.072 6.18,6.563 10.418,7.574 2.586,0.615 5.158,1.383 7.022,3.379 1.101,1.176 1.675,2.996 0.893,4.484 -0.336,0.642 -1.03,0.992 -1.686,1.188 -0.397,0.095 -0.793,0.086 -1.185,-0.021 -1.208,-0.248 -1.95,-2.848 -0.067,-2.318 0.877,0.249 1.25,-1.115 0.375,-1.361 -3.22,-0.904 -3.993,3.842 -1.095,4.891 1.347,0.488 2.915,0.309 4.012,-0.676 1.379,-1.232 1.64,-2.904 1.209,-4.648 -0.577,-2.332 -2.521,-3.836 -4.674,-4.832 0.004,0.003 0.008,0.003 0.016,0.006 1.45,0.434 5.513,1.532 6.374,-0.442 0.334,-0.757 0.344,-1.661 -0.436,-2.175 z"
         id="path65" /><path
         d="m 141.79351,38.039 c -1.042,0.684 -2.112,0.319 -3.277,0.28 -2.938,-0.101 -5.675,0.464 -8.045,2.202 -0.462,0.341 -0.911,0.263 -1,-0.186 -0.071,-0.217 -0.046,-0.469 0.137,-0.69 1.2,-1.446 2.707,-2.663 4.401,-3.495 -0.542,0.183 -1.074,0.34 -1.584,0.475 -3.642,0.971 -8.731,1.702 -10.146,5.642 1.818,-0.203 3.163,2.104 2.207,3.894 -1.517,2.838 -5.187,4.354 -8.207,4.832 -0.888,0.139 -1.295,-1.213 -0.398,-1.355 1.729,-0.271 3.427,-0.809 4.899,-1.777 0.78,-0.509 1.793,-1.115 2.247,-1.964 0.363,-0.678 0.511,-2.989 -0.988,-2.08 -0.129,0.078 -0.253,0.105 -0.374,0.104 -0.434,0.202 -1.145,-0.176 -1.048,-0.831 0.752,-5.074 6.18,-6.565 10.418,-7.574 2.586,-0.615 5.158,-1.381 7.022,-3.381 1.101,-1.174 1.675,-2.997 0.893,-4.483 -0.336,-0.642 -1.03,-0.992 -1.686,-1.188 -0.397,-0.092 -0.793,-0.086 -1.185,0.022 -1.208,0.247 -1.95,2.846 -0.067,2.315 0.877,-0.248 1.25,1.116 0.375,1.361 -3.22,0.909 -3.993,-3.84 -1.095,-4.888 1.347,-0.486 2.915,-0.309 4.012,0.674 1.379,1.233 1.64,2.905 1.209,4.649 -0.577,2.331 -2.521,3.835 -4.674,4.832 0.004,-0.002 0.008,-0.004 0.016,-0.004 1.45,-0.436 5.513,-1.533 6.374,0.443 0.334,0.755 0.344,1.659 -0.436,2.171 z"
         id="path67" /><path
         d="m 169.62651,62.832 c 0,0.312 -0.253,0.564 -0.564,0.564 h -1.127 c -0.313,0 -0.567,-0.252 -0.567,-0.564 v -4.099 c 0,-0.313 0.254,-0.566 0.567,-0.566 h 1.127 c 0.311,0 0.564,0.253 0.564,0.566 v 4.099 z"
         id="path69" /><polygon
         points="428.716,393.85 437.091,396.391 428.716,398.932 "
         transform="translate(-257.86649,-335.608)"
         id="polygon71" /><path
         d="m 171.13251,60.076 h -22.3 c -0.292,0 -0.49,0.148 -0.594,0.344 -0.074,0.04 -0.146,0.091 -0.211,0.167 -5.355,6.193 -14.698,6.513 -20.483,0.736 -2.828,-2.822 -4.032,-6.916 -3.686,-10.835 0.338,-3.839 2.727,-7.208 5.887,-9.283 6.536,-4.298 15.839,-1.203 18.662,6.044 1.424,3.653 -0.042,8.15 -3.782,9.707 -3.295,1.37 -7.63,-0.79 -7.966,-4.448 -0.29,-3.145 2.348,-5.965 5.526,-5.394 2.341,0.422 3.621,2.346 3.672,4.363 -0.014,-0.462 -1.241,-0.859 -1.586,-0.937 -0.766,-0.17 -1.594,-0.1 -2.298,0.26 -0.928,0.471 -1.596,1.452 -1.609,2.492 -0.019,1.149 0.775,2.24 1.843,2.669 1.065,0.43 2.337,0.229 3.28,-0.429 1.125,-0.789 1.765,-2.143 1.83,-3.5 0.092,-1.874 -0.809,-3.914 -2.257,-5.113 -1.668,-1.381 -4.158,-1.727 -6.124,-0.796 -2.01,0.953 -3.294,2.867 -3.614,5.06 -0.062,0.438 -0.089,0.88 -0.074,1.325 0.094,2.893 2.349,5.031 4.947,5.906 2.882,0.969 5.94,-0.103 7.94,-2.276 2.201,-2.392 2.665,-5.77 1.787,-8.806 -1.819,-6.306 -9.051,-10.399 -15.395,-9.406 -4.56,0.713 -8.514,3.616 -10.663,7.688 -2.267,4.298 -1.811,9.594 0.474,13.773 2.251,4.119 6.814,6.996 11.451,7.479 4.997,0.521 9.956,-1.486 13.236,-5.277 0.027,-0.032 0.047,-0.065 0.069,-0.099 h 22.039 c 0.91,-0.001 0.91,-1.414 -0.001,-1.414 z"
         id="path73" /><path
         d="m 123.48851,53.305 c 0,0.415 -0.281,0.75 -0.627,0.75 h -5.545 c -0.346,0 -0.627,-0.335 -0.627,-0.75 v -2.379 c 0,-0.415 0.281,-0.751 0.627,-0.751 h 5.545 c 0.346,0 0.627,0.336 0.627,0.751 v 2.379 z"
         id="path75" /><path
         d="m 604.77751,48.941 c 1.572,0.674 2.733,2.172 2.491,3.951 -0.245,1.782 -1.486,2.997 -3.287,3.092 -1.72,0.09 -2.744,-1.648 -2.379,-3.157 0.369,-1.546 2.499,-1.682 3.423,-0.658 0.611,0.675 -0.386,1.675 -0.998,0.999 -0.734,-0.814 -1.982,1.159 -0.046,1.404 0.663,0.086 1.228,-0.38 1.573,-0.884 0.615,-0.9 0.338,-2.058 -0.337,-2.818 -1.937,-2.174 -4.905,-0.01 -5.581,2.112 -0.753,2.372 0.879,4.467 2.802,5.611 1.949,1.163 4.409,1.289 6.612,1.458 0.901,0.071 0.907,1.484 0,1.414 -4.242,-0.327 -9.399,-1.149 -10.807,-5.871 -1.092,-3.684 2.608,-8.34 6.534,-6.653 z"
         id="path77" /><path
         d="m 604.77751,72.589 c 1.572,-0.676 2.733,-2.173 2.491,-3.951 -0.245,-1.78 -1.486,-2.996 -3.287,-3.093 -1.72,-0.089 -2.744,1.647 -2.379,3.157 0.369,1.545 2.499,1.682 3.423,0.656 0.611,-0.672 -0.386,-1.674 -0.998,-0.998 -0.734,0.816 -1.982,-1.154 -0.046,-1.402 0.663,-0.085 1.228,0.379 1.573,0.884 0.615,0.897 0.338,2.058 -0.337,2.815 -1.937,2.177 -4.905,0.013 -5.581,-2.107 -0.753,-2.375 0.879,-4.472 2.802,-5.614 1.949,-1.161 4.409,-1.289 6.612,-1.458 0.901,-0.07 0.907,-1.481 0,-1.414 -4.242,0.329 -9.399,1.151 -10.807,5.874 -1.092,3.681 2.608,8.339 6.534,6.651 z"
         id="path79" /><path
         d="m 623.46751,66.296 c 1.04,-0.683 2.112,-0.32 3.277,-0.279 2.936,0.102 5.675,-0.745 8.043,-2.485 0.463,-0.339 0.913,0.021 0.997,0.468 0.074,0.218 0.052,0.471 -0.132,0.692 -1.198,1.444 -2.71,2.662 -4.401,3.492 0.543,-0.181 1.074,-0.337 1.583,-0.475 3.644,-0.969 8.735,-1.7 10.148,-5.64 -1.815,0.203 -3.165,-2.104 -2.208,-3.893 1.516,-2.837 5.189,-4.356 8.208,-4.833 0.886,-0.139 1.295,1.214 0.396,1.355 -1.729,0.272 -3.426,0.81 -4.897,1.777 -0.775,0.509 -1.795,1.115 -2.247,1.965 -0.36,0.678 -0.509,2.987 0.99,2.079 0.125,-0.077 0.25,-0.106 0.364,-0.103 0.442,-0.205 1.153,0.174 1.056,0.831 -0.755,5.072 -6.18,6.563 -10.418,7.574 -2.589,0.615 -5.155,1.383 -7.021,3.379 -1.105,1.176 -1.677,2.996 -0.896,4.484 0.338,0.642 1.032,0.992 1.687,1.188 0.394,0.095 0.794,0.086 1.19,-0.021 1.205,-0.248 1.947,-2.848 0.062,-2.318 -0.882,0.249 -1.249,-1.115 -0.38,-1.361 3.224,-0.904 3.992,3.842 1.102,4.891 -1.346,0.488 -2.919,0.309 -4.014,-0.676 -1.38,-1.232 -1.643,-2.904 -1.211,-4.648 0.575,-2.332 2.524,-3.836 4.674,-4.832 -0.004,0.003 -0.008,0.003 -0.013,0.006 -1.451,0.434 -5.515,1.532 -6.377,-0.442 -0.332,-0.757 -0.342,-1.661 0.438,-2.175 z"
         id="path81" /><path
         d="m 623.46751,38.039 c 1.04,0.684 2.112,0.319 3.277,0.28 2.936,-0.101 5.675,0.464 8.043,2.202 0.463,0.341 0.913,0.263 0.997,-0.186 0.074,-0.217 0.052,-0.469 -0.132,-0.69 -1.198,-1.446 -2.71,-2.663 -4.401,-3.495 0.543,0.183 1.074,0.34 1.583,0.475 3.644,0.971 8.735,1.702 10.148,5.642 -1.815,-0.203 -3.165,2.104 -2.208,3.894 1.516,2.838 5.189,4.354 8.208,4.832 0.886,0.139 1.295,-1.213 0.396,-1.355 -1.729,-0.271 -3.426,-0.809 -4.897,-1.777 -0.775,-0.509 -1.795,-1.115 -2.247,-1.964 -0.36,-0.678 -0.509,-2.989 0.99,-2.08 0.125,0.078 0.25,0.105 0.364,0.104 0.442,0.202 1.153,-0.176 1.056,-0.831 -0.755,-5.074 -6.18,-6.565 -10.418,-7.574 -2.589,-0.615 -5.155,-1.381 -7.021,-3.381 -1.105,-1.174 -1.677,-2.997 -0.896,-4.483 0.338,-0.642 1.032,-0.992 1.687,-1.188 0.394,-0.092 0.794,-0.086 1.19,0.022 1.205,0.247 1.947,2.846 0.062,2.315 -0.882,-0.248 -1.249,1.116 -0.38,1.361 3.224,0.909 3.992,-3.84 1.102,-4.888 -1.346,-0.486 -2.919,-0.309 -4.014,0.674 -1.38,1.233 -1.643,2.905 -1.211,4.649 0.575,2.331 2.524,3.835 4.674,4.832 -0.004,-0.002 -0.008,-0.004 -0.013,-0.004 -1.451,-0.436 -5.515,-1.533 -6.377,0.443 -0.332,0.755 -0.342,1.659 0.438,2.171 z"
         id="path83" /><path
         d="m 595.63551,62.832 c 0,0.312 0.25,0.564 0.562,0.564 h 1.13 c 0.313,0 0.563,-0.252 0.563,-0.564 v -4.099 c 0,-0.313 -0.25,-0.566 -0.563,-0.566 h -1.13 c -0.312,0 -0.562,0.253 -0.562,0.566 v 4.099 z"
         id="path85" /><polygon
         points="852.276,393.85 843.903,396.391 852.276,398.932 "
         transform="translate(-257.86649,-335.608)"
         id="polygon87" /><path
         d="m 594.12851,60.076 h 22.299 c 0.294,0 0.489,0.148 0.594,0.344 0.075,0.04 0.148,0.091 0.213,0.167 5.352,6.193 14.695,6.513 20.48,0.736 2.832,-2.822 4.032,-6.916 3.688,-10.835 -0.34,-3.839 -2.731,-7.208 -5.892,-9.283 -6.533,-4.298 -15.832,-1.203 -18.657,6.044 -1.422,3.653 0.042,8.15 3.778,9.707 3.298,1.37 7.63,-0.79 7.972,-4.448 0.286,-3.145 -2.35,-5.965 -5.528,-5.394 -2.34,0.422 -3.621,2.346 -3.668,4.363 0.011,-0.462 1.234,-0.859 1.578,-0.937 0.768,-0.17 1.594,-0.1 2.303,0.26 0.923,0.471 1.597,1.452 1.611,2.492 0.017,1.149 -0.775,2.24 -1.842,2.669 -1.068,0.43 -2.336,0.229 -3.283,-0.429 -1.128,-0.789 -1.766,-2.143 -1.832,-3.5 -0.09,-1.874 0.807,-3.914 2.256,-5.113 1.672,-1.381 4.161,-1.727 6.123,-0.796 2.014,0.953 3.294,2.867 3.615,5.06 0.064,0.438 0.089,0.88 0.076,1.325 -0.098,2.893 -2.352,5.031 -4.949,5.906 -2.881,0.969 -5.936,-0.103 -7.94,-2.276 -2.2,-2.392 -2.665,-5.77 -1.785,-8.806 1.82,-6.306 9.055,-10.399 15.398,-9.406 4.56,0.713 8.515,3.616 10.662,7.688 2.269,4.298 1.81,9.594 -0.474,13.773 -2.256,4.119 -6.815,6.996 -11.454,7.479 -4.995,0.521 -9.957,-1.486 -13.236,-5.277 -0.028,-0.032 -0.048,-0.065 -0.068,-0.099 h -22.038 c -0.912,-0.001 -0.912,-1.414 0,-1.414 z"
         id="path89" /><path
         d="m 641.77051,53.305 c 0,0.415 0.283,0.75 0.627,0.75 h 5.546 c 0.351,0 0.63,-0.335 0.63,-0.75 v -2.379 c 0,-0.415 -0.279,-0.751 -0.63,-0.751 h -5.546 c -0.344,0 -0.627,0.336 -0.627,0.751 v 2.379 z"
         id="path91" /></g></g></svg>