<?xml version="1.0" encoding="UTF-8" standalone="no"?>
<!-- Generator: Adobe Illustrator 16.0.4, SVG Export Plug-In . SVG Version: 6.00 Build 0)  -->

<svg
   xmlns:dc="http://purl.org/dc/elements/1.1/"
   xmlns:cc="http://creativecommons.org/ns#"
   xmlns:rdf="http://www.w3.org/1999/02/22-rdf-syntax-ns#"
   xmlns:svg="http://www.w3.org/2000/svg"
   xmlns="http://www.w3.org/2000/svg"
   xmlns:sodipodi="http://sodipodi.sourceforge.net/DTD/sodipodi-0.dtd"
   xmlns:inkscape="http://www.inkscape.org/namespaces/inkscape"
   version="1.1"
   id="Layer_1"
   x="0px"
   y="0px"
   width="212.23297"
   height="20.146685"
   viewBox="0 0 212.23297 20.146685"
   enable-background="new 0 0 1280 800"
   xml:space="preserve"
   inkscape:version="0.48.5 r10040"
   sodipodi:docname="vspace.svg"><metadata
     id="metadata33"><rdf:RDF><cc:Work
         rdf:about=""><dc:format>image/svg+xml</dc:format><dc:type
           rdf:resource="http://purl.org/dc/dcmitype/StillImage" /><dc:title></dc:title></cc:Work></rdf:RDF></metadata><defs
     id="defs31" /><sodipodi:namedview
     pagecolor="#ffffff"
     bordercolor="#666666"
     borderopacity="1"
     objecttolerance="10"
     gridtolerance="10"
     guidetolerance="10"
     inkscape:pageopacity="0"
     inkscape:pageshadow="2"
     inkscape:window-width="640"
     inkscape:window-height="480"
     id="namedview29"
     showgrid="false"
     fit-margin-top="0"
     fit-margin-left="0"
     fit-margin-right="0"
     fit-margin-bottom="0"
     inkscape:zoom="0.2328125"
     inkscape:cx="105.30298"
     inkscape:cy="10.248688"
     inkscape:window-x="0"
     inkscape:window-y="0"
     inkscape:window-maximized="0"
     inkscape:current-layer="Layer_1" /><g
     id="g3"
     transform="translate(-534.69702,-390.102)"><line
       stroke-miterlimit="10"
       x1="536.19702"
       y1="400.17599"
       x2="745.42999"
       y2="400.17599"
       id="line5"
       style="fill:#ffffff;stroke:#010001;stroke-width:3;stroke-linecap:round;stroke-miterlimit:10" /><path
       d="m 615.356,399.768 c 2.684,-2.274 4.73,-5.005 6.129,-8.15 0.196,-0.438 0.609,-0.492 0.957,-0.334 0.062,0.019 0.125,0.044 0.19,0.077 1.441,0.788 2.339,2.229 2.37,3.8 1.47,1.181 3.247,1.842 5.184,1.917 0.106,0.006 0.198,0.03 0.28,0.058 0.375,0.043 0.718,0.291 0.718,0.755 v 1.58 c 0,1.017 -1.662,1.017 -1.662,0 v -0.858 c -2.226,-0.217 -4.24,-1.072 -5.923,-2.514 -0.227,-0.194 -0.29,-0.422 -0.252,-0.636 -0.002,-0.032 -0.008,-0.064 -0.008,-0.1 0.024,-0.808 -0.273,-1.543 -0.825,-2.099 -1.437,2.906 -3.449,5.475 -5.982,7.624 -0.797,0.674 -1.977,-0.439 -1.176,-1.12 z"
       id="path7"
       inkscape:connector-curvature="0"
       style="fill:#ffffff" /><path
       d="m 615.356,400.582 c 2.684,2.274 4.73,5.005 6.129,8.151 0.196,0.438 0.609,0.491 0.957,0.333 0.062,-0.019 0.125,-0.042 0.19,-0.078 1.441,-0.784 2.339,-2.229 2.37,-3.799 1.47,-1.18 3.247,-1.842 5.184,-1.917 0.106,-0.005 0.198,-0.027 0.28,-0.058 0.375,-0.041 0.718,-0.293 0.718,-0.755 v -1.579 c 0,-1.019 -1.662,-1.019 -1.662,0 v 0.859 c -2.226,0.217 -4.24,1.07 -5.923,2.514 -0.227,0.193 -0.29,0.421 -0.252,0.633 -0.002,0.033 -0.008,0.064 -0.008,0.102 0.024,0.807 -0.273,1.543 -0.825,2.1 -1.437,-2.908 -3.449,-5.477 -5.982,-7.624 -0.797,-0.675 -1.977,0.439 -1.176,1.118 z"
       id="path9"
       inkscape:connector-curvature="0"
       style="fill:#ffffff" /><path
       d="m 666.271,399.768 c -2.685,-2.274 -4.729,-5.005 -6.129,-8.15 -0.194,-0.438 -0.611,-0.492 -0.958,-0.334 -0.062,0.019 -0.125,0.044 -0.188,0.077 -1.442,0.788 -2.341,2.229 -2.37,3.8 -1.473,1.181 -3.248,1.842 -5.186,1.917 -0.105,0.006 -0.196,0.03 -0.28,0.058 -0.374,0.043 -0.718,0.291 -0.718,0.755 v 1.58 c 0,1.017 1.662,1.017 1.662,0 v -0.858 c 2.227,-0.217 4.242,-1.072 5.925,-2.514 0.228,-0.194 0.288,-0.422 0.251,-0.636 0.004,-0.032 0.008,-0.064 0.008,-0.1 -0.023,-0.808 0.273,-1.543 0.827,-2.099 1.435,2.906 3.448,5.475 5.979,7.624 0.797,0.674 1.978,-0.439 1.177,-1.12 z"
       id="path11"
       inkscape:connector-curvature="0"
       style="fill:#ffffff" /><path
       d="m 666.271,400.582 c -2.685,2.274 -4.729,5.005 -6.129,8.151 -0.194,0.438 -0.611,0.491 -0.958,0.333 -0.062,-0.019 -0.125,-0.042 -0.188,-0.078 -1.442,-0.784 -2.341,-2.229 -2.37,-3.799 -1.473,-1.18 -3.248,-1.842 -5.186,-1.917 -0.105,-0.005 -0.196,-0.027 -0.28,-0.058 -0.374,-0.041 -0.718,-0.293 -0.718,-0.755 v -1.579 c 0,-1.019 1.662,-1.019 1.662,0 v 0.859 c 2.227,0.217 4.242,1.07 5.925,2.514 0.228,0.193 0.288,0.421 0.251,0.633 0.004,0.033 0.008,0.064 0.008,0.102 -0.023,0.807 0.273,1.543 0.827,2.1 1.435,-2.908 3.448,-5.477 5.979,-7.624 0.797,-0.675 1.978,0.439 1.177,1.118 z"
       id="path13"
       inkscape:connector-curvature="0"
       style="fill:#ffffff" /><polygon
       stroke-miterlimit="10"
       points="652.223,400.176 640.813,395.39 629.403,400.176 640.813,404.961 "
       id="polygon15"
       style="fill:#ffffff;stroke:#020002;stroke-width:3;stroke-miterlimit:10" /><ellipse
       stroke-miterlimit="10"
       cx="592.22803"
       cy="400.17599"
       rx="2.882"
       ry="2.7360001"
       id="ellipse17"
       sodipodi:cx="592.22803"
       sodipodi:cy="400.17599"
       sodipodi:rx="2.882"
       sodipodi:ry="2.7360001"
       style="fill:#ffffff;stroke:#010001;stroke-width:3;stroke-miterlimit:10"
       d="m 595.11003,400.17599 c 0,1.51106 -1.29032,2.736 -2.882,2.736 -1.59169,0 -2.882,-1.22494 -2.882,-2.736 0,-1.51105 1.29031,-2.736 2.882,-2.736 1.59168,0 2.882,1.22495 2.882,2.736 z" /><ellipse
       stroke-miterlimit="10"
       cx="689.39801"
       cy="400.17599"
       rx="2.881"
       ry="2.7360001"
       id="ellipse19"
       sodipodi:cx="689.39801"
       sodipodi:cy="400.17599"
       sodipodi:rx="2.881"
       sodipodi:ry="2.7360001"
       style="fill:#ffffff;stroke:#010001;stroke-width:3;stroke-miterlimit:10"
       d="m 692.27901,400.17599 c 0,1.51106 -1.28987,2.736 -2.881,2.736 -1.59113,0 -2.881,-1.22494 -2.881,-2.736 0,-1.51105 1.28987,-2.736 2.881,-2.736 1.59113,0 2.881,1.22495 2.881,2.736 z" /><path
       d="m 628.389,393.399 c -1.811,0.076 -2.513,-1.903 -0.987,-2.782 1.774,-1.02 5.021,-0.342 6.737,0.457 2.092,0.974 3.721,2.513 4.738,4.507 0.064,0.126 0.071,0.249 0.043,0.357 0.082,0.536 -0.85,0.739 -1.094,0.166 -0.692,-1.638 -2.928,-2.337 -4.609,-2.635 -1.663,-0.294 -3.168,-0.138 -4.828,-0.07 z"
       id="path21"
       inkscape:connector-curvature="0"
       style="fill:#ffffff" /><path
       d="m 653.238,393.399 c 1.809,0.076 2.512,-1.903 0.984,-2.782 -1.771,-1.02 -5.02,-0.342 -6.734,0.457 -2.094,0.974 -3.721,2.513 -4.738,4.507 -0.064,0.126 -0.072,0.249 -0.043,0.357 -0.082,0.536 0.85,0.739 1.092,0.166 0.693,-1.638 2.929,-2.337 4.61,-2.635 1.663,-0.294 3.167,-0.138 4.829,-0.07 z"
       id="path23"
       inkscape:connector-curvature="0"
       style="fill:#ffffff" /><path
       d="m 628.389,406.951 c -1.811,-0.072 -2.513,1.904 -0.987,2.782 1.774,1.021 5.021,0.343 6.737,-0.457 2.092,-0.974 3.721,-2.511 4.738,-4.505 0.064,-0.128 0.071,-0.251 0.044,-0.359 0.081,-0.535 -0.851,-0.739 -1.095,-0.163 -0.692,1.634 -2.928,2.335 -4.609,2.634 -1.663,0.292 -3.168,0.137 -4.828,0.068 z"
       id="path25"
       inkscape:connector-curvature="0"
       style="fill:#ffffff" /><path
       d="m 653.238,406.951 c 1.809,-0.072 2.512,1.904 0.984,2.782 -1.771,1.021 -5.02,0.343 -6.734,-0.457 -2.094,-0.974 -3.721,-2.511 -4.738,-4.505 -0.064,-0.128 -0.072,-0.251 -0.043,-0.359 -0.082,-0.535 0.85,-0.739 1.092,-0.163 0.693,1.634 2.929,2.335 4.61,2.634 1.663,0.292 3.167,0.137 4.829,0.068 z"
       id="path27"
       inkscape:connector-curvature="0"
       style="fill:#ffffff" /></g></svg>